<?xml version="1.0" encoding="utf-8" ?>
<svg baseProfile="full" height="300mm" version="1.1" viewBox="0,0,200,300" width="200mm" xmlns="http://www.w3.org/2000/svg" xmlns:ev="http://www.w3.org/2001/xml-events" xmlns:xlink="http://www.w3.org/1999/xlink"><defs /><rect fill="#222222" height="300" width="200" x="0" y="0" /><text fill="#FFFFFF" style="font-size:12px; font-family:Arial; font-weight:bold;" x="10" y="20">Over 1km Runs</text><text fill="#FFFFFF" style="font-size:4px; font-family:Arial" x="10" y="280">ATHLETE</text><text fill="#FFFFFF" style="font-size:9px; font-family:Arial" x="10" y="290">InzamZ</text><text fill="#FFFFFF" style="font-size:4px; font-family:Arial" x="120" y="280">STATISTICS</text><text fill="#FFFFFF" style="font-size:3px; font-family:Arial" x="120" y="285">Number: 8</text><text fill="#FFFFFF" style="font-size:3px; font-family:Arial" x="120" y="290">Weekly: 1.6</text><text fill="#FFFFFF" style="font-size:3px; font-family:Arial" x="141" y="285">Total: 30.9 km</text><text fill="#FFFFFF" style="font-size:3px; font-family:Arial" x="141" y="290">Avg: 3.9 km</text><text fill="#FFFFFF" style="font-size:3px; font-family:Arial" x="167" y="285">Min: 1.9 km</text><text fill="#FFFFFF" style="font-size:3px; font-family:Arial" x="167" y="290">Max: 8.3 km</text><polyline fill="none" points="30.121406667865813,87.0 27.81212511099875,84.61328104464337 27.555538270622492,84.91162102180533 25.7594303926453,81.62987957126461 25.502843553200364,78.64647500775754 29.09505930915475,78.04979372443631 33.97020926512778,81.33153925440274 39.615119740366936,83.71826092735864 45.51661705505103,82.22656011255458 50.64835384953767,78.94481560355052 52.95763540826738,72.97799782804213 53.47080908808857,66.41448400425725 52.70104856882244,63.13272148510441 52.70104856882244,44.6354446541518 49.62200649082661,38.96690056333318 47.825898612849414,36.878486772533506 45.26003021467477,35.38676170888357 42.18098813761026,34.79007146693766 38.58877238072455,34.49172629928216 32.43068822659552,37.47517658188008 30.891167188063264,40.45862377458252 30.121406667865813,43.74041211837903 30.121406667865813,50.30397759284824 29.864819828420877,53.28741150256246 28.58188563026488,55.67415640526451 28.83847246877849,58.95592741924338 28.068711950443685,65.51945823361166 28.068711950443685,68.20453471131623 27.81212511099875,71.4862914539408 28.32529878988862,74.17136237118393 30.63458034861833,80.4365181166213 33.457035585306585,82.22656011255458 39.35853289999068,84.31494103581645 42.950748656876385,84.01660099695437 45.51661705505103,83.12158069410361 48.59565913211554,81.03319890564308 50.904940688982606,78.64647500775754 52.18787488806993,75.66306735621765 53.727395926602185,68.80121803306974 52.95763540826738,65.22111624875106 53.727395926602185,43.44206787832081 52.70104856882244,40.45862377458252 50.904940688982606,38.071866266895086 48.33907229267061,35.983451827196404 45.51661705505103,34.79007146693766 39.615119740366936,34.19338110135868 33.97020926512778,35.983451827196404 31.404340867884457,38.3702110638842 31.660927707329392,41.05531284236349 30.63458034861833,43.44206787832081 30.121406667865813,46.723852823488414 30.63458034861833,49.707290440332144 29.864819828420877,52.69072496704757 29.60823298804462,55.972499378724024 28.32529878988862,61.64101001387462 27.555538270622492,67.60785126592964 27.555538270622492,73.57468016189523 28.58188563026488,76.55808997596614 32.43068822659552,80.4365181166213 34.739969783462584,81.92821985716 37.30583818256855,82.82324053090997 43.20733549725264,82.82324053090997 46.0297907339409,81.92821985716 50.64835384953767,78.34813438192941 53.727395926602185,73.27633901010267 53.98398276697844,61.64101001387462 53.727395926602185,55.67415640526451 53.98398276697844,46.425508892396465 53.47080908808857,43.44206787832081 52.18787488806993,41.05531284236349 47.825898612849414,36.580141820944846 45.26003021467477,35.08841660292819 39.10194605961442,34.19338110135868 36.53607766330242,34.79007146693766 33.71362242568284,35.983451827196404 31.404340867884457,37.77352143987082 29.60823298804462,40.160279193427414 28.068711950443685,46.723852823488414 28.83847246877849,49.707290440332144 28.83847246877849,55.67415640526451 29.351646149531007,58.35924205835909 27.81212511099875,63.72940585762262 26.785777751356363,70.29292579763569 30.121406667865813,78.64647500775754 32.174101387150586,81.33153925440274 34.22679610457271,83.12158069410361 37.56242502108216,84.01660099695437 40.898053938522935,84.01660099695437 46.54296441283077,83.12158069410361 48.59565913211554,81.03319890564308 51.161527529358864,79.83983720396645 53.727395926602185,74.76804445777088 54.2405696073547,71.4862914539408 53.727395926602185,68.20453471131623 54.2405696073547,64.92277423106134 54.49715644586831,59.25427005300298 53.98398276697844,56.569185234140605 54.2405696073547,53.58575472328812 53.47080908808857,44.33710050676018 50.391767010092735,38.3702110638842 42.69416181743145,33.59669061284512 36.53607766330242,34.49172629928216 33.97020926512778,35.38676170888357 30.121406667865813,39.56358994101174 28.58188563026488,44.93378877127543 27.81212511099875,57.4642137857154 28.068711950443685,60.745982759865 26.785777751356363,63.72940585762262 28.068711950443685,66.11614211113192 28.32529878988862,68.80121803306974 27.555538270622492,71.78463279036805 28.068711950443685,75.06638545496389 29.60823298804462,77.1547715680208 32.174101387150586,79.24315616767853 37.56242502108216,81.92821985716 42.950748656876385,82.82324053090997 48.33907229267061,80.4365181166213 50.64835384953767,78.34813438192941 53.47080908808857,72.97799782804213 54.49715644586831,61.64101001387462 54.2405696073547,58.65758475405164 53.47080908808857,55.972499378724024 53.727395926602185,44.33710050676018 52.70104856882244,41.65200178697705 50.64835384953767,39.56358994101174 46.286377573385835,35.68510678317398 43.463922335766256,34.79007146693766 34.99655662383884,36.580141820944846 32.43068822659552,38.668555828975514 29.351646149531007,44.93378877127543 28.58188563026488,58.35924205835909 28.83847246877849,64.62443218450062 29.60823298804462,67.90619300422259 28.32529878988862,70.88960868725553 28.83847246877849,74.76804445777088 30.121406667865813,77.4531123181805 34.48338294401765,81.62987957126461 37.30583818256855,82.82324053090997 40.38488025870174,82.82324053090997 46.54296441283077,81.03319890564308 51.161527529358864,76.25974913313985 52.95763540826738,73.27633901010267 53.727395926602185,60.745982759865 53.47080908808857,44.93378877127543 50.904940688982606,38.96690056333318 48.85224597156048,37.17683169222437 43.463922335766256,33.59669061284512 40.64146709814668,33.0 34.48338294401765,34.19338110135868 30.891167188063264,39.26524526835419 28.32529878988862,45.82882093661465 28.068711950443685,51.49735152744688 26.785777751356363,54.480784201063216 27.81212511099875,57.76255657384172 26.785777751356363,67.60785126592964 27.04236459173262,70.29292579763569 26.785777751356363,73.27633901010267" stroke="#4dd2ff" stroke-linecap="round" stroke-linejoin="round" stroke-width="0.5"><title>2023-03-12 2.9km</title></polyline><polyline fill="none" points="151.17598177865148,80.16004638839513 155.51058722101152,81.24003995815292 159.84519266150892,80.88004213850945 163.56056875549257,79.08005248242989 166.3471008259803,76.92006366536953 168.51440354809165,73.6800779227633 169.75286224484444,70.08009022520855 170.06247691996396,62.880103644449264 169.44324757158756,59.64010481815785 169.13363289646804,42.00005824305117 167.8951741978526,38.76003996049985 165.7278714776039,35.88002117210999 162.63172473199666,34.08000822016038 159.22596331313252,33.0 155.51058722101152,33.0 152.4144404772669,34.44001088500954 149.00867905654013,36.96002849750221 146.84137633629143,39.480044283671305 145.602917637676,42.72006189613603 144.0548442658037,69.72009124956094 144.0548442658037,77.28006189432926 145.91253231279552,80.52004428207874 148.07983503490686,83.04002849571407 152.1048258021474,85.20001351134852 156.43943124450743,85.92000821838155 163.56056875549257,83.04002849571407 166.03748615272343,80.88004213850945 167.8951741978526,78.00005824165419 169.13363289646804,74.40007501537912 168.82401822134852,42.72006189613603 167.58555952459574,38.400037741987035 164.799027454108,35.52001865650527 162.01249538362026,33.360002777772024 158.29711929149926,33.0 153.6528991740197,33.0 150.24713775515556,35.16001610364765 147.46060568466783,38.04003548622131 145.29330296441913,41.64005636097863 144.67407361604273,45.240073507418856 144.9836882892996,62.880103644449264 146.22214698791504,67.20009738067165 145.602917637676,71.52008575107902 145.602917637676,75.84006875287741 146.5317616611719,79.44005048833787 149.00867905654013,82.68003086326644 152.72405515052378,84.48001865507104 156.43943124450743,85.20001351134852 160.4644220136106,84.8400161024183 163.8701834306121,83.40002609184012 166.65671550109982,80.52004428207874 169.44324757158756,76.20006709452718 168.82401822134852,61.440104538341984 169.44324757158756,41.64005636097863 168.51440354809165,38.400037741987035 166.03748615272343,35.52001865650527 162.32211006060243,33.72000551712699 158.91634863987565,33.0 155.51058722101152,33.0 151.79521112702787,34.8000135126058 148.69906438328326,36.60002609342337 146.5317616611719,39.480044283671305 146.22214698791504,43.08006366714835 160.15480733662844,40.92005248530768 173.4682383388281,37.68003319459967 176.87399975769222,37.68003319459967 173.77785301208496,38.76003996049985 170.68170626834035,40.56005049054511 167.58555952459574,40.200048458529636 162.32211006060243,35.16001610364765 159.22596331313252,33.72000551712699 155.82020189613104,33.72000551712699 149.62790840677917,35.88002117210999 147.15099101141095,38.04003548622131 144.0548442658037,44.880071961088106 144.67407361604273,48.480085753137246 144.67407361604273,52.44009661790915 145.602917637676,55.68010215414688 146.22214698791504,77.28006189432926 147.77022035978734,80.52004428207874 150.24713775515556,82.68003086326644 156.43943124450743,85.56001088418998 159.5355779901147,84.8400161024183 164.799027454108,80.88004213850945 167.27594484947622,74.76007350580767 167.58555952459574,63.96010258095339 167.27594484947622,60.720104762585834 167.8951741978526,57.12010364397429 168.82401822134852,46.320077925454825 167.8951741978526,42.72006189613603 163.2509540822357,37.68003319459967 159.22596331313252,36.24002365232445 154.89135787263513,35.88002117210999 151.17598177865148,36.96002849750221 148.07983503490686,39.120042141061276 145.602917637676,42.36006008880213 144.67407361604273,46.6800793223083 144.9836882892996,54.60010064416565 144.0548442658037,57.840104166418314 143.74522959254682,72.9600806820672 144.9836882892996,80.16004638839513 147.15099101141095,83.04002849571407 149.93752308003604,85.20001351134852 153.9625138491392,86.28000551578589 158.29711929149926,86.64000277640298 162.32211006060243,85.20001351134852 165.10864212922752,83.04002849571407 167.27594484947622,80.16004638839513 168.82401822134852,76.92006366536953 169.44324757158756,72.9600806820672 168.82401822134852,68.6400941007305 169.13363289646804,49.56008916348219 167.8951741978526,41.28005444188602 165.7278714776039,37.68003319459967 162.94133940711617,35.52001865650527 156.1298165693879,33.360002777772024 149.00867905654013,34.8000135126058 145.91253231279552,37.320030864095315 144.0548442658037,40.92005248530768 143.12600024230778,44.5200703763403 143.12600024230778,56.400102972984314 143.74522959254682,67.56009661825374 143.4356149174273,75.84006875287741 147.15099101141095,82.68003086326644 149.93752308003604,85.56001088418998 153.6528991740197,87.0 161.08365136012435,85.20001351134852 164.48941277898848,83.04002849571407 168.51440354809165,77.28006189432926 168.82401822134852,66.48009879840538" stroke="#4dd2ff" stroke-linecap="round" stroke-linejoin="round" stroke-width="0.5"><title>2023-03-10 2.4km</title></polyline><polyline fill="none" points="54.70211617555469,102.26633935119025 49.48080388922244,96.19529257435352 43.16026796307415,93.31952940602787 36.56492612697184,93.95858811936341 32.992449298501015,95.87576346611604 30.79400202073157,97.7929376210086 28.5955547420308,100.66869662050158 26.397107462398708,106.73973459750414 27.221525192260742,109.93501294590533 25.297883823513985,127.50898472033441 26.67191337235272,135.1775955853518 27.49633110128343,137.7337949727662 28.870360650122166,140.60951675125398 31.068807929754257,142.846187394578 33.81686702836305,144.44380828924477 36.83973203599453,145.72190440888517 43.16026796307415,145.72190440888517 46.18313297070563,144.44380828924477 49.205997980199754,142.20713880471885 52.503668896853924,136.77522045047954 53.60289253760129,123.35514587839134 53.60289253760129,106.10067853075452 53.05328071769327,102.58586779842153 51.12963934894651,99.71011058543809 48.10677434038371,97.7929376210086 46.18313297070563,94.91717594210058 38.76337340660393,94.27811742690392 32.992449298501015,96.51482165022753 30.79400202073157,98.43199540791102 28.5955547420308,101.94681087136269 27.771137012168765,105.46162233268842 27.221525192260742,114.40839707478881 27.221525192260742,124.31372456881218 27.771137012168765,135.1775955853518 28.5955547420308,138.37284448812716 32.442837479524314,143.16571163921617 37.9389556767419,145.72190440888517 41.23662659432739,146.36095227161422 45.083909331820905,145.72190440888517 50.30522161908448,142.52666311571375 53.32808662671596,137.41427016467787 53.87769844662398,134.21902026887983 53.60289253760129,127.82851055334322 54.15250435657799,110.25454059848562 53.32808662671596,103.86398125533015 52.503668896853924,100.98822523327544 50.30522161908448,98.11246653157286 45.358715240843594,95.23670514975674 41.51143250335008,93.63905877945945 34.36647884733975,95.23670514975674 29.6947783799842,99.71011058543809 28.870360650122166,102.58586779842153 27.49633110128343,105.7811504479032 25.847495642490685,121.43798760371283 26.397107462398708,124.63325073290616 25.847495642490685,133.89949509804137 28.045942921191454,139.65094312280416 29.969584290869534,142.52666311571375 32.442837479524314,144.44380828924477 35.465702487155795,145.72190440888517 38.4885674957186,146.36095227161422 42.0610443232581,146.0414283568971 48.65638615936041,143.4852358510252 52.77847480773926,138.05331974686123 53.87769844662398,134.8580705130007 54.42731026746333,128.14803635375574 53.87769844662398,121.75751406583004 54.42731026746333,108.65690200263634 54.15250435657799,105.46162233268842 53.32808662671596,102.58586779842153 51.67925116792321,99.71011058543809 49.48080388922244,97.15387970232405 46.45793888159096,95.55623432481661 43.70987978205085,94.59764670068398 37.38934385497123,94.91717594210058 34.36647884733975,96.19529257435352 31.89322565961629,97.7929376210086 28.045942921191454,103.86398125533015 27.221525192260742,110.25454059848562 27.49633110128343,113.4498153065797 26.67191337235272,117.28414059057832 26.397107462398708,124.63325073290616 26.397107462398708,131.66281797131523 27.221525192260742,134.53854540758766 29.6947783799842,140.28999224188738 35.190896577201784,145.08285641483963 38.4885674957186,146.0414283568971 45.083909331820905,145.08285641483963 48.10677434038371,143.4852358510252 50.85483343806118,141.56809008284472 52.77847480773926,139.01189387170598 54.42731026746333,132.94091938459314 54.70211617555469,109.93501294590533 54.42731026746333,104.18350953632034 53.60289253760129,100.98822523327544 51.4044452579692,98.75152425142005 48.65638615936041,96.51482165022753 42.33585023321211,94.27811742690392 35.74050839710981,95.55623432481661 33.26725520938635,97.15387970232405 30.79400202073157,99.71011058543809 28.870360650122166,102.26633935119025 27.49633110128343,108.97642978816293 27.221525192260742,115.04745142091997 26.397107462398708,118.56224795966409 26.397107462398708,125.9113550586626 25.572689732536674,129.10661355615593 25.847495642490685,132.6213940808084 27.221525192260742,139.3314185142517 28.5955547420308,141.88761445973068 30.79400202073157,144.12428417685442 33.81686702836305,145.72190440888517 36.83973203599453,146.36095227161422 40.412208864465356,147.0 43.70987978205085,146.36095227161422 46.73274479061365,145.08285641483963 51.12963934894651,140.28999224188738 53.05328071769327,137.41427016467787 53.60289253760129,134.53854540758766 53.05328071769327,131.3432925355155 53.87769844662398,114.72792426380329 53.60289253760129,111.21312335785478 54.42731026746333,108.01784633402713 52.503668896853924,101.30775381298736 50.58002752996981,98.11246653157286 47.8319684304297,95.87576346611604 44.534297512844205,94.27811742690392 41.23662659432739,93.31952940602787 35.190896577201784,94.59764670068398 29.6947783799842,99.39058184088208 28.320748831145465,101.94681087136269 27.221525192260742,105.7811504479032 27.221525192260742,116.64508670708165 26.397107462398708,128.14803635375574 28.320748831145465,138.37284448812716 29.41997247096151,141.56809008284472 31.34361383970827,143.8047600304708 34.64128475822508,145.72190440888517 38.21376158576459,146.36095227161422 41.23662659432739,146.36095227161422 44.534297512844205,145.72190440888517 47.557162520475686,144.12428417685442 50.30522161908448,141.88761445973068 53.60289253760129,136.45569554297253 54.42731026746333,132.6213940808084 53.87769844662398,118.24272116669454 54.15250435657799,105.14209418278188 51.4044452579692,99.07105306372978 49.205997980199754,96.8343506923411 43.70987978205085,94.27811742690392 36.83973203599453,94.91717594210058 33.81686702836305,96.8343506923411 29.41997247096151,100.98822523327544 27.771137012168765,104.18350953632034 26.397107462398708,110.89359580492601 26.67191337235272,123.67467214120552 25.847495642490685,127.18945885449648 26.12230155337602,134.21902026887983 28.5955547420308,140.92904122848995 30.519196109846234,143.4852358510252 33.54206111840904,145.08285641483963 36.83973203599453,146.36095227161422 40.137402954511344,146.36095227161422 43.16026796307415,146.0414283568971 46.45793888159096,145.08285641483963 48.93119207024574,143.16571163921617 51.12963934894651,140.60951675125398 53.32808662671596,135.1775955853518 53.87769844662398,128.78708785469644 54.42731026746333,115.04745142091997 53.87769844662398,111.5326508784201 53.87769844662398,108.3373741847463 51.67925116792321,101.62728235917166 50.03041570819914,98.75152425142005 47.282356611453,95.87576346611604 43.98468569200486,94.59764670068398 40.96182068437338,94.27811742690392 34.91609066724777,95.55623432481661 31.89322565961629,97.7929376210086 28.045942921191454,102.58586779842153 27.221525192260742,105.46162233268842 25.572689732536674,129.4261392231565 27.221525192260742,139.970467699226 31.61841974966228,144.76333236834034 37.38934385497123,147.0 44.534297512844205,146.6804761523381 47.282356611453,145.08285641483963 49.755609799176455,142.846187394578 53.60289253760129,137.09474532376043 53.87769844662398,133.5799698936753 52.77847480773926,130.70424156286754 53.87769844662398,127.18945885449648 53.60289253760129,123.99419837188907 54.70211617555469,113.76934259594418 53.87769844662398,104.18350953632034 50.30522161908448,97.7929376210086 47.557162520475686,95.55623432481661 41.78623841423541,93.0 38.76337340660393,93.0 35.465702487155795,94.59764670068398 32.992449298501015,96.51482165022753 28.870360650122166,101.30775381298736 27.221525192260742,104.82256600004621 26.94671928230673,108.01784633402713 26.397107462398708,115.04745142091997 26.67191337235272,118.56224795966409 26.12230155337602,128.78708785469644 25.572689732536674,132.30186874372885 26.94671928230673,138.05331974686123 28.5955547420308,140.92904122848995 31.068807929754257,143.4852358510252 34.09167293738574,144.76333236834034" stroke="#4dd2ff" stroke-linecap="round" stroke-linejoin="round" stroke-width="0.5"><title>2022-11-10 4.1km</title></polyline><polyline fill="none" points="173.8776941364631,106.4202065821737 173.32808248791844,102.58586779981852 172.22885918896645,99.71011058543809 169.7556067686528,96.83435069350526 163.9846844561398,93.63905877992511 160.41220873687416,93.0 156.5649271942675,94.27811742736958 150.7940048808232,98.75152425281703 148.59555828385055,101.62728235893883 147.77114081010222,105.1420941830147 146.94672333821654,116.3255597166717 146.94672333821654,136.1361706033349 147.77114081010222,139.33141851355322 149.41997575759888,141.5680900819134 152.4428398264572,144.1242841759231 155.46570389624685,145.72190440865234 159.03817961458117,146.04142835573293 162.61065533291548,145.72190440865234 166.1831310512498,144.76333236834034 169.20599512010813,142.20713880378753 171.40444171521813,139.33141851355322 172.77847083844244,136.45569554297253 173.8776941364631,129.74566485802643 174.15249996166676,106.10067853145301 173.32808248791844,102.90539621282369 171.95405336469412,100.02963929832913 166.73274269979447,94.27811742736958 160.13740291260183,93.63905877992511 156.5649271942675,94.27811742736958 153.26725730113685,95.8757634672802 151.06881070509553,97.79293762193993 149.14516993332654,100.3491679765284 146.94672333821654,107.0592625818681 146.94672333821654,120.4794080206193 145.84750004019588,126.86993295536377 146.39711168874055,130.70424156356603 146.39711168874055,133.8994950975757 148.59555828385055,140.60951675125398 152.99245147686452,145.08285641553812 156.01531554572284,146.04142835573293 159.31298543978482,146.68047615140676 166.1831310512498,144.44380828831345 171.12963589187711,139.33141851355322 172.77847083844244,135.8166456304025 173.8776941364631,132.62139408127405 173.32808248791844,124.95277686417103 174.15249996166676,118.56224795919843 173.32808248791844,111.85217836685479 173.8776941364631,105.78115044813603 173.32808248791844,102.26633935282007 171.40444171521813,99.07105306396261 165.08390775229782,93.9585881207604 161.78623785916716,93.0 159.03817961458117,93.0 155.7405097214505,93.9585881207604 152.71764565166086,95.55623432504945 150.51919905655086,98.11246653250419 148.59555828385055,101.30775381345302 147.22152916248888,108.0178463337943 147.22152916248888,121.43798760417849 147.77114081010222,127.82851055450737 146.94672333821654,135.17759558488615 148.0459466362372,138.6923691967968 149.96958740707487,141.5680900819134 155.19089807197452,145.08285641553812 158.48856796696782,145.72190440865234 164.53429610468447,145.08285641553812 167.5571601735428,143.80476003023796 169.7556067686528,141.24856567196548 172.5036650141701,136.1361706033349 173.32808248791844,132.9409193843603 173.05327666271478,127.18945885449648 173.8776941364631,117.92319434089586 173.32808248791844,104.50303778634407 169.7556067686528,98.75152425281703 167.00754852499813,96.51482165162452 163.4350728057325,95.23670515068807 156.5649271942675,94.91717594233342 153.81686894968152,96.19529257551767 151.06881070509553,99.07105306396261 148.8703641090542,101.94681087252684 147.22152916248888,105.46162233245559 146.6719175139442,108.65690200356767 146.94672333821654,111.85217836685479 146.12230586446822,114.72792426473461 146.94672333821654,133.8994950975757 148.0459466362372,137.09474532376043 151.06881070509553,142.52666311571375 156.01531554572284,146.04142835573293 159.31298543978482,146.36095227045007 162.88546115718782,146.04142835573293 166.1831310512498,144.76333236834034 169.20599512010813,142.84618739341386 171.12963589187711,140.28999224188738 173.60288831219077,133.8994950975757 174.42730578500777,120.79893458122388 174.15249996166676,103.544452941278 172.5036650141701,100.02963929832913 170.03041259385645,97.47340867924504 167.5571601735428,94.91717594233342 164.25949028041214,93.63905877992511 160.41220873687416,93.31952940695919 157.11453884281218,93.63905877992511 154.3664805991575,94.5976467016153 151.3436165302992,96.83435069350526 149.41997575759888,100.02963929832913 148.0459466362372,103.544452941278 147.49633498769253,107.0592625818681 147.77114081010222,114.40839707455598 147.22152916248888,121.11846110969782 147.22152916248888,134.53854540805332 148.59555828385055,137.41427016397938 150.51919905655086,140.28999224188738 152.71764565166086,142.52666311571375 155.46570389624685,144.44380828831345 163.4350728057325,144.76333236834034 166.1831310512498,144.1242841759231 169.20599512010813,142.20713880378753 171.12963589187711,139.01189387170598 173.60288831219077,136.45569554297253 174.42730578500777,133.26044465508312 174.42730578500777,116.3255597166717 173.8776941364631,103.22492459323257 172.22885918896645,100.66869662166573 165.35871357750148,94.27811742736958 162.0610436834395,93.63905877992511 156.01531554572284,94.5976467016153 153.26725730113685,96.19529257551767 149.14516993332654,100.3491679765284 147.49633498769253,103.22492459323257 146.6719175139442,106.10067853145301 146.6719175139442,118.56224795919843 145.57269421499223,134.53854540805332 145.84750004019588,137.41427016397938 147.22152916248888,139.97046769876033 149.14516993332654,142.52666311571375 154.09167477395386,146.04142835573293 157.11453884281218,147.0 159.8625970883295,146.04142835573293 162.61065533291548,146.04142835573293 165.63351940270513,145.08285641553812 171.95405336469412,139.01189387170598 174.42730578500777,133.26044465508312 173.60288831219077,110.57406821846962 173.8776941364631,107.37879053200595 173.05327666271478,104.18350953818299 171.40444171521813,100.98822523350827 168.65638347156346,98.11246653250419 165.90832522604614,96.19529257551767 162.88546115718782,95.55623432504945 156.01531554572284,95.23670515068807 152.71764565166086,96.83435069350526 150.2443932313472,99.07105306396261 147.22152916248888,104.82256600097753 146.6719175139442,108.0178463337943 146.39711168874055,117.92319434089586 146.6719175139442,133.5799698929768 147.49633498769253,136.45569554297253 150.51919905655086,141.5680900819134" stroke="#4dd2ff" stroke-linecap="round" stroke-linejoin="round" stroke-width="0.5"><title>2022-11-09 3.1km</title></polyline><polyline fill="none" points="49.80766118038446,159.70812350232154 48.07689744234085,157.024875768926 45.76921245921403,154.67703217780218 42.30768498405814,153.0 39.13461813144386,153.3354065043386 31.346181311644614,155.68325106799603 26.730811345390975,160.7143408297561 25.86542947590351,163.73299093497917 26.442350720986724,177.81998756853864 25.86542947590351,181.8448324969504 25.86542947590351,195.2609461408574 27.019271968863904,198.6149658705108 31.05772069003433,203.645988953067 34.23078754171729,205.65839599748142 38.557696886360645,206.66459905193187 42.019224361516535,206.32919806824066 48.36535806581378,203.645988953067 50.961503671482205,200.9627776145935 52.98072803206742,197.60876031592488 54.13457052502781,171.44730620319024 53.557649279013276,164.40380168776028 51.82688554096967,161.04974653571844 46.9230549512431,156.01865729503334 40.00000000093132,154.00621941057034 33.0769450487569,156.35406348784454 28.17311445903033,161.72055784310214 27.019271968863904,165.41001755697653 27.019271968863904,175.47215905063786 25.86542947590351,193.2485326367896 26.730811345390975,196.9379564402625 28.17311445903033,200.6273760406766 33.653866295702755,204.98759378795512 37.40385439340025,205.993797050789 45.19229121413082,205.65839599748142 50.38458242546767,201.29817915405147 52.69226740952581,194.925543977879 52.69226740952581,164.06839632848278 51.24996429402381,160.3789350874722 48.942279311828315,157.6956879098434 45.76921245921403,155.68325106799603 42.019224361516535,154.67703217780218 35.096169411204755,155.68325106799603 32.21156318113208,157.024875768926 29.903878197073936,159.37271765666083 27.884653836488724,162.7267745458521 27.019271968863904,166.75163822784089 27.30773259047419,172.78892437485047 26.730811345390975,176.47837148117833 26.730811345390975,183.52184974146076 26.153890100307763,186.5404785927385 26.442350720986724,193.58393497462384 27.019271968863904,196.60255444957875 30.192338820546865,203.31058765691705 36.82693314831704,206.66459905193187 40.00000000093132,207.0 43.173066852614284,206.66459905193187 48.942279311828315,203.98139021382667 50.961503671482205,200.9627776145935 52.403806786984205,197.60876031592488 53.26918865647167,193.919337276835 52.98072803206742,190.2299100367818 52.98072803206742,179.1616031001322 54.13457052502781,168.42866328614764 52.403806786984205,161.72055784310214 50.6730430489406,158.36649991292506 48.07689744234085,156.01865729503334 42.30768498405814,153.0 38.557696886360645,154.67703217780218 35.38463003374636,155.01243850938044 32.21156318113208,156.68946964549832 29.61541757453233,159.70812350232154 28.17311445903033,162.7267745458521 27.30773259047419,165.74542277655564 26.442350720986724,190.56531268637627 27.30773259047419,197.9441622023005 28.750035705976188,200.9627776145935 31.05772069003433,203.98139021382667 33.94232691824436,205.65839599748142 36.82693314831704,206.32919806824066 44.038448721170425,205.65839599748142 46.9230549512431,203.98139021382667 51.53842491842806,198.6149658705108 52.115346163511276,195.2609461408574 52.69226740952581,170.44109221012332 51.53842491842806,167.08704330935143 50.6730430489406,163.0621800441295 48.36535806581378,160.3789350874722 43.173066852614284,157.36028185649775 39.71153937652707,157.024875768926 33.94232691824436,159.03731177700683 31.346181311644614,161.38515220675617 29.326956951990724,163.73299093497917 29.038496328517795,178.1553915028926" stroke="#4dd2ff" stroke-linecap="round" stroke-linejoin="round" stroke-width="0.5"><title>2022-11-08 1.9km</title></polyline><polyline fill="none" points="152.40567819029093,201.56607796507888 161.16835720092058,205.98114030458964 171.97566131595522,197.83025134401396 173.43610781803727,165.22649295139126 170.80730411410332,158.77362735010684 160.87626790069044,154.35850146738812 149.77687448635697,163.52837165561505 149.4847851851955,197.49063053028658 159.70791069976985,205.98114030458964 171.97566131595522,199.52835488086566 172.55983991734684,163.1887472907547 161.46044650208205,155.03775199037045 149.19269588496536,165.90574122359976 149.77687448635697,198.16987212118693 161.46044650208205,205.6415203360375 172.2677506171167,197.49063053028658 172.85192921757698,164.54724453948438 163.21298230532557,154.69812674610876 152.69776748958975,158.09437760175206 149.4847851851955,164.20762027939782 149.77687448635697,199.52835488086566 162.9208930041641,205.3019003313966 172.85192921757698,195.4529049147386 172.55983991734684,163.52837165561505 161.7525358023122,155.03775199037045 149.19269588496536,165.22649295139126 149.19269588496536,198.16987212118693 160.5841786013916,204.9622802915983 171.97566131595522,197.83025134401396 172.55983991734684,162.16987398685887 162.9208930041641,153.67925080424175 148.90060658473521,162.84912289120257 148.31642798520625,194.7736627617851 159.70791069976985,205.98114030458964 171.6835720166564,199.52835488086566 173.14401851873845,163.52837165561505 164.089250206016,154.35850146738812 156.4949283953756,154.69812674610876 149.4847851851955,162.84912289120257 148.31642798520625,197.15100968256593 158.8316427981481,205.98114030458964 169.05476831272244,203.60379978339188 173.43610781803727,197.49063053028658 173.72819711826742,165.22649295139126 162.3367144037038,154.01887615397573 148.60851728357375,163.1887472907547 148.31642798520625,195.79252593871206 151.52941028866917,202.58493903186172 160.87626790069044,205.98114030458964 173.72819711826742,195.4529049147386 173.14401851873845,162.50949845672585 162.3367144037038,154.35850146738812 148.90060658473521,163.1887472907547 148.02433868404478,197.15100968256593 151.82149958889931,203.94341996288858 164.6734288064763,205.98114030458964 174.02028641942888,193.75479926750995 171.09939341433346,156.39625261328183 161.16835720092058,153.0 148.90060658473521,159.45287695876323 145.97971358057112,192.39631411759183 154.45030329190195,206.66038013622165 171.6835720166564,203.60379978339188 174.31237571965903,164.88686876255088 155.3265711935237,176.77369444607757 150.94523168727756,199.18873424385674 163.21298230532557,205.3019003313966 173.43610781803727,196.13214692752808 173.43610781803727,163.52837165561505 164.96551810763776,155.71700237272307 158.24746419861913,155.3773771985434 149.77687448635697,162.50949845672585 148.02433868404478,193.75479926750995 155.910749793984,205.3019003313966 171.97566131595522,199.52835488086566 173.14401851873845,163.1887472907547 163.21298230532557,154.35850146738812 149.4847851851955,162.16987398685887 148.02433868404478,196.13214692752808 160.5841786013916,207.0 172.55983991734684,199.52835488086566 174.02028641942888,164.20762027939782 165.84178600739688,154.35850146738812 155.61866049468517,155.03775199037045 148.31642798520625,163.1887472907547 147.7322493828833,194.4340416325722 157.6632855962962,206.66038013622165 172.2677506171167,201.56607796507888 173.14401851873845,164.20762027939782 164.38133950531483,154.69812674610876 154.45030329190195,155.71700237272307 150.06896378658712,160.81137575372122 148.31642798520625,197.49063053028658 161.16835720092058,206.66038013622165 173.43610781803727,197.15100968256593 173.72819711826742,165.56611710460857 162.9208930041641,154.69812674610876 150.06896378658712,164.20762027939782 150.06896378658712,197.15100968256593 159.4158213986084,204.62266021757387 171.97566131595522,196.81138879968785 171.97566131595522,162.50949845672585 164.38133950531483,154.69812674610876 157.95537489745766,155.3773771985434 148.90060658473521,164.54724453948438 148.90060658473521,198.84911357215606 162.9208930041641,206.32076023775153 173.43610781803727,197.83025134401396 173.43610781803727,163.8679959848523 163.79716090485454,154.69812674610876 150.06896378658712,162.16987398685887 148.31642798520625,196.47176788072102 157.37119629699737,206.32076023775153 171.97566131595522,200.54721658141352 173.43610781803727,170.32085156347603 165.2576074078679,155.71700237272307 158.53955349791795,155.3773771985434 150.36105308681726,162.16987398685887 149.77687448635697,197.15100968256593 159.4158213986084,205.3019003313966 170.80730411410332,200.20759604941122 171.97566131595522,164.20762027939782 162.62880370393395,155.03775199037045 149.77687448635697,164.20762027939782 148.60851728357375,195.1132838553749 159.12373209930956,205.6415203360375 171.09939341433346,199.52835488086566 174.60446501988918,166.24536530626938 165.2576074078679,153.33962542004883 155.3265711935237,154.01887615397573 148.31642798520625,161.1510003642179 145.39553498011082,192.73593545728363" stroke="#4dd2ff" stroke-linecap="round" stroke-linejoin="round" stroke-width="0.5"><title>2022-04-26 8.3km</title></polyline><polyline fill="none" points="31.646067473106086,260.08541704388335 43.53980191703886,264.6951406856533 52.31851067580283,258.4390855531674 53.73443144373596,225.84154651756398 42.69024945795536,213.65854210895486 28.24785763118416,221.23176655475982 26.265568558126688,256.1342200336512 35.04427731502801,266.01220335485414 44.672538531944156,265.6829377382528 53.16806313581765,258.4390855531674 53.16806313581765,222.87811730941758 39.57522376906127,213.0 27.681489325128496,219.91468533780426 26.265568558126688,253.5000859652646 31.646067473106086,263.37807746976614 38.44248715694994,266.01220335485414 47.504380066879094,264.3658749323804 53.16806313581765,255.47568672103807 53.73443144373596,223.86592735210434 40.42477623000741,213.3292710718233 27.681489325128496,222.21957710990682 27.115121018141508,257.12201974657364 36.4601980810985,266.34146893699653 46.37164345290512,265.0244064037688 53.16806313581765,256.7927532088943 53.45124728884548,224.19519729795866 45.23890683799982,214.31708408123814 27.681489325128496,220.57322601531632 25.98238440323621,251.85375106544234 39.0088554630056,265.0244064037688 51.18577406182885,259.75615081447177 53.45124728884548,221.56103677349165 46.08845929894596,213.98781311232597 36.4601980810985,214.31708408123814 29.946962552145123,217.28052126825787 26.54875271115452,227.15862527955323 30.23014670610428,262.3902796995826 42.12388115096837,266.6707344856113 51.18577406182885,261.73174768243916 54.01761559676379,224.19519729795866 43.25661776587367,213.0 33.62835654709488,214.97562591684982 26.831936864182353,223.20738735748455 26.831936864182353,257.12201974657364 39.0088554630056,266.6707344856113 52.60169482883066,259.09761825134046 53.73443144373596,224.5244672105182 45.23890683799982,213.65854210895486 28.81422593817115,218.9268740674015 26.265568558126688,255.80495339399204 32.495619933120906,265.0244064037688 39.57522376906127,267.0 52.884878982789814,257.45128624886274 53.45124728884548,222.5488472271245 41.27432869002223,213.0 31.92925162706524,216.62197990971617 26.831936864182353,225.51227674237452 27.115121018141508,258.4390855531674 40.14159207697958,266.6707344856113 52.31851067580283,259.42688454990275 53.45124728884548,222.87811730941758 44.10617022588849,213.3292710718233 31.07969916705042,216.29270917968825 27.96467347908765,221.89030695869587 26.265568558126688,252.84155210736208 29.66377839911729,254.158619687194" stroke="#4dd2ff" stroke-linecap="round" stroke-linejoin="round" stroke-width="0.5"><title>2022-04-19 4.1km</title></polyline><polyline fill="none" points="156.05944816954434,256.8546158373356 154.0891722543165,261.76367675629444 159.99999999906868,264.70910964813083 170.97725152689964,258.81824111938477 173.5104634175077,224.4546225471422 170.4143155515194,217.90912903146818 160.84440396353602,213.3272755057551 147.05247255787253,222.1637013584841 146.48953658156097,258.49097032425925 150.14862042479217,264.70910964813083 161.40733993891627,267.0 173.22899542935193,256.2000738044735 173.22899542935193,222.1637013584841 159.99999999906868,213.3272755057551 147.05247255787253,224.12734819343314 147.61540853325278,259.14551188168116 162.53321189060807,266.0181900530588 173.22899542935193,258.49097032425925 172.66605945397168,220.8546027909033 160.56293597538024,213.0 150.43008841201663,221.18187748407945 148.17834450863302,254.8909893343225 160.84440396353602,264.3818394620903 170.97725152689964,255.8728027381003 170.97725152689964,225.10917115327902 162.2517439033836,215.9454783333931 155.4965121941641,216.92730383435264 149.02274847216904,225.10917115327902 149.30421646032482,256.52734483755194 159.71853201184422,264.3818394620903 170.4143155515194,256.2000738044735 171.2587195141241,226.41826795879751 163.65908384136856,215.9454783333931 148.74128048401326,224.12734819343314 149.5856844484806,258.1636994939763 157.7482560966164,263.7272989896592 167.88110366091132,261.43640626594424 171.54018750134856,251.94554729247466 168.44403963536024,220.20005330373533 156.05944816954434,215.61820309888572 150.9930243883282,220.20005330373533 148.17834450863302,239.83647895255126 151.27449237555265,259.80005330312997 159.99999999906868,264.05456924275495 166.7552317082882,261.76367675629444 171.82165549043566,253.90917562507093 170.4143155515194,222.81825043912977 155.77798018138856,216.92730383435264 148.17834450863302,231.6546497582458 149.02274847216904,256.8546158373356 152.11889633815736,262.4182176361792 165.06642378028482,262.7454880250152 170.97725152689964,255.21826050244272 169.56991158705205,220.52732806373388 161.12587195076048,215.61820309888572 151.83742835186422,219.21822881908156 147.89687652140856,241.14556965837255 152.68183231540024,261.76367675629444 167.31816768459976,260.7818651825655 171.54018750134856,250.9637326686643 169.0069756116718,220.8546027909033 157.46678810939193,216.27275353483856 148.4598124967888,225.43644540500827 149.02274847216904,255.8728027381003 152.68183231540024,261.76367675629444 162.53321189060807,263.7272989896592 170.97725152689964,253.90917562507093 169.28844359889627,220.52732806373388 160.84440396353602,216.27275353483856 151.27449237555265,220.52732806373388 150.9930243883282,242.4546598214656" stroke="#4dd2ff" stroke-linecap="round" stroke-linejoin="round" stroke-width="0.5"><title>2022-04-13 4.1km</title></polyline></svg>