<?xml version="1.0" encoding="utf-8" ?>
<svg baseProfile="full" height="300mm" version="1.1" viewBox="0,0,200,300" width="200mm" xmlns="http://www.w3.org/2000/svg" xmlns:ev="http://www.w3.org/2001/xml-events" xmlns:xlink="http://www.w3.org/1999/xlink"><defs /><rect fill="#222222" height="300" width="200" x="0" y="0" /><text fill="#FFFFFF" style="font-size:12px; font-family:Arial; font-weight:bold;" x="10" y="20">Over 1km Runs</text><text fill="#FFFFFF" style="font-size:4px; font-family:Arial" x="10" y="280">ATHLETE</text><text fill="#FFFFFF" style="font-size:9px; font-family:Arial" x="10" y="290">InzamZ</text><text fill="#FFFFFF" style="font-size:4px; font-family:Arial" x="120" y="280">STATISTICS</text><text fill="#FFFFFF" style="font-size:3px; font-family:Arial" x="120" y="285">Number: 7</text><text fill="#FFFFFF" style="font-size:3px; font-family:Arial" x="120" y="290">Weekly: 1.4</text><text fill="#FFFFFF" style="font-size:3px; font-family:Arial" x="141" y="285">Total: 28.0 km</text><text fill="#FFFFFF" style="font-size:3px; font-family:Arial" x="141" y="290">Avg: 4.0 km</text><text fill="#FFFFFF" style="font-size:3px; font-family:Arial" x="167" y="285">Min: 1.9 km</text><text fill="#FFFFFF" style="font-size:3px; font-family:Arial" x="167" y="290">Max: 8.3 km</text><polyline fill="none" points="31.175981778651476,80.16004638839513 35.51058722101152,81.24003995815292 39.84519266150892,80.88004213850945 43.56056875549257,79.08005248242989 46.347100825980306,76.92006366536953 48.51440354809165,73.6800779227633 49.75286224484444,70.08009022520855 50.062476919963956,62.880103644449264 49.44324757158756,59.64010481815785 49.13363289646804,42.00005824305117 47.89517419785261,38.76003996049985 45.72787147760391,35.88002117210999 42.631724731996655,34.08000822016038 39.225963313132524,33.0 35.51058722101152,33.0 32.41444047726691,34.44001088500954 29.00867905654013,36.96002849750221 26.841376336291432,39.480044283671305 25.602917637676,42.72006189613603 24.054844265803695,69.72009124956094 24.054844265803695,77.28006189432926 25.91253231279552,80.52004428207874 28.079835034906864,83.04002849571407 32.10482580214739,85.20001351134852 36.43943124450743,85.92000821838155 43.56056875549257,83.04002849571407 46.03748615272343,80.88004213850945 47.89517419785261,78.00005824165419 49.13363289646804,74.40007501537912 48.824018221348524,42.72006189613603 47.58555952459574,38.400037741987035 44.799027454108,35.52001865650527 42.01249538362026,33.360002777772024 38.29711929149926,33.0 33.652899174019694,33.0 30.247137755155563,35.16001610364765 27.460605684667826,38.04003548622131 25.293302964419127,41.64005636097863 24.674073616042733,45.240073507418856 24.983688289299607,62.880103644449264 26.22214698791504,67.20009738067165 25.602917637676,71.52008575107902 25.602917637676,75.84006875287741 26.531761661171913,79.44005048833787 29.00867905654013,82.68003086326644 32.72405515052378,84.48001865507104 36.43943124450743,85.20001351134852 40.4644220136106,84.8400161024183 43.87018343061209,83.40002609184012 46.656715501099825,80.52004428207874 49.44324757158756,76.20006709452718 48.824018221348524,61.440104538341984 49.44324757158756,41.64005636097863 48.51440354809165,38.400037741987035 46.03748615272343,35.52001865650527 42.32211006060243,33.72000551712699 38.91634863987565,33.0 35.51058722101152,33.0 31.79521112702787,34.8000135126058 28.699064383283257,36.60002609342337 26.531761661171913,39.480044283671305 26.22214698791504,43.08006366714835 40.15480733662844,40.92005248530768 53.46823833882809,37.68003319459967 56.87399975769222,37.68003319459967 53.77785301208496,38.76003996049985 50.68170626834035,40.56005049054511 47.58555952459574,40.200048458529636 42.32211006060243,35.16001610364765 39.225963313132524,33.72000551712699 35.82020189613104,33.72000551712699 29.62790840677917,35.88002117210999 27.15099101141095,38.04003548622131 24.054844265803695,44.880071961088106 24.674073616042733,48.480085753137246 24.674073616042733,52.44009661790915 25.602917637676,55.68010215414688 26.22214698791504,77.28006189432926 27.770220359787345,80.52004428207874 30.247137755155563,82.68003086326644 36.43943124450743,85.56001088418998 39.53557799011469,84.8400161024183 44.799027454108,80.88004213850945 47.27594484947622,74.76007350580767 47.58555952459574,63.96010258095339 47.27594484947622,60.720104762585834 47.89517419785261,57.12010364397429 48.824018221348524,46.320077925454825 47.89517419785261,42.72006189613603 43.250954082235694,37.68003319459967 39.225963313132524,36.24002365232445 34.891357872635126,35.88002117210999 31.175981778651476,36.96002849750221 28.079835034906864,39.120042141061276 25.602917637676,42.36006008880213 24.674073616042733,46.6800793223083 24.983688289299607,54.60010064416565 24.054844265803695,57.840104166418314 23.74522959254682,72.9600806820672 24.983688289299607,80.16004638839513 27.15099101141095,83.04002849571407 29.937523080036044,85.20001351134852 33.962513849139214,86.28000551578589 38.29711929149926,86.64000277640298 42.32211006060243,85.20001351134852 45.10864212922752,83.04002849571407 47.27594484947622,80.16004638839513 48.824018221348524,76.92006366536953 49.44324757158756,72.9600806820672 48.824018221348524,68.6400941007305 49.13363289646804,49.56008916348219 47.89517419785261,41.28005444188602 45.72787147760391,37.68003319459967 42.941339407116175,35.52001865650527 36.12981656938791,33.360002777772024 29.00867905654013,34.8000135126058 25.91253231279552,37.320030864095315 24.054844265803695,40.92005248530768 23.126000242307782,44.5200703763403 23.126000242307782,56.400102972984314 23.74522959254682,67.56009661825374 23.4356149174273,75.84006875287741 27.15099101141095,82.68003086326644 29.937523080036044,85.56001088418998 33.652899174019694,87.0 41.08365136012435,85.20001351134852 44.48941277898848,83.04002849571407 48.51440354809165,77.28006189432926 48.824018221348524,66.48009879840538" stroke="#4dd2ff" stroke-linecap="round" stroke-linejoin="round" stroke-width="0.5"><title>2023-03-10 2.4km</title></polyline><polyline fill="none" points="174.7021161755547,42.266339351190254 169.48080388922244,36.195292574353516 163.16026796307415,33.31952940602787 156.56492612697184,33.95858811936341 152.99244929850101,35.87576346611604 150.79400202073157,37.792937621008605 148.5955547420308,40.66869662050158 146.3971074623987,46.73973459750414 147.22152519226074,49.93501294590533 145.29788382351398,67.50898472033441 146.67191337235272,75.17759558535181 147.49633110128343,77.73379497276619 148.87036065012217,80.60951675125398 151.06880792975426,82.84618739457801 153.81686702836305,84.44380828924477 156.83973203599453,85.72190440888517 163.16026796307415,85.72190440888517 166.18313297070563,84.44380828924477 169.20599798019975,82.20713880471885 172.50366889685392,76.77522045047954 173.6028925376013,63.35514587839134 173.6028925376013,46.10067853075452 173.05328071769327,42.58586779842153 171.1296393489465,39.71011058543809 168.1067743403837,37.792937621008605 166.18313297070563,34.917175942100585 158.76337340660393,34.27811742690392 152.99244929850101,36.51482165022753 150.79400202073157,38.43199540791102 148.5955547420308,41.946810871362686 147.77113701216877,45.46162233268842 147.22152519226074,54.40839707478881 147.22152519226074,64.31372456881218 147.77113701216877,75.17759558535181 148.5955547420308,78.37284448812716 152.44283747952431,83.16571163921617 157.9389556767419,85.72190440888517 161.2366265943274,86.36095227161422 165.0839093318209,85.72190440888517 170.30522161908448,82.52666311571375 173.32808662671596,77.41427016467787 173.87769844662398,74.21902026887983 173.6028925376013,67.82851055334322 174.152504356578,50.25454059848562 173.32808662671596,43.863981255330145 172.50366889685392,40.98822523327544 170.30522161908448,38.11246653157286 165.3587152408436,35.236705149756745 161.51143250335008,33.63905877945945 154.36647884733975,35.236705149756745 149.6947783799842,39.71011058543809 148.87036065012217,42.58586779842153 147.49633110128343,45.7811504479032 145.84749564249068,61.43798760371283 146.3971074623987,64.63325073290616 145.84749564249068,73.89949509804137 148.04594292119145,79.65094312280416 149.96958429086953,82.52666311571375 152.44283747952431,84.44380828924477 155.4657024871558,85.72190440888517 158.4885674957186,86.36095227161422 162.0610443232581,86.04142835689709 168.6563861593604,83.48523585102521 172.77847480773926,78.05331974686123 173.87769844662398,74.85807051300071 174.42731026746333,68.14803635375574 173.87769844662398,61.75751406583004 174.42731026746333,48.65690200263634 174.152504356578,45.46162233268842 173.32808662671596,42.58586779842153 171.6792511679232,39.71011058543809 169.48080388922244,37.15387970232405 166.45793888159096,35.556234324816614 163.70987978205085,34.59764670068398 157.38934385497123,34.917175942100585 154.36647884733975,36.195292574353516 151.8932256596163,37.792937621008605 148.04594292119145,43.863981255330145 147.22152519226074,50.25454059848562 147.49633110128343,53.449815306579694 146.67191337235272,57.28414059057832 146.3971074623987,64.63325073290616 146.3971074623987,71.66281797131523 147.22152519226074,74.53854540758766 149.6947783799842,80.28999224188738 155.19089657720178,85.08285641483963 158.4885674957186,86.04142835689709 165.0839093318209,85.08285641483963 168.1067743403837,83.48523585102521 170.85483343806118,81.56809008284472 172.77847480773926,79.01189387170598 174.42731026746333,72.94091938459314 174.7021161755547,49.93501294590533 174.42731026746333,44.183509536320344 173.6028925376013,40.98822523327544 171.4044452579692,38.75152425142005 168.6563861593604,36.51482165022753 162.3358502332121,34.27811742690392 155.7405083971098,35.556234324816614 153.26725520938635,37.15387970232405 150.79400202073157,39.71011058543809 148.87036065012217,42.266339351190254 147.49633110128343,48.97642978816293 147.22152519226074,55.04745142091997 146.3971074623987,58.56224795966409 146.3971074623987,65.9113550586626 145.57268973253667,69.10661355615593 145.84749564249068,72.62139408080839 147.22152519226074,79.33141851425171 148.5955547420308,81.88761445973068 150.79400202073157,84.12428417685442 153.81686702836305,85.72190440888517 156.83973203599453,86.36095227161422 160.41220886446536,87.0 163.70987978205085,86.36095227161422 166.73274479061365,85.08285641483963 171.1296393489465,80.28999224188738 173.05328071769327,77.41427016467787 173.6028925376013,74.53854540758766 173.05328071769327,71.3432925355155 173.87769844662398,54.72792426380329 173.6028925376013,51.21312335785478 174.42731026746333,48.017846334027126 172.50366889685392,41.30775381298736 170.5800275299698,38.11246653157286 167.8319684304297,35.87576346611604 164.5342975128442,34.27811742690392 161.2366265943274,33.31952940602787 155.19089657720178,34.59764670068398 149.6947783799842,39.39058184088208 148.32074883114547,41.946810871362686 147.22152519226074,45.7811504479032 147.22152519226074,56.645086707081646 146.3971074623987,68.14803635375574 148.32074883114547,78.37284448812716 149.4199724709615,81.56809008284472 151.34361383970827,83.80476003047079 154.64128475822508,85.72190440888517 158.2137615857646,86.36095227161422 161.2366265943274,86.36095227161422 164.5342975128442,85.72190440888517 167.55716252047569,84.12428417685442 170.30522161908448,81.88761445973068 173.6028925376013,76.45569554297253 174.42731026746333,72.62139408080839 173.87769844662398,58.24272116669454 174.152504356578,45.142094182781875 171.4044452579692,39.07105306372978 169.20599798019975,36.834350692341104 163.70987978205085,34.27811742690392 156.83973203599453,34.917175942100585 153.81686702836305,36.834350692341104 149.4199724709615,40.98822523327544 147.77113701216877,44.183509536320344 146.3971074623987,50.89359580492601 146.67191337235272,63.67467214120552 145.84749564249068,67.18945885449648 146.12230155337602,74.21902026887983 148.5955547420308,80.92904122848995 150.51919610984623,83.48523585102521 153.54206111840904,85.08285641483963 156.83973203599453,86.36095227161422 160.13740295451134,86.36095227161422 163.16026796307415,86.04142835689709 166.45793888159096,85.08285641483963 168.93119207024574,83.16571163921617 171.1296393489465,80.60951675125398 173.32808662671596,75.17759558535181 173.87769844662398,68.78708785469644 174.42731026746333,55.04745142091997 173.87769844662398,51.5326508784201 173.87769844662398,48.337374184746295 171.6792511679232,41.62728235917166 170.03041570819914,38.75152425142005 167.282356611453,35.87576346611604 163.98468569200486,34.59764670068398 160.96182068437338,34.27811742690392 154.91609066724777,35.556234324816614 151.8932256596163,37.792937621008605 148.04594292119145,42.58586779842153 147.22152519226074,45.46162233268842 145.57268973253667,69.4261392231565 147.22152519226074,79.97046769922599 151.61841974966228,84.76333236834034 157.38934385497123,87.0 164.5342975128442,86.68047615233809 167.282356611453,85.08285641483963 169.75560979917645,82.84618739457801 173.6028925376013,77.09474532376043 173.87769844662398,73.5799698936753 172.77847480773926,70.70424156286754 173.87769844662398,67.18945885449648 173.6028925376013,63.99419837188907 174.7021161755547,53.76934259594418 173.87769844662398,44.183509536320344 170.30522161908448,37.792937621008605 167.55716252047569,35.556234324816614 161.7862384142354,33.0 158.76337340660393,33.0 155.4657024871558,34.59764670068398 152.99244929850101,36.51482165022753 148.87036065012217,41.30775381298736 147.22152519226074,44.82256600004621 146.94671928230673,48.017846334027126 146.3971074623987,55.04745142091997 146.67191337235272,58.56224795966409 146.12230155337602,68.78708785469644 145.57268973253667,72.30186874372885 146.94671928230673,78.05331974686123 148.5955547420308,80.92904122848995 151.06880792975426,83.48523585102521 154.09167293738574,84.76333236834034" stroke="#4dd2ff" stroke-linecap="round" stroke-linejoin="round" stroke-width="0.5"><title>2022-11-10 4.1km</title></polyline><polyline fill="none" points="53.877694136463106,106.4202065821737 53.32808248791844,102.58586779981852 52.22885918896645,99.71011058543809 49.7556067686528,96.83435069350526 43.9846844561398,93.63905877992511 40.41220873687416,93.0 36.56492719426751,94.27811742736958 30.794004880823195,98.75152425281703 28.59555828385055,101.62728235893883 27.771140810102224,105.1420941830147 26.946723338216543,116.3255597166717 26.946723338216543,136.1361706033349 27.771140810102224,139.33141851355322 29.419975757598877,141.5680900819134 32.4428398264572,144.1242841759231 35.46570389624685,145.72190440865234 39.03817961458117,146.04142835573293 42.610655332915485,145.72190440865234 46.1831310512498,144.76333236834034 49.20599512010813,142.20713880378753 51.40444171521813,139.33141851355322 52.778470838442445,136.45569554297253 53.877694136463106,129.74566485802643 54.15249996166676,106.10067853145301 53.32808248791844,102.90539621282369 51.95405336469412,100.02963929832913 46.73274269979447,94.27811742736958 40.13740291260183,93.63905877992511 36.56492719426751,94.27811742736958 33.26725730113685,95.8757634672802 31.06881070509553,97.79293762193993 29.145169933326542,100.3491679765284 26.946723338216543,107.0592625818681 26.946723338216543,120.4794080206193 25.847500040195882,126.86993295536377 26.39711168874055,130.70424156356603 26.39711168874055,133.8994950975757 28.59555828385055,140.60951675125398 32.99245147686452,145.08285641553812 36.01531554572284,146.04142835573293 39.312985439784825,146.68047615140676 46.1831310512498,144.44380828831345 51.129635891877115,139.33141851355322 52.778470838442445,135.8166456304025 53.877694136463106,132.62139408127405 53.32808248791844,124.95277686417103 54.15249996166676,118.56224795919843 53.32808248791844,111.85217836685479 53.877694136463106,105.78115044813603 53.32808248791844,102.26633935282007 51.40444171521813,99.07105306396261 45.08390775229782,93.9585881207604 41.78623785916716,93.0 39.03817961458117,93.0 35.74050972145051,93.9585881207604 32.71764565166086,95.55623432504945 30.51919905655086,98.11246653250419 28.59555828385055,101.30775381345302 27.221529162488878,108.0178463337943 27.221529162488878,121.43798760417849 27.771140810102224,127.82851055450737 26.946723338216543,135.17759558488615 28.045946636237204,138.6923691967968 29.96958740707487,141.5680900819134 35.190898071974516,145.08285641553812 38.48856796696782,145.72190440865234 44.53429610468447,145.08285641553812 47.5571601735428,143.80476003023796 49.7556067686528,141.24856567196548 52.50366501417011,136.1361706033349 53.32808248791844,132.9409193843603 53.05327666271478,127.18945885449648 53.877694136463106,117.92319434089586 53.32808248791844,104.50303778634407 49.7556067686528,98.75152425281703 47.00754852499813,96.51482165162452 43.43507280573249,95.23670515068807 36.56492719426751,94.91717594233342 33.81686894968152,96.19529257551767 31.06881070509553,99.07105306396261 28.870364109054208,101.94681087252684 27.221529162488878,105.46162233245559 26.67191751394421,108.65690200356767 26.946723338216543,111.85217836685479 26.122305864468217,114.72792426473461 26.946723338216543,133.8994950975757 28.045946636237204,137.09474532376043 31.06881070509553,142.52666311571375 36.01531554572284,146.04142835573293 39.312985439784825,146.36095227045007 42.88546115718782,146.04142835573293 46.1831310512498,144.76333236834034 49.20599512010813,142.84618739341386 51.129635891877115,140.28999224188738 53.60288831219077,133.8994950975757 54.427305785007775,120.79893458122388 54.15249996166676,103.544452941278 52.50366501417011,100.02963929832913 50.030412593856454,97.47340867924504 47.5571601735428,94.91717594233342 44.25949028041214,93.63905877992511 40.41220873687416,93.31952940695919 37.11453884281218,93.63905877992511 34.36648059915751,94.5976467016153 31.343616530299187,96.83435069350526 29.419975757598877,100.02963929832913 28.045946636237204,103.544452941278 27.496334987692535,107.0592625818681 27.771140810102224,114.40839707455598 27.221529162488878,121.11846110969782 27.221529162488878,134.53854540805332 28.59555828385055,137.41427016397938 30.51919905655086,140.28999224188738 32.71764565166086,142.52666311571375 35.46570389624685,144.44380828831345 43.43507280573249,144.76333236834034 46.1831310512498,144.1242841759231 49.20599512010813,142.20713880378753 51.129635891877115,139.01189387170598 53.60288831219077,136.45569554297253 54.427305785007775,133.26044465508312 54.427305785007775,116.3255597166717 53.877694136463106,103.22492459323257 52.22885918896645,100.66869662166573 45.358713577501476,94.27811742736958 42.06104368343949,93.63905877992511 36.01531554572284,94.5976467016153 33.26725730113685,96.19529257551767 29.145169933326542,100.3491679765284 27.496334987692535,103.22492459323257 26.67191751394421,106.10067853145301 26.67191751394421,118.56224795919843 25.572694214992225,134.53854540805332 25.847500040195882,137.41427016397938 27.221529162488878,139.97046769876033 29.145169933326542,142.52666311571375 34.091674773953855,146.04142835573293 37.11453884281218,147.0 39.862597088329494,146.04142835573293 42.610655332915485,146.04142835573293 45.63351940270513,145.08285641553812 51.95405336469412,139.01189387170598 54.427305785007775,133.26044465508312 53.60288831219077,110.57406821846962 53.877694136463106,107.37879053200595 53.05327666271478,104.18350953818299 51.40444171521813,100.98822523350827 48.65638347156346,98.11246653250419 45.908325226046145,96.19529257551767 42.88546115718782,95.55623432504945 36.01531554572284,95.23670515068807 32.71764565166086,96.83435069350526 30.244393231347203,99.07105306396261 27.221529162488878,104.82256600097753 26.67191751394421,108.0178463337943 26.39711168874055,117.92319434089586 26.67191751394421,133.5799698929768 27.496334987692535,136.45569554297253 30.51919905655086,141.5680900819134" stroke="#4dd2ff" stroke-linecap="round" stroke-linejoin="round" stroke-width="0.5"><title>2022-11-09 3.1km</title></polyline><polyline fill="none" points="169.80766118038446,99.70812350232154 168.07689744234085,97.024875768926 165.76921245921403,94.67703217780218 162.30768498405814,93.0 159.13461813144386,93.33540650433861 151.3461813116446,95.68325106799603 146.73081134539098,100.71434082975611 145.8654294759035,103.73299093497917 146.44235072098672,117.81998756853864 145.8654294759035,121.8448324969504 145.8654294759035,135.2609461408574 147.0192719688639,138.6149658705108 151.05772069003433,143.645988953067 154.2307875417173,145.65839599748142 158.55769688636065,146.66459905193187 162.01922436151654,146.32919806824066 168.36535806581378,143.645988953067 170.9615036714822,140.9627776145935 172.98072803206742,137.60876031592488 174.1345705250278,111.44730620319024 173.55764927901328,104.40380168776028 171.82688554096967,101.04974653571844 166.9230549512431,96.01865729503334 160.00000000093132,94.00621941057034 153.0769450487569,96.35406348784454 148.17311445903033,101.72055784310214 147.0192719688639,105.41001755697653 147.0192719688639,115.47215905063786 145.8654294759035,133.2485326367896 146.73081134539098,136.9379564402625 148.17311445903033,140.6273760406766 153.65386629570276,144.98759378795512 157.40385439340025,145.993797050789 165.19229121413082,145.65839599748142 170.38458242546767,141.29817915405147 172.6922674095258,134.925543977879 172.6922674095258,104.06839632848278 171.2499642940238,100.3789350874722 168.94227931182832,97.6956879098434 165.76921245921403,95.68325106799603 162.01922436151654,94.67703217780218 155.09616941120476,95.68325106799603 152.21156318113208,97.024875768926 149.90387819707394,99.37271765666083 147.88465383648872,102.7267745458521 147.0192719688639,106.75163822784089 147.3077325904742,112.78892437485047 146.73081134539098,116.47837148117833 146.73081134539098,123.52184974146076 146.15389010030776,126.54047859273851 146.44235072098672,133.58393497462384 147.0192719688639,136.60255444957875 150.19233882054687,143.31058765691705 156.82693314831704,146.66459905193187 160.00000000093132,147.0 163.17306685261428,146.66459905193187 168.94227931182832,143.98139021382667 170.9615036714822,140.9627776145935 172.4038067869842,137.60876031592488 173.26918865647167,133.919337276835 172.98072803206742,130.2299100367818 172.98072803206742,119.1616031001322 174.1345705250278,108.42866328614764 172.4038067869842,101.72055784310214 170.6730430489406,98.36649991292506 168.07689744234085,96.01865729503334 162.30768498405814,93.0 158.55769688636065,94.67703217780218 155.38463003374636,95.01243850938044 152.21156318113208,96.68946964549832 149.61541757453233,99.70812350232154 148.17311445903033,102.7267745458521 147.3077325904742,105.74542277655564 146.44235072098672,130.56531268637627 147.3077325904742,137.9441622023005 148.7500357059762,140.9627776145935 151.05772069003433,143.98139021382667 153.94232691824436,145.65839599748142 156.82693314831704,146.32919806824066 164.03844872117043,145.65839599748142 166.9230549512431,143.98139021382667 171.53842491842806,138.6149658705108 172.11534616351128,135.2609461408574 172.6922674095258,110.44109221012332 171.53842491842806,107.08704330935143 170.6730430489406,103.06218004412949 168.36535806581378,100.3789350874722 163.17306685261428,97.36028185649775 159.71153937652707,97.024875768926 153.94232691824436,99.03731177700683 151.3461813116446,101.38515220675617 149.32695695199072,103.73299093497917 149.0384963285178,118.1553915028926" stroke="#4dd2ff" stroke-linecap="round" stroke-linejoin="round" stroke-width="0.5"><title>2022-11-08 1.9km</title></polyline><polyline fill="none" points="32.40567819029093,201.56607796507888 41.16835720092058,205.98114030458964 51.97566131595522,197.83025134401396 53.43610781803727,165.22649295139126 50.80730411410332,158.77362735010684 40.876267900690436,154.35850146738812 29.776874486356974,163.52837165561505 29.484785185195506,197.49063053028658 39.707910699769855,205.98114030458964 51.97566131595522,199.52835488086566 52.559839917346835,163.1887472907547 41.46044650208205,155.03775199037045 29.19269588496536,165.90574122359976 29.776874486356974,198.16987212118693 41.46044650208205,205.6415203360375 52.26775061711669,197.49063053028658 52.85192921757698,164.54724453948438 43.21298230532557,154.69812674610876 32.69776748958975,158.09437760175206 29.484785185195506,164.20762027939782 29.776874486356974,199.52835488086566 42.9208930041641,205.3019003313966 52.85192921757698,195.4529049147386 52.559839917346835,163.52837165561505 41.752535802312195,155.03775199037045 29.19269588496536,165.22649295139126 29.19269588496536,198.16987212118693 40.58417860139161,204.9622802915983 51.97566131595522,197.83025134401396 52.559839917346835,162.16987398685887 42.9208930041641,153.67925080424175 28.900606584735215,162.84912289120257 28.316427985206246,194.7736627617851 39.707910699769855,205.98114030458964 51.6835720166564,199.52835488086566 53.14401851873845,163.52837165561505 44.089250206016004,154.35850146738812 36.49492839537561,154.69812674610876 29.484785185195506,162.84912289120257 28.316427985206246,197.15100968256593 38.831642798148096,205.98114030458964 49.054768312722445,203.60379978339188 53.43610781803727,197.49063053028658 53.72819711826742,165.22649295139126 42.33671440370381,154.01887615397573 28.608517283573747,163.1887472907547 28.316427985206246,195.79252593871206 31.52941028866917,202.58493903186172 40.876267900690436,205.98114030458964 53.72819711826742,195.4529049147386 53.14401851873845,162.50949845672585 42.33671440370381,154.35850146738812 28.900606584735215,163.1887472907547 28.02433868404478,197.15100968256593 31.821499588899314,203.94341996288858 44.673428806476295,205.98114030458964 54.020286419428885,193.75479926750995 51.09939341433346,156.39625261328183 41.16835720092058,153.0 28.900606584735215,159.45287695876323 25.979713580571115,192.39631411759183 34.450303291901946,206.66038013622165 51.6835720166564,203.60379978339188 54.31237571965903,164.88686876255088 35.326571193523705,176.77369444607757 30.945231687277555,199.18873424385674 43.21298230532557,205.3019003313966 53.43610781803727,196.13214692752808 53.43610781803727,163.52837165561505 44.96551810763776,155.71700237272307 38.24746419861913,155.3773771985434 29.776874486356974,162.50949845672585 28.02433868404478,193.75479926750995 35.910749793983996,205.3019003313966 51.97566131595522,199.52835488086566 53.14401851873845,163.1887472907547 43.21298230532557,154.35850146738812 29.484785185195506,162.16987398685887 28.02433868404478,196.13214692752808 40.58417860139161,207.0 52.559839917346835,199.52835488086566 54.020286419428885,164.20762027939782 45.84178600739688,154.35850146738812 35.61866049468517,155.03775199037045 28.316427985206246,163.1887472907547 27.73224938288331,194.4340416325722 37.66328559629619,206.66038013622165 52.26775061711669,201.56607796507888 53.14401851873845,164.20762027939782 44.38133950531483,154.69812674610876 34.450303291901946,155.71700237272307 30.06896378658712,160.81137575372122 28.316427985206246,197.49063053028658 41.16835720092058,206.66038013622165 53.43610781803727,197.15100968256593 53.72819711826742,165.56611710460857 42.9208930041641,154.69812674610876 30.06896378658712,164.20762027939782 30.06896378658712,197.15100968256593 39.41582139860839,204.62266021757387 51.97566131595522,196.81138879968785 51.97566131595522,162.50949845672585 44.38133950531483,154.69812674610876 37.95537489745766,155.3773771985434 28.900606584735215,164.54724453948438 28.900606584735215,198.84911357215606 42.9208930041641,206.32076023775153 53.43610781803727,197.83025134401396 53.43610781803727,163.8679959848523 43.797160904854536,154.69812674610876 30.06896378658712,162.16987398685887 28.316427985206246,196.47176788072102 37.37119629699737,206.32076023775153 51.97566131595522,200.54721658141352 53.43610781803727,170.32085156347603 45.25760740786791,155.71700237272307 38.53955349791795,155.3773771985434 30.361053086817265,162.16987398685887 29.776874486356974,197.15100968256593 39.41582139860839,205.3019003313966 50.80730411410332,200.20759604941122 51.97566131595522,164.20762027939782 42.628803703933954,155.03775199037045 29.776874486356974,164.20762027939782 28.608517283573747,195.1132838553749 39.123732099309564,205.6415203360375 51.09939341433346,199.52835488086566 54.604465019889176,166.24536530626938 45.25760740786791,153.33962542004883 35.326571193523705,154.01887615397573 28.316427985206246,161.1510003642179 25.395534980110824,192.73593545728363" stroke="#4dd2ff" stroke-linecap="round" stroke-linejoin="round" stroke-width="0.5"><title>2022-04-26 8.3km</title></polyline><polyline fill="none" points="151.6460674731061,200.08541704388335 163.53980191703886,204.6951406856533 172.31851067580283,198.4390855531674 173.73443144373596,165.84154651756398 162.69024945795536,153.65854210895486 148.24785763118416,161.23176655475982 146.2655685581267,196.13422003365122 155.044277315028,206.01220335485414 164.67253853194416,205.6829377382528 173.16806313581765,198.4390855531674 173.16806313581765,162.87811730941758 159.57522376906127,153.0 147.6814893251285,159.91468533780426 146.2655685581267,193.5000859652646 151.6460674731061,203.37807746976614 158.44248715694994,206.01220335485414 167.5043800668791,204.3658749323804 173.16806313581765,195.47568672103807 173.73443144373596,163.86592735210434 160.4247762300074,153.3292710718233 147.6814893251285,162.21957710990682 147.1151210181415,197.12201974657364 156.4601980810985,206.34146893699653 166.37164345290512,205.0244064037688 173.16806313581765,196.79275320889428 173.45124728884548,164.19519729795866 165.23890683799982,154.31708408123814 147.6814893251285,160.57322601531632 145.9823844032362,191.85375106544234 159.0088554630056,205.0244064037688 171.18577406182885,199.75615081447177 173.45124728884548,161.56103677349165 166.08845929894596,153.98781311232597 156.4601980810985,154.31708408123814 149.94696255214512,157.28052126825787 146.54875271115452,167.15862527955323 150.23014670610428,202.3902796995826 162.12388115096837,206.67073448561132 171.18577406182885,201.73174768243916 174.0176155967638,164.19519729795866 163.25661776587367,153.0 153.62835654709488,154.97562591684982 146.83193686418235,163.20738735748455 146.83193686418235,197.12201974657364 159.0088554630056,206.67073448561132 172.60169482883066,199.09761825134046 173.73443144373596,164.5244672105182 165.23890683799982,153.65854210895486 148.81422593817115,158.9268740674015 146.2655685581267,195.80495339399204 152.4956199331209,205.0244064037688 159.57522376906127,207.0 172.88487898278981,197.45128624886274 173.45124728884548,162.5488472271245 161.27432869002223,153.0 151.92925162706524,156.62197990971617 146.83193686418235,165.51227674237452 147.1151210181415,198.4390855531674 160.14159207697958,206.67073448561132 172.31851067580283,199.42688454990275 173.45124728884548,162.87811730941758 164.1061702258885,153.3292710718233 151.07969916705042,156.29270917968825 147.96467347908765,161.89030695869587 146.2655685581267,192.84155210736208 149.6637783991173,194.158619687194" stroke="#4dd2ff" stroke-linecap="round" stroke-linejoin="round" stroke-width="0.5"><title>2022-04-19 4.1km</title></polyline><polyline fill="none" points="36.05944816954434,256.8546158373356 34.08917225431651,261.76367675629444 39.99999999906868,264.70910964813083 50.977251526899636,258.81824111938477 53.51046341750771,224.4546225471422 50.414315551519394,217.90912903146818 40.844403963536024,213.3272755057551 27.052472557872534,222.1637013584841 26.48953658156097,258.49097032425925 30.14862042479217,264.70910964813083 41.407339938916266,267.0 53.228995429351926,256.2000738044735 53.228995429351926,222.1637013584841 39.99999999906868,213.3272755057551 27.052472557872534,224.12734819343314 27.615408533252776,259.14551188168116 42.53321189060807,266.0181900530588 53.228995429351926,258.49097032425925 52.666059453971684,220.8546027909033 40.56293597538024,213.0 30.43008841201663,221.18187748407945 28.178344508633018,254.8909893343225 40.844403963536024,264.3818394620903 50.977251526899636,255.8728027381003 50.977251526899636,225.10917115327902 42.25174390338361,215.9454783333931 35.4965121941641,216.92730383435264 29.02274847216904,225.10917115327902 29.304216460324824,256.52734483755194 39.71853201184422,264.3818394620903 50.414315551519394,256.2000738044735 51.258719514124095,226.41826795879751 43.659083841368556,215.9454783333931 28.74128048401326,224.12734819343314 29.585684448480606,258.1636994939763 37.74825609661639,263.7272989896592 47.88110366091132,261.43640626594424 51.540187501348555,251.94554729247466 48.44403963536024,220.20005330373533 36.05944816954434,215.61820309888572 30.993024388328195,220.20005330373533 28.178344508633018,239.83647895255126 31.274492375552654,259.80005330312997 39.99999999906868,264.05456924275495 46.75523170828819,261.76367675629444 51.82165549043566,253.90917562507093 50.414315551519394,222.81825043912977 35.77798018138856,216.92730383435264 28.178344508633018,231.6546497582458 29.02274847216904,256.8546158373356 32.118896338157356,262.4182176361792 45.06642378028482,262.7454880250152 50.977251526899636,255.21826050244272 49.56991158705205,220.52732806373388 41.125871950760484,215.61820309888572 31.83742835186422,219.21822881908156 27.896876521408558,241.14556965837255 32.68183231540024,261.76367675629444 47.31816768459976,260.7818651825655 51.540187501348555,250.9637326686643 49.006975611671805,220.8546027909033 37.46678810939193,216.27275353483856 28.4598124967888,225.43644540500827 29.02274847216904,255.8728027381003 32.68183231540024,261.76367675629444 42.53321189060807,263.7272989896592 50.977251526899636,253.90917562507093 49.288443598896265,220.52732806373388 40.844403963536024,216.27275353483856 31.274492375552654,220.52732806373388 30.993024388328195,242.4546598214656" stroke="#4dd2ff" stroke-linecap="round" stroke-linejoin="round" stroke-width="0.5"><title>2022-04-13 4.1km</title></polyline></svg>