<?xml version="1.0" encoding="utf-8" ?>
<svg baseProfile="full" height="300mm" version="1.1" viewBox="0,0,200,300" width="200mm" xmlns="http://www.w3.org/2000/svg" xmlns:ev="http://www.w3.org/2001/xml-events" xmlns:xlink="http://www.w3.org/1999/xlink"><defs /><rect fill="#222222" height="300" width="200" x="0" y="0" /><text fill="#FFFFFF" style="font-size:12px; font-family:Arial; font-weight:bold;" x="10" y="20">Over 1km Runs</text><text fill="#FFFFFF" style="font-size:4px; font-family:Arial" x="10" y="280">ATHLETE</text><text fill="#FFFFFF" style="font-size:9px; font-family:Arial" x="10" y="290">InzamZ</text><text fill="#FFFFFF" style="font-size:4px; font-family:Arial" x="120" y="280">STATISTICS</text><text fill="#FFFFFF" style="font-size:3px; font-family:Arial" x="120" y="285">Number: 6</text><text fill="#FFFFFF" style="font-size:3px; font-family:Arial" x="120" y="290">Weekly: 1.5</text><text fill="#FFFFFF" style="font-size:3px; font-family:Arial" x="141" y="285">Total: 25.6 km</text><text fill="#FFFFFF" style="font-size:3px; font-family:Arial" x="141" y="290">Avg: 4.3 km</text><text fill="#FFFFFF" style="font-size:3px; font-family:Arial" x="167" y="285">Min: 1.9 km</text><text fill="#FFFFFF" style="font-size:3px; font-family:Arial" x="167" y="290">Max: 8.3 km</text><polyline fill="none" points="69.60282156802714,46.35511913429946 62.641071854159236,38.26039009867236 54.21369061805308,34.42603920772672 45.41990150325,35.27811749232933 40.6565990652889,37.83435128768906 37.72533602826297,40.39058349421248 34.7940729893744,44.224928827024996 31.862809950485826,52.31964612938464 32.96203359030187,56.58001726074144 30.39717843197286,80.01197962695733 32.22921783104539,90.23679411318153 33.32844146899879,93.6450599632226 35.16048086807132,97.47935566818342 38.09174390695989,100.46158319246024 41.75582270510495,102.59174438519403 45.78630938194692,104.29587254486978 54.21369061805308,104.29587254486978 58.24417729489505,102.59174438519403 62.27466397359967,99.60951840598136 66.67155853100121,92.36696060048416 68.13719005137682,74.47352783754468 68.13719005137682,51.46757137402892 67.40437429025769,46.7811570642516 64.83951913192868,42.94681411329657 60.80903245508671,40.39058349421248 58.24417729489505,36.556234589312226 48.35116454213858,35.70415656873956 40.6565990652889,38.68642886681482 37.72533602826297,41.242660543415695 34.7940729893744,45.929081161506474 33.694849351421,50.6154964431189 32.96203359030187,62.54452943243086 32.96203359030187,75.75163275795057 33.694849351421,90.23679411318153 34.7940729893744,94.49712598370388 39.923783307895064,100.88761551864445 47.25194090232253,104.29587254486978 51.64883545972407,105.14793636184186 56.77854577638209,104.29587254486978 63.74029549211264,100.03555082064122 67.77078217081726,93.21902688592672 68.50359793007374,88.95869369152933 68.13719005137682,80.43801407096907 68.87000580877066,57.0060541308485 67.77078217081726,48.48530833981931 66.67155853100121,44.65096697723493 63.74029549211264,40.81662204163149 57.14495365507901,36.98227353254333 52.01524333842099,34.852078372146934 42.48863846436143,36.98227353254333 36.25970450788736,42.94681411329657 35.16048086807132,46.7811570642516 33.32844146899879,51.04153393022716 31.129994191229343,71.91731680464 31.862809950485826,76.17766764340922 31.129994191229343,88.53266013041139 34.06125722825527,96.20125749660656 36.62611238844693,100.03555082064122 39.923783307895064,102.59174438519403 43.95426998473704,104.29587254486978 47.98475666157901,105.14793636184186 52.748059099540114,104.7219044752419 61.54184821434319,101.3136478010565 67.03796641156077,94.07109299581498 68.50359793007374,89.81076068338007 69.23641369119287,80.86404847167432 68.50359793007374,72.34335208730772 69.23641369119287,54.87586933653802 68.87000580877066,50.6154964431189 67.77078217081726,46.7811570642516 65.57233489118516,42.94681411329657 62.641071854159236,39.538506269454956 58.61058517545462,37.4083124329336 54.94650637730956,36.130195600446314 46.5191251412034,36.556234589312226 42.48863846436143,38.26039009867236 39.19096754677594,40.39058349421248 34.06125722825527,48.48530833981931 32.96203359030187,57.0060541308485 33.32844146899879,61.266420408617705 32.22921783104539,66.37885412061587 31.862809950485826,76.17766764340922 31.862809950485826,85.55042396159843 32.96203359030187,89.38472720980644 36.25970450788736,97.05332298902795 43.587862104177475,103.44380855280906 47.98475666157901,104.7219044752419 56.77854577638209,103.44380855280906 60.80903245508671,101.3136478010565 64.47311125136912,98.75745344348252 67.03796641156077,95.34919182863086 69.23641369119287,87.25455917883664 69.60282156802714,56.58001726074144 69.23641369119287,48.911346048116684 68.13719005137682,44.65096697723493 65.20592701248825,41.66869900142774 61.54184821434319,38.68642886681482 53.11446697823703,35.70415656873956 44.32067786343396,37.4083124329336 41.023006945848465,39.538506269454956 37.72533602826297,42.94681411329657 35.16048086807132,46.35511913429946 33.32844146899879,55.30190638359636 32.96203359030187,63.39660189393908 31.862809950485826,68.08299727924168 31.862809950485826,77.88180674472824 30.76358631066978,82.14215140789747 31.129994191229343,86.82852544076741 32.96203359030187,95.77522468520328 34.7940729893744,99.18348594615236 37.72533602826297,102.16571223549545 41.75582270510495,104.29587254486978 45.78630938194692,105.14793636184186 50.54961181990802,106.0 54.94650637730956,105.14793636184186 58.97699305601418,103.44380855280906 64.83951913192868,97.05332298902795 67.40437429025769,93.21902688592672 68.13719005137682,89.38472720980644 67.40437429025769,85.12439004704356 68.50359793007374,62.97056568460539 68.13719005137682,58.28416447667405 69.23641369119287,54.02379511157051 66.67155853100121,45.0770050836727 64.10670337453485,40.81662204163149 60.442624574527144,37.83435128768906 56.04573001712561,35.70415656873956 51.64883545972407,34.42603920772672 43.587862104177475,36.130195600446314 36.25970450788736,42.52077578753233 34.427665108814836,45.929081161506474 32.96203359030187,51.04153393022716 32.96203359030187,65.5267822756432 31.862809950485826,80.86404847167432 34.427665108814836,94.49712598370388 35.8932966273278,98.75745344348252 38.458151787519455,101.73968004016206 42.85504634492099,104.29587254486978 47.618348782882094,105.14793636184186 51.64883545972407,105.14793636184186 56.04573001712561,104.29587254486978 60.076216695830226,102.16571223549545 63.74029549211264,99.18348594615236 68.13719005137682,91.94092739000916 69.23641369119287,86.82852544076741 68.50359793007374,67.65696155512705 68.87000580877066,50.18945890991017 65.20592701248825,42.09473741799593 62.27466397359967,39.11246758932248 54.94650637730956,35.70415656873956 45.78630938194692,36.556234589312226 41.75582270510495,39.11246758932248 35.8932966273278,44.65096697723493 33.694849351421,48.911346048116684 31.862809950485826,57.85812773928046 32.22921783104539,74.89956285478547 31.129994191229343,79.58594513917342 31.496402071788907,88.95869369152933 34.7940729893744,97.90538830403239 37.35892814770341,101.3136478010565 41.38941482640803,103.44380855280906 45.78630938194692,105.14793636184186 50.183203941211104,105.14793636184186 54.21369061805308,104.7219044752419 58.61058517545462,103.44380855280906 61.908256094902754,100.88761551864445 64.83951913192868,97.47935566818342 67.77078217081726,90.23679411318153 68.50359793007374,81.71611713944003 69.23641369119287,63.39660189393908 68.50359793007374,58.71020117076114 68.50359793007374,54.44983224570751 65.57233489118516,45.50304314494133 63.37388761155307,41.66869900142774 59.70980881527066,37.83435128768906 55.312914257869124,36.130195600446314 51.28242758102715,35.70415656873956 43.22145422361791,37.4083124329336 39.19096754677594,40.39058349421248 34.06125722825527,46.7811570642516 32.96203359030187,50.6154964431189 30.76358631066978,82.56818563072011 32.96203359030187,96.627290265169 38.82455966807902,103.0177764906548 46.5191251412034,106.0 56.04573001712561,105.57396820280701 59.70980881527066,103.44380855280906 63.007479732856154,100.46158319246024 68.13719005137682,92.79299376485869 68.50359793007374,88.10662652458996 67.03796641156077,84.27232208335772 68.50359793007374,79.58594513917342 68.13719005137682,75.32559782871976 69.60282156802714,61.69245679443702 68.50359793007374,48.911346048116684 63.74029549211264,40.39058349421248 60.076216695830226,37.4083124329336 52.38165121898055,34.0 48.35116454213858,34.0 43.95426998473704,36.130195600446314 40.6565990652889,38.68642886681482 35.16048086807132,45.0770050836727 32.96203359030187,49.76342133292928 32.59562571160495,54.02379511157051 31.862809950485826,63.39660189393908 32.22921783104539,68.08299727924168 31.496402071788907,81.71611713944003 30.76358631066978,86.40249165799469 32.59562571160495,94.07109299581498 34.7940729893744,97.90538830403239 38.09174390695989,101.3136478010565 42.122230583801866,103.0177764906548" stroke="#4dd2ff" stroke-linecap="round" stroke-linejoin="round" stroke-width="0.5"><title>2022-11-10 4.1km</title></polyline><polyline fill="none" points="168.50359218381345,51.893608775921166 167.77077665179968,46.78115706611425 166.30514558777213,42.94681411376223 163.00747569277883,39.11246759071946 155.31291260942817,34.85207837307826 150.54961165040731,34.0 145.41990292817354,35.704156569670886 137.72533984296024,41.668699003290385 134.7940777130425,45.50304314494133 133.69485441595316,50.18945891037583 132.59563111886382,65.10074628842995 132.59563111886382,91.51489413762465 133.69485441595316,95.77522468473762 135.89330101199448,98.7574534425512 139.92378643713892,102.16571223409846 143.954271864146,104.29587254440412 148.7175728213042,104.72190447431058 153.4808737784624,104.29587254440412 158.24417473748326,103.01777649112046 162.2746601626277,99.60951840458438 165.20592228882015,95.77522468473762 167.0379611197859,91.94092739047483 168.50359218381345,82.99421981023625 168.86999995075166,51.467571374960244 167.77077665179968,47.207194949965924 165.93873782083392,43.37285239761695 158.9769902676344,35.704156569670886 150.18320388533175,34.85207837307826 145.41990292817354,35.704156569670886 141.0230097360909,37.834351289551705 138.0917476080358,40.39058349560946 135.52689324691892,43.79889063490555 132.59563111886382,52.745683441869915 132.59563111886382,70.63921069400385 131.13000005483627,79.15991060668603 131.86281558685005,84.27232208428904 131.86281558685005,88.53266012948006 134.7940777130425,97.47935566818342 140.65660197101533,103.44380855374038 144.68708739615977,104.72190447431058 149.0839805882424,105.57396820141003 158.24417473748326,102.59174438426271 164.83951452374458,95.77522468473762 167.0379611197859,91.08886084007099 168.50359218381345,86.82852544123307 167.77077665179968,76.60370248509571 168.86999995075166,68.08299727877602 167.77077665179968,59.13623782200739 168.50359218381345,51.04153393069282 167.77077665179968,46.355119137093425 165.20592228882015,42.09473741846159 156.77854367159307,35.278117494191974 152.38165048137307,34.0 148.7175728213042,34.0 144.3206796310842,35.278117494191974 140.29019420407712,37.40831243339926 137.35893207602203,40.816622043028474 134.7940777130425,45.077005084604025 132.96203888393939,54.02379511157051 132.96203888393939,71.91731680510566 133.69485441595316,80.43801407236606 132.59563111886382,90.23679411271587 134.06126218289137,94.92315892875195 136.62611654400826,98.7574534425512 143.58786409907043,103.44380855374038 147.98475729115307,104.29587254440412 156.04572814144194,103.44380855374038 160.07621356658638,101.73968004016206 163.00747569277883,98.33142089564353 166.67155335471034,91.51489413762465 167.77077665179968,87.25455917883664 167.40436888486147,79.58594513870776 168.50359218381345,67.23092578770593 167.77077665179968,49.33738371450454 163.00747569277883,41.668699003290385 159.3433980345726,38.686428868211806 154.58009707555175,36.982273533940315 145.41990292817354,36.556234589312226 141.75582526810467,38.260390100535005 138.0917476080358,42.09473741846159 135.1604854799807,45.92908116290346 132.96203888393939,50.6154964431189 132.22922335378826,54.87586933746934 132.59563111886382,59.13623782200739 131.49640782177448,62.970565686002374 132.59563111886382,88.53266012948006 134.06126218289137,92.79299376485869 138.0917476080358,100.03555082064122 144.68708739615977,104.72190447431058 149.0839805882424,105.14793636044487 153.84728154540062,104.72190447431058 158.24417473748326,103.01777649112046 162.2746601626277,100.46158319106326 164.83951452374458,97.05332298902795 168.1371844187379,88.53266012948006 169.23640771396458,71.06524610798806 168.86999995075166,48.05927058821544 166.67155335471034,43.37285239761695 163.37388345971704,39.96454490534961 160.07621356658638,36.556234589312226 155.67932037450373,34.85207837307826 150.54961165040731,34.42603920865804 146.15271845832467,34.85207837307826 142.48864080011845,36.1301956018433 138.458155374974,39.11246759071946 135.89330101199448,43.37285239761695 134.06126218289137,48.05927058821544 133.3284466508776,52.745683441869915 133.69485441595316,62.54452943243086 132.96203888393939,71.49128147913143 132.96203888393939,89.3847272102721 134.7940777130425,93.2190268849954 137.35893207602203,97.05332298902795 140.29019420407712,100.03555082064122 143.954271864146,102.59174438426271 154.58009707555175,103.01777649112046 158.24417473748326,102.16571223409846 162.2746601626277,99.60951840458438 164.83951452374458,95.34919182863086 168.1371844187379,91.94092739047483 169.23640771396458,87.68059287313372 169.23640771396458,65.10074628842995 168.50359218381345,47.6332327905111 166.30514558777213,44.22492882842198 157.14495143853128,35.704156569670886 152.74805824644864,34.85207837307826 144.68708739615977,36.1301956018433 141.0230097360909,38.260390100535005 135.52689324691892,43.79889063490555 133.3284466508776,47.6332327905111 132.22922335378826,51.467571374960244 132.22922335378826,68.08299727877602 130.76359228789806,89.3847272102721 131.13000005483627,93.2190268849954 132.96203888393939,96.62729026470333 135.52689324691892,100.03555082064122 142.12223303318024,104.72190447431058 146.15271845832467,106.0 149.81679612025619,104.72190447431058 153.4808737784624,104.72190447431058 157.5113592054695,103.44380855374038 165.93873782083392,95.34919182863086 169.23640771396458,87.68059287313372 168.1371844187379,57.43209095764905 168.50359218381345,53.171720708720386 167.40436888486147,48.91134605044499 165.20592228882015,44.65096697770059 161.54184463061392,40.816622043028474 157.87776697054505,38.260390100535005 153.84728154540062,37.40831243339926 144.68708739615977,36.982273533940315 140.29019420407712,39.11246759071946 136.99252430908382,42.09473741846159 132.96203888393939,49.76342133432627 132.22922335378826,54.02379511157051 131.86281558685005,67.23092578770593 132.22922335378826,88.10662652365863 133.3284466508776,91.94092739047483 137.35893207602203,98.7574534425512" stroke="#4dd2ff" stroke-linecap="round" stroke-linejoin="round" stroke-width="0.5"><title>2022-11-09 3.1km</title></polyline><polyline fill="none" points="63.07688157260418,122.94416466960683 60.76919658854604,119.36650102538988 57.69228327833116,116.23604290373623 53.07691331021488,114.0 48.84615750797093,114.44720867276192 38.46157508157194,117.57766809081659 32.30774845927954,124.28578777331859 31.153905967250466,128.31065458012745 31.923134295269847,147.09331675805151 31.153905967250466,152.45977666275576 31.153905967250466,170.34792818780988 32.69236262515187,174.81995449401438 38.07696091942489,181.52798527060077 42.30771672166884,184.21119466330856 48.076929181814194,185.55279873590916 52.69229914806783,185.10559742432088 61.15381075441837,181.52798527060077 64.61533822864294,177.95037015294656 67.30763737484813,173.47834708821028 68.84609403274953,138.59640827123076 68.07686570473015,129.2050689170137 65.76918072067201,124.73299538111314 59.23073993436992,118.02487639337778 50.0,115.34162588091567 40.76926006563008,118.47208465076983 34.23081927746534,125.62741045793518 32.69236262515187,130.54669007612392 32.69236262515187,143.96287873433903 31.153905967250466,167.66471018223092 32.30774845927954,172.58394192066044 34.23081927746534,177.5031680543907 41.53848839364946,183.3167917174287 46.53847252391279,184.65839606756344 56.923054952174425,184.21119466330856 63.84610990062356,178.39757220540196 66.92302321270108,169.90072530368343 66.92302321270108,128.75786177115515 64.99995239265263,123.8385801166296 61.92303908057511,120.26091721327975 57.69228327833116,117.57766809081659 52.69229914806783,116.23604290373623 43.46155921369791,117.57766809081659 39.61541757360101,119.36650102538988 36.538504261523485,122.49695687554777 33.8462051153183,126.96903272811323 32.69236262515187,132.33551763743162 33.07697678729892,140.38523249980062 32.30774845927954,145.3044953085482 32.30774845927954,154.695799655281 31.538520133122802,158.72063812380657 31.923134295269847,168.11191329965368 32.69236262515187,172.136739266105 36.92311842739582,181.0807835427113 45.76924419775605,185.55279873590916 50.0,186.0 54.23075580224395,185.55279873590916 61.92303908057511,181.97518695192412 64.61533822864294,177.95037015294656 66.53840904869139,173.47834708821028 67.69225154072046,168.559116369579 67.30763737484813,163.6398800490424 67.30763737484813,148.88213746715337 68.84609403274953,134.57155104819685 66.53840904869139,125.62741045793518 64.23072406463325,121.15533321723342 60.76919658854604,118.02487639337778 53.07691331021488,114.0 48.076929181814194,116.23604290373623 43.8461733777076,116.68325134599581 39.61541757360101,118.91929286066443 36.15389009937644,122.94416466960683 34.23081927746534,126.96903272811323 33.07697678729892,130.9938970352523 31.923134295269847,164.08708358183503 33.07697678729892,173.925549603533 35.00004760734737,177.95037015294656 38.07696091942489,181.97518695192412 41.923102555796504,184.21119466330856 45.76924419775605,185.10559742432088 55.38459829427302,184.21119466330856 59.23073993436992,181.97518695192412 65.38456655666232,174.81995449401438 66.1537948846817,170.34792818780988 66.92302321270108,137.25478961365297 65.38456655666232,132.7827244126238 64.23072406463325,127.41624005883932 61.15381075441837,123.8385801166296 54.23075580224395,119.81370914215222 49.61538583599031,119.36650102538988 41.923102555796504,122.04974903631955 38.46157508157194,125.18020294280723 35.76927593536675,128.31065458012745 35.384661769494414,147.54052200401202" stroke="#4dd2ff" stroke-linecap="round" stroke-linejoin="round" stroke-width="0.5"><title>2022-11-08 1.9km</title></polyline><polyline fill="none" points="139.8742375858128,178.75477061979473 151.55780960060656,184.64152040611953 165.96754842065275,173.77366845868528 167.91481042467058,130.3019906016998 164.40973881818354,121.69816980045289 151.16835720092058,115.81133528985083 136.36916598118842,128.03782887430862 135.9797135796398,173.32084070704877 149.61054759845138,184.64152040611953 165.96754842065275,176.03780650766566 166.74645322188735,127.58499638736248 151.94726200215518,116.71700265398249 135.5902611799538,131.20765496464446 136.36916598118842,174.22649616142735 151.94726200215518,184.18869378138334 166.35700082220137,173.32084070704877 167.13590562157333,129.39632605249062 154.283976405859,116.26416899450123 140.2636899854988,120.79250346915796 135.9797135796398,128.9434937061742 136.36916598118842,176.03780650766566 153.89452400431037,183.73586710868403 167.13590562157333,170.6038732198067 166.74645322188735,128.03782887430862 152.33671440184116,116.71700265398249 135.5902611799538,130.3019906016998 135.5902611799538,174.22649616142735 150.7789048012346,183.28304038895294 165.96754842065275,173.77366845868528 166.74645322188735,126.2264986494556 153.89452400431037,114.905667738989 135.20080878026783,127.13216385478154 134.42190397903323,169.69821701571345 149.61054759845138,184.64152040611953 165.5780960228294,176.03780650766566 167.52535802312195,128.03782887430862 155.45233360864222,115.81133528985083 145.32657119445503,116.26416899450123 135.9797135796398,127.13216385478154 134.42190397903323,172.86801291024312 148.4421903975308,184.64152040611953 162.07302441634238,181.47173304436728 167.91481042467058,173.32084070704877 168.30426282435656,130.3019906016998 153.1156192049384,115.3585015386343 134.81135637685657,127.58499638736248 134.42190397903323,171.05670125130564 138.70588038489223,180.11325204232708 151.16835720092058,184.64152040611953 168.30426282435656,170.6038732198067 167.52535802312195,126.67933127563447 153.1156192049384,115.81133528985083 135.20080878026783,127.58499638736248 134.0324515774846,172.86801291024312 139.0953327845782,181.9245599503629 156.23123840801418,184.64152040611953 168.69371522590518,168.33973235683516 164.79919121786952,118.52833681786433 151.55780960060656,114.0 135.20080878026783,122.60383594501764 131.30628477409482,166.528418823611 142.6004043892026,185.5471735149622 165.5780960228294,181.47173304436728 169.08316762559116,129.84915835037827 143.76876159012318,145.69825926143676 137.92697558365762,175.58497899211943 154.283976405859,183.73586710868403 167.91481042467058,171.5095292367041 167.91481042467058,128.03782887430862 156.6206908095628,117.62266982998699 147.6632855962962,117.16983626456931 136.36916598118842,126.67933127563447 134.0324515774846,168.33973235683516 144.54766639135778,183.73586710868403 165.96754842065275,176.03780650766566 167.52535802312195,127.58499638736248 154.283976405859,115.81133528985083 135.9797135796398,126.2264986494556 134.0324515774846,171.5095292367041 150.7789048012346,186.0 166.74645322188735,176.03780650766566 168.69371522590518,128.9434937061742 157.78904801048338,115.81133528985083 144.1582139916718,116.71700265398249 134.42190397903323,127.58499638736248 133.64299917593598,169.24538884311914 146.88438079319894,185.5471735149622 166.35700082220137,178.75477061979473 167.52535802312195,128.9434937061742 155.84178600646555,116.26416899450123 142.6004043892026,117.62266982998699 136.7586183808744,124.4151676716283 134.42190397903323,173.32084070704877 151.55780960060656,185.5471735149622 167.91481042467058,172.86801291024312 168.30426282435656,130.75482280598953 153.89452400431037,116.26416899450123 136.7586183808744,128.9434937061742 136.7586183808744,172.86801291024312 149.22109519690275,182.83021362312138 165.96754842065275,172.41518506640568 165.96754842065275,126.67933127563447 155.84178600646555,116.26416899450123 147.27383319474757,117.16983626456931 135.20080878026783,129.39632605249062 135.20080878026783,175.1321514295414 153.89452400431037,185.09434698382393 167.91481042467058,173.77366845868528 167.91481042467058,128.49066131329164 155.0628812070936,116.26416899450123 136.7586183808744,126.2264986494556 134.42190397903323,171.96235717413947 146.4949283953756,185.09434698382393 165.96754842065275,177.39628877537325 167.91481042467058,137.09446875099093 157.01014320924878,117.62266982998699 148.05273799784482,117.16983626456931 137.14807078056037,126.2264986494556 136.36916598118842,172.86801291024312 149.22109519690275,183.73586710868403 164.40973881818354,176.94346139905974 165.96754842065275,128.9434937061742 153.5050716046244,116.71700265398249 136.36916598118842,128.9434937061742 134.81135637685657,170.15104514034465 148.83164279907942,184.18869378138334 164.79919121786952,176.03780650766566 169.47262002527714,131.66048707487062 157.01014320924878,114.45283389324322 143.76876159012318,115.3585015386343 134.42190397903323,124.86800048546866 130.52737997286022,166.9812472765334" stroke="#4dd2ff" stroke-linecap="round" stroke-linejoin="round" stroke-width="0.5"><title>2022-04-26 8.3km</title></polyline><polyline fill="none" points="38.8614232968539,256.78055605851114 54.71973589062691,262.9268542472273 66.42468089982867,254.58544740406796 68.31257525831461,211.12206202326342 53.58699927665293,194.8780561448075 34.330476840958,204.97568873967975 31.687424743548036,251.51229337835684 43.3923697527498,264.6829378064722 56.23005137592554,264.24391698418185 67.55741751380265,254.58544740406796 67.55741751380265,207.1708230790682 49.43363169208169,194.0 33.57531910017133,203.21958045009524 31.687424743548036,248.00011462019756 38.8614232968539,261.1707699596882 47.9233162086457,264.6829378064722 60.005840089172125,262.4878332428634 67.55741751380265,250.63424896122888 68.31257525831461,208.48790313629434 50.566368306055665,194.43902809591964 33.57531910017133,206.29276948003098 32.82016135752201,252.82935966178775 45.28026410937309,265.1219585821964 58.49552460387349,263.3658752050251 67.55741751380265,252.3903376115486 67.9349963851273,208.92692973045632 56.98520911857486,195.75611210800707 33.57531910017133,204.09763468708843 31.309845872223377,245.80500142043456 48.67847395129502,263.3658752050251 64.91436541639268,256.34153441898525 67.9349963851273,205.41471569798887 58.11794573254883,195.31708414992318 45.28026410937309,195.75611210800707 36.59595006890595,199.70736169070005 32.065003614872694,212.8781670392491 36.97352894209325,259.8537062657997 52.831841534003615,265.5609793141484 64.91436541639268,258.97566357674077 68.69015412777662,208.92692973045632 54.342157021164894,194.0 41.50447539612651,196.6341678891331 32.44258248619735,207.60984980966896 32.44258248619735,252.82935966178775 48.67847395129502,265.5609793141484 66.80225977115333,255.46349100163206 68.31257525831461,209.3659562803805 56.98520911857486,194.8780561448075 35.085634583607316,201.90249875653535 31.687424743548036,251.07327119167894 39.994159910827875,263.3658752050251 49.43363169208169,266.0 67.17983864434063,253.2683816649951 67.9349963851273,206.73179630283266 51.69910492002964,194.0 39.2390021700412,198.829306546133 32.44258248619735,210.68303565634415 32.82016135752201,254.58544740406796 50.18878943473101,265.5609793141484 66.42468089982867,255.90251273289323 67.9349963851273,207.1708230790682 55.47489363513887,194.43902809591964 38.10626555606723,198.39027890609577 33.952897971495986,205.8537426115945 31.687424743548036,247.122069476638 36.21837119758129,248.87815958308056" stroke="#4dd2ff" stroke-linecap="round" stroke-linejoin="round" stroke-width="0.5"><title>2022-04-19 4.1km</title></polyline><polyline fill="none" points="144.74593089334667,252.47282111644745 142.11889633908868,259.01823567505926 150.0,262.9454795313068 164.63633536919951,255.0909881591797 168.01395122520626,209.2728300630115 163.8857540693134,200.54550537560135 151.12587195076048,194.43636734131724 132.73663007840514,206.21826847828925 131.9860487766564,254.65462709916756 136.86482723243535,262.9454795313068 151.87645325250924,266.0 167.63866057246923,251.60009840596467 167.63866057246923,206.21826847828925 150.0,194.43636734131724 132.73663007840514,208.83646425791085 133.48721137829125,255.52734917588532 153.3776158541441,264.69092007074505 167.63866057246923,254.65462709916756 166.88807927258313,204.4728037212044 150.75058130174875,194.0 137.24011788330972,204.90916997892782 134.23779267817736,249.85465244576335 151.12587195076048,262.50911928294227 164.63633536919951,251.16373698413372 164.63633536919951,210.14556153770536 153.00232520513237,197.9273044448346 143.99534959346056,199.23640511278063 135.36366462893784,210.14556153770536 135.73895528167486,252.0364597835578 149.62470934912562,262.50911928294227 163.8857540693134,251.60009840596467 165.0116260200739,211.891023945529 154.87877845577896,197.9273044448346 134.9883739799261,208.83646425791085 136.1142459306866,254.21826599212363 146.99767479673028,261.6363986530341 160.5081382151693,258.58187502156943 165.38691666908562,245.92739639012143 161.25871951505542,203.6000710716471 144.74593089334667,197.49093746533617 137.99069918505847,203.6000710716471 134.23779267817736,229.78197193704545 138.3659898340702,256.4000710709952 150.0,262.07275899033993 159.0069756116718,259.01823567505926 165.76220732182264,248.545567500405 163.8857540693134,207.09100058535114 144.3706402424723,199.23640511278063 134.23779267817736,218.87286634463817 135.36366462893784,252.47282111644745 139.4918617848307,259.8909568483941 156.7552317082882,260.3273173668422 164.63633536919951,250.2910140035674 162.75988211669028,204.0364374187775 151.50116260163486,197.49093746533617 139.11657113581896,202.29097175924107 133.86250202916563,231.52742621162906 140.2424430884421,259.01823567505926 159.75755691342056,257.70915357675403 165.38691666908562,244.61831022519618 162.00930081680417,204.4728037212044 146.6223841458559,198.36367138009518 134.61308332905173,210.58192720683292 135.36366462893784,251.16373698413372 140.2424430884421,259.01823567505926 153.3776158541441,261.6363986530341 164.63633536919951,248.545567500405 162.3845914658159,204.0364374187775 151.12587195076048,198.36367138009518 138.3659898340702,204.0364374187775 137.99069918505847,233.27287976210937" stroke="#4dd2ff" stroke-linecap="round" stroke-linejoin="round" stroke-width="0.5"><title>2022-04-13 4.1km</title></polyline></svg>