<?xml version="1.0" encoding="utf-8" ?>
<svg baseProfile="full" height="300mm" version="1.1" viewBox="0,0,200,300" width="200mm" xmlns="http://www.w3.org/2000/svg" xmlns:ev="http://www.w3.org/2001/xml-events" xmlns:xlink="http://www.w3.org/1999/xlink"><defs /><rect fill="#222222" height="300" width="200" x="0" y="0" /><text fill="#FFFFFF" style="font-size:12px; font-family:Arial; font-weight:bold;" x="10" y="20">Over 1km Runs</text><text fill="#FFFFFF" style="font-size:4px; font-family:Arial" x="10" y="280">ATHLETE</text><text fill="#FFFFFF" style="font-size:9px; font-family:Arial" x="10" y="290">InzamZ</text><text fill="#FFFFFF" style="font-size:4px; font-family:Arial" x="120" y="280">STATISTICS</text><text fill="#FFFFFF" style="font-size:3px; font-family:Arial" x="120" y="285">Number: 13</text><text fill="#FFFFFF" style="font-size:3px; font-family:Arial" x="120" y="290">Weekly: 1.9</text><text fill="#FFFFFF" style="font-size:3px; font-family:Arial" x="141" y="285">Total: 55.6 km</text><text fill="#FFFFFF" style="font-size:3px; font-family:Arial" x="141" y="290">Avg: 4.3 km</text><text fill="#FFFFFF" style="font-size:3px; font-family:Arial" x="167" y="285">Min: 1.9 km</text><text fill="#FFFFFF" style="font-size:3px; font-family:Arial" x="167" y="290">Max: 8.3 km</text><polyline fill="none" points="42.16934258956462,70.39522006409243 46.869512300007045,67.79282605461776 48.21241793129593,65.71090890699998 48.66005314141512,62.84827001206577 47.988600325770676,49.31575110182166 48.21241793129593,44.110916735138744 47.988600325770676,41.50849551032297 46.64569469355047,37.08437324222177 42.61697780061513,33.96145871793851 39.93116653896868,32.92048634728417 34.78336161933839,33.44097258662805 32.321367961354554,34.74218771280721 28.51646867301315,38.64582904987037 27.173563041724265,40.98801094153896 25.606839804910123,55.301297299331054 25.83065741043538,66.23138835467398 26.50211022607982,68.83378398162313 27.621198251843452,71.17593774199486 29.187921488657594,72.99761137971655 31.426097540184855,74.55904487567022 33.88809119723737,75.07952249213122 36.12626725062728,75.60000000009313 41.49788977392018,74.81928369705565 46.1980594843626,71.69641605834477 48.21241793129593,67.27234692894854 48.43623553495854,64.40970981330611 48.21241793129593,53.73985183937475 48.43623553495854,43.5904327055905 47.988600325770676,41.24825323955156 46.869512300007045,38.64582904987037 45.30278906226158,36.56388775841333 43.288430616259575,34.74218771280721 40.6026193536818,33.44097258662805 37.91680809110403,32.92048634728417 35.23099682852626,32.92048634728417 30.754644724540412,35.262673574499786 27.621198251843452,39.426556590013206 26.94974543619901,42.028979970142245 26.725927830673754,45.151884471066296 26.50211022607982,61.547069437103346 25.38302220031619,63.8892299879808 24.263934173621237,68.83378398162313 21.80194051656872,68.5735445402097 19.339946859516203,65.71090890699998 24.487751779146492,70.13498078472912 22.24957572761923,70.91569854342379 24.487751779146492,70.13498078472912 27.173563041724265,70.39522006409243 29.63555669877678,71.9566551768221 31.64991514571011,74.03856715140864 33.66427359264344,75.07952249213122 36.573902459815145,75.60000000009313 39.03589611686766,75.33976125949994 43.736065827310085,73.51808931934647 46.64569469355047,69.35426278389059 47.76478272024542,67.0121073257178 47.988600325770676,64.40970981330611 48.43623553495854,44.110916735138744 47.988600325770676,41.50849551032297 47.09332990460098,39.16631410247646 45.75042427331209,37.3446159446612 41.94552498497069,34.48194474191405 39.25971372332424,33.44097258662805 36.7977200653404,33.44097258662805 33.88809119723737,33.7012156653218 31.426097540184855,35.002430657390505 29.411739093251526,36.82413051370531 28.06883346196264,38.64582904987037 27.397380646318197,40.98801094153896 26.725927830673754,45.93260998954065 26.50211022607982,50.61695800931193 26.94974543619901,52.95912874536589 27.845015857368708,55.301297299331054 27.621198251843452,60.24586818809621 27.845015857368708,65.71090890699998 28.51646867301315,68.31330507178791 30.530827119015157,66.75186769571155 31.202279935590923,69.61450214427896 33.21663838252425,71.4361769137904 35.678632038645446,72.4771333320532 38.140625696629286,72.73737236950547 40.37880174815655,72.21689426829107 42.3931601960212,70.91569854342379 44.18370103649795,69.35426278389059 45.30278906226158,66.75186769571155 45.974241877906024,58.42418530816212 45.974241877906024,42.549464323790744 44.63133624661714,39.94704148126766 43.06461301166564,37.8651012678165 41.05025456380099,36.56388775841333 38.588260907679796,35.78315932885744 36.12626725062728,35.78315932885744 33.440455987118185,36.56388775841333 30.978462330065668,38.12534388853237 28.06883346196264,42.80970646021888 26.50211022607982,47.75430192355998 26.50211022607982,66.23138835467398 29.411739093251526,70.91569854342379 33.21663838252425,73.77832824829966 35.678632038645446,74.81928369705565 40.37880174815655,74.29880602657795 42.3931601960212,73.51808931934647 44.855153853073716,71.9566551768221 46.64569469355047,69.87474147742614 47.54096511565149,67.27234692894854 48.21241793129593,57.12298244261183 47.988600325770676,43.850674734218046 47.54096511565149,40.98801094153896 46.64569469355047,38.64582904987037 44.855153853073716,36.56388775841333 43.06461301166564,35.002430657390505 40.826436958275735,33.96145871793851 35.454814434982836,33.44097258662805 33.21663838252425,34.22170174284838 28.96410388313234,37.08437324222177 27.621198251843452,39.68679904891178 26.278292620554566,44.891642577713355 26.278292620554566,65.97114864457399 27.173563041724265,68.31330507178791 30.307009514421225,72.4771333320532 35.678632038645446,74.81928369705565 40.6026193536818,73.51808931934647 43.06461301166564,72.4771333320532 45.07897145859897,70.91569854342379 46.421877088956535,68.83378398162313 47.31714750919491,66.75186769571155 47.988600325770676,61.80730960541405 48.21241793129593,51.65792305092327 47.988600325770676,43.06994856894016 47.54096511565149,40.46752626542002 46.421877088956535,38.12534388853237 44.63133624661714,35.78315932885744 42.61697780061513,34.48194474191405 40.154984143562615,33.44097258662805 37.46917288098484,33.180729480460286 34.78336161933839,33.44097258662805 32.321367961354554,34.48194474191405 28.51646867301315,37.8651012678165 26.725927830673754,43.06994856894016 26.278292620554566,64.66994968545623 26.94974543619901,67.27234692894854 28.06883346196264,70.13498078472912 29.63555669877678,71.9566551768221 31.64991514571011,73.51808931934647 34.33572640735656,74.55904487567022 37.02153766993433,75.33976125949994 39.707348932512105,74.81928369705565 41.94552498497069,74.29880602657795 44.18370103649795,72.73737236950547 45.974241877906024,70.65545931691304 47.31714750919491,68.31330507178791 47.988600325770676,65.71090890699998 48.21241793129593,44.110916735138744 47.988600325770676,41.24825323955156 47.31714750919491,38.90607158956118 45.75042427331209,36.82413051370531 41.94552498497069,33.96145871793851 39.707348932512105,32.92048634728417 37.24535527545959,32.92048634728417 34.559544012881815,33.44097258662805 32.0975503558293,34.48194474191405 28.06883346196264,37.8651012678165 26.278292620554566,42.80970646021888 26.50211022607982,58.16394478850998 26.054475015960634,61.026589018292725 26.054475015960634,66.23138835467398 26.94974543619901,68.83378398162313 30.754644724540412,72.99761137971655 35.23099682852626,75.07952249213122 37.91680809110403,75.07952249213122 40.154984143562615,74.55904487567022 42.840795405209064,73.25785036268644 45.974241877906024,69.87474147742614 47.09332990460098,67.27234692894854 47.76478272024542,64.66994968545623 47.988600325770676,62.06754974881187 47.76478272024542,43.850674734218046 47.54096511565149,41.24825323955156 44.407518642023206,34.48194474191405 39.707348932512105,32.66024318756536 37.02153766993433,32.4000000001397 34.78336161933839,33.96145871793851 30.754644724540412,40.207283886382356 29.187921488657594,47.49406029959209 28.96410388313234,55.04105645650998 28.06883346196264,65.45066914171912 30.08319190889597,70.13498078472912 31.64991514571011,71.9566551768221 33.88809119723737,72.99761137971655 37.02153766993433,73.51808931934647 41.94552498497069,71.69641605834477 43.95988343190402,69.61450214427896 45.30278906226158,67.0121073257178 45.75042427331209,61.547069437103346 45.974241877906024,43.06994856894016 45.07897145859897,40.46752626542002 43.736065827310085,38.12534388853237 41.94552498497069,36.56388775841333 39.48353132698685,35.522916465532035 36.35008485428989,35.522916465532035 33.66427359264344,36.3036449754145 31.426097540184855,37.60485861916095 29.859374304302037,39.94704148126766 28.96410388313234,42.28922216035426 28.51646867301315,50.35671668197028 28.96410388313234,56.082019665045664 28.740286277607083,66.75186769571155 31.64991514571011,71.17593774199486 37.91680809110403,74.81928369705565 42.840795405209064,73.25785036268644 45.07897145859897,71.17593774199486 46.64569469355047,69.35426278389059 47.54096511565149,66.49162803869694 48.21241793129593,48.7952681502793 47.76478272024542,40.727768616518006 46.869512300007045,38.64582904987037" stroke="#4dd2ff" stroke-linecap="round" stroke-linejoin="round" stroke-width="0.5"><title>2023-03-23 4.3km</title></polyline><polyline fill="none" points="111.20670274272561,39.20875028963201 109.79324473906308,37.095692042959854 107.57209644839168,34.5130626228638 105.35094815678895,32.869569642003626 102.72595472075045,32.4000000001397 100.10096128564328,32.63478483282961 97.87981299404055,33.339139186544344 95.86058727372438,34.747847236925736 94.24520669877529,36.3913388568908 93.2355938386172,38.504397759214044 92.6298261238262,40.85223867604509 92.02405840717256,58.460968057159334 92.22598097845912,61.043570201611146 92.83174869418144,63.156606130767614 94.04328412655741,65.50442152144387 97.47596784960479,68.79135898407549 99.69711614120752,69.73048309842125 102.32210957724601,70.20004500984214 104.7451804401353,69.96526406588964 107.16825130395591,69.02614004956558 109.18747702334076,67.38267208402976 110.60093502700329,65.73920292663388 111.40862531494349,63.62616940331645 111.00478017143905,54.00010288041085 111.00478017143905,45.07834619865753 110.3990124547854,40.61745469365269 109.79324473906308,38.73918195976876 108.58170930761844,36.86090767150745 106.76440615952015,35.21741639240645 104.54325786791742,34.278277983888984 102.52403214853257,34.04349332116544 99.69711614120752,34.278277983888984 97.67789042182267,35.686985451029614 96.06250984687358,39.678318521007895 94.85097441449761,41.556590476306155 94.04328412655741,43.90442823222838 94.24520669877529,46.2522635567002 93.63943898305297,51.182709825458005 93.2355938386172,61.043570201611146 94.04328412655741,63.39138777926564 95.0528969867155,65.73920292663388 98.68750328104943,68.55657789530233 103.12979986425489,69.02614004956558 105.35094815678895,68.79135898407549 107.37017387524247,67.61745329480618 109.18747702334076,65.97398430807516 110.3990124547854,63.62616940331645 111.00478017143905,61.513133911415935 110.80285759828985,42.965293421642855 110.60093502700329,40.61745469365269 109.5913221668452,38.504397759214044 108.37978673446923,36.626123276306316 106.56248358823359,35.21741639240645 104.54325786791742,34.5130626228638 102.32210957724601,34.04349332116544 100.10096128564328,34.278277983888984 97.87981299404055,35.452200934058055 95.86058727372438,37.095692042959854 94.44712927006185,38.97396613750607 93.63943898305297,41.556590476306155 93.84136155433953,43.66964456671849 92.22598097845912,50.24357803002931 92.22598097845912,52.826189533108845 88.59137468412519,62.68704276159406 87.78368439618498,60.33922445378266 88.79329725541174,58.226185898296535 91.41829069145024,65.03485863795504 87.98560696840286,65.97398430807516 92.427903550677,66.20876566460356 95.0528969867155,66.91310958890244 96.87020013388246,68.79135898407549 98.88942585419863,69.73048309842125 101.71634186152369,70.20004500984214 106.15863844379783,69.2609210901428 108.17786416318268,68.08701564301737 109.5913221668452,66.67832830525003 110.80285759828985,64.80007715942338 111.40862531494349,62.45226103998721 111.61054788716137,42.965293421642855 111.40862531494349,40.61745469365269 110.60093502700329,38.504397759214044 109.38939959462732,36.626123276306316 105.95671587157995,34.04349332116544 103.73556757997721,33.10435442626476 101.31249671708792,33.10435442626476 99.09134842455387,33.57392392237671 97.07212270610034,34.5130626228638 95.0528969867155,36.15655441232957 93.03367126733065,39.913102600956336 92.427903550677,57.05227473867126 92.6298261238262,61.7479157296475 93.43751640990376,64.3305141304154 96.66827756166458,68.08701564301737 100.50480642914772,69.96526406588964 102.72595472075045,70.43482592864893 104.7451804401353,70.20004500984214 107.37017387524247,69.2609210901428 108.98555445112288,67.61745329480618 110.3990124547854,65.97398430807516 111.40862531494349,63.62616940331645 111.61054788716137,58.460968057159334 111.40862531494349,49.53922892711125 111.81247045844793,44.843562653521076 111.40862531494349,40.3826706870459 110.3990124547854,38.26961353421211 108.98555445112288,36.3913388568908 105.35094815678895,33.80870863352902 103.12979986425489,33.339139186544344 98.68750328104943,34.04349332116544 96.46635499037802,35.21741639240645 95.0528969867155,36.626123276306316 93.43751640990376,38.73918195976876 92.83174869418144,41.321806566789746 92.427903550677,45.54791321512312 92.427903550677,53.06097225123085 92.02405840717256,57.52183927549049 92.22598097845912,62.45226103998721 93.2355938386172,64.80007715942338 96.26443241816014,68.32179678115062 100.50480642914772,70.20004500984214 102.92787729296833,70.43482592864893 107.37017387524247,69.02614004956558 109.18747702334076,67.61745329480618 110.60093502700329,65.50442152144387 111.40862531494349,63.156606130767614 111.61054788716137,58.460968057159334 111.40862531494349,46.48704695538618 111.81247045844793,42.02615822269581 111.20670274272561,39.20875028963201 109.99516731128097,37.33047638949938 108.37978673446923,35.452200934058055 104.13941272441298,33.339139186544344 101.91826443281025,33.10435442626476 99.49519356992096,33.57392392237671 97.07212270610034,34.747847236925736 95.0528969867155,36.15655441232957 93.63943898305297,38.26961353421211 93.03367126733065,40.61745469365269 92.02405840717256,59.40009645046666 92.22598097845912,61.513133911415935 92.83174869418144,63.86095100315288 94.24520669877529,65.97398430807516 97.87981299404055,69.2609210901428 99.8990387134254,70.20004500984214 102.1201870040968,70.43482592864893 104.54325786791742,70.20004500984214 106.96632873173803,69.2609210901428 108.98555445112288,67.85223448113538 110.3990124547854,65.97398430807516 111.20670274272561,63.39138777926564 111.81247045844793,56.113145373994485 111.81247045844793,41.556590476306155 111.00478017143905,39.20875028963201 109.79324473906308,37.095692042959854 107.97594159189612,35.452200934058055 105.95671587157995,34.278277983888984 101.51441928837448,33.10435442626476 99.09134842455387,33.57392392237671 95.25481955800205,36.15655441232957 93.84136155433953,38.0348292842973 92.83174869418144,40.147886655759066 92.427903550677,42.49572587036528 92.02405840717256,52.356624024221674 92.02405840717256,62.21747929393314 94.04328412655741,66.44354699668474 98.08173556625843,69.73048309842125 100.7067290013656,70.66960682393983 103.12979986425489,70.66960682393983 105.35094815678895,70.20004500984214 107.37017387524247,69.2609210901428 109.18747702334076,67.85223448113538 110.60093502700329,65.97398430807516 111.20670274272561,63.62616940331645 111.81247045844793,58.93053230224177 111.81247045844793,49.06966273719445 111.40862531494349,46.48704695538618 111.61054788716137,41.321806566789746 110.80285759828985,38.97396613750607 109.5913221668452,36.86090767150745 107.77401901967824,35.452200934058055 105.75479330029339,34.278277983888984 103.53364500869066,33.80870863352902 100.90865157265216,33.80870863352902 98.48558070976287,34.278277983888984 96.26443241816014,35.21741639240645 94.64905184227973,36.86090767150745 93.2355938386172,38.97396613750607 92.6298261238262,41.08702263329178 92.22598097845912,50.94792691338807 92.02405840717256,57.756621507462114 92.427903550677,62.45226103998721 93.03367126733065,64.80007715942338 96.06250984687358,68.55657789530233 97.87981299404055,69.73048309842125 100.30288385692984,70.66960682393983 102.92787729296833,70.66960682393983 105.14902558457106,70.43482592864893 107.57209644839168,69.2609210901428 109.5913221668452,67.61745329480618 110.80285759828985,65.03485863795504 111.61054788716137,60.33922445378266 111.81247045844793,55.40879809460603 111.81247045844793,41.321806566789746 111.20670274272561,38.97396613750607 109.99516731128097,36.86090767150745 106.36056101601571,33.80870863352902 103.9374901521951,33.10435442626476 99.49519356992096,33.339139186544344 97.2740452773869,34.5130626228638 95.25481955800205,36.15655441232957 93.84136155433953,38.26961353421211 92.83174869418144,40.3826706870459 92.6298261238262,42.73050965787843 92.83174869418144,50.24357803002931 92.6298261238262,54.704450596822426 92.02405840717256,57.287057019304484 92.427903550677,62.21747929393314 94.44712927006185,66.91310958890244 98.08173556625843,69.73048309842125 100.30288385692984,70.90438769408502 102.92787729296833,70.90438769408502 107.37017387524247,69.4957021062728 109.18747702334076,67.85223448113538 110.3990124547854,65.97398430807516 111.20670274272561,63.62616940331645 111.81247045844793,58.93053230224177 112.01439303066581,42.26094205863774 111.61054788716137,39.913102600956336 110.60093502700329,37.80004501063377 109.38939959462732,35.921769944019616 104.94710301142186,33.10435442626476 102.72595472075045,32.869569642003626 100.10096128564328,32.869569642003626 95.86058727372438,34.98263182700612 94.24520669877529,36.86090767150745 93.03367126733065,39.20875028963201 92.427903550677,41.79137436160818 92.83174869418144,46.48704695538618 92.427903550677,56.113145373994485 91.82213583495468,58.460968057159334 92.02405840717256,60.808788309805095 92.6298261238262,63.39138777926564 93.84136155433953,65.73920292663388 95.25481955800205,67.61745329480618 97.2740452773869,69.2609210901428 99.49519356992096,70.43482592864893 101.71634186152369,70.90438769408502 106.15863844379783,70.43482592864893 108.37978673446923,68.79135898407549 109.99516731128097,66.91310958890244 111.00478017143905,64.565295657143 111.61054788716137,62.45226103998721 111.81247045844793,55.174015619792044 111.81247045844793,43.2000771604944 111.40862531494349,40.61745469365269 110.3990124547854,38.504397759214044 108.78363187983632,36.626123276306316 106.76440615952015,35.21741639240645 104.54325786791742,34.278277983888984 102.52403214853257,33.80870863352902 100.30288385692984,34.04349332116544 96.06250984687358,36.15655441232957 94.24520669877529,37.56526071252301 93.43751640990376,39.913102600956336 92.83174869418144,42.26094205863774 92.427903550677,56.817492434056476 92.6298261238262,61.043570201611146 93.03367126733065,63.39138777926564 93.63943898305297,65.50442152144387 95.25481955800205,67.61745329480618 96.87020013388246,69.02614004956558 99.09134842455387,70.43482592864893 103.9374901521951,70.90438769408502 106.36056101601571,70.20004500984214 108.17786416318268,69.02614004956558 109.79324473906308,67.38267208402976 110.80285759828985,65.03485863795504 111.61054788716137,62.45226103998721 112.01439303066581,50.24357803002931 112.01439303066581,42.73050965787843 111.61054788716137,40.3826706870459 108.78363187983632,36.626123276306316 104.34133529663086,34.04349332116544 101.91826443281025,33.80870863352902 99.8990387134254,34.04349332116544 97.67789042182267,34.98263182700612 95.86058727372438,36.3913388568908 94.24520669877529,37.80004501063377 93.2355938386172,40.147886655759066 92.22598097845912,58.93053230224177 92.6298261238262,63.62616940331645 93.84136155433953,65.97398430807516 95.45674213021994,68.08701564301737 97.47596784960479,69.73048309842125 99.8990387134254,70.66960682393983 102.32210957724601,70.90438769408502 104.7451804401353,70.90438769408502 106.96632873173803,69.96526406588964 108.78363187983632,68.79135898407549 110.3990124547854,66.67832830525003 111.40862531494349,64.3305141304154 112.01439303066581,45.07834619865753 111.40862531494349,40.3826706870459 110.19708988256752,38.0348292842973 108.58170930761844,36.15655441232957 106.56248358823359,34.747847236925736 104.34133529663086,33.80870863352902 101.91826443281025,33.57392392237671 99.49519356992096,33.80870863352902 97.47596784960479,34.747847236925736 95.6586647015065,36.15655441232957 94.04328412655741,38.0348292842973 93.2355938386172,39.913102600956336 92.6298261238262,44.843562653521076 92.6298261238262,52.356624024221674 92.22598097845912,59.86966050043702 92.22598097845912,62.45226103998721 94.24520669877529,66.67832830525003 95.6586647015065,68.08701564301737 97.67789042182267,69.96526406588964 100.10096128564328,70.90438769408502 102.52403214853257,71.13916854094714 104.94710301142186,70.90438769408502 106.96632873173803,69.96526406588964 109.18747702334076,68.08701564301737 110.3990124547854,66.20876566460356 111.40862531494349,61.7479157296475 112.01439303066581,52.356624024221674 112.01439303066581,42.26094205863774 111.40862531494349,39.913102600956336 110.19708988256752,37.56526071252301 106.36056101601571,34.5130626228638 104.13941272441298,33.80870863352902 99.69711614120752,34.04349332116544 97.07212270610034,34.98263182700612 95.45674213021994,36.626123276306316 93.03367126733065,40.3826706870459 92.22598097845912,59.634878487559035 92.83174869418144,64.09573257877491 93.84136155433953,66.20876566460356 95.0528969867155,68.08701564301737 96.66827756166458,69.4957021062728 99.09134842455387,70.66960682393983 101.11057414487004,71.13916854094714 103.73556757997721,71.37394936243072 106.15863844379783,70.66960682393983 109.5913221668452,68.08701564301737 110.60093502700329,66.20876566460356 111.61054788716137,63.86095100315288 112.01439303066581,61.513133911415935 112.01439303066581,59.16531438776292 111.61054788716137,56.817492434056476 112.01439303066581,54.704450596822426 112.2163156028837,42.49572587036528 107.16825130395591,37.095692042959854 104.94710301142186,35.921769944019616 102.52403214853257,35.452200934058055 100.10096128564328,35.452200934058055 97.87981299404055,36.86090767150745 96.06250984687358,38.26961353421211 94.24520669877529,45.07834619865753 94.24520669877529,56.817492434056476 90.81252297572792,65.73920292663388 90.40867783129215,68.32179678115062 91.21636811923236,70.20004500984214 94.24520669877529,73.7217562450096 95.45674213021994,75.60000000009313" stroke="#4dd2ff" stroke-linecap="round" stroke-linejoin="round" stroke-width="0.5"><title>2023-03-21 6.8km</title></polyline><polyline fill="none" points="174.40979964192957,69.47031057230197 175.41395482234657,66.25951555301435 175.91603241302073,53.12440693937242 175.66499361768365,41.44870345853269 174.66083843633533,38.82166351098567 173.15460566524416,36.778408525977284 170.89525650721043,34.735152060166 168.38486855477095,33.56757627148181 165.62344180699438,33.27568224910647 162.61097626388073,33.859470264287665 160.10058831144124,35.02704593143426 158.09227794781327,37.36219581612386 156.33500638231635,40.2811304514762 156.08396758604795,42.90816903812811 156.33500638231635,69.17842026730068 160.10058831144124,73.55677167186514 163.1130538545549,75.01622062874958 166.12551939766854,75.60000000009313 171.64837289322168,74.14055134472437 175.1629160270095,68.88652993179858 175.66499361768365,65.67573424847797 175.41395482234657,48.1622388693504 175.91603241302073,45.24331239401363 175.41395482234657,39.69734376622364 174.1587608465925,37.36219581612386 171.39733409881592,35.02704593143426 168.8869461454451,33.859470264287665 165.87448060233146,33.27568224910647 163.1130538545549,33.859470264287665 160.351627105847,35.02704593143426 158.09227794781327,37.070302185602486 156.58604517765343,39.69734376622364 156.08396758604795,45.24331239401363 156.33500638231635,54.29197462811135 156.33500638231635,69.17842026730068 157.84123915433884,71.51354186306708 159.84954951610416,73.26488178945147 162.61097626388073,74.72433089721017 165.87448060233146,75.60000000009313 168.8869461454451,75.01622062874958 171.64837289322168,73.84866152354516 175.41395482234657,69.17842026730068 175.91603241302073,66.55140616046265 175.66499361768365,42.032489782199264 175.41395482234657,39.11355695920065 173.656683254987,36.4865148360841 168.8869461454451,33.27568224910647 166.37655819300562,32.691894113086164 163.36409264989197,33.27568224910647 160.6026659021154,34.735152060166 158.59435554035008,36.4865148360841 156.8370839720592,39.11355695920065 156.33500638231635,42.032489782199264 156.58604517765343,54.29197462811135 156.33500638231635,60.421697058482096 156.8370839720592,69.47031057230197 158.59435554035008,71.80543192615733 160.85370469652116,73.84866152354516 163.61513144522905,75.01622062874958 166.6275969883427,75.30811032908969 169.64006253052503,74.43244113633409 172.15045048482716,72.6811019347515 174.1587608465925,70.3459813061636 175.1629160270095,67.42707780143246 175.66499361768365,58.37845772923902 175.41395482234657,40.86491701495834 173.15460566524416,35.90272736409679 170.89525650721043,33.859470264287665 168.13382975850254,32.691894113086164 165.62344180699438,32.691894113086164 162.61097626388073,33.27568224910647 160.10058831144124,34.735152060166 158.34331674408168,36.778408525977284 156.8370839720592,39.11355695920065 156.08396758604795,42.32438289746642 156.33500638231635,66.25951555301435 157.0881227683276,68.88652993179858 158.59435554035008,71.51354186306708 160.85370469652116,73.26488178945147 163.61513144522905,74.43244113633409 166.37655819300562,74.72433089721017 169.64006253052503,74.43244113633409 172.15045048482716,72.97299187770113 173.90772205032408,70.6378714912571 175.41395482234657,67.71896828850731 175.91603241302073,65.09195282123983 175.41395482234657,49.62170097301714 176.1670712083578,43.2000620639883 175.66499361768365,40.2811304514762 172.90356686990708,35.02704593143426 170.39317891653627,33.27568224910647 167.6317521687597,32.691894113086164 164.61928662564605,32.691894113086164 161.8578598778695,33.27568224910647 159.34747192543,35.02704593143426 156.33500638231635,39.98923712410033 156.08396758604795,57.502783277770504 156.08396758604795,60.7135882708244 157.59020035807043,65.96762491599657 156.8370839720592,68.88652993179858 158.59435554035008,71.22165176877752 160.85370469652116,73.26488178945147 163.8661702396348,74.14055134472437 167.38071337435395,74.14055134472437 170.14214012306184,73.55677167186514 172.65252807457,71.51354186306708 174.40979964192957,69.47031057230197 175.41395482234657,66.84329673764296 175.66499361768365,40.57302374835126 174.66083843633533,37.94598298473284 172.90356686990708,35.318939773133025 170.64421771280468,33.859470264287665 167.6317521687597,32.4000000001397 161.35578228812665,33.27568224910647 159.09643313009292,34.735152060166 157.59020035807043,37.070302185602486 156.58604517765343,39.98923712410033 156.08396758604795,43.2000620639883 156.58604517765343,45.827097930945456 156.33500638231635,66.55140616046265 157.33916156366467,69.47031057230197 159.09643313009292,71.80543192615733 161.35578228812665,73.55677167186514 164.3682478312403,74.43244113633409 166.87863578274846,74.43244113633409 169.89110132679343,73.55677167186514 174.1587608465925,69.76220084773377 175.41395482234657,67.13518728455529 175.41395482234657,40.86491701495834 174.66083843633533,38.23787652421743 173.15460566524416,35.318939773133025 170.89525650721043,33.56757627148181 168.13382975850254,32.4000000001397 161.8578598778695,33.56757627148181 159.59851071983576,35.02704593143426 157.59020035807043,37.36219581612386 156.58604517765343,39.98923712410033 156.58604517765343,43.2000620639883 156.08396758604795,64.50817127409391 156.58604517765343,67.42707780143246 157.84123915433884,70.3459813061636 159.59851071983576,72.3892119617667 161.8578598778695,74.14055134472437 164.3682478312403,75.01622062874958 167.38071337435395,74.72433089721017 170.39317891653627,73.55677167186514 173.15460566524416,71.80543192615733 174.9118772316724,68.88652993179858 175.66499361768365,66.25951555301435 175.1629160270095,39.69734376622364 173.90772205032408,36.778408525977284 172.15045048482716,34.735152060166 169.38902373611927,33.27568224910647 166.6275969883427,32.691894113086164 163.61513144522905,32.691894113086164 161.10474349278957,33.859470264287665 158.59435554035008,35.90272736409679 157.33916156366467,37.94598298473284 156.33500638231635,43.783848023740575 156.33500638231635,67.42707780143246 159.59851071983576,72.09732195897959 162.1088986741379,73.55677167186514 164.87032542098314,74.43244113633409 170.14214012306184,73.55677167186514 174.1587608465925,69.47031057230197 175.41395482234657,67.13518728455529 175.66499361768365,41.44870345853269 174.9118772316724,38.82166351098567 173.40564446058124,36.4865148360841 171.39733409881592,34.735152060166 168.63590735103935,33.56757627148181 165.87448060233146,32.98378819669597 163.1130538545549,33.27568224910647 160.10058831144124,34.735152060166 156.8370839720592,39.405450377613306 156.33500638231635,42.61627598316409 156.33500638231635,60.421697058482096 155.8329287916422,66.25951555301435 156.8370839720592,69.47031057230197 158.59435554035008,71.51354186306708 160.6026659021154,73.26488178945147 163.36409264989197,74.43244113633409 166.37655819300562,75.01622062874958 169.1379849407822,74.14055134472437 171.64837289322168,72.97299187770113 175.1629160270095,67.71896828850731 175.41395482234657,65.09195282123983 175.1629160270095,62.17304387642071 175.66499361768365,56.62710855389014 175.41395482234657,54.000082751736045 175.66499361768365,47.57845381554216 175.41395482234657,41.74059663526714 174.66083843633533,38.82166351098567 173.40564446058124,36.19462111592293 171.39733409881592,34.44325815862976 168.63590735103935,32.98378819669597 165.3724030116573,32.691894113086164 162.35993746761233,33.56757627148181 159.84954951610416,35.02704593143426 157.84123915433884,37.36219581612386 156.8370839720592,39.98923712410033 156.08396758604795,46.41088334703818 156.8370839720592,57.21089173317887 156.33500638231635,66.55140616046265 156.8370839720592,69.17842026730068 158.84539433475584,71.80543192615733 161.10474349278957,73.84866152354516 164.11720903590322,74.72433089721017 167.38071337435395,74.72433089721017 170.39317891653627,73.84866152354516 172.65252807457,72.6811019347515 174.1587608465925,70.3459813061636 175.41395482234657,67.42707780143246 175.66499361768365,64.21628045546822 175.1629160270095,40.57302374835126 173.90772205032408,37.65408941498026 172.40148927923292,35.610833583632484 170.14214012306184,33.859470264287665 167.12967457901686,32.98378819669597 160.85370469652116,34.44325815862976 158.59435554035008,36.19462111592293 157.0881227683276,38.23787652421743 156.08396758604795,44.65952673647553 156.58604517765343,53.70819084439427 156.08396758604795,59.25413190876134 156.8370839720592,64.50817127409391" stroke="#4dd2ff" stroke-linecap="round" stroke-linejoin="round" stroke-width="0.5"><title>2023-03-20 4.4km</title></polyline><polyline fill="none" points="44.789970498066396,91.9990644371137 44.3828018005006,89.39520307409111 44.3828018005006,85.84447347454261 44.28100962564349,84.66089449054562 43.975633102003485,83.71403042064048 43.263087880797684,82.53044923068956 41.430828739423305,80.9917918513529 40.20932264532894,80.51835839473642 39.08960872562602,80.51835839473642 37.76631045714021,80.87343350565061 36.74838871182874,81.46522511169314 35.62867479212582,82.17537463444751 35.01792174531147,83.0038818535395 34.508960872888565,84.06910453899764 34.10179217439145,87.38312432193197 33.89820782560855,94.24784902250394 34.10179217439145,96.61498591210693 34.61075304681435,97.91690911201295 35.425090443342924,98.62704841443338 36.34122001333162,99.45554370910395 38.886024376843125,100.04732569528278 40.00573829654604,99.92896932270378 41.22724439064041,99.57390013081022 42.245166135486215,98.9821179000428 43.161295706406236,98.1536222618306 43.87384092761204,97.08841270173434 44.28100962564349,96.02320214943029 44.48459397442639,91.28892101719975 44.5863861492835,85.4893999081105 44.28100962564349,84.30582055612467 42.245166135486215,81.58358339604456 40.20932264532894,80.51835839473642 38.98781655076891,80.40000000002328 37.868102631531656,80.75507514749188 35.93405131576583,81.8202999283094 35.11971391970292,82.64880740467925 34.30537652364001,84.89761038543656 34.508960872888565,91.88070723088458 34.10179217439145,93.0642787393881 33.79641565075144,95.19470436673146 34.0,96.37827244389337 34.407168698031455,97.32512602338102 36.137635664548725,98.9821179000428 37.053765235468745,99.57390013081022 39.29319307440892,99.81061293766834 41.430828739423305,99.10047437087633 42.448750484734774,98.50869189447258 43.77204875322059,96.61498591210693 43.975633102003485,95.54977491835598 43.975633102003485,93.3009928939864 44.48459397442639,88.68505803658627 44.5863861492835,85.13432623108383 44.3828018005006,84.06910453899764 43.77204875322059,82.88552371645346 41.93978961184621,81.22850850597024 40.9218678670004,80.63671677734237 38.682440027128905,80.63671677734237 37.56272610835731,80.87343350565061 36.34122001333162,81.58358339604456 35.62867479212582,82.29373284522444 34.91612957045436,83.35895619250368 34.61075304681435,84.5425365245901 34.508960872888565,85.72611563152168 34.30537652364001,95.07634749135468 34.407168698031455,96.1415589263197 34.81433739652857,97.20676936861128 36.239427839405835,99.10047437087633 37.35914175910875,99.69225654029287 39.598569598048925,100.16568205552176 40.616491343826056,100.04732569528278 41.73620526306331,99.45554370910395 42.55054265912622,98.62704841443338 43.36488005518913,97.68019591330085 43.87384092761204,96.61498591210693 44.28100962564349,95.54977491835598 44.48459397442639,91.0522064458346 44.17921745125204,84.06910453899764 43.67025657882914,83.0038818535395 42.85591918276623,82.17537463444751 41.22724439064041,80.75507514749188 40.10753047093749,80.40000000002328 38.98781655076891,80.40000000002328 36.951973060611635,81.34686681476887 36.035843490157276,82.05701641144697 34.71254522167146,83.8323884725105 34.508960872888565,85.01596831448842 34.508960872888565,86.08118912426289 33.79641565075144,95.07634749135468 33.89820782560855,96.25991569098551 34.30537652364001,97.44348266546149 35.01792174531147,98.2719788182294 36.035843490157276,98.9821179000428 37.053765235468745,99.45554370910395 38.17347915517166,99.81061293766834 39.29319307440892,99.69225654029287 41.430828739423305,99.21883082925342 42.448750484734774,98.50869189447258 43.161295706406236,97.7985525187105 43.77204875322059,96.85169933165889 44.17921745125204,95.78648855839856 44.48459397442639,93.53770700003952 44.5863861492835,89.98699026822578 44.3828018005006,85.37104202795308 44.17921745125204,84.18746255361475 42.95771135762334,82.29373284522444 41.93978961184621,81.58358339604456 41.02366004139185,80.9917918513529 39.90394612168893,80.63671677734237 38.784232201986015,80.63671677734237 37.56272610835731,80.9917918513529 36.54480436304584,81.58358339604456 35.62867479212582,82.29373284522444 35.01792174531147,83.35895619250368 34.30537652364001,85.37104202795308 34.10179217439145,87.61983965313993 34.30537652364001,96.61498591210693 33.69462347635999,97.44348266546149 33.491039127111435,98.50869189447258 34.81433739652857,100.52075106312986 37.053765235468745,103.1245870833518 37.4609339335002,104.18979101837613 37.66451828274876,105.37334978219587 36.74838871182874,107.50375246885233 36.035843490157276,108.33224133017939 36.035843490157276,109.51579580490943 36.54480436304584,111.76454593101516 37.25734958425164,112.8297418152215 40.9218678670004,115.55190456542186 39.90394612168893,117.80064281716477 38.17347915517166,116.61709692014847 25.754833864513785,122.06139790033922 25.14408081723377,122.17975198163185 23.210029501933604,123.59999999997672 26.569171260576695,120.04937664570753 26.06021038815379,122.77152220369317 24.024366897996515,123.3632921196986 27.485300831031054,120.75950219854712 26.467379086185247,121.70633558358531 25.34766516648233,120.99621061852667" stroke="#4dd2ff" stroke-linecap="round" stroke-linejoin="round" stroke-width="0.5"><title>2023-03-17 2.8km</title></polyline><polyline fill="none" points="94.51829331088811,123.60000000009313 93.90921478997916,121.71149251936004 91.26987453177571,118.17053677816875 90.66079601086676,116.04596069315448 91.26987453177571,113.92138262791559 93.50316244270653,114.39351125829853 98.37579061090946,117.22628098470159 101.42118321638554,117.93447286682203 104.06052347458899,117.93447286682203 106.4968375582248,117.22628098470159 108.93315164279193,115.57383240526542 110.35433485917747,113.68531827651896 111.97854424919933,108.7279612463899 111.36946572735906,101.40993831027299 111.57249190099537,89.6066260135267 111.16643955372274,87.48202331038192 110.15130868554115,85.12135131773539 108.52709929645061,83.23281196434982 104.46657582186162,80.4000000001397 97.5636859163642,82.05247407406569 95.73645035363734,83.23281196434982 94.51829331088811,85.12135131773539 92.69105774722993,86.77382196905091 90.86382218357176,91.49516008701175 92.48803157359362,96.68862072471529 92.48803157359362,99.28534660651349 92.08197922632098,101.40993831027299 92.08197922632098,106.13124611903913 92.89408392179757,111.32467341586016 93.70618861541152,113.4492539006751 94.92434565816075,115.10170401982032 98.7818429581821,117.93447286682203 101.01513086911291,118.64266452752054 105.68473286367953,117.93447286682203 107.71499460097402,116.51808888325468 109.5422301646322,115.10170401982032 111.77551807463169,110.85254415054806 111.97854424919933,108.49189635715447 112.18157042190433,90.31482647452503 110.96341338008642,85.59348591207527 109.5422301646322,83.70494694914669 105.48170669004321,80.87213557190262 102.63934025913477,80.63606779836118 100.40605234820396,80.87213557190262 98.17276443727314,81.34427104587667 94.51829331088811,84.64921662653796 93.50316244270653,89.13449225039221 93.70618861541152,95.98042224347591 93.30013626813889,107.78370154206641 93.70618861541152,112.26893165311776 95.12737183179706,114.15744695533067 99.18789530638605,116.7541529412847 101.2181570418179,117.46234496938996 105.88775903731585,116.7541529412847 107.91802077461034,115.57383240526542 109.94828251097351,113.92138262791559 110.7603872064501,111.32467341586016 111.16643955372274,104.47878949833103 111.16643955372274,89.6066260135267 110.55736103188246,87.24595622089691 109.33920399006456,85.12135131773539 107.71499460097402,82.9967444348149 105.68473286367953,82.05247407406569 103.04539260547608,81.81640642229468 100.40605234820396,82.05247407406569 98.37579061090946,82.52460930286907 96.54855504725128,83.94101440533996 94.72131948452443,85.8295531719923 93.70618861541152,88.1902244312223 93.50316244270653,95.74435603432357 94.31526713632047,97.8689510372933 94.31526713632047,110.14435006934218 95.12737183179706,112.5049961518962 96.54855504725128,114.62957553635351 98.7818429581821,116.04596069315448 101.01513086911291,116.7541529412847 103.45144495368004,116.51808888325468 105.88775903731585,115.57383240526542 107.71499460097402,114.15744695533067 109.13617781642824,112.5049961518962 109.94828251097351,110.14435006934218 110.15130868554115,90.55089324573055 109.94828251097351,88.1902244312223 108.93315164279193,86.06562040816061 107.10591607913375,84.17708183638752 102.43631408456713,82.76067688153125 100.0,83.46887946897186 97.76671208906919,84.41314924298786 95.93947652634233,86.3016876198817 93.50316244270653,90.31482647452503 91.47290070541203,91.25909341406077 91.26987453177571,96.2164884279482 92.69105774722993,98.34108299133368 93.09711009450257,100.46567557519302 92.08197922632098,103.5345280340407 88.02145575266331,112.26893165311776 87.41237723082304,114.39351125829853 92.08197922632098,114.15744695533067 94.31526713632047,114.86563979042694 95.93947652634233,116.28202480007894 97.76671208906919,117.46234496938996 100.40605234820396,118.40660066483542 102.43631408456713,118.40660066483542 105.0756543437019,117.93447286682203 107.30894225370139,117.22628098470159 108.93315164279193,115.80989656108432 110.7603872064501,113.68531827651896 111.97854424919933,108.7279612463899 112.18157042190433,96.68862072471529 111.77551807463169,88.89842533203773 111.16643955372274,86.53775480692275 109.94828251097351,84.64921662653796 108.32407312188298,83.23281196434982 106.4968375582248,81.81640642229468 104.06052347458899,80.87213557190262 101.62420939095318,80.87213557190262 96.95460739545524,82.52460930286907 95.12737183179706,84.17708183638752 93.50316244270653,86.06562040816061 91.67592687904835,90.78695999295451 91.26987453177571,95.27222354197875 92.89408392179757,99.75747826742008 92.28500540088862,109.20009095128626 93.30013626813889,113.68531827651896 94.92434565816075,115.57383240526542 96.95460739545524,117.22628098470159 101.42118321638554,118.87872836599126 103.85749730095267,118.64266452752054 106.09078521188349,117.93447286682203 107.91802077461034,116.7541529412847 109.5422301646322,115.33776822453365 110.96341338008642,113.21318950038403 111.77551807463169,111.0886087953113 112.38459659554064,91.73122673598118 112.18157042190433,89.13449225039221 111.57249190099537,87.00988910696469 109.13617781642824,83.23281196434982 107.10591607913375,82.05247407406569 105.0756543437019,81.1082033214625 100.60907852184027,80.87213557190262 98.37579061090946,81.58033874654211 94.72131948452443,84.64921662653796 93.30013626813889,86.3016876198817 91.47290070541203,90.31482647452503 91.47290070541203,94.80009095207788 91.87895305268466,96.9246868356131 93.09711009450257,98.81321484805085 93.30013626813889,103.2984626069665 92.89408392179757,110.14435006934218 93.30013626813889,112.26893165311776 94.31526713632047,114.39351125829853 95.93947652634233,115.80989656108432 100.0,118.17053677816875 102.23328791093081,118.40660066483542 104.46657582186162,118.17053677816875 106.69986373279244,117.22628098470159 108.52709929645061,116.04596069315448 109.94828251097351,114.39351125829853 111.77551807463169,109.90828532609157 112.18157042190433,91.02302671526559 112.18157042190433,88.6623583897017 111.16643955372274,86.3016876198817 108.32407312188298,82.76067688153125 106.2938113855198,81.1082033214625 103.85749730095267,80.63606779836118 101.2181570418179,80.63606779836118 96.7515812208876,82.52460930286907 94.92434565816075,84.17708183638752 93.70618861541152,86.53775480692275 93.09711009450257,88.89842533203773 92.69105774722993,91.02302671526559 93.50316244270653,93.14762611873448 93.50316244270653,95.74435603432357 92.69105774722993,97.6328850237187 92.69105774722993,112.03286713082343 95.5334241790697,115.80989656108432 97.36065974272788,117.22628098470159 99.59394765272737,118.17053677816875 102.0302617372945,118.40660066483542 104.46657582186162,118.17053677816875 106.69986373279244,117.46234496938996 108.73012546915561,116.04596069315448 110.35433485917747,114.15744695533067 111.36946572735906,112.03286713082343 111.97854424919933,109.67222055885941 112.38459659554064,94.56402462092228 112.18157042190433,89.6066260135267 111.77551807463169,87.24595622089691 110.7603872064501,85.12135131773539 109.13617781642824,83.23281196434982 107.30894225370139,81.81640642229468 105.2786805164069,81.1082033214625 103.04539260547608,80.63606779836118 98.37579061090946,81.58033874654211 96.34552887454629,82.9967444348149 94.72131948452443,84.41314924298786 93.50316244270653,86.53775480692275 92.89408392179757,89.13449225039221 92.69105774722993,95.98042224347591 92.48803157359362,109.90828532609157 93.09711009450257,112.26893165311776 95.5334241790697,115.80989656108432 96.95460739545524,117.46234496938996 101.82723556365818,118.64266452752054 106.90288990642875,117.46234496938996 110.55736103188246,114.15744695533067 111.36946572735906,112.03286713082343 111.97854424919933,109.43615576741286 112.18157042190433,102.82633167901076 112.38459659554064,90.31482647452503 112.18157042190433,87.71809037565254 111.16643955372274,85.8295531719923 109.5422301646322,83.70494694914669 107.71499460097402,82.28854170069098 105.48170669004321,81.1082033214625 103.24841878004372,80.87213557190262 100.60907852184027,81.1082033214625 98.37579061090946,81.81640642229468 95.93947652634233,83.23281196434982 94.31526713632047,85.35741862677969 93.30013626813889,87.95415741577744 92.69105774722993,92.67549308948219 92.89408392179757,104.24272416858003 92.48803157359362,108.96402611071244 92.69105774722993,111.32467341586016 93.70618861541152,113.68531827651896 94.92434565816075,115.33776822453365 96.7515812208876,116.990216975566 101.2181570418179,118.40660066483542 103.45144495368004,118.17053677816875 105.68473286367953,117.6984089303296 109.33920399006456,115.10170401982032 110.55736103188246,113.21318950038403 111.77551807463169,108.7279612463899 112.18157042190433,104.24272416858003 111.97854424919933,88.42629142245278 111.16643955372274,86.06562040816061 109.94828251097351,83.94101440533996 108.32407312188298,82.52460930286907 106.4968375582248,81.34427104587667 102.0302617372945,80.4000000001397 97.36065974272788,81.81640642229468 95.5334241790697,83.46887946897186 93.90921478997916,85.59348591207527 93.30013626813889,87.71809037565254 92.89408392179757,92.2033599615097 93.09711009450257,99.04928073985502 92.69105774722993,108.7279612463899 92.89408392179757,111.32467341586016 93.90921478997916,113.68531827651896 95.5334241790697,115.57383240526542 97.5636859163642,116.990216975566 99.796973827295,118.17053677816875 102.23328791093081,118.64266452752054 104.66960199456662,118.40660066483542 106.90288990642875,117.46234496938996 108.73012546915561,116.28202480007894 111.36946572735906,112.26893165311776 112.18157042190433,109.90828532609157 112.58762277010828,90.78695999295451 112.18157042190433,88.1902244312223 111.36946572735906,86.06562040816061 110.15130868554115,83.94101440533996 108.32407312188298,82.28854170069098 104.26354964822531,80.4000000001397 99.59394765272737,81.1082033214625 97.5636859163642,82.05247407406569 95.73645035363734,83.23281196434982 94.31526713632047,85.12135131773539 93.30013626813889,87.24595622089691 92.69105774722993,94.56402462092228 93.09711009450257,106.83944144751877 92.69105774722993,109.20009095128626 93.09711009450257,111.56073801172897 94.11224096361548,113.68531827651896 95.33039800543338,115.57383240526542 97.36065974272788,116.990216975566 101.62420939095318,118.64266452752054 104.06052347458899,118.64266452752054 108.12104694824666,116.51808888325468 110.15130868554115,114.86563979042694 110.7603872064501,112.5049961518962 111.97854424919933,110.38041478744708 112.18157042190433,108.01976650441065 112.38459659554064,94.32795826531947 112.18157042190433,89.6066260135267 111.77551807463169,87.24595622089691 110.7603872064501,85.12135131773539 109.13617781642824,83.46887946897186 107.30894225370139,81.81640642229468 102.84236643183976,80.87213557190262 100.40605234820396,81.1082033214625 98.37579061090946,81.58033874654211 94.51829331088811,84.41314924298786 93.50316244270653,86.3016876198817 93.09711009450257,88.6623583897017 92.89408392179757,102.82633167901076 93.30013626813889,112.03286713082343 94.51829331088811,114.15744695533067 96.14250269997865,116.04596069315448 98.17276443727314,117.46234496938996 102.23328791093081,118.64266452752054 106.90288990642875,117.46234496938996 110.35433485917747,114.15744695533067 111.57249190099537,112.03286713082343 112.18157042190433,109.90828532609157 112.38459659554064,90.07875967817381 111.97854424919933,87.71809037565254 111.16643955372274,85.59348591207527 108.32407312188298,82.52460930286907 103.85749730095267,80.63606779836118 99.18789530638605,80.87213557190262 96.95460739545524,81.81640642229468 95.33039800543338,83.23281196434982 94.11224096361548,85.12135131773539 93.09711009450257,87.24595622089691 92.69105774722993,89.6066260135267 92.69105774722993,106.83944144751877 92.89408392179757,111.56073801172897 93.50316244270653,113.68531827651896 95.12737183179706,115.57383240526542 96.95460739545524,117.22628098470159 99.18789530638605,118.17053677816875 103.85749730095267,118.87872836599126 106.2938113855198,118.17053677816875 108.32407312188298,116.990216975566 111.36946572735906,113.4492539006751 111.97854424919933,111.32467341586016 112.18157042190433,108.96402611071244 112.18157042190433,89.84269285830669 111.97854424919933,87.71809037565254 110.96341338008642,85.35741862677969 109.74525633826852,83.46887946897186 107.91802077461034,82.05247407406569 105.68473286367953,81.1082033214625 103.24841878004372,80.63606779836118 100.81210469547659,80.87213557190262 98.57881678454578,81.58033874654211 96.34552887454629,82.76067688153125 94.72131948452443,84.17708183638752 93.50316244270653,86.06562040816061 92.89408392179757,88.42629142245278 92.69105774722993,93.14762611873448" stroke="#4dd2ff" stroke-linecap="round" stroke-linejoin="round" stroke-width="0.5"><title>2023-03-13 6.5km</title></polyline><polyline fill="none" points="158.0971253355965,123.60000000009313 156.2497000899166,121.69062483590096 156.04443061817437,121.92929681763053 154.60754431504756,119.30390365724452 154.40227484330535,116.9171800063923 157.27604744862765,116.43983497982845 161.17616741359234,119.06523140356876 165.69209579378366,120.97460874193348 170.4132936457172,119.78124809009023 174.51868308149278,117.15585248288698 176.36610832810402,112.38239826261997 176.77664727158844,107.13158720359206 176.1608388563618,104.50617718836293 176.1608388563618,89.70835572341457 173.6976051935926,85.17352045071311 172.26071889139712,83.50278941821307 170.20802417304367,82.30940936715342 167.7447905112058,81.8320571735967 164.8710179058835,81.59338103956543 159.94455058220774,83.98014126555063 158.71293375175446,86.36689901980571 158.0971253355965,88.99232969479635 158.0971253355965,94.24318207451142 157.8918558647856,96.6299292021431 156.86550850607455,98.53932512435131 157.07077797688544,101.1647419356741 156.4549695616588,106.41556658712216 156.4549695616588,108.56362776923925 156.2497000899166,111.18903316324577 156.660239033401,113.33708989713341 158.50766428001225,118.34921449329704 160.7656284701079,119.78124809009023 165.48682632111013,121.45195282879286 168.36059892643243,121.21328079770319 170.4132936457172,120.49726455542259 172.87652730662376,118.82655912474729 174.72395255230367,116.9171800063923 175.75029991194606,114.53045388520695 176.98191674239933,109.04097442678176 176.36610832810402,106.17689299909398 176.98191674239933,88.75365430279635 176.1608388563618,86.36689901980571 174.72395255230367,84.45749301370233 172.67125783581287,82.78676146198995 170.4132936457172,81.8320571735967 165.69209579378366,81.35470488131978 161.17616741359234,82.78676146198995 159.1234726952389,84.69616885134019 159.3287421669811,86.8442502738908 158.50766428001225,88.75365430279635 158.0971253355965,91.37908225902356 158.50766428001225,93.76583235245198 157.8918558647856,96.15257997368462 157.68658639211208,98.77799950330518 156.660239033401,103.31280801119283 156.04443061817437,108.08628101297654 156.04443061817437,112.85974412970245 156.86550850607455,115.24647198081948 159.94455058220774,118.34921449329704 161.79197582788765,119.54257588577457 163.84467054717243,120.25859242491424 168.56586839910597,120.25859242491424 170.82383258920163,119.54257588577457 174.51868308149278,116.67850750568323 176.98191674239933,112.6210712082684 177.18718621507287,103.31280801119283 176.98191674239933,98.53932512435131 177.18718621507287,91.14040711405687 176.77664727158844,88.75365430279635 175.75029991194606,86.8442502738908 172.26071889139712,83.26411345694214 170.20802417304367,82.07073328248225 165.28155684936792,81.35470488131978 163.2288621319458,81.8320571735967 160.97089794185013,82.78676146198995 159.1234726952389,84.21881715208292 157.68658639211208,86.1282233549282 156.4549695616588,91.37908225902356 157.07077797688544,93.76583235245198 157.07077797688544,98.53932512435131 157.4813169213012,100.6873936469201 156.2497000899166,104.98352468619123 155.4286222020164,110.23434063838795 158.0971253355965,116.9171800063923 159.73928111139685,119.06523140356876 161.38143688533455,120.49726455542259 164.04994001798332,121.21328079770319 166.71844315249473,121.21328079770319 171.23437153175473,120.49726455542259 172.87652730662376,118.82655912474729 174.9292220249772,117.8718697631266 176.98191674239933,113.81443556654267 177.39245568681508,111.18903316324577 176.98191674239933,108.56362776923925 177.39245568681508,105.93821938498877 177.59772515762597,101.40341604268178 177.18718621507287,99.25534818740562 177.39245568681508,96.8686037787702 176.77664727158844,89.46968040545471 174.31341360975057,84.69616885134019 168.15532945469022,80.87735249032266 163.2288621319458,81.59338103956543 161.17616741359234,82.30940936715342 158.0971253355965,85.65087195299566 156.86550850607455,89.94703101716004 156.2497000899166,99.97137102880515 156.4549695616588,102.59678620798513 155.4286222020164,104.98352468619123 156.4549695616588,106.89291368913837 156.660239033401,109.04097442678176 156.04443061817437,111.42770623252727 156.4549695616588,114.05310836411081 157.68658639211208,115.72381725464948 159.73928111139685,117.39452493423596 164.04994001798332,119.54257588577457 168.36059892643243,120.25859242491424 172.67125783581287,118.34921449329704 174.51868308149278,116.67850750568323 176.77664727158844,112.38239826261997 177.59772515762597,103.31280801119283 177.39245568681508,100.92606780328788 176.77664727158844,98.77799950330518 176.98191674239933,89.46968040545471 176.1608388563618,87.32160142972134 174.51868308149278,85.65087195299566 171.02910206001252,82.54808542667888 168.77113786991686,81.8320571735967 161.9972453005612,83.26411345694214 159.94455058220774,84.93484466336668 157.4813169213012,89.94703101716004 156.86550850607455,100.6873936469201 157.07077797688544,105.69954574783333 157.68658639211208,108.32495440356433 156.660239033401,110.71168694994412 157.07077797688544,113.81443556654267 158.0971253355965,115.96248985477723 161.58670635707676,119.30390365724452 163.84467054717243,120.25859242491424 166.3079042090103,120.25859242491424 171.23437153175473,118.82655912474729 174.9292220249772,115.00779930665158 176.36610832810402,112.6210712082684 176.98191674239933,102.59678620798513 176.77664727158844,89.94703101716004 174.72395255230367,85.17352045071311 173.08179677836597,83.74146535387263 168.77113786991686,80.87735249032266 166.5131736798212,80.4000000001397 161.58670635707676,81.35470488131978 158.71293375175446,85.41219621477649 156.660239033401,90.66305674961768 156.4549695616588,95.1978812222369 155.4286222020164,97.58462736103684 156.2497000899166,100.21004525921308 155.4286222020164,108.08628101297654 155.63389167468995,110.23434063838795 155.4286222020164,112.6210712082684" stroke="#4dd2ff" stroke-linecap="round" stroke-linejoin="round" stroke-width="0.5"><title>2023-03-12 2.9km</title></polyline><polyline fill="none" points="26.940785424783826,166.12803711066954 30.40846977662295,166.9920319665689 33.87615413032472,166.704033710761 36.84845500532538,165.26404198585078 39.07768066227436,163.53605093224905 40.811522838659585,160.94406233821064 41.802289796993136,158.0640721800737 42.049981537275016,152.3040829154197 41.55459805764258,149.71208385447972 41.30690631829202,135.60004659439437 40.31613935902715,133.00803196826018 38.582297183573246,130.70401693764143 36.105379787273705,129.26400657603517 33.38077065162361,128.39999999990687 30.40846977662295,128.39999999990687 27.931552382186055,129.5520087077748 25.206943246535957,131.56802279804833 23.473101070150733,133.5840354268439 22.48233411181718,136.17604951700196 21.24387541320175,157.77607299969532 21.24387541320175,163.82404951541685 22.73002585116774,166.41603542561643 24.463868028484285,168.43202279647812 27.683860641904175,170.1600108090788 31.151544995605946,170.73600657470524 36.84845500532538,168.43202279647812 38.8299889229238,166.704033710761 40.31613935902715,164.40004659327678 41.30690631829202,161.52006001234986 41.05921457801014,136.17604951700196 40.06844762060791,132.72003019368276 37.83922196459025,130.41601492511109 35.60999630857259,128.68800222221762 32.637695433571935,128.39999999990687 28.922319340519607,128.39999999990687 26.19771020486951,130.12801288277842 23.968484547920525,132.43202838907018 22.234642372466624,135.31204508873634 21.739258892834187,138.19205880584195 21.986950632184744,152.3040829154197 22.97771759144962,155.7600779044442 22.48233411181718,159.2160686007701 22.48233411181718,162.67205500230193 23.225409330800176,165.5520403906703 25.206943246535957,168.14402469038032 28.17924412060529,169.58401492401026 31.151544995605946,170.1600108090788 34.37153761088848,169.87201288202778 37.09614674560726,168.7200208734721 39.32537240162492,166.41603542561643 41.55459805764258,162.96005367557518 41.05921457801014,151.1520836306736 41.55459805764258,135.31204508873634 40.811522838659585,132.72003019368276 38.8299889229238,130.41601492511109 35.85768804885447,128.9760044135619 33.13307891320437,128.39999999990687 30.40846977662295,128.39999999990687 27.436168902553618,129.84001080994494 24.9592515071854,131.28002087469213 23.225409330800176,133.5840354268439 22.97771759144962,136.46405093371868 34.1238458706066,134.73604198824614 44.77459067199379,132.1440265555866 47.49919980671257,132.1440265555866 45.02228241134435,133.00803196826018 42.54536501597613,134.44804039248265 40.06844762060791,134.160038766684 35.85768804885447,130.12801288277842 33.38077065162361,128.9760044135619 30.65616151690483,128.9760044135619 25.702326726168394,130.70401693764143 23.720792810432613,132.43202838907018 21.24387541320175,137.90405756863765 21.739258892834187,140.7840686023701 21.739258892834187,143.9520772942342 22.48233411181718,146.54408172308467 22.97771759144962,163.82404951541685 24.216176288202405,166.41603542561643 26.19771020486951,168.14402469038032 31.151544995605946,170.44800870725885 33.62846239190549,169.87201288202778 37.83922196459025,166.704033710761 39.82075588032603,161.80805880459957 40.06844762060791,153.16808206471615 39.82075588032603,150.57608381006867 40.31613935902715,147.69608291517943 41.05921457801014,139.05606234027073 40.31613935902715,136.17604951700196 36.60076326597482,132.1440265555866 33.38077065162361,130.99201892199926 29.91308629885316,130.70401693764143 26.940785424783826,131.56802279804833 24.463868028484285,133.29603371280245 22.48233411181718,135.88804807094857 21.739258892834187,139.34406345780008 21.986950632184744,145.68008051533252 21.24387541320175,148.27208333299495 20.996183673851192,160.36806454556063 21.986950632184744,166.12803711066954 23.720792810432613,168.43202279647812 25.95001846551895,170.1600108090788 29.170011079870164,171.02400441258214 32.637695433571935,171.31200222112238 35.85768804885447,170.1600108090788 38.08691370394081,168.43202279647812 39.82075588032603,166.12803711066954 41.05921457801014,163.53605093224905 41.55459805764258,160.36806454556063 41.05921457801014,156.91207528067753 41.30690631829202,141.64807133073919 40.31613935902715,135.02404355350882 38.582297183573246,132.1440265555866 36.353071527555585,130.41601492511109 30.90385325625539,128.68800222221762 25.206943246535957,129.84001080994494 22.73002585116774,131.85602469113655 21.24387541320175,134.73604198824614 20.500800194218755,137.61605630093254 20.500800194218755,147.12008237838745 20.996183673851192,156.048077294603 20.748491934500635,162.67205500230193 23.720792810432613,168.14402469038032 25.95001846551895,170.44800870725885 28.922319340519607,171.60000000009313 34.866921089589596,170.1600108090788 37.59153022430837,168.43202279647812 40.811522838659585,163.82404951541685 41.05921457801014,155.18407903867774" stroke="#4dd2ff" stroke-linecap="round" stroke-linejoin="round" stroke-width="0.5"><title>2023-03-10 2.4km</title></polyline><polyline fill="none" points="111.76169294025749,135.8130714809522 107.58464311156422,130.95623405929655 102.52821436990052,128.6556235246826 97.25194090139121,129.1668704955373 94.39395943842828,130.7006107729394 92.63520161621273,132.23435009690002 90.87644379306585,134.53495729644783 89.11768596991897,139.3917876780033 89.7772201532498,141.94801035663113 88.23830705881119,156.00718777626753 89.33753069769591,162.142076468328 89.99706488102674,164.18703597830608 91.09628851991147,166.48761340114288 92.85504634398967,168.27694991556928 95.05349362269044,169.55504663125612 97.47178562916815,170.57752352720127 102.52821436990052,170.57752352720127 104.94650637637824,169.55504663125612 107.36479838378727,167.76571104372852 110.00293511804193,163.42017636052333 110.88231403008103,152.68411670275964 110.88231403008103,138.88054282474332 110.44262457359582,136.0686942387838 108.90371147915721,133.76808846835047 106.4854194726795,132.23435009690002 104.94650637637824,129.93374075368047 99.01069872453809,129.42249394161627 94.39395943842828,131.21185732027516 92.63520161621273,132.74559632642195 90.87644379306585,135.5574486972764 90.21690960973501,138.36929786601104 89.7772201532498,145.52671765978448 89.7772201532498,153.45097965514287 90.21690960973501,162.142076468328 90.87644379306585,164.6982755905483 93.95426998380572,168.53256931132637 98.35116454120725,170.57752352720127 100.98930127546191,171.08876181719825 104.06712746527046,170.57752352720127 108.24417729489505,168.021330492571 110.66246930137277,163.93141613178886 111.10215875785798,161.37521621515043 110.88231403008103,156.26280844258144 111.3220034847036,142.20363247883506 110.66246930137277,137.09118500421755 110.00293511804193,134.79058018676005 108.24417729489505,132.48997322516516 104.2869721930474,130.1893641196657 101.20914600230753,128.91124702361412 95.493183077313,130.1893641196657 91.75582270417362,133.76808846835047 91.09628851991147,136.0686942387838 89.99706488102674,138.6249203584157 88.67799651343375,151.15039008297026 89.11768596991897,153.70660058641806 88.67799651343375,161.1195960782934 90.43675433658063,165.7207544981502 91.97566743195057,168.021330492571 93.95426998380572,169.55504663125612 96.37256199028343,170.57752352720127 98.79085399582982,171.08876181719825 101.64883545879275,170.8331426854711 106.92510892730206,168.7881886807736 110.22277984581888,164.44265579758212 111.10215875785798,161.88645641040057 111.54184821341187,156.51842908305116 111.10215875785798,151.40601125266403 111.54184821341187,140.92552160215564 111.3220034847036,138.36929786601104 110.66246930137277,136.0686942387838 109.34340093377978,133.76808846835047 107.58464311156422,131.7231037619058 105.1663511050865,130.44498745980673 102.96790382545441,129.67811736045405 97.91147508379072,129.93374075368047 95.493183077313,130.95623405929655 93.5145805273205,132.23435009690002 90.43675433658063,137.09118500421755 89.7772201532498,142.20363247883506 89.99706488102674,144.7598522452172 89.33753069769591,147.82731247250922 89.11768596991897,153.70660058641806 89.11768596991897,159.33025437709875 89.7772201532498,161.63083632616326 91.75582270417362,166.2319937935099 96.15271726157516,170.06628513196483 98.79085399582982,170.8331426854711 104.06712746527046,170.06628513196483 106.4854194726795,168.7881886807736 108.68386675044894,167.25447206618264 110.22277984581888,165.20951509731822 111.54184821341187,160.35273550753482 111.76169294025749,141.94801035663113 111.54184821341187,137.34680762910284 110.88231403008103,134.79058018676005 109.12355620600283,133.00121940113604 106.92510892730206,131.21185732027516 101.86868018656969,129.42249394161627 96.59240671712905,130.44498745980673 94.61380416713655,131.7231037619058 92.63520161621273,133.76808846835047 91.09628851991147,135.8130714809522 89.99706488102674,141.18114383053035 89.7772201532498,146.03796113678254 89.11768596991897,148.84979836759157 89.11768596991897,154.7290840470232 88.45815178658813,157.2852908449713 88.67799651343375,160.097115264507 89.7772201532498,165.4651348113548 90.87644379306585,167.51009156787768 92.63520161621273,169.29942734143697 95.05349362269044,170.57752352720127 97.47178562916815,171.08876181719825 100.32976709119976,171.60000000009313 102.96790382545441,171.08876181719825 105.38619583286345,170.06628513196483 108.90371147915721,166.2319937935099 110.44262457359582,163.93141613178886 110.88231403008103,161.63083632616326 110.44262457359582,159.07463402836584 111.10215875785798,145.7823394110892 110.88231403008103,142.9704986861907 111.54184821341187,140.41427706717514 110.00293511804193,135.04620305029675 108.46402202360332,132.48997322516516 106.26557474397123,130.7006107729394 103.62743800971657,129.42249394161627 100.98930127546191,128.6556235246826 96.15271726157516,129.67811736045405 91.75582270417362,133.5124654727988 90.6565990652889,135.5574486972764 89.7772201532498,138.6249203584157 89.7772201532498,147.31606936571188 89.11768596991897,156.51842908305116 90.6565990652889,164.6982755905483 91.53597797639668,167.25447206618264 93.07489107083529,169.04380802437663 95.71302780602127,170.57752352720127 98.5710092689842,171.08876181719825 100.98930127546191,171.08876181719825 103.62743800971657,170.57752352720127 106.04573001619428,169.29942734143697 108.24417729489505,167.51009156787768 110.88231403008103,163.16455643437803 111.54184821341187,160.097115264507 111.10215875785798,148.5941769334022 111.3220034847036,138.11367534613237 109.12355620600283,133.25684245093726 107.36479838378727,131.46748055377975 102.96790382545441,129.42249394161627 97.47178562916815,129.93374075368047 95.05349362269044,131.46748055377975 91.53597797639668,134.79058018676005 90.21690960973501,137.34680762910284 89.11768596991897,142.71487664384767 89.33753069769591,152.93973771296442 88.67799651343375,155.75156708364375 88.89784124214202,161.37521621515043 90.87644379306585,166.74323298269883 92.41535688750446,168.7881886807736 94.8336488949135,170.06628513196483 97.47178562916815,171.08876181719825 100.10992236342281,171.08876181719825 102.52821436990052,170.8331426854711 105.1663511050865,170.06628513196483 107.14495365601033,168.53256931132637 108.90371147915721,166.48761340114288 110.66246930137277,162.142076468328 111.10215875785798,157.02967028366402 111.54184821341187,146.03796113678254 111.10215875785798,143.2261207026895 111.10215875785798,140.6698993477039 109.34340093377978,135.30182588729076 108.02433256618679,133.00121940113604 105.82588528841734,130.7006107729394 103.18774855416268,129.67811736045405 100.76945654768497,129.42249394161627 95.93287253379822,130.44498745980673 93.5145805273205,132.23435009690002 90.43675433658063,136.0686942387838 89.7772201532498,138.36929786601104 88.45815178658813,157.54091137857176 89.7772201532498,165.97637415933423 93.29473579954356,169.8106658947654 97.91147508379072,171.60000000009313 103.62743800971657,171.34438092191704 105.82588528841734,170.06628513196483 107.80448783934116,168.27694991556928 110.88231403008103,163.67579625896178 111.10215875785798,160.86397591489367 110.22277984581888,158.5633932503406 111.10215875785798,155.75156708364375 110.88231403008103,153.19535869755782 111.76169294025749,145.01547407684848 111.10215875785798,137.34680762910284 108.24417729489505,132.23435009690002 106.04573001619428,130.44498745980673 101.4289907310158,128.4000000001397 99.01069872453809,128.4000000001397 96.37256199028343,129.67811736045405 94.39395943842828,131.21185732027516 91.09628851991147,135.04620305029675 89.7772201532498,137.85805280017667 89.55737542640418,140.41427706717514 89.11768596991897,146.03796113678254 89.33753069769591,148.84979836759157 88.89784124214202,157.02967028366402 88.45815178658813,159.8414949949365 89.55737542640418,164.44265579758212 90.87644379306585,166.74323298269883 92.85504634398967,168.7881886807736 95.27333835046738,169.8106658947654" stroke="#4dd2ff" stroke-linecap="round" stroke-linejoin="round" stroke-width="0.5"><title>2022-11-10 4.1km</title></polyline><polyline fill="none" points="177.10215530917048,139.1361652656924 176.662465990521,136.06869423971511 175.78308735135943,133.76808846835047 173.80448541417718,131.46748055471107 169.18774756416678,128.91124702384695 166.32976698875427,128.4000000001397 163.251941755414,129.4224939418491 158.6352039044723,133.0012194023002 156.87644662708044,135.30182588705793 156.21691264864057,138.1136753463652 155.5573786702007,147.0604477734305 155.5573786702007,162.90893648262136 156.21691264864057,165.46513481088914 157.5359806055203,167.25447206548415 159.95427186135203,169.29942734050564 162.37256311718374,170.57752352696843 165.23054369166493,170.83314268453978 168.08852426614612,170.57752352696843 170.9465048406273,169.8106658947654 173.3647960955277,167.76571104303002 175.12355337198824,165.46513481088914 176.22277667094022,163.16455643437803 177.10215530917048,157.796531886328 177.32199996896088,138.88054282520898 176.662465990521,136.32431697030552 175.56324269156903,134.02371143875644 171.38619415927678,129.4224939418491 166.1099223298952,128.91124702384695 163.251941755414,129.4224939418491 160.61380584072322,130.70061077387072 158.85504856333137,132.2343500975985 157.31613594666123,134.27933438122272 155.5573786702007,139.64741006540135 155.5573786702007,150.38352641649544 154.67800003197044,155.49594636424445 155.1176893506199,158.56339325080626 155.1176893506199,161.11959607806057 156.87644662708044,166.48761340091005 160.39396118093282,170.0662851324305 162.81225243676454,170.83314268453978 165.45038835145533,171.34438092121854 170.9465048406273,169.55504663055763 174.90370871312916,165.46513481088914 176.22277667094022,162.653316504322 177.10215530917048,160.09711526497267 176.662465990521,153.96222149115056 177.32199996896088,148.84979836735874 176.662465990521,143.48174269357696 177.10215530917048,138.6249203584157 176.662465990521,135.8130714823492 175.12355337198824,133.2568424511701 170.06712620146573,129.16687049670145 167.42899028770626,128.4000000001397 165.23054369166493,128.4000000001397 162.59240777697414,129.16687049670145 160.17411652114242,130.44498746003956 158.4153592446819,132.48997322609648 156.87644662708044,135.04620305076241 155.7772233299911,140.41427706717514 155.7772233299911,151.15039008343592 156.21691264864057,156.2628084437456 155.5573786702007,162.14207646786235 156.43675730843097,164.95389535743743 157.9756699251011,167.25447206548415 162.15271845739335,170.0662851324305 164.79085437301546,170.57752352696843 169.62743688281626,170.0662851324305 172.04572813864797,169.0438080241438 173.80448541417718,166.99885253747925 176.00293201114982,162.90893648262136 176.662465990521,160.35273550753482 176.4426213297993,155.75156708341092 177.10215530917048,148.33855547267012 176.662465990521,137.60243022884242 173.80448541417718,133.0012194023002 171.6060388199985,131.21185732120648 168.748058244586,130.1893641203642 163.251941755414,129.9337407539133 161.0534951593727,130.9562340604607 158.85504856333137,133.2568424511701 157.09629128687084,135.5574486979749 155.7772233299911,138.36929786601104 155.33753401134163,140.92552160285413 155.5573786702007,143.48174269357696 154.89784469176084,145.7823394117877 155.5573786702007,161.11959607806057 156.43675730843097,163.67579625896178 158.85504856333137,168.021330492571 162.81225243676454,170.83314268453978 165.45038835145533,171.08876181626692 168.30836892593652,170.83314268453978 170.9465048406273,169.8106658947654 173.3647960955277,168.27694991463795 174.90370871312916,166.2319937935099 176.8823106493801,161.11959607806057 177.54184462781996,150.6391476651188 177.32199996896088,136.8355623530224 176.00293201114982,134.02371143875644 174.0243300748989,131.97872694325633 172.04572813864797,129.9337407539133 169.40759222395718,128.91124702384695 166.32976698875427,128.6556235253811 163.69163107406348,128.91124702384695 161.49318447895348,129.67811736138538 159.07489322405308,131.46748055471107 157.5359806055203,134.02371143875644 156.43675730843097,136.8355623530224 155.9970679897815,139.64741006540135 156.21691264864057,145.52671765955165 155.7772233299911,150.89476888766512 155.7772233299911,161.6308363263961 156.87644662708044,163.93141613109037 158.4153592446819,166.2319937935099 160.17411652114242,168.021330492571 162.37256311718374,169.55504663055763 168.748058244586,169.8106658947654 170.9465048406273,169.29942734050564 173.3647960955277,167.76571104303002 174.90370871312916,165.20951509731822 176.8823106493801,163.16455643437803 177.54184462781996,160.60835572401993 177.54184462781996,147.0604477734305 177.10215530917048,136.57993967458606 175.78308735135943,134.53495729714632 170.28697086218745,129.4224939418491 167.64883494656533,128.91124702384695 162.81225243676454,129.67811736138538 160.61380584072322,130.9562340604607 157.31613594666123,134.27933438122272 155.9970679897815,136.57993967458606 155.33753401134163,138.88054282520898 155.33753401134163,148.84979836735874 154.45815537218004,161.6308363263961 154.67800003197044,163.93141613109037 155.7772233299911,165.97637415886857 157.31613594666123,168.021330492571 161.27333981823176,170.83314268453978 163.69163107406348,171.60000000009313 165.8900776701048,170.83314268453978 168.08852426614612,170.83314268453978 170.50681552197784,170.0662851324305 175.56324269156903,165.20951509731822 177.54184462781996,160.60835572401993 176.8823106493801,142.45925457472913 177.10215530917048,139.9030324255582 176.4426213297993,137.34680763049982 175.12355337198824,134.79058018676005 172.92510677780956,132.48997322609648 170.72666018083692,130.9562340604607 168.30836892593652,130.44498746003956 162.81225243676454,130.1893641203642 160.17411652114242,131.46748055471107 158.1955145848915,133.2568424511701 155.7772233299911,137.85805280087516 155.33753401134163,140.41427706717514 155.1176893506199,148.33855547267012 155.33753401134163,160.863975914428 155.9970679897815,163.16455643437803 158.4153592446819,167.25447206548415" stroke="#4dd2ff" stroke-linecap="round" stroke-linejoin="round" stroke-width="0.5"><title>2022-11-09 3.1km</title></polyline><polyline fill="none" points="41.846128944307566,181.7664988017641 40.46151795424521,179.61990061518736 38.61536996718496,177.7416257422883 35.84614798706025,176.4000000001397 33.30769450496882,176.66832520370372 27.076945048756897,178.54660085448995 23.384649075567722,182.57147266389802 22.692343580536544,184.98639274807647 23.153880576603115,196.25599005492404 22.692343580536544,199.4758659976069 22.692343580536544,210.2087569127325 23.615417575463653,212.89197269640863 26.846176551654935,216.9167911624536 29.38463003374636,218.52671679807827 32.84615750890225,219.33167924173176 35.615379489026964,219.06335845473222 40.69228645320982,216.9167911624536 42.76920293737203,214.7702220918145 44.38458242546767,212.0870082527399 45.307656419463456,191.1578449625522 44.84611942246556,185.52304135030136 43.46150843240321,182.83979722857475 39.538443960249424,178.81492583616637 34.0,177.2049755284097 28.461556038819253,179.08325079036877 24.538491567596793,183.37644627457485 23.615417575463653,186.3280140454881 23.615417575463653,194.37772724055685 22.692343580536544,208.59882610943168 23.384649075567722,211.55036515230313 24.538491567596793,214.50190083263442 28.923093035817146,217.9900750303641 31.923083514906466,218.79503764072433 38.15383297111839,218.52671679807827 42.307665940374136,215.03854332328774 44.153813927434385,209.9404351823032 44.153813927434385,185.2547170626931 42.999971435405314,182.30314806988463 41.15382344927639,180.1565503277816 38.61536996718496,178.54660085448995 35.615379489026964,177.7416257422883 30.07693552877754,178.54660085448995 27.769250544719398,179.61990061518736 25.92310255765915,181.49817412532866 24.307723069563508,184.18141963682137 23.615417575463653,187.4013105824124 23.846186072565615,192.23113949992694 23.384649075567722,195.18269718508236 23.384649075567722,200.81747979321517 22.923112079501152,203.23238287423737 23.153880576603115,208.8671479797922 23.615417575463653,211.28204355970956 26.153871056623757,216.64847012562677 31.461546518839896,219.33167924173176 34.0,219.60000000009313 36.53845348209143,219.33167924173176 41.15382344927639,217.1851121711079 42.76920293737203,214.7702220918145 43.9230454294011,212.0870082527399 44.61535092443228,209.1354698217474 44.38458242546767,206.18392802937888 44.38458242546767,197.32928248029202 45.307656419463456,188.7429306290578 43.9230454294011,183.37644627457485 42.538434439338744,180.69319993024692 40.46151795424521,178.81492583616637 35.84614798706025,176.4000000001397 32.84615750890225,177.7416257422883 30.307704026810825,178.00995080755092 27.769250544719398,179.35157571639866 25.692334059625864,181.7664988017641 24.538491567596793,184.18141963682137 23.846186072565615,186.59633822133765 23.153880576603115,206.45225014933385 23.846186072565615,212.3553297619801 25.000028564594686,214.7702220918145 26.846176551654935,217.1851121711079 29.153861534781754,218.52671679807827 31.461546518839896,219.06335845473222 37.230758977122605,218.52671679807827 39.538443960249424,217.1851121711079 43.23073993436992,212.89197269640863 43.69227693043649,210.2087569127325 44.153813927434385,190.35287376819178 43.23073993436992,187.6696346476674 42.538434439338744,184.44974403548986 40.69228645320982,182.30314806988463 36.53845348209143,179.8882254853379 33.76923150103539,179.61990061518736 29.153861534781754,181.22984942165203 27.076945048756897,183.10812176554464 25.46156556159258,184.98639274807647 25.23079706262797,196.52431320236064" stroke="#4dd2ff" stroke-linecap="round" stroke-linejoin="round" stroke-width="0.5"><title>2022-11-08 1.9km</title></polyline><polyline fill="none" points="93.92454255279154,215.2528623722028 100.934685761109,218.7849122439511 109.58052905276418,212.26420107553713 110.74888625461608,186.18119436129928 108.64584329165518,181.01890188036487 100.70101432129741,177.48680117423646 91.82149958889931,184.82269732491113 91.5878281481564,211.99250442441553 99.76632856018841,218.7849122439511 109.58052905276418,213.62268390483223 110.04787193425,184.55099783279002 101.1683572018519,178.03020159248263 91.35415670834482,186.72459297906607 91.82149958889931,212.53589769732207 101.1683572018519,218.5132162689697 109.81420049350709,211.99250442441553 110.28154337406158,185.63779563177377 102.57038584444672,177.75850139698014 94.1582139916718,180.47550208168104 91.5878281481564,185.36609622393735 91.82149958889931,213.62268390483223 102.33671440370381,218.24152026535012 110.28154337406158,210.36232393211685 110.04787193425,184.82269732491113 101.40202864259481,178.03020159248263 91.35415670834482,186.18119436129928 91.35415670834482,212.53589769732207 100.46734288148582,217.96982423355803 109.58052905276418,212.26420107553713 110.04787193425,183.73589918971993 102.33671440370381,176.9434006435331 91.12048526853323,184.2792983131949 90.65314238797873,209.81893020961434 99.76632856018841,218.7849122439511 109.34685761388391,213.62268390483223 110.5152148148045,184.82269732491113 103.27140016574413,177.48680117423646 97.19594271667302,177.75850139698014 91.5878281481564,184.2792983131949 90.65314238797873,211.72080774628557 99.065314238891,218.7849122439511 107.24381465092301,216.8830398269929 110.74888625461608,211.99250442441553 110.98255769535899,186.18119436129928 101.86937152314931,177.21510092332028 90.88681382779032,184.55099783279002 90.65314238797873,210.63402075110935 93.22352823149413,216.06795122567564 100.70101432129741,218.7849122439511 110.98255769535899,210.36232393211685 110.5152148148045,184.00759876566008 101.86937152314931,177.48680117423646 91.12048526853323,184.55099783279002 90.41947094723582,211.72080774628557 93.45719967130572,217.1547359705437 103.7387430453673,218.7849122439511 111.2162291361019,209.00383941433392 108.87951473146677,179.11700209090486 100.934685761109,176.4000000001397 91.12048526853323,181.56230156728998 88.78377086482942,207.91705129435286 95.56024263333529,219.32830410916358 109.34685761388391,216.8830398269929 111.44990057591349,185.90949501027353 96.2612569546327,195.41895555704832 92.75618535000831,213.3509873955045 102.57038584444672,218.24152026535012 110.74888625461608,210.90571754216217 110.74888625461608,184.82269732491113 103.97241448611021,178.5736018982716 98.59797135926783,178.30190175911412 91.82149958889931,184.00759876566008 90.41947094723582,209.00383941433392 96.72859983611852,218.24152026535012 109.58052905276418,213.62268390483223 110.5152148148045,184.55099783279002 102.57038584444672,177.48680117423646 91.5878281481564,183.73589918971993 90.41947094723582,210.90571754216217 100.46734288148582,219.60000000009313 110.04787193425,213.62268390483223 111.2162291361019,185.36609622393735 104.6734288064763,177.48680117423646 96.49492839537561,178.03020159248263 90.65314238797873,184.55099783279002 90.18579950649291,209.54723330633715 98.13062847685069,219.32830410916358 109.81420049350709,215.2528623722028 110.5152148148045,185.36609622393735 103.50507160462439,177.75850139698014 95.56024263333529,178.5736018982716 92.05517102964222,182.64910060330294 90.65314238797873,211.99250442441553 100.934685761109,219.32830410916358 110.74888625461608,211.72080774628557 110.98255769535899,186.45289368391968 102.33671440370381,177.75850139698014 92.05517102964222,185.36609622393735 92.05517102964222,211.72080774628557 99.5326571194455,217.69812817429192 109.58052905276418,211.4491110399831 109.58052905276418,184.00759876566008 103.50507160462439,177.75850139698014 98.3642999175936,178.30190175911412 91.12048526853323,185.63779563177377 91.12048526853323,213.07929085800424 102.33671440370381,219.0566081905272 110.74888625461608,212.26420107553713 110.74888625461608,185.09439678816125 103.0377287240699,177.75850139698014 92.05517102964222,183.73589918971993 90.65314238797873,211.17741430480964 97.89695703797042,219.0566081905272 109.58052905276418,214.43777326541021 110.74888625461608,190.25668125087395 104.20608592685312,178.5736018982716 98.83164279907942,178.30190175911412 92.28884246945381,183.73589918971993 91.82149958889931,211.72080774628557 99.5326571194455,218.24152026535012 108.64584329165518,214.1660768399015 109.58052905276418,185.36609622393735 102.1030429629609,178.03020159248263 91.82149958889931,185.36609622393735 90.88681382779032,210.0906270844862 99.29898567963392,218.5132162689697 108.87951473146677,213.62268390483223 111.68357201572508,186.99629224534146 104.20608592685312,176.6717003362719 96.2612569546327,177.21510092332028 90.65314238797873,182.9208002917003 88.31642798427492,208.18874836619943" stroke="#4dd2ff" stroke-linecap="round" stroke-linejoin="round" stroke-width="0.5"><title>2022-04-26 8.3km</title></polyline><polyline fill="none" points="159.31685397867113,214.0683336353395 168.83184153400362,217.75611254875548 175.85480854008347,212.75126844272017 176.98754515498877,186.67323721409775 168.1521995663643,176.92683368711732 156.59828610438854,182.98541324399412 155.01245484687388,210.90737602720037 162.0354218520224,218.80976268392988 169.7380308257416,218.5463501906488 176.53445050865412,212.75126844272017 176.53445050865412,184.30249384767376 165.660179015249,176.4000000001397 156.14519145991653,181.93174827028997 155.01245484687388,208.80006877239794 159.31685397867113,216.7024619760923 164.75398972537369,218.80976268392988 172.00350405368954,217.492699946044 176.53445050865412,210.38054937683046 176.98754515498877,185.09274188173003 166.33982098381966,176.66341685759835 156.14519145991653,183.77566168806516 155.6920968145132,211.6976157973986 163.16815846506506,219.07317514973693 171.0973147628829,218.01952512329444 176.53445050865412,211.43420256720856 176.76099783089012,185.35615783859976 170.19112547114491,177.4536672651302 156.14519145991653,182.45858081243932 154.78590752277523,207.48300085240044 165.207084370777,218.01952512329444 174.94861924927682,213.8049206517171 176.76099783089012,183.24882941879332 170.87076743878424,177.1902504900936 163.16815846506506,177.4536672651302 157.95757004152983,179.82441701483913 155.23900216910988,187.72690022387542 158.18411736469716,215.91222375980578 167.69910492096096,219.33658758853562 174.94861924927682,215.3853981459979 177.21409247722477,185.35615783859976 168.60529421269894,176.4000000001397 160.90268523804843,177.9805007337127 155.46554949134588,184.5659098860342 155.46554949134588,211.6976157973986 165.207084370777,219.33658758853562 176.0813558632508,213.27809460111894 176.98754515498877,185.61957376846112 170.19112547114491,176.92683368711732 157.05138075072318,181.14149925415404 155.01245484687388,210.64396271528676 159.99649594631046,218.01952512329444 165.660179015249,219.60000000009313 176.30790318641812,211.96102899918333 176.76099783089012,184.0390777818393 167.0194629523903,176.4000000001397 159.54340130183846,179.29758392786607 155.46554949134588,186.40982139389962 155.6920968145132,212.75126844272017 166.11327366158366,219.33658758853562 175.85480854008347,213.5415076399222 176.76099783089012,184.30249384767376 169.2849361812696,176.66341685759835 158.8637593332678,179.0341673437506 156.37173878308386,183.51224556704983 155.01245484687388,208.27324168593623 157.73102271929383,209.3268957498949" stroke="#4dd2ff" stroke-linecap="round" stroke-linejoin="round" stroke-width="0.5"><title>2022-04-19 4.1km</title></polyline><polyline fill="none" points="30.84755853563547,259.48369267000817 29.271337803453207,263.4109414052218 34.0,265.76728771883063 42.78180122189224,261.0545928957872 44.80837073456496,233.56369803799316 42.33145244140178,228.32730322540738 34.675523170270026,224.6618204046972 23.64197804685682,231.73096108692698 23.19162926543504,260.79277625959367 26.11889634002,265.76728771883063 35.125871951691806,267.60000000009313 44.58319634385407,258.9600590437185 44.58319634385407,231.73096108692698 34.0,224.6618204046972 23.64197804685682,233.30187855497934 24.092326826415956,261.3164095056709 36.02656951267272,266.8145520426333 44.58319634385407,260.79277625959367 44.13284756336361,230.68368223286234 34.45034878049046,224.4000000001397 26.34407072979957,230.94550198758952 24.542675606906414,257.9127914677374 34.675523170270026,265.5054715699516 42.78180122189224,258.69824219075963 42.78180122189224,234.08733692276292 35.801395122893155,226.7563826669939 30.397209755145013,227.5418430676218 25.218198778107762,234.08733692276292 25.443373168818653,259.2218758703675 33.77482560928911,265.5054715699516 42.33145244140178,258.9600590437185 43.006975611671805,235.13461436727084 36.92726707365364,226.7563826669939 24.993024387396872,233.30187855497934 25.66854755859822,260.53095959546044 32.19860487803817,264.98183919186704 40.30488292872906,263.1491250130348 43.23215000145137,255.556437834166 40.75523170828819,230.1600426430814 30.84755853563547,226.4945624792017 26.794419510290027,230.1600426430814 24.542675606906414,245.86918316222727 27.019593901000917,261.8400426427834 34.0,265.2436553942971 39.40418536681682,263.4109414052218 43.45732439216226,257.127340500243 42.33145244140178,232.25460035144351 30.622384145855904,227.5418430676218 24.542675606906414,239.32371980673634 25.218198778107762,259.48369267000817 27.69511707033962,263.9345741092693 38.05313902441412,264.19639042019844 42.78180122189224,258.174608402187 41.65592926926911,230.42186245135963 34.900697560980916,226.4945624792017 27.469942681491375,229.37458305549808 24.31750121805817,246.91645572707057 28.145465852692723,263.4109414052218 39.85453414730728,262.6254921462387 43.23215000145137,254.7709861351177 41.20558048970997,230.68368223286234 31.973430487327278,227.01820282824337 24.767849997617304,234.34915632405318 25.218198778107762,258.69824219075963 28.145465852692723,263.4109414052218 36.02656951267272,264.98183919186704 42.78180122189224,257.127340500243 41.43075487948954,230.42186245135963 34.675523170270026,227.01820282824337 27.019593901000917,230.42186245135963 26.794419510290027,247.9637278574519" stroke="#4dd2ff" stroke-linecap="round" stroke-linejoin="round" stroke-width="0.5"><title>2022-04-13 4.1km</title></polyline></svg>