<?xml version="1.0" encoding="utf-8" ?>
<svg baseProfile="full" height="300mm" version="1.1" viewBox="0,0,200,300" width="200mm" xmlns="http://www.w3.org/2000/svg" xmlns:ev="http://www.w3.org/2001/xml-events" xmlns:xlink="http://www.w3.org/1999/xlink"><defs /><rect fill="#222222" height="300" width="200" x="0" y="0" /><text fill="#FFFFFF" style="font-size:12px; font-family:Arial; font-weight:bold;" x="10" y="20">Over 1km Runs</text><text fill="#FFFFFF" style="font-size:4px; font-family:Arial" x="10" y="280">ATHLETE</text><text fill="#FFFFFF" style="font-size:9px; font-family:Arial" x="10" y="290">InzamZ</text><text fill="#FFFFFF" style="font-size:4px; font-family:Arial" x="120" y="280">STATISTICS</text><text fill="#FFFFFF" style="font-size:3px; font-family:Arial" x="120" y="285">Number: 11</text><text fill="#FFFFFF" style="font-size:3px; font-family:Arial" x="120" y="290">Weekly: 1.6</text><text fill="#FFFFFF" style="font-size:3px; font-family:Arial" x="141" y="285">Total: 44.5 km</text><text fill="#FFFFFF" style="font-size:3px; font-family:Arial" x="141" y="290">Avg: 4.0 km</text><text fill="#FFFFFF" style="font-size:3px; font-family:Arial" x="167" y="285">Min: 1.9 km</text><text fill="#FFFFFF" style="font-size:3px; font-family:Arial" x="167" y="290">Max: 8.3 km</text><polyline fill="none" points="50.51224955357611,79.33788821520284 51.76744352839887,75.32439444120973 52.395040517672896,58.905508674215525 52.081242023035884,44.310879323165864 50.82604804635048,41.02707938873209 48.943257082253695,38.47301065758802 46.11907063424587,35.91894007497467 42.98108569346368,34.459470339119434 39.529302259907126,34.09460281138308 35.76372032985091,34.824337830301374 32.62573538906872,36.2838074141182 30.115347435697913,39.202744770096615 27.91875797882676,42.85141306417063 27.60495948418975,46.13521129777655 27.91875797882676,78.97302533406764 32.62573538906872,84.44596458994783 36.39131731912494,86.27027578582056 40.156899247318506,87.0 47.06046611815691,85.17568918084726 51.45364503376186,78.60816241474822 52.081242023035884,74.59466781048104 51.76744352839887,52.70279858680442 52.395040517672896,49.05414049257524 51.76744352839887,42.121679707663134 50.1984510589391,39.202744770096615 46.7466676235199,36.2838074141182 43.60868268273771,34.824337830301374 39.843100752681494,34.09460281138308 36.39131731912494,34.824337830301374 32.939533883705735,36.2838074141182 30.115347435697913,38.83787773200311 28.23255647160113,42.121679707663134 27.60495948418975,49.05414049257524 27.91875797882676,60.36496828519739 27.91875797882676,78.97302533406764 29.801548942923546,81.89192732865922 32.311936896294355,84.08110223687254 35.76372032985091,85.90541362157091 39.843100752681494,87.0 43.60868268273771,86.27027578582056 47.06046611815691,84.81082690437324 51.76744352839887,78.97302533406764 52.395040517672896,75.6892577004619 52.081242023035884,45.04061222774908 51.76744352839887,41.3919461988844 49.570854069665074,38.10814354498871 43.60868268273771,34.09460281138308 40.47069774195552,33.364867641357705 36.705115811899304,34.09460281138308 33.25333237834275,35.91894007497467 30.742944424971938,38.10814354498871 28.54635496623814,41.3919461988844 27.91875797882676,45.04061222774908 28.23255647160113,60.36496828519739 27.91875797882676,68.02712132316083 28.54635496623814,79.33788821520284 30.742944424971938,82.25678990758024 33.567130871117115,84.81082690437324 37.01891430839896,86.27027578582056 40.78449623659253,86.63513791142032 44.5500781647861,85.54055142053403 47.68806310556829,83.35137741826475 50.1984510589391,80.4324766327627 51.45364503376186,76.78384725167416 52.081242023035884,65.47307216166519 51.76744352839887,43.581146268872544 48.943257082253695,37.3784092052374 46.11907063424587,34.824337830301374 42.66728719882667,33.364867641357705 39.529302259907126,33.364867641357705 35.76372032985091,34.09460281138308 32.62573538906872,35.91894007497467 30.429145930334926,38.47301065758802 28.54635496623814,41.3919461988844 27.60495948418975,45.405478621833026 27.91875797882676,75.32439444120973 28.860153460875154,78.60816241474822 30.742944424971938,81.89192732865922 33.567130871117115,84.08110223687254 37.01891430839896,85.54055142053403 40.47069774195552,85.90541362157091 44.5500781647861,85.54055142053403 47.68806310556829,83.71623984701 49.88465256243944,80.79733936395496 51.76744352839887,77.14871036051773 52.395040517672896,73.86494102631696 51.76744352839887,54.527126216329634 52.708839010447264,46.50007757986896 52.081242023035884,42.85141306417063 48.62945858761668,36.2838074141182 45.49147364683449,34.09460281138308 42.03969021141529,33.364867641357705 38.27410828322172,33.364867641357705 34.82232484780252,34.09460281138308 31.68433990702033,36.2838074141182 27.91875797882676,42.48654640512541 27.60495948418975,64.37847909727134 27.60495948418975,68.39198533864692 29.487750448286533,74.9595311449375 28.54635496623814,78.60816241474822 30.742944424971938,81.52706471108831 33.567130871117115,84.08110223687254 37.332712799310684,85.17568918084726 41.72589171864092,85.17568918084726 45.177675154060125,84.44596458994783 48.31566009297967,81.89192732865922 50.51224955357611,79.33788821520284 51.76744352839887,76.05412092199549 52.081242023035884,43.21627968526445 50.82604804635048,39.93247873103246 48.62945858761668,36.64867471624166 45.805272141471505,34.824337830301374 42.03969021141529,33.0 34.19472786039114,34.09460281138308 31.370541412383318,35.91894007497467 29.487750448286533,38.83787773200311 28.23255647160113,42.48654640512541 27.60495948418975,46.50007757986896 28.23255647160113,49.78387241391465 27.91875797882676,75.6892577004619 29.173951955512166,79.33788821520284 31.370541412383318,82.25678990758024 34.19472786039114,84.44596458994783 37.960309790447354,85.54055142053403 41.0982947293669,85.54055142053403 44.86387665942311,84.44596458994783 50.1984510589391,79.70275105955079 51.76744352839887,76.41898410581052 51.76744352839887,43.581146268872544 50.82604804635048,40.29734565527178 48.943257082253695,36.64867471624166 46.11907063424587,34.459470339119434 42.66728719882667,33.0 34.82232484780252,34.459470339119434 31.998138399794698,36.2838074141182 29.487750448286533,39.202744770096615 28.23255647160113,42.48654640512541 28.23255647160113,46.50007757986896 27.60495948418975,73.13521409244277 28.23255647160113,76.78384725167416 29.801548942923546,80.4324766327627 31.998138399794698,82.98651495203376 34.82232484780252,85.17568918084726 37.960309790447354,86.27027578582056 41.72589171864092,85.90541362157091 45.49147364683449,84.44596458994783 48.943257082253695,82.25678990758024 51.13984654098749,78.60816241474822 52.081242023035884,75.32439444120973 51.45364503376186,42.121679707663134 49.88465256243944,38.47301065758802 47.68806310556829,35.91894007497467 44.23627967014909,34.09460281138308 40.78449623659253,33.364867641357705 37.01891430839896,33.364867641357705 33.88092936575413,34.824337830301374 30.742944424971938,37.3784092052374 29.173951955512166,39.93247873103246 27.91875797882676,47.229810029733926 27.91875797882676,76.78384725167416 31.998138399794698,82.6216524487827 35.13612334243953,84.44596458994783 38.587906777858734,85.54055142053403 45.177675154060125,84.44596458994783 50.1984510589391,79.33788821520284 51.76744352839887,76.41898410581052 52.081242023035884,44.310879323165864 51.13984654098749,41.02707938873209 49.25705557502806,38.10814354498871 46.7466676235199,35.91894007497467 43.29488418996334,34.459470339119434 39.843100752681494,33.72973524592817 36.39131731912494,34.09460281138308 32.62573538906872,35.91894007497467 28.54635496623814,41.75681297201663 27.91875797882676,45.7703449788969 27.91875797882676,68.02712132316083 27.291160989552736,75.32439444120973 28.54635496623814,79.33788821520284 30.742944424971938,81.89192732865922 33.25333237834275,84.08110223687254 36.705115811899304,85.54055142053403 40.47069774195552,86.27027578582056 43.92248117737472,85.17568918084726 47.06046611815691,83.71623984701 51.45364503376186,77.14871036051773 51.76744352839887,73.86494102631696 51.45364503376186,70.21630484540947 52.081242023035884,63.28388569247909 51.76744352839887,60.000103439670056 52.081242023035884,51.9730672694277 51.76744352839887,44.67574579408392 50.82604804635048,41.02707938873209 49.25705557502806,37.74327639513649 46.7466676235199,35.55407269834541 43.29488418996334,33.72973524592817 39.215503765270114,33.364867641357705 35.4499218352139,34.459470339119434 32.311936896294355,36.2838074141182 29.801548942923546,39.202744770096615 28.54635496623814,42.48654640512541 27.60495948418975,50.51360418391414 28.54635496623814,64.01361466641538 27.91875797882676,75.6892577004619 28.54635496623814,78.97302533406764 31.05674291960895,82.25678990758024 33.88092936575413,84.81082690437324 37.64651129581034,85.90541362157091 41.72589171864092,85.90541362157091 45.49147364683449,84.81082690437324 48.31566009297967,83.35137741826475 50.1984510589391,80.4324766327627 51.76744352839887,76.78384725167416 52.081242023035884,72.77035056916066 51.45364503376186,43.21627968526445 49.88465256243944,39.56761176860891 48.0018616002053,37.0135419794824 45.177675154060125,34.824337830301374 41.41209322400391,33.72973524592817 33.567130871117115,35.55407269834541 30.742944424971938,37.74327639513649 28.860153460875154,40.29734565527178 27.60495948418975,48.32440842059441 28.23255647160113,59.63523855549283 27.60495948418975,66.5676648861263 28.54635496623814,73.13521409244277" stroke="#4dd2ff" stroke-linecap="round" stroke-linejoin="round" stroke-width="0.5"><title>2023-03-20 4.4km</title></polyline><polyline fill="none" points="113.48746312269941,47.49883054627571 112.97850225074217,44.24400384258479 112.97850225074217,39.80559184309095 112.85126203252003,38.32611811312381 112.4695413778536,37.14253802585881 111.57885985076427,35.66306153824553 109.28853592462838,33.73973981407471 107.761653306894,33.14794799336232 106.36201090738177,33.14794799336232 104.70788807142526,33.59179188206326 103.43548589013517,34.33153138961643 102.03584349062294,35.21921829297207 101.27240218175575,36.25485231692437 100.6362010911107,37.586380673688836 100.12724021822214,41.72890540235676 99.87275978224352,50.30981127812993 100.12724021822214,53.268732390133664 100.76344130840153,54.896136390045285 101.78136305417866,55.78381051798351 102.92652501678094,56.81942963635083 106.10753047140315,57.55915711901616 107.50717287091538,57.41121165326331 109.03405548864976,56.96737516357098 110.30645766947418,56.22764737496618 111.4516196330078,55.19202782725915 112.34230116009712,53.86051587713882 112.85126203252003,52.529002686729655 113.10574246849865,46.61115127138328 113.23298268672079,39.361749885138124 112.85126203252003,37.88227569509763 110.30645766947418,34.479479245026596 107.761653306894,33.14794799336232 106.23477068869397,33.0 104.83512828918174,33.443843934335746 102.4175641448237,34.77537491032854 101.39964239951223,35.811009255819954 100.38172065466642,38.62201298167929 100.6362010911107,47.35088403860573 100.12724021822214,48.830348424147815 99.74551956355572,51.49338045832701 100.0,52.972840554779395 100.5089608724229,54.15640752913896 102.67204458080232,56.22764737496618 103.81720654433593,56.96737516357098 106.6164913433604,57.263266172027215 109.28853592462838,56.3755929635372 110.56093810591847,55.63586486806162 112.21506094187498,53.268732390133664 112.4695413778536,51.93721864791587 112.4695413778536,49.126241117483005 113.10574246849865,43.35632254567463 113.23298268672079,38.91790778876748 112.97850225074217,37.586380673688836 112.21506094187498,36.10690464545041 109.92473701527342,34.0356356324628 108.65233483351767,33.29589597170707 105.85305003449321,33.29589597170707 104.45340763544664,33.59179188206326 102.92652501678094,34.479479245026596 102.03584349062294,35.36716605653055 101.14516196306795,36.69869524065871 100.76344130840153,38.178170655621216 100.6362010911107,39.657644539372995 100.38172065466642,51.34543436416425 100.5089608724229,52.67694865795784 101.01792174577713,54.008461710764095 102.79928479949012,56.3755929635372 104.19892719900236,57.115320675307885 106.99821199756116,57.70710256928578 108.27061417978257,57.55915711901616 109.6702565792948,56.81942963635083 110.68817832414061,55.78381051798351 111.70610006898642,54.60024489159696 112.34230116009712,53.268732390133664 112.85126203252003,51.93721864791587 113.10574246849865,46.31525805720594 112.72402181429788,37.586380673688836 112.08782072365284,36.25485231692437 111.06989897834137,35.21921829297207 109.03405548864976,33.443843934335746 107.63441308867186,33.0 106.23477068869397,33.0 103.68996632611379,34.183583518490195 102.54480436304584,35.071270514279604 100.89068152708933,37.29048559057992 100.6362010911107,38.769960392965004 100.6362010911107,40.10148640535772 99.74551956355572,51.34543436416425 99.87275978224352,52.82489461370278 100.38172065466642,54.304353331797756 101.27240218175575,55.33997352269944 102.54480436304584,56.22764737496618 103.81720654433593,56.81942963635083 105.21684894384816,57.263266172027215 106.6164913433604,57.115320675307885 109.28853592462838,56.52353853650857 110.56093810591847,55.63586486806162 111.4516196330078,54.7481906482717 112.21506094187498,53.564624164486304 112.72402181429788,52.23311069793999 113.10574246849865,49.42213374993298 113.23298268672079,44.98373783531133 112.97850225074217,39.21380253485404 112.72402181429788,37.734328192076646 111.19713919702917,35.36716605653055 109.92473701527342,34.479479245026596 108.77957505173981,33.73973981407471 107.37993265222758,33.29589597170707 105.98029025271535,33.29589597170707 104.45340763544664,33.73973981407471 103.18100545415655,34.479479245026596 102.03584349062294,35.36716605653055 101.27240218175575,36.69869524065871 100.38172065466642,39.21380253485404 100.12724021822214,42.02479956636671 100.38172065466642,53.268732390133664 99.61827934579924,54.304353331797756 99.36379890935495,55.63586486806162 101.01792174577713,58.15093882882502 103.81720654433593,61.405733854160644 104.32616741675884,62.73723877291195 104.58064785320312,64.21668722771574 103.43548589013517,66.87969058612362 102.54480436304584,67.91530166275334 102.54480436304584,69.39474475604948 103.18100545415655,72.20568241376895 104.07168698031455,73.53717726899777 108.65233483351767,76.93988070671912 107.37993265222758,79.75080352148507 105.21684894384816,78.27137115015648 89.69354233099148,85.0767473753076 88.93010102165863,85.22468997701071 86.51253687730059,87.0 90.71146407583728,82.5617208071053 90.07526298519224,85.96440275455825 87.53045862261206,86.70411514956504 91.8566260393709,83.4493777481839 90.58422385761514,84.63291947951075 89.18458145810291,83.74526327312924" stroke="#4dd2ff" stroke-linecap="round" stroke-linejoin="round" stroke-width="0.5"><title>2023-03-17 2.8km</title></polyline><polyline fill="none" points="153.147866637446,87.0 152.38651848677546,84.63936564908363 149.08734316378832,80.2131709724199 148.32599501218647,77.55745086609386 149.08734316378832,74.90172828477807 151.87895305268466,75.49188907281496 157.9697382627055,79.03285123058595 161.77647901978344,79.9180910831783 165.07565434277058,79.9180910831783 168.12104694731534,79.03285123058595 171.16643955279142,76.96729050646536 172.94291857257485,74.60664784559049 174.97318030986935,68.40995155787095 174.21183215919882,59.26242288760841 174.46561487577856,44.50828251661733 173.95804944075644,41.852529137860984 172.68913585599512,38.90168914711103 170.65887411963195,36.54101495537907 165.58321977686137,33.0 156.95460739452392,35.065592592349276 154.6705629406497,36.54101495537907 153.147866637446,38.90168914711103 150.86382218357176,40.96727746119723 148.5797777287662,46.86895010876469 150.61003946699202,53.360775905661285 150.61003946699202,56.606683257967234 150.1024740319699,59.26242288760841 150.1024740319699,65.16405764874071 151.1176049010828,71.65584176965058 152.13273576833308,74.31156737566926 153.65543207153678,76.37713002460077 158.4773036967963,79.9180910831783 161.26891358569264,80.80333065916784 167.10591607913375,79.9180910831783 169.64374325051904,78.1476111037191 171.92778770439327,76.37713002460077 174.7193975923583,71.06568018789403 174.97318030986935,68.11487044626847 175.2269630273804,45.39353309292346 173.7042667241767,39.49185738991946 171.92778770439327,37.13118368620053 166.852133362554,33.59016946470365 163.29917532298714,33.29508474795148 160.50756543502212,33.59016946470365 157.71595554519445,34.18033880740404 153.147866637446,38.31152078299783 151.87895305268466,43.91811531293206 152.13273576833308,52.47552780434489 151.6251703351736,67.2296269275248 152.13273576833308,72.83616456622258 153.90921478904784,75.1968086939305 158.9848691318184,78.44269117643125 161.52269630227238,79.32793121156283 167.35969879571348,78.44269117643125 169.8975259680301,76.96729050646536 172.43535313848406,74.90172828477807 173.45048400759697,71.65584176965058 173.95804944075644,63.098486872855574 173.95804944075644,44.50828251661733 173.1967012891546,41.557445275830105 171.6740049868822,38.90168914711103 169.64374325051904,36.24593054340221 167.10591607913375,35.065592592349276 163.8067407561466,34.770508027868345 160.50756543502212,35.065592592349276 157.9697382627055,35.65576162841171 155.68569380789995,37.426268006442115 153.40164935495704,39.78694146475755 152.13273576833308,42.73778053885326 151.87895305268466,52.180445042671636 152.89408391993493,54.836188796442 152.89408391993493,70.1804375865031 153.90921478904784,73.13124518981203 155.68569380789995,75.78696942026727 158.4773036967963,77.55745086609386 161.26891358569264,78.44269117643125 164.31430619116873,78.1476111037191 167.35969879571348,76.96729050646536 169.64374325051904,75.1968086939305 171.42022226937115,73.13124518981203 172.43535313848406,70.1804375865031 172.68913585599512,45.68861655681394 172.43535313848406,42.73778053885326 171.16643955279142,40.08202551002614 168.8823950989172,37.72135229525156 163.04539260454476,35.95084610162303 159.99999999906868,36.83609933592379 157.20839011110365,38.0164365535602 154.92434565722942,40.37710952479392 151.87895305268466,45.39353309292346 149.34112588036805,46.573866767343134 149.08734316378832,52.77061053481884 150.86382218357176,55.42635373910889 151.37138761673123,58.08209446887486 150.1024740319699,61.91816004225984 145.02681969013065,72.83616456622258 144.2654715385288,75.49188907281496 150.1024740319699,75.1968086939305 152.89408391993493,76.08204973791726 154.92434565722942,77.85253099980764 157.20839011110365,79.32793121156283 160.50756543502212,80.50825083092786 163.04539260454476,80.50825083092786 166.34456792846322,79.9180910831783 169.13617781642824,79.03285123058595 171.16643955279142,77.26237070118077 173.45048400759697,74.60664784559049 174.97318030986935,68.40995155787095 175.2269630273804,53.360775905661285 174.7193975923583,43.62303166487254 173.95804944075644,40.67219350859523 172.43535313848406,38.31152078299783 170.40509140118957,36.54101495537907 168.12104694731534,34.770508027868345 165.07565434277058,33.59016946470365 162.0302617372945,33.59016946470365 156.1932592438534,35.65576162841171 153.90921478904784,37.72135229525156 151.87895305268466,40.08202551002614 149.59490859881043,45.98369999113493 149.08734316378832,51.59027942735702 151.1176049010828,57.19684783415869 150.35625674948096,69.00011368887499 151.6251703351736,74.60664784559049 153.65543207153678,76.96729050646536 156.1932592438534,79.03285123058595 161.77647901978344,81.09841045737267 164.82187162525952,80.80333065916784 167.61348151322454,79.9180910831783 169.8975259680301,78.44269117643125 171.92778770439327,76.67221028031781 173.7042667241767,74.01648687524721 174.7193975923583,71.36076099402271 175.48074574396014,47.16403341991827 175.2269630273804,43.91811531293206 174.46561487577856,41.26236138353124 171.42022226937115,36.54101495537907 168.8823950989172,35.065592592349276 166.34456792846322,33.8852541516535 160.76134815160185,33.59016946470365 157.9697382627055,34.47542343311943 153.40164935495704,38.31152078299783 151.6251703351736,40.37710952479392 149.34112588036805,45.39353309292346 149.34112588036805,51.00011369003914 149.84869131539017,53.65585854439996 151.37138761673123,56.01651856000535 151.6251703351736,61.62307825847529 151.1176049010828,70.1804375865031 151.6251703351736,72.83616456622258 152.89408391993493,75.49188907281496 154.92434565722942,77.26237070118077 159.99999999906868,80.2131709724199 162.79160988796502,80.50825083092786 165.58321977686137,80.2131709724199 168.3748296648264,79.03285123058595 170.65887411963195,77.55745086609386 172.43535313848406,75.49188907281496 174.7193975923583,69.88535665767267 175.2269630273804,46.278783394023776 175.2269630273804,43.3279479870107 173.95804944075644,40.37710952479392 170.40509140118957,35.95084610162303 167.86726423166692,33.8852541516535 164.82187162525952,33.29508474795148 161.52269630227238,33.29508474795148 155.93947652634233,35.65576162841171 153.65543207153678,37.72135229525156 152.13273576833308,40.67219350859523 151.37138761673123,43.62303166487254 150.86382218357176,46.278783394023776 151.87895305268466,48.93453264818527 151.87895305268466,52.180445042671636 150.86382218357176,54.54110627947375 150.86382218357176,72.54108391329646 154.41678022313863,77.26237070118077 156.70082467701286,79.03285123058595 159.49243456497788,80.2131709724199 162.5378271713853,80.50825083092786 165.58321977686137,80.2131709724199 168.3748296648264,79.32793121156283 170.91265683621168,77.55745086609386 172.94291857257485,75.1968086939305 174.21183215919882,72.54108391329646 174.97318030986935,69.59027569857426 175.48074574396014,50.705030776094645 175.2269630273804,44.50828251661733 174.7193975923583,41.557445275830105 173.45048400759697,38.90168914711103 171.42022226937115,36.54101495537907 169.13617781642824,34.770508027868345 166.59835064504296,33.8852541516535 163.8067407561466,33.29508474795148 157.9697382627055,34.47542343311943 155.43191109225154,36.24593054340221 153.40164935495704,38.0164365535602 151.87895305268466,40.67219350859523 151.1176049010828,43.91811531293206 150.86382218357176,52.47552780434489 150.61003946699202,69.88535665767267 151.37138761673123,72.83616456622258 154.41678022313863,77.26237070118077 156.1932592438534,79.32793121156283 162.2840444529429,80.80333065916784 168.62861238140613,79.32793121156283 173.1967012891546,75.1968086939305 174.21183215919882,72.54108391329646 174.97318030986935,69.29519470897503 175.2269630273804,61.03291459870525 175.48074574396014,45.39353309292346 175.2269630273804,42.14761296939105 173.95804944075644,39.78694146475755 171.92778770439327,37.13118368620053 169.64374325051904,35.3606771256309 166.852133362554,33.8852541516535 164.06052347365767,33.59016946470365 160.76134815160185,33.8852541516535 157.9697382627055,34.770508027868345 154.92434565722942,36.54101495537907 152.89408391993493,39.196773283183575 151.6251703351736,42.442696769488975 150.86382218357176,48.344366361619905 151.1176049010828,62.80340521060862 150.61003946699202,68.70503263827413 150.86382218357176,71.65584176965058 152.13273576833308,74.60664784559049 153.65543207153678,76.67221028031781 155.93947652634233,78.73777121910825 161.52269630227238,80.50825083092786 164.31430619116873,80.2131709724199 167.10591607913375,79.62301116273738 171.6740049868822,76.37713002460077 173.1967012891546,74.01648687524721 174.7193975923583,68.40995155787095 175.2269630273804,62.80340521060862 174.97318030986935,43.03286427794956 173.95804944075644,40.08202551002614 172.43535313848406,37.426268006442115 170.40509140118957,35.65576162841171 168.12104694731534,34.18033880740404 162.5378271713853,33.0 156.70082467701286,34.770508027868345 154.41678022313863,36.83609933592379 152.38651848677546,39.49185738991946 151.6251703351736,42.14761296939105 151.1176049010828,47.7541999516543 151.37138761673123,56.31160092470236 150.86382218357176,68.40995155787095 151.1176049010828,71.65584176965058 152.38651848677546,74.60664784559049 154.41678022313863,76.96729050646536 156.95460739452392,78.73777121910825 159.74621728342026,80.2131709724199 162.79160988796502,80.80333065916784 165.83700249250978,80.50825083092786 168.62861238140613,79.32793121156283 170.91265683621168,77.85253099980764 174.21183215919882,72.83616456622258 175.2269630273804,69.88535665767267 175.7345284614712,45.98369999113493 175.2269630273804,42.73778053885326 174.21183215919882,40.08202551002614 172.68913585599512,37.426268006442115 170.40509140118957,35.3606771256309 165.3294370593503,33.0 159.49243456497788,33.8852541516535 156.95460739452392,35.065592592349276 154.6705629406497,36.54101495537907 152.89408391993493,38.90168914711103 151.6251703351736,41.557445275830105 150.86382218357176,50.705030776094645 151.37138761673123,66.04930180916563 150.86382218357176,69.00011368887499 151.37138761673123,71.9509225145448 152.6403012033552,74.60664784559049 154.1629975065589,76.96729050646536 156.70082467701286,78.73777121910825 162.0302617372945,80.80333065916784 165.07565434277058,80.80333065916784 170.15130868460983,78.1476111037191 172.68913585599512,76.08204973791726 173.45048400759697,73.13124518981203 174.97318030986935,70.47551848413423 175.2269630273804,67.5247081303969 175.48074574396014,50.40994783164933 175.2269630273804,44.50828251661733 174.7193975923583,41.557445275830105 173.45048400759697,38.90168914711103 171.42022226937115,36.83609933592379 169.13617781642824,34.770508027868345 163.55295803956687,33.59016946470365 160.50756543502212,33.8852541516535 157.9697382627055,34.47542343311943 153.147866637446,38.0164365535602 151.87895305268466,40.37710952479392 151.37138761673123,43.3279479870107 151.1176049010828,61.03291459870525 151.6251703351736,72.54108391329646 153.147866637446,75.1968086939305 155.17812837474048,77.55745086609386 157.71595554519445,79.32793121156283 162.79160988796502,80.80333065916784 168.62861238140613,79.32793121156283 172.94291857257485,75.1968086939305 174.46561487577856,72.54108391329646 175.2269630273804,69.88535665767267 175.48074574396014,45.09844959760085 174.97318030986935,42.14761296939105 173.95804944075644,39.49185738991946 170.40509140118957,35.65576162841171 164.82187162525952,33.29508474795148 158.9848691318184,33.59016946470365 156.1932592438534,34.770508027868345 154.1629975065589,36.54101495537907 152.6403012033552,38.90168914711103 151.37138761673123,41.557445275830105 150.86382218357176,44.50828251661733 150.86382218357176,66.04930180916563 151.1176049010828,71.9509225145448 151.87895305268466,74.60664784559049 153.90921478904784,76.96729050646536 156.1932592438534,79.03285123058595 158.9848691318184,80.2131709724199 164.82187162525952,81.09841045737267 167.86726423166692,80.2131709724199 170.40509140118957,78.73777121910825 174.21183215919882,74.31156737566926 174.97318030986935,71.65584176965058 175.2269630273804,68.70503263827413 175.2269630273804,44.80336607270874 174.97318030986935,42.14761296939105 173.7042667241767,39.196773283183575 172.18157042190433,36.83609933592379 169.8975259680301,35.065592592349276 167.10591607913375,33.8852541516535 164.06052347365767,33.29508474795148 161.0151308681816,33.59016946470365 158.22352098021656,34.47542343311943 155.43191109225154,35.95084610162303 153.40164935495704,37.72135229525156 151.87895305268466,40.08202551002614 151.1176049010828,43.03286427794956 150.86382218357176,48.93453264818527" stroke="#4dd2ff" stroke-linecap="round" stroke-linejoin="round" stroke-width="0.5"><title>2023-03-13 6.5km</title></polyline><polyline fill="none" points="30.121406667865813,147.0 27.81212511099875,144.61328104464337 27.555538270622492,144.91162102180533 25.7594303926453,141.6298795712646 25.502843553200364,138.64647500775754 29.09505930915475,138.0497937244363 33.97020926512778,141.33153925440274 39.615119740366936,143.71826092735864 45.51661705505103,142.22656011255458 50.64835384953767,138.94481560355052 52.95763540826738,132.97799782804213 53.47080908808857,126.41448400425725 52.70104856882244,123.13272148510441 52.70104856882244,104.6354446541518 49.62200649082661,98.96690056333318 47.825898612849414,96.8784867725335 45.26003021467477,95.38676170888357 42.18098813761026,94.79007146693766 38.58877238072455,94.49172629928216 32.43068822659552,97.47517658188008 30.891167188063264,100.45862377458252 30.121406667865813,103.74041211837903 30.121406667865813,110.30397759284824 29.864819828420877,113.28741150256246 28.58188563026488,115.67415640526451 28.83847246877849,118.95592741924338 28.068711950443685,125.51945823361166 28.068711950443685,128.20453471131623 27.81212511099875,131.4862914539408 28.32529878988862,134.17136237118393 30.63458034861833,140.4365181166213 33.457035585306585,142.22656011255458 39.35853289999068,144.31494103581645 42.950748656876385,144.01660099695437 45.51661705505103,143.1215806941036 48.59565913211554,141.03319890564308 50.904940688982606,138.64647500775754 52.18787488806993,135.66306735621765 53.727395926602185,128.80121803306974 52.95763540826738,125.22111624875106 53.727395926602185,103.44206787832081 52.70104856882244,100.45862377458252 50.904940688982606,98.07186626689509 48.33907229267061,95.9834518271964 45.51661705505103,94.79007146693766 39.615119740366936,94.19338110135868 33.97020926512778,95.9834518271964 31.404340867884457,98.3702110638842 31.660927707329392,101.05531284236349 30.63458034861833,103.44206787832081 30.121406667865813,106.72385282348841 30.63458034861833,109.70729044033214 29.864819828420877,112.69072496704757 29.60823298804462,115.97249937872402 28.32529878988862,121.64101001387462 27.555538270622492,127.60785126592964 27.555538270622492,133.57468016189523 28.58188563026488,136.55808997596614 32.43068822659552,140.4365181166213 34.739969783462584,141.92821985716 37.30583818256855,142.82324053090997 43.20733549725264,142.82324053090997 46.0297907339409,141.92821985716 50.64835384953767,138.3481343819294 53.727395926602185,133.27633901010267 53.98398276697844,121.64101001387462 53.727395926602185,115.67415640526451 53.98398276697844,106.42550889239646 53.47080908808857,103.44206787832081 52.18787488806993,101.05531284236349 47.825898612849414,96.58014182094485 45.26003021467477,95.08841660292819 39.10194605961442,94.19338110135868 36.53607766330242,94.79007146693766 33.71362242568284,95.9834518271964 31.404340867884457,97.77352143987082 29.60823298804462,100.16027919342741 28.068711950443685,106.72385282348841 28.83847246877849,109.70729044033214 28.83847246877849,115.67415640526451 29.351646149531007,118.35924205835909 27.81212511099875,123.72940585762262 26.785777751356363,130.2929257976357 30.121406667865813,138.64647500775754 32.174101387150586,141.33153925440274 34.22679610457271,143.1215806941036 37.56242502108216,144.01660099695437 40.898053938522935,144.01660099695437 46.54296441283077,143.1215806941036 48.59565913211554,141.03319890564308 51.161527529358864,139.83983720396645 53.727395926602185,134.76804445777088 54.2405696073547,131.4862914539408 53.727395926602185,128.20453471131623 54.2405696073547,124.92277423106134 54.49715644586831,119.25427005300298 53.98398276697844,116.5691852341406 54.2405696073547,113.58575472328812 53.47080908808857,104.33710050676018 50.391767010092735,98.3702110638842 42.69416181743145,93.59669061284512 36.53607766330242,94.49172629928216 33.97020926512778,95.38676170888357 30.121406667865813,99.56358994101174 28.58188563026488,104.93378877127543 27.81212511099875,117.4642137857154 28.068711950443685,120.745982759865 26.785777751356363,123.72940585762262 28.068711950443685,126.11614211113192 28.32529878988862,128.80121803306974 27.555538270622492,131.78463279036805 28.068711950443685,135.0663854549639 29.60823298804462,137.1547715680208 32.174101387150586,139.24315616767853 37.56242502108216,141.92821985716 42.950748656876385,142.82324053090997 48.33907229267061,140.4365181166213 50.64835384953767,138.3481343819294 53.47080908808857,132.97799782804213 54.49715644586831,121.64101001387462 54.2405696073547,118.65758475405164 53.47080908808857,115.97249937872402 53.727395926602185,104.33710050676018 52.70104856882244,101.65200178697705 50.64835384953767,99.56358994101174 46.286377573385835,95.68510678317398 43.463922335766256,94.79007146693766 34.99655662383884,96.58014182094485 32.43068822659552,98.66855582897551 29.351646149531007,104.93378877127543 28.58188563026488,118.35924205835909 28.83847246877849,124.62443218450062 29.60823298804462,127.90619300422259 28.32529878988862,130.88960868725553 28.83847246877849,134.76804445777088 30.121406667865813,137.4531123181805 34.48338294401765,141.6298795712646 37.30583818256855,142.82324053090997 40.38488025870174,142.82324053090997 46.54296441283077,141.03319890564308 51.161527529358864,136.25974913313985 52.95763540826738,133.27633901010267 53.727395926602185,120.745982759865 53.47080908808857,104.93378877127543 50.904940688982606,98.96690056333318 48.85224597156048,97.17683169222437 43.463922335766256,93.59669061284512 40.64146709814668,93.0 34.48338294401765,94.19338110135868 30.891167188063264,99.26524526835419 28.32529878988862,105.82882093661465 28.068711950443685,111.49735152744688 26.785777751356363,114.48078420106322 27.81212511099875,117.76255657384172 26.785777751356363,127.60785126592964 27.04236459173262,130.2929257976357 26.785777751356363,133.27633901010267" stroke="#4dd2ff" stroke-linecap="round" stroke-linejoin="round" stroke-width="0.5"><title>2023-03-12 2.9km</title></polyline><polyline fill="none" points="91.17598177865148,140.16004638839513 95.51058722101152,141.24003995815292 99.84519266150892,140.88004213850945 103.56056875549257,139.0800524824299 106.3471008259803,136.92006366536953 108.51440354809165,133.6800779227633 109.75286224484444,130.08009022520855 110.06247691996396,122.88010364444926 109.44324757158756,119.64010481815785 109.13363289646804,102.00005824305117 107.89517419785261,98.76003996049985 105.72787147760391,95.88002117210999 102.63172473199666,94.08000822016038 99.22596331313252,93.0 95.51058722101152,93.0 92.41444047726691,94.44001088500954 89.00867905654013,96.96002849750221 86.84137633629143,99.4800442836713 85.602917637676,102.72006189613603 84.0548442658037,129.72009124956094 84.0548442658037,137.28006189432926 85.91253231279552,140.52004428207874 88.07983503490686,143.04002849571407 92.10482580214739,145.20001351134852 96.43943124450743,145.92000821838155 103.56056875549257,143.04002849571407 106.03748615272343,140.88004213850945 107.89517419785261,138.0000582416542 109.13363289646804,134.40007501537912 108.82401822134852,102.72006189613603 107.58555952459574,98.40003774198703 104.799027454108,95.52001865650527 102.01249538362026,93.36000277777202 98.29711929149926,93.0 93.6528991740197,93.0 90.24713775515556,95.16001610364765 87.46060568466783,98.04003548622131 85.29330296441913,101.64005636097863 84.67407361604273,105.24007350741886 84.98368828929961,122.88010364444926 86.22214698791504,127.20009738067165 85.602917637676,131.52008575107902 85.602917637676,135.84006875287741 86.53176166117191,139.44005048833787 89.00867905654013,142.68003086326644 92.72405515052378,144.48001865507104 96.43943124450743,145.20001351134852 100.4644220136106,144.8400161024183 103.87018343061209,143.40002609184012 106.65671550109982,140.52004428207874 109.44324757158756,136.20006709452718 108.82401822134852,121.44010453834198 109.44324757158756,101.64005636097863 108.51440354809165,98.40003774198703 106.03748615272343,95.52001865650527 102.32211006060243,93.72000551712699 98.91634863987565,93.0 95.51058722101152,93.0 91.79521112702787,94.8000135126058 88.69906438328326,96.60002609342337 86.53176166117191,99.4800442836713 86.22214698791504,103.08006366714835 100.15480733662844,100.92005248530768 113.46823833882809,97.68003319459967 116.87399975769222,97.68003319459967 113.77785301208496,98.76003996049985 110.68170626834035,100.56005049054511 107.58555952459574,100.20004845852964 102.32211006060243,95.16001610364765 99.22596331313252,93.72000551712699 95.82020189613104,93.72000551712699 89.62790840677917,95.88002117210999 87.15099101141095,98.04003548622131 84.0548442658037,104.8800719610881 84.67407361604273,108.48008575313725 84.67407361604273,112.44009661790915 85.602917637676,115.68010215414688 86.22214698791504,137.28006189432926 87.77022035978734,140.52004428207874 90.24713775515556,142.68003086326644 96.43943124450743,145.56001088418998 99.53557799011469,144.8400161024183 104.799027454108,140.88004213850945 107.27594484947622,134.76007350580767 107.58555952459574,123.96010258095339 107.27594484947622,120.72010476258583 107.89517419785261,117.12010364397429 108.82401822134852,106.32007792545483 107.89517419785261,102.72006189613603 103.2509540822357,97.68003319459967 99.22596331313252,96.24002365232445 94.89135787263513,95.88002117210999 91.17598177865148,96.96002849750221 88.07983503490686,99.12004214106128 85.602917637676,102.36006008880213 84.67407361604273,106.6800793223083 84.98368828929961,114.60010064416565 84.0548442658037,117.84010416641831 83.74522959254682,132.9600806820672 84.98368828929961,140.16004638839513 87.15099101141095,143.04002849571407 89.93752308003604,145.20001351134852 93.96251384913921,146.2800055157859 98.29711929149926,146.64000277640298 102.32211006060243,145.20001351134852 105.10864212922752,143.04002849571407 107.27594484947622,140.16004638839513 108.82401822134852,136.92006366536953 109.44324757158756,132.9600806820672 108.82401822134852,128.6400941007305 109.13363289646804,109.56008916348219 107.89517419785261,101.28005444188602 105.72787147760391,97.68003319459967 102.94133940711617,95.52001865650527 96.12981656938791,93.36000277777202 89.00867905654013,94.8000135126058 85.91253231279552,97.32003086409532 84.0548442658037,100.92005248530768 83.12600024230778,104.5200703763403 83.12600024230778,116.40010297298431 83.74522959254682,127.56009661825374 83.4356149174273,135.84006875287741 87.15099101141095,142.68003086326644 89.93752308003604,145.56001088418998 93.6528991740197,147.0 101.08365136012435,145.20001351134852 104.48941277898848,143.04002849571407 108.51440354809165,137.28006189432926 108.82401822134852,126.48009879840538" stroke="#4dd2ff" stroke-linecap="round" stroke-linejoin="round" stroke-width="0.5"><title>2023-03-10 2.4km</title></polyline><polyline fill="none" points="174.7021161755547,102.26633935119025 169.48080388922244,96.19529257435352 163.16026796307415,93.31952940602787 156.56492612697184,93.95858811936341 152.99244929850101,95.87576346611604 150.79400202073157,97.7929376210086 148.5955547420308,100.66869662050158 146.3971074623987,106.73973459750414 147.22152519226074,109.93501294590533 145.29788382351398,127.50898472033441 146.67191337235272,135.1775955853518 147.49633110128343,137.7337949727662 148.87036065012217,140.60951675125398 151.06880792975426,142.846187394578 153.81686702836305,144.44380828924477 156.83973203599453,145.72190440888517 163.16026796307415,145.72190440888517 166.18313297070563,144.44380828924477 169.20599798019975,142.20713880471885 172.50366889685392,136.77522045047954 173.6028925376013,123.35514587839134 173.6028925376013,106.10067853075452 173.05328071769327,102.58586779842153 171.1296393489465,99.71011058543809 168.1067743403837,97.7929376210086 166.18313297070563,94.91717594210058 158.76337340660393,94.27811742690392 152.99244929850101,96.51482165022753 150.79400202073157,98.43199540791102 148.5955547420308,101.94681087136269 147.77113701216877,105.46162233268842 147.22152519226074,114.40839707478881 147.22152519226074,124.31372456881218 147.77113701216877,135.1775955853518 148.5955547420308,138.37284448812716 152.44283747952431,143.16571163921617 157.9389556767419,145.72190440888517 161.2366265943274,146.36095227161422 165.0839093318209,145.72190440888517 170.30522161908448,142.52666311571375 173.32808662671596,137.41427016467787 173.87769844662398,134.21902026887983 173.6028925376013,127.82851055334322 174.152504356578,110.25454059848562 173.32808662671596,103.86398125533015 172.50366889685392,100.98822523327544 170.30522161908448,98.11246653157286 165.3587152408436,95.23670514975674 161.51143250335008,93.63905877945945 154.36647884733975,95.23670514975674 149.6947783799842,99.71011058543809 148.87036065012217,102.58586779842153 147.49633110128343,105.7811504479032 145.84749564249068,121.43798760371283 146.3971074623987,124.63325073290616 145.84749564249068,133.89949509804137 148.04594292119145,139.65094312280416 149.96958429086953,142.52666311571375 152.44283747952431,144.44380828924477 155.4657024871558,145.72190440888517 158.4885674957186,146.36095227161422 162.0610443232581,146.0414283568971 168.6563861593604,143.4852358510252 172.77847480773926,138.05331974686123 173.87769844662398,134.8580705130007 174.42731026746333,128.14803635375574 173.87769844662398,121.75751406583004 174.42731026746333,108.65690200263634 174.152504356578,105.46162233268842 173.32808662671596,102.58586779842153 171.6792511679232,99.71011058543809 169.48080388922244,97.15387970232405 166.45793888159096,95.55623432481661 163.70987978205085,94.59764670068398 157.38934385497123,94.91717594210058 154.36647884733975,96.19529257435352 151.8932256596163,97.7929376210086 148.04594292119145,103.86398125533015 147.22152519226074,110.25454059848562 147.49633110128343,113.4498153065797 146.67191337235272,117.28414059057832 146.3971074623987,124.63325073290616 146.3971074623987,131.66281797131523 147.22152519226074,134.53854540758766 149.6947783799842,140.28999224188738 155.19089657720178,145.08285641483963 158.4885674957186,146.0414283568971 165.0839093318209,145.08285641483963 168.1067743403837,143.4852358510252 170.85483343806118,141.56809008284472 172.77847480773926,139.01189387170598 174.42731026746333,132.94091938459314 174.7021161755547,109.93501294590533 174.42731026746333,104.18350953632034 173.6028925376013,100.98822523327544 171.4044452579692,98.75152425142005 168.6563861593604,96.51482165022753 162.3358502332121,94.27811742690392 155.7405083971098,95.55623432481661 153.26725520938635,97.15387970232405 150.79400202073157,99.71011058543809 148.87036065012217,102.26633935119025 147.49633110128343,108.97642978816293 147.22152519226074,115.04745142091997 146.3971074623987,118.56224795966409 146.3971074623987,125.9113550586626 145.57268973253667,129.10661355615593 145.84749564249068,132.6213940808084 147.22152519226074,139.3314185142517 148.5955547420308,141.88761445973068 150.79400202073157,144.12428417685442 153.81686702836305,145.72190440888517 156.83973203599453,146.36095227161422 160.41220886446536,147.0 163.70987978205085,146.36095227161422 166.73274479061365,145.08285641483963 171.1296393489465,140.28999224188738 173.05328071769327,137.41427016467787 173.6028925376013,134.53854540758766 173.05328071769327,131.3432925355155 173.87769844662398,114.72792426380329 173.6028925376013,111.21312335785478 174.42731026746333,108.01784633402713 172.50366889685392,101.30775381298736 170.5800275299698,98.11246653157286 167.8319684304297,95.87576346611604 164.5342975128442,94.27811742690392 161.2366265943274,93.31952940602787 155.19089657720178,94.59764670068398 149.6947783799842,99.39058184088208 148.32074883114547,101.94681087136269 147.22152519226074,105.7811504479032 147.22152519226074,116.64508670708165 146.3971074623987,128.14803635375574 148.32074883114547,138.37284448812716 149.4199724709615,141.56809008284472 151.34361383970827,143.8047600304708 154.64128475822508,145.72190440888517 158.2137615857646,146.36095227161422 161.2366265943274,146.36095227161422 164.5342975128442,145.72190440888517 167.55716252047569,144.12428417685442 170.30522161908448,141.88761445973068 173.6028925376013,136.45569554297253 174.42731026746333,132.6213940808084 173.87769844662398,118.24272116669454 174.152504356578,105.14209418278188 171.4044452579692,99.07105306372978 169.20599798019975,96.8343506923411 163.70987978205085,94.27811742690392 156.83973203599453,94.91717594210058 153.81686702836305,96.8343506923411 149.4199724709615,100.98822523327544 147.77113701216877,104.18350953632034 146.3971074623987,110.89359580492601 146.67191337235272,123.67467214120552 145.84749564249068,127.18945885449648 146.12230155337602,134.21902026887983 148.5955547420308,140.92904122848995 150.51919610984623,143.4852358510252 153.54206111840904,145.08285641483963 156.83973203599453,146.36095227161422 160.13740295451134,146.36095227161422 163.16026796307415,146.0414283568971 166.45793888159096,145.08285641483963 168.93119207024574,143.16571163921617 171.1296393489465,140.60951675125398 173.32808662671596,135.1775955853518 173.87769844662398,128.78708785469644 174.42731026746333,115.04745142091997 173.87769844662398,111.5326508784201 173.87769844662398,108.3373741847463 171.6792511679232,101.62728235917166 170.03041570819914,98.75152425142005 167.282356611453,95.87576346611604 163.98468569200486,94.59764670068398 160.96182068437338,94.27811742690392 154.91609066724777,95.55623432481661 151.8932256596163,97.7929376210086 148.04594292119145,102.58586779842153 147.22152519226074,105.46162233268842 145.57268973253667,129.4261392231565 147.22152519226074,139.970467699226 151.61841974966228,144.76333236834034 157.38934385497123,147.0 164.5342975128442,146.6804761523381 167.282356611453,145.08285641483963 169.75560979917645,142.846187394578 173.6028925376013,137.09474532376043 173.87769844662398,133.5799698936753 172.77847480773926,130.70424156286754 173.87769844662398,127.18945885449648 173.6028925376013,123.99419837188907 174.7021161755547,113.76934259594418 173.87769844662398,104.18350953632034 170.30522161908448,97.7929376210086 167.55716252047569,95.55623432481661 161.7862384142354,93.0 158.76337340660393,93.0 155.4657024871558,94.59764670068398 152.99244929850101,96.51482165022753 148.87036065012217,101.30775381298736 147.22152519226074,104.82256600004621 146.94671928230673,108.01784633402713 146.3971074623987,115.04745142091997 146.67191337235272,118.56224795966409 146.12230155337602,128.78708785469644 145.57268973253667,132.30186874372885 146.94671928230673,138.05331974686123 148.5955547420308,140.92904122848995 151.06880792975426,143.4852358510252 154.09167293738574,144.76333236834034" stroke="#4dd2ff" stroke-linecap="round" stroke-linejoin="round" stroke-width="0.5"><title>2022-11-10 4.1km</title></polyline><polyline fill="none" points="53.877694136463106,166.4202065821737 53.32808248791844,162.58586779981852 52.22885918896645,159.7101105854381 49.7556067686528,156.83435069350526 43.9846844561398,153.6390587799251 40.41220873687416,153.0 36.56492719426751,154.27811742736958 30.794004880823195,158.75152425281703 28.59555828385055,161.62728235893883 27.771140810102224,165.1420941830147 26.946723338216543,176.3255597166717 26.946723338216543,196.1361706033349 27.771140810102224,199.33141851355322 29.419975757598877,201.5680900819134 32.4428398264572,204.1242841759231 35.46570389624685,205.72190440865234 39.03817961458117,206.04142835573293 42.610655332915485,205.72190440865234 46.1831310512498,204.76333236834034 49.20599512010813,202.20713880378753 51.40444171521813,199.33141851355322 52.778470838442445,196.45569554297253 53.877694136463106,189.74566485802643 54.15249996166676,166.100678531453 53.32808248791844,162.9053962128237 51.95405336469412,160.02963929832913 46.73274269979447,154.27811742736958 40.13740291260183,153.6390587799251 36.56492719426751,154.27811742736958 33.26725730113685,155.8757634672802 31.06881070509553,157.79293762193993 29.145169933326542,160.3491679765284 26.946723338216543,167.0592625818681 26.946723338216543,180.4794080206193 25.847500040195882,186.86993295536377 26.39711168874055,190.70424156356603 26.39711168874055,193.8994950975757 28.59555828385055,200.60951675125398 32.99245147686452,205.08285641553812 36.01531554572284,206.04142835573293 39.312985439784825,206.68047615140676 46.1831310512498,204.44380828831345 51.129635891877115,199.33141851355322 52.778470838442445,195.8166456304025 53.877694136463106,192.62139408127405 53.32808248791844,184.95277686417103 54.15249996166676,178.56224795919843 53.32808248791844,171.8521783668548 53.877694136463106,165.78115044813603 53.32808248791844,162.26633935282007 51.40444171521813,159.0710530639626 45.08390775229782,153.9585881207604 41.78623785916716,153.0 39.03817961458117,153.0 35.74050972145051,153.9585881207604 32.71764565166086,155.55623432504945 30.51919905655086,158.1124665325042 28.59555828385055,161.30775381345302 27.221529162488878,168.0178463337943 27.221529162488878,181.4379876041785 27.771140810102224,187.82851055450737 26.946723338216543,195.17759558488615 28.045946636237204,198.6923691967968 29.96958740707487,201.5680900819134 35.190898071974516,205.08285641553812 38.48856796696782,205.72190440865234 44.53429610468447,205.08285641553812 47.5571601735428,203.80476003023796 49.7556067686528,201.24856567196548 52.50366501417011,196.1361706033349 53.32808248791844,192.9409193843603 53.05327666271478,187.18945885449648 53.877694136463106,177.92319434089586 53.32808248791844,164.50303778634407 49.7556067686528,158.75152425281703 47.00754852499813,156.51482165162452 43.43507280573249,155.23670515068807 36.56492719426751,154.91717594233342 33.81686894968152,156.19529257551767 31.06881070509553,159.0710530639626 28.870364109054208,161.94681087252684 27.221529162488878,165.4616223324556 26.67191751394421,168.65690200356767 26.946723338216543,171.8521783668548 26.122305864468217,174.7279242647346 26.946723338216543,193.8994950975757 28.045946636237204,197.09474532376043 31.06881070509553,202.52666311571375 36.01531554572284,206.04142835573293 39.312985439784825,206.36095227045007 42.88546115718782,206.04142835573293 46.1831310512498,204.76333236834034 49.20599512010813,202.84618739341386 51.129635891877115,200.28999224188738 53.60288831219077,193.8994950975757 54.427305785007775,180.79893458122388 54.15249996166676,163.544452941278 52.50366501417011,160.02963929832913 50.030412593856454,157.47340867924504 47.5571601735428,154.91717594233342 44.25949028041214,153.6390587799251 40.41220873687416,153.3195294069592 37.11453884281218,153.6390587799251 34.36648059915751,154.5976467016153 31.343616530299187,156.83435069350526 29.419975757598877,160.02963929832913 28.045946636237204,163.544452941278 27.496334987692535,167.0592625818681 27.771140810102224,174.40839707455598 27.221529162488878,181.11846110969782 27.221529162488878,194.53854540805332 28.59555828385055,197.41427016397938 30.51919905655086,200.28999224188738 32.71764565166086,202.52666311571375 35.46570389624685,204.44380828831345 43.43507280573249,204.76333236834034 46.1831310512498,204.1242841759231 49.20599512010813,202.20713880378753 51.129635891877115,199.01189387170598 53.60288831219077,196.45569554297253 54.427305785007775,193.26044465508312 54.427305785007775,176.3255597166717 53.877694136463106,163.22492459323257 52.22885918896645,160.66869662166573 45.358713577501476,154.27811742736958 42.06104368343949,153.6390587799251 36.01531554572284,154.5976467016153 33.26725730113685,156.19529257551767 29.145169933326542,160.3491679765284 27.496334987692535,163.22492459323257 26.67191751394421,166.100678531453 26.67191751394421,178.56224795919843 25.572694214992225,194.53854540805332 25.847500040195882,197.41427016397938 27.221529162488878,199.97046769876033 29.145169933326542,202.52666311571375 34.091674773953855,206.04142835573293 37.11453884281218,207.0 39.862597088329494,206.04142835573293 42.610655332915485,206.04142835573293 45.63351940270513,205.08285641553812 51.95405336469412,199.01189387170598 54.427305785007775,193.26044465508312 53.60288831219077,170.57406821846962 53.877694136463106,167.37879053200595 53.05327666271478,164.183509538183 51.40444171521813,160.98822523350827 48.65638347156346,158.1124665325042 45.908325226046145,156.19529257551767 42.88546115718782,155.55623432504945 36.01531554572284,155.23670515068807 32.71764565166086,156.83435069350526 30.244393231347203,159.0710530639626 27.221529162488878,164.82256600097753 26.67191751394421,168.0178463337943 26.39711168874055,177.92319434089586 26.67191751394421,193.5799698929768 27.496334987692535,196.45569554297253 30.51919905655086,201.5680900819134" stroke="#4dd2ff" stroke-linecap="round" stroke-linejoin="round" stroke-width="0.5"><title>2022-11-09 3.1km</title></polyline><polyline fill="none" points="109.80766118038446,159.70812350232154 108.07689744234085,157.024875768926 105.76921245921403,154.67703217780218 102.30768498405814,153.0 99.13461813144386,153.3354065043386 91.34618131164461,155.68325106799603 86.73081134539098,160.7143408297561 85.86542947590351,163.73299093497917 86.44235072098672,177.81998756853864 85.86542947590351,181.8448324969504 85.86542947590351,195.2609461408574 87.0192719688639,198.6149658705108 91.05772069003433,203.645988953067 94.23078754171729,205.65839599748142 98.55769688636065,206.66459905193187 102.01922436151654,206.32919806824066 108.36535806581378,203.645988953067 110.9615036714822,200.9627776145935 112.98072803206742,197.60876031592488 114.13457052502781,171.44730620319024 113.55764927901328,164.40380168776028 111.82688554096967,161.04974653571844 106.9230549512431,156.01865729503334 100.00000000093132,154.00621941057034 93.0769450487569,156.35406348784454 88.17311445903033,161.72055784310214 87.0192719688639,165.41001755697653 87.0192719688639,175.47215905063786 85.86542947590351,193.2485326367896 86.73081134539098,196.9379564402625 88.17311445903033,200.6273760406766 93.65386629570276,204.98759378795512 97.40385439340025,205.993797050789 105.19229121413082,205.65839599748142 110.38458242546767,201.29817915405147 112.69226740952581,194.925543977879 112.69226740952581,164.06839632848278 111.24996429402381,160.3789350874722 108.94227931182832,157.6956879098434 105.76921245921403,155.68325106799603 102.01922436151654,154.67703217780218 95.09616941120476,155.68325106799603 92.21156318113208,157.024875768926 89.90387819707394,159.37271765666083 87.88465383648872,162.7267745458521 87.0192719688639,166.75163822784089 87.30773259047419,172.78892437485047 86.73081134539098,176.47837148117833 86.73081134539098,183.52184974146076 86.15389010030776,186.5404785927385 86.44235072098672,193.58393497462384 87.0192719688639,196.60255444957875 90.19233882054687,203.31058765691705 96.82693314831704,206.66459905193187 100.00000000093132,207.0 103.17306685261428,206.66459905193187 108.94227931182832,203.98139021382667 110.9615036714822,200.9627776145935 112.4038067869842,197.60876031592488 113.26918865647167,193.919337276835 112.98072803206742,190.2299100367818 112.98072803206742,179.1616031001322 114.13457052502781,168.42866328614764 112.4038067869842,161.72055784310214 110.6730430489406,158.36649991292506 108.07689744234085,156.01865729503334 102.30768498405814,153.0 98.55769688636065,154.67703217780218 95.38463003374636,155.01243850938044 92.21156318113208,156.68946964549832 89.61541757453233,159.70812350232154 88.17311445903033,162.7267745458521 87.30773259047419,165.74542277655564 86.44235072098672,190.56531268637627 87.30773259047419,197.9441622023005 88.75003570597619,200.9627776145935 91.05772069003433,203.98139021382667 93.94232691824436,205.65839599748142 96.82693314831704,206.32919806824066 104.03844872117043,205.65839599748142 106.9230549512431,203.98139021382667 111.53842491842806,198.6149658705108 112.11534616351128,195.2609461408574 112.69226740952581,170.44109221012332 111.53842491842806,167.08704330935143 110.6730430489406,163.0621800441295 108.36535806581378,160.3789350874722 103.17306685261428,157.36028185649775 99.71153937652707,157.024875768926 93.94232691824436,159.03731177700683 91.34618131164461,161.38515220675617 89.32695695199072,163.73299093497917 89.0384963285178,178.1553915028926" stroke="#4dd2ff" stroke-linecap="round" stroke-linejoin="round" stroke-width="0.5"><title>2022-11-08 1.9km</title></polyline><polyline fill="none" points="152.40567819029093,201.56607796507888 161.16835720092058,205.98114030458964 171.97566131595522,197.83025134401396 173.43610781803727,165.22649295139126 170.80730411410332,158.77362735010684 160.87626790069044,154.35850146738812 149.77687448635697,163.52837165561505 149.4847851851955,197.49063053028658 159.70791069976985,205.98114030458964 171.97566131595522,199.52835488086566 172.55983991734684,163.1887472907547 161.46044650208205,155.03775199037045 149.19269588496536,165.90574122359976 149.77687448635697,198.16987212118693 161.46044650208205,205.6415203360375 172.2677506171167,197.49063053028658 172.85192921757698,164.54724453948438 163.21298230532557,154.69812674610876 152.69776748958975,158.09437760175206 149.4847851851955,164.20762027939782 149.77687448635697,199.52835488086566 162.9208930041641,205.3019003313966 172.85192921757698,195.4529049147386 172.55983991734684,163.52837165561505 161.7525358023122,155.03775199037045 149.19269588496536,165.22649295139126 149.19269588496536,198.16987212118693 160.5841786013916,204.9622802915983 171.97566131595522,197.83025134401396 172.55983991734684,162.16987398685887 162.9208930041641,153.67925080424175 148.90060658473521,162.84912289120257 148.31642798520625,194.7736627617851 159.70791069976985,205.98114030458964 171.6835720166564,199.52835488086566 173.14401851873845,163.52837165561505 164.089250206016,154.35850146738812 156.4949283953756,154.69812674610876 149.4847851851955,162.84912289120257 148.31642798520625,197.15100968256593 158.8316427981481,205.98114030458964 169.05476831272244,203.60379978339188 173.43610781803727,197.49063053028658 173.72819711826742,165.22649295139126 162.3367144037038,154.01887615397573 148.60851728357375,163.1887472907547 148.31642798520625,195.79252593871206 151.52941028866917,202.58493903186172 160.87626790069044,205.98114030458964 173.72819711826742,195.4529049147386 173.14401851873845,162.50949845672585 162.3367144037038,154.35850146738812 148.90060658473521,163.1887472907547 148.02433868404478,197.15100968256593 151.82149958889931,203.94341996288858 164.6734288064763,205.98114030458964 174.02028641942888,193.75479926750995 171.09939341433346,156.39625261328183 161.16835720092058,153.0 148.90060658473521,159.45287695876323 145.97971358057112,192.39631411759183 154.45030329190195,206.66038013622165 171.6835720166564,203.60379978339188 174.31237571965903,164.88686876255088 155.3265711935237,176.77369444607757 150.94523168727756,199.18873424385674 163.21298230532557,205.3019003313966 173.43610781803727,196.13214692752808 173.43610781803727,163.52837165561505 164.96551810763776,155.71700237272307 158.24746419861913,155.3773771985434 149.77687448635697,162.50949845672585 148.02433868404478,193.75479926750995 155.910749793984,205.3019003313966 171.97566131595522,199.52835488086566 173.14401851873845,163.1887472907547 163.21298230532557,154.35850146738812 149.4847851851955,162.16987398685887 148.02433868404478,196.13214692752808 160.5841786013916,207.0 172.55983991734684,199.52835488086566 174.02028641942888,164.20762027939782 165.84178600739688,154.35850146738812 155.61866049468517,155.03775199037045 148.31642798520625,163.1887472907547 147.7322493828833,194.4340416325722 157.6632855962962,206.66038013622165 172.2677506171167,201.56607796507888 173.14401851873845,164.20762027939782 164.38133950531483,154.69812674610876 154.45030329190195,155.71700237272307 150.06896378658712,160.81137575372122 148.31642798520625,197.49063053028658 161.16835720092058,206.66038013622165 173.43610781803727,197.15100968256593 173.72819711826742,165.56611710460857 162.9208930041641,154.69812674610876 150.06896378658712,164.20762027939782 150.06896378658712,197.15100968256593 159.4158213986084,204.62266021757387 171.97566131595522,196.81138879968785 171.97566131595522,162.50949845672585 164.38133950531483,154.69812674610876 157.95537489745766,155.3773771985434 148.90060658473521,164.54724453948438 148.90060658473521,198.84911357215606 162.9208930041641,206.32076023775153 173.43610781803727,197.83025134401396 173.43610781803727,163.8679959848523 163.79716090485454,154.69812674610876 150.06896378658712,162.16987398685887 148.31642798520625,196.47176788072102 157.37119629699737,206.32076023775153 171.97566131595522,200.54721658141352 173.43610781803727,170.32085156347603 165.2576074078679,155.71700237272307 158.53955349791795,155.3773771985434 150.36105308681726,162.16987398685887 149.77687448635697,197.15100968256593 159.4158213986084,205.3019003313966 170.80730411410332,200.20759604941122 171.97566131595522,164.20762027939782 162.62880370393395,155.03775199037045 149.77687448635697,164.20762027939782 148.60851728357375,195.1132838553749 159.12373209930956,205.6415203360375 171.09939341433346,199.52835488086566 174.60446501988918,166.24536530626938 165.2576074078679,153.33962542004883 155.3265711935237,154.01887615397573 148.31642798520625,161.1510003642179 145.39553498011082,192.73593545728363" stroke="#4dd2ff" stroke-linecap="round" stroke-linejoin="round" stroke-width="0.5"><title>2022-04-26 8.3km</title></polyline><polyline fill="none" points="31.646067473106086,260.08541704388335 43.53980191703886,264.6951406856533 52.31851067580283,258.4390855531674 53.73443144373596,225.84154651756398 42.69024945795536,213.65854210895486 28.24785763118416,221.23176655475982 26.265568558126688,256.1342200336512 35.04427731502801,266.01220335485414 44.672538531944156,265.6829377382528 53.16806313581765,258.4390855531674 53.16806313581765,222.87811730941758 39.57522376906127,213.0 27.681489325128496,219.91468533780426 26.265568558126688,253.5000859652646 31.646067473106086,263.37807746976614 38.44248715694994,266.01220335485414 47.504380066879094,264.3658749323804 53.16806313581765,255.47568672103807 53.73443144373596,223.86592735210434 40.42477623000741,213.3292710718233 27.681489325128496,222.21957710990682 27.115121018141508,257.12201974657364 36.4601980810985,266.34146893699653 46.37164345290512,265.0244064037688 53.16806313581765,256.7927532088943 53.45124728884548,224.19519729795866 45.23890683799982,214.31708408123814 27.681489325128496,220.57322601531632 25.98238440323621,251.85375106544234 39.0088554630056,265.0244064037688 51.18577406182885,259.75615081447177 53.45124728884548,221.56103677349165 46.08845929894596,213.98781311232597 36.4601980810985,214.31708408123814 29.946962552145123,217.28052126825787 26.54875271115452,227.15862527955323 30.23014670610428,262.3902796995826 42.12388115096837,266.6707344856113 51.18577406182885,261.73174768243916 54.01761559676379,224.19519729795866 43.25661776587367,213.0 33.62835654709488,214.97562591684982 26.831936864182353,223.20738735748455 26.831936864182353,257.12201974657364 39.0088554630056,266.6707344856113 52.60169482883066,259.09761825134046 53.73443144373596,224.5244672105182 45.23890683799982,213.65854210895486 28.81422593817115,218.9268740674015 26.265568558126688,255.80495339399204 32.495619933120906,265.0244064037688 39.57522376906127,267.0 52.884878982789814,257.45128624886274 53.45124728884548,222.5488472271245 41.27432869002223,213.0 31.92925162706524,216.62197990971617 26.831936864182353,225.51227674237452 27.115121018141508,258.4390855531674 40.14159207697958,266.6707344856113 52.31851067580283,259.42688454990275 53.45124728884548,222.87811730941758 44.10617022588849,213.3292710718233 31.07969916705042,216.29270917968825 27.96467347908765,221.89030695869587 26.265568558126688,252.84155210736208 29.66377839911729,254.158619687194" stroke="#4dd2ff" stroke-linecap="round" stroke-linejoin="round" stroke-width="0.5"><title>2022-04-19 4.1km</title></polyline><polyline fill="none" points="96.05944816954434,256.8546158373356 94.08917225431651,261.76367675629444 99.99999999906868,264.70910964813083 110.97725152689964,258.81824111938477 113.51046341750771,224.4546225471422 110.4143155515194,217.90912903146818 100.84440396353602,213.3272755057551 87.05247255787253,222.1637013584841 86.48953658156097,258.49097032425925 90.14862042479217,264.70910964813083 101.40733993891627,267.0 113.22899542935193,256.2000738044735 113.22899542935193,222.1637013584841 99.99999999906868,213.3272755057551 87.05247255787253,224.12734819343314 87.61540853325278,259.14551188168116 102.53321189060807,266.0181900530588 113.22899542935193,258.49097032425925 112.66605945397168,220.8546027909033 100.56293597538024,213.0 90.43008841201663,221.18187748407945 88.17834450863302,254.8909893343225 100.84440396353602,264.3818394620903 110.97725152689964,255.8728027381003 110.97725152689964,225.10917115327902 102.25174390338361,215.9454783333931 95.4965121941641,216.92730383435264 89.02274847216904,225.10917115327902 89.30421646032482,256.52734483755194 99.71853201184422,264.3818394620903 110.4143155515194,256.2000738044735 111.2587195141241,226.41826795879751 103.65908384136856,215.9454783333931 88.74128048401326,224.12734819343314 89.5856844484806,258.1636994939763 97.74825609661639,263.7272989896592 107.88110366091132,261.43640626594424 111.54018750134856,251.94554729247466 108.44403963536024,220.20005330373533 96.05944816954434,215.61820309888572 90.9930243883282,220.20005330373533 88.17834450863302,239.83647895255126 91.27449237555265,259.80005330312997 99.99999999906868,264.05456924275495 106.75523170828819,261.76367675629444 111.82165549043566,253.90917562507093 110.4143155515194,222.81825043912977 95.77798018138856,216.92730383435264 88.17834450863302,231.6546497582458 89.02274847216904,256.8546158373356 92.11889633815736,262.4182176361792 105.06642378028482,262.7454880250152 110.97725152689964,255.21826050244272 109.56991158705205,220.52732806373388 101.12587195076048,215.61820309888572 91.83742835186422,219.21822881908156 87.89687652140856,241.14556965837255 92.68183231540024,261.76367675629444 107.31816768459976,260.7818651825655 111.54018750134856,250.9637326686643 109.0069756116718,220.8546027909033 97.46678810939193,216.27275353483856 88.4598124967888,225.43644540500827 89.02274847216904,255.8728027381003 92.68183231540024,261.76367675629444 102.53321189060807,263.7272989896592 110.97725152689964,253.90917562507093 109.28844359889627,220.52732806373388 100.84440396353602,216.27275353483856 91.27449237555265,220.52732806373388 90.9930243883282,242.4546598214656" stroke="#4dd2ff" stroke-linecap="round" stroke-linejoin="round" stroke-width="0.5"><title>2022-04-13 4.1km</title></polyline></svg>