<?xml version="1.0" encoding="utf-8" ?>
<svg baseProfile="full" height="300mm" version="1.1" viewBox="0,0,200,300" width="200mm" xmlns="http://www.w3.org/2000/svg" xmlns:ev="http://www.w3.org/2001/xml-events" xmlns:xlink="http://www.w3.org/1999/xlink"><defs /><rect fill="#222222" height="300" width="200" x="0" y="0" /><text fill="#FFFFFF" style="font-size:12px; font-family:Arial; font-weight:bold;" x="10" y="20">Over 1km Runs</text><text fill="#FFFFFF" style="font-size:4px; font-family:Arial" x="10" y="280">ATHLETE</text><text fill="#FFFFFF" style="font-size:9px; font-family:Arial" x="10" y="290">InzamZ</text><text fill="#FFFFFF" style="font-size:4px; font-family:Arial" x="120" y="280">STATISTICS</text><text fill="#FFFFFF" style="font-size:3px; font-family:Arial" x="120" y="285">Number: 4</text><text fill="#FFFFFF" style="font-size:3px; font-family:Arial" x="120" y="290">Weekly: 1.0</text><text fill="#FFFFFF" style="font-size:3px; font-family:Arial" x="141" y="285">Total: 18.5 km</text><text fill="#FFFFFF" style="font-size:3px; font-family:Arial" x="141" y="290">Avg: 4.6 km</text><text fill="#FFFFFF" style="font-size:3px; font-family:Arial" x="167" y="285">Min: 1.9 km</text><text fill="#FFFFFF" style="font-size:3px; font-family:Arial" x="167" y="290">Max: 8.3 km</text><polyline fill="none" points="69.71149177104235,44.56218525348231 67.11534616351128,40.53731365362182 63.65381868928671,37.01554826647043 58.46152747608721,34.5 53.70192719809711,35.00310975685716 42.01927196606994,38.52487660199404 35.0962170176208,46.071511244867 33.79814421385527,50.59948640270159 34.66352608241141,71.72998135304078 33.79814421385527,77.76724874554202 33.79814421385527,97.89141921140254 35.528907952830195,102.92244880599901 41.58658103458583,110.46898342948407 46.346181312575936,113.48759399633855 52.83654532954097,114.99689857801422 58.02883654087782,114.4937971024774 67.54803709872067,110.46898342948407 71.44225550815463,106.44416642189026 74.47109204903245,101.41314047388732 76.20185578800738,62.17095930501819 75.33647391758859,51.605702531524 72.74032831005752,46.57461980357766 65.38458242639899,39.02798594255 55.0,36.00932911597192 44.61541757360101,39.53109523188323 37.259671688079834,47.58083676500246 35.528907952830195,53.11502633523196 35.528907952830195,68.2082385760732 33.79814421385527,94.87279895506799 35.0962170176208,100.40693466039374 37.259671688079834,105.94106406113133 45.48079944215715,112.4813906820491 51.10578159056604,113.9906955761835 62.78843682073057,113.48759399633855 70.57687363773584,106.94726873096079 74.03840111382306,97.38831596681848 74.03840111382306,51.102594492491335 71.87494644150138,45.5684026312083 68.41341896727681,41.543531864881516 63.65381868928671,38.52487660199404 58.02883654087782,37.01554826647043 47.64425411634147,38.52487660199404 43.31734477169812,40.53731365362182 39.855817295610905,44.05907648522407 36.826980754733086,49.09016181901097 35.528907952830195,55.127457342110574 35.961598886176944,64.18338656239212 35.0962170176208,69.71755722211674 35.0962170176208,80.28277461230755 34.23083514906466,84.81071788910776 34.66352608241141,95.37590246181935 35.528907952830195,99.9038316742517 40.2885082308203,109.96588148549199 50.2403997220099,114.99689857801422 55.0,115.5 59.7596002779901,114.99689857801422 68.41341896727681,110.97208532085642 71.44225550815463,106.44416642189026 73.60571018047631,101.41314047388732 74.90378298424184,95.87900591548532 74.47109204903245,90.34486505528912 74.47109204903245,73.74240465043113 76.20185578800738,57.642994929570705 73.60571018047631,47.58083676500246 71.00956457294524,42.5497498693876 67.11534616351128,39.02798594255 58.46152747608721,34.5 52.83654532954097,37.01554826647043 48.07694504968822,37.51865776395425 43.31734477169812,40.034204468131065 39.423126362264156,44.56218525348231 37.259671688079834,49.09016181901097 35.961598886176944,53.61813416471705 34.66352608241141,90.84796902956441 35.961598886176944,101.91624330356717 38.12505355849862,106.44416642189026 41.58658103458583,110.97208532085642 45.91349037736654,113.48759399633855 50.2403997220099,114.4937971024774 61.05767308175564,113.48759399633855 65.38458242639899,110.97208532085642 72.30763737671077,102.92244880599901 73.17301924526691,97.89141921140254 74.03840111382306,60.66163831530139 72.30763737671077,55.63056496437639 71.00956457294524,49.593270066194236 67.54803709872067,45.5684026312083 59.7596002779901,41.04042278509587 54.56730906479061,40.53731365362182 45.91349037736654,43.55596766574308 42.01927196606994,47.07772831059992 38.99043542705476,50.59948640270159 38.55774449184537,72.23308725468814" stroke="#4dd2ff" stroke-linecap="round" stroke-linejoin="round" stroke-width="0.5"><title>2022-11-08 1.9km</title></polyline><polyline fill="none" points="133.6085172854364,107.3491169475019 146.75253580324352,113.97171045653522 162.9634919743985,101.74537701578811 165.15416172891855,52.83973942697048 161.21095617301762,43.16044102516025 146.31440185196698,36.537752201315016 129.66531172953546,50.292557483538985 129.22717777825892,101.23594579519704 144.5618660505861,113.97171045653522 162.9634919743985,104.29253232106566 163.83975987695158,49.78312093578279 147.19066975452006,37.55662798555568 128.78904382884502,53.85861183516681 129.66531172953546,102.2548081818968 147.19066975452006,113.46228050393984 163.40162592567503,101.23594579519704 164.27789382636547,51.82086680922657 149.819473458454,37.04719011904672 134.0466512348503,42.1415664027445 129.22717777825892,51.311430419329554 129.66531172953546,104.29253232106566 149.38133950717747,112.95285049686208 164.27789382636547,98.17935737222433 163.83975987695158,50.292557483538985 147.62880370393395,37.55662798555568 128.78904382884502,52.83973942697048 128.78904382884502,102.2548081818968 145.87626790255308,112.4434204371646 162.9634919743985,101.74537701578811 163.83975987695158,48.25481098052114 149.38133950717747,35.51887620612979 128.35090987756848,49.27368433680385 127.47464197874069,97.16049414267763 144.5618660505861,113.97171045653522 162.52535802684724,104.29253232106566 164.716027777642,50.292557483538985 151.133875310421,36.537752201315016 139.74239259399474,37.04719011904672 129.22717777825892,49.27368433680385 127.47464197874069,100.72651452384889 143.24746419861913,113.97171045653522 158.5821524709463,110.4056996749714 165.15416172891855,101.23594579519704 165.59229567833245,52.83973942697048 148.50507160648704,36.02831423096359 127.91277592629194,49.78312093578279 127.47464197874069,98.68878890806809 132.29411543346941,108.87740854779258 146.31440185196698,113.97171045653522 165.59229567833245,98.17935737222433 164.716027777642,48.76424768520519 148.50507160648704,36.537752201315016 128.35090987756848,49.78312093578279 127.0365080256015,100.72651452384889 132.73224938474596,110.91512994421646 152.01014321111143,113.97171045653522 166.030429629609,95.63219890138134 161.64909012243152,39.59437891980633 146.75253580324352,34.5 128.35090987756848,44.179315438028425 123.96957037225366,93.59447117615491 136.67545493878424,114.99057020433247 162.52535802684724,110.4056996749714 166.46856358088553,52.3303031437099 137.98985679075122,70.16054166899994 131.41784753277898,103.78310136590153 149.819473458454,112.95285049686208 165.15416172891855,99.19822039129212 165.15416172891855,50.292557483538985 152.44827716238797,38.57550355885178 142.3711962979287,38.06606579758227 129.66531172953546,48.76424768520519 127.0365080256015,95.63219890138134 138.8661246933043,112.95285049686208 162.9634919743985,104.29253232106566 164.716027777642,49.78312093578279 149.819473458454,36.537752201315016 129.22717777825892,48.25481098052114 127.0365080256015,99.19822039129212 145.87626790255308,115.5 163.83975987695158,104.29253232106566 166.030429629609,51.311430419329554 153.7626790124923,36.537752201315016 138.42799074202776,37.55662798555568 127.47464197874069,49.78312093578279 126.59837407432497,96.65106244850904 141.4949283953756,114.99057020433247 163.40162592567503,107.3491169475019 164.716027777642,51.311430419329554 151.57200925797224,37.04719011904672 136.67545493878424,38.57550355885178 130.103445680812,46.21706363046542 127.47464197874069,101.23594579519704 146.75253580324352,114.99057020433247 165.15416172891855,100.72651452384889 165.59229567833245,53.34917565668002 149.38133950717747,37.04719011904672 130.103445680812,51.311430419329554 130.103445680812,100.72651452384889 144.12373209930956,111.93399032624438 162.9634919743985,100.21708319941536 162.9634919743985,48.76424768520519 151.57200925797224,37.04719011904672 141.93306234665215,38.06606579758227 128.35090987756848,51.82086680922657 128.35090987756848,103.27367035811767 149.38133950717747,114.48114035651088 165.15416172891855,101.74537701578811 165.15416172891855,50.80199397727847 150.69574135914445,37.04719011904672 130.103445680812,48.25481098052114 127.47464197874069,99.70765182096511 141.0567944459617,114.48114035651088 162.9634919743985,105.8208248722367 165.15416172891855,60.48127734521404 152.88641111180186,38.57550355885178 142.80933024920523,38.06606579758227 130.5415796302259,48.25481098052114 129.66531172953546,100.72651452384889 144.12373209930956,112.95285049686208 161.21095617301762,105.31139407400042 162.9634919743985,51.311430419329554 148.94320555590093,37.55662798555568 129.66531172953546,51.311430419329554 127.91277592629194,97.66992578282952 143.68559814989567,113.46228050393984 161.64909012243152,104.29253232106566 166.90669753029943,54.368047959171236 152.88641111180186,35.00943813007325 137.98985679075122,36.02831423096359 127.47464197874069,46.72650054609403 123.09330246970057,94.10390318604186" stroke="#4dd2ff" stroke-linecap="round" stroke-linejoin="round" stroke-width="0.5"><title>2022-04-26 8.3km</title></polyline><polyline fill="none" points="42.46910120919347,255.12812556605786 60.309702875092626,262.04271102836356 73.47776601277292,252.65862832963467 75.60164716467261,203.76231977622956 59.03537418693304,185.48781316308305 37.37178644537926,196.84764983225614 34.39835283719003,249.2013300503604 47.566415971145034,264.0183050320484 62.00880779698491,263.5244066072628 74.75209470279515,252.65862832963467 74.75209470279515,199.31717596389353 54.36283565312624,184.5 36.52223398722708,194.8720280067064 34.39835283719003,245.2501289481297 42.46910120919347,260.0671162046492 52.663730734959245,264.0183050320484 66.25657009892166,261.548812398687 74.75209470279515,248.21353008132428 75.60164716467261,200.79889102838933 55.637164345011115,184.9939066078514 36.52223398722708,198.32936566509306 35.67268152721226,250.68302961997688 49.690297121182084,264.51220340514556 64.55746517889202,262.53660960588604 74.75209470279515,250.18912981357425 75.17687093280256,201.29279594682157 62.85836025699973,186.4756261217408 36.52223398722708,195.8598390230909 33.97357660531998,242.78062659827992 53.51328319311142,262.53660960588604 71.77866109274328,254.63422622159123 75.17687093280256,197.34155516000465 64.13268894702196,185.98171966848895 49.690297121182084,186.4756261217408 39.92044382728636,190.92078190250322 34.8231290653348,205.73793791932985 40.34522005915642,258.5854195491411 58.185821725055575,265.006101728417 71.77866109274328,257.59762152377516 76.02642339468002,201.29279594682157 59.88492664694786,184.5 45.44253481924534,187.46343887550756 35.24790529534221,199.811081035994 35.24790529534221,250.68302961997688 53.51328319311142,265.006101728417 73.90254224278033,253.64642737666145 75.60164716467261,201.7867008158937 62.85836025699973,185.48781316308305 38.22133890725672,193.39031110145152 34.39835283719003,248.70743009075522 43.7434298992157,262.53660960588604 54.36283565312624,265.5 74.32731847465038,251.17692937329412 75.17687093280256,198.82327084057033 56.911493035033345,184.5 42.89387744106352,189.93296986445785 35.24790529534221,203.26841511344537 35.67268152721226,252.65862832963467 55.212388115003705,265.006101728417 73.47776601277292,254.14032682450488 75.17687093280256,199.31717596389353 61.159255338832736,184.9939066078514 41.61954874917865,189.43906376929954 36.94701021723449,197.8354604379274 34.39835283719003,244.2623281609267 39.49566759727895,246.23792953090742" stroke="#4dd2ff" stroke-linecap="round" stroke-linejoin="round" stroke-width="0.5"><title>2022-04-19 4.1km</title></polyline><polyline fill="none" points="139.08917225524783,250.28192375600338 136.13375838287175,257.6455151345581 145.0,262.06366447219625 161.46587729081511,253.22736167907715 165.26569512858987,201.6819338207133 160.62147332914174,191.86369354696944 146.26660594530404,184.99091325839981 125.57870883867145,198.24555203784257 124.73430487327278,252.73645548615605 130.22293063811958,262.06366447219625 147.1110099107027,265.5 164.8434931449592,249.30011070659384 164.8434931449592,198.24555203784257 145.0,184.99091325839981 125.57870883867145,201.19102228991687 126.42311280034482,253.71826782263815 148.79981783777475,264.02728507947177 164.8434931449592,252.73645548615605 163.99908918328583,196.28190418612212 145.84440396539867,184.5 130.6451326198876,196.77281622588634 127.26751676388085,247.33648400148377 146.26660594530404,261.57275919336826 161.46587729081511,248.80920410715044 161.46587729081511,202.6637567295693 148.37761585600674,188.91821750020608 138.2447682917118,190.39095575129613 128.53412270918489,202.6637567295693 128.95632469281554,249.7910172562115 144.577798018232,261.57275919336826 160.62147332914174,249.30011070659384 161.88807927258313,204.62740193819627 150.48862576298416,188.91821750020608 128.11192072741687,201.19102228991687 129.3785266727209,252.24554924108088 141.6223841458559,260.59094848437235 156.82165549136698,257.15460939891636 162.31028125435114,242.91832093847916 157.666059454903,195.30007995525375 139.08917225524783,188.42730464832857 131.48953658342361,195.30007995525375 127.26751676388085,224.7547184289433 131.91173856519163,254.70007995469496 145.0,261.0818538637832 155.1328475624323,257.6455151345581 162.73248323611915,245.8637634376064 160.62147332914174,199.22737565869465 138.66697027347982,190.39095575129613 127.26751676388085,212.48197463713586 128.53412270918489,250.28192375600338 133.17834450863302,258.6273264545016 152.59963567182422,259.1182320374064 161.46587729081511,247.82739075366408 159.35486738197505,195.7909920956008 146.68880792707205,188.42730464832857 132.75614252872765,193.82734322873875 126.84531478397548,226.71835448779166 134.0227484740317,257.6455151345581 155.97725152783096,256.1727977739647 162.31028125435114,241.44559900276363 158.51046341843903,196.28190418612212 141.20018216595054,189.40913030225784 127.68971874564886,203.15466810716316 128.53412270918489,248.80920410715044 134.0227484740317,257.6455151345581 148.79981783777475,260.59094848437235 161.46587729081511,245.8637634376064 158.93266540020704,195.7909920956008 146.26660594530404,189.40913030225784 131.91173856519163,195.7909920956008 131.48953658342361,228.68198973219842" stroke="#4dd2ff" stroke-linecap="round" stroke-linejoin="round" stroke-width="0.5"><title>2022-04-13 4.1km</title></polyline></svg>