<?xml version="1.0" encoding="utf-8" ?>
<svg baseProfile="full" height="300mm" version="1.1" viewBox="0,0,200,300" width="200mm" xmlns="http://www.w3.org/2000/svg" xmlns:ev="http://www.w3.org/2001/xml-events" xmlns:xlink="http://www.w3.org/1999/xlink"><defs /><rect fill="#222222" height="300" width="200" x="0" y="0" /><text fill="#FFFFFF" style="font-size:12px; font-family:Arial; font-weight:bold;" x="10" y="20">Over 1km Runs</text><text fill="#FFFFFF" style="font-size:4px; font-family:Arial" x="10" y="280">ATHLETE</text><text fill="#FFFFFF" style="font-size:9px; font-family:Arial" x="10" y="290">InzamZ</text><text fill="#FFFFFF" style="font-size:4px; font-family:Arial" x="120" y="280">STATISTICS</text><text fill="#FFFFFF" style="font-size:3px; font-family:Arial" x="120" y="285">Number: 12</text><text fill="#FFFFFF" style="font-size:3px; font-family:Arial" x="120" y="290">Weekly: 1.7</text><text fill="#FFFFFF" style="font-size:3px; font-family:Arial" x="141" y="285">Total: 51.3 km</text><text fill="#FFFFFF" style="font-size:3px; font-family:Arial" x="141" y="290">Avg: 4.3 km</text><text fill="#FFFFFF" style="font-size:3px; font-family:Arial" x="167" y="285">Min: 1.9 km</text><text fill="#FFFFFF" style="font-size:3px; font-family:Arial" x="167" y="290">Max: 8.3 km</text><polyline fill="none" points="54.008378429338336,41.51093786209822 52.24155592452735,38.869615053758025 49.465120560489595,35.641328278696164 46.68868519645184,33.58696205238812 43.407443401403725,33.0 40.12620160821825,33.293481040978804 37.34976624324918,34.17392398323864 34.825734093785286,35.93480904609896 32.80650837440044,37.989173570880666 31.54449229873717,40.630497199017555 30.787282655015588,43.56529834493995 30.030073010362685,65.57621007133275 30.282476224005222,68.80446275207214 31.039685868658125,71.4457576633431 32.554105158895254,74.38052690192126 36.84495981223881,78.48919873009436 39.62139517720789,79.66310387314297 42.902636972256005,80.25005626236089 45.93147555086762,79.95658008242026 48.96031413041055,78.78267506184056 51.484346279874444,76.72834010515362 53.25116878468543,74.67400365835056 54.260781643912196,72.03271175432019 53.755975214764476,60.00012860051356 53.755975214764476,48.8479327482637 52.99876557011157,43.27181836729869 52.24155592452735,40.923977449769154 50.72713663522154,38.576134589267895 48.45550770033151,36.52177049056627 45.67907233629376,35.34784747986123 43.155040186829865,35.05436665122397 39.62139517720789,35.34784747986123 37.097363027743995,37.10873181372881 35.07813730929047,42.09789815125987 33.56371801905334,44.44573809532449 32.554105158895254,47.38053529034369 32.80650837440044,50.315329445758834 32.04929872881621,56.4783872817643 31.54449229873717,68.80446275207214 32.554105158895254,71.73923472384922 33.8161212336272,74.67400365835056 38.35937910247594,78.19572236901149 43.91224983148277,78.78267506184056 46.68868519645184,78.48919873009436 49.21271734498441,77.0218166182749 51.484346279874444,74.96748038521037 52.99876557011157,72.03271175432019 53.755975214764476,69.39141738926992 53.50357199925929,46.20661677699536 53.25116878468543,43.27181836729869 51.989152709022164,40.630497199017555 50.47473341971636,38.28265409520827 48.20310448575765,36.52177049056627 45.67907233629376,35.641328278696164 42.902636972256005,35.05436665122397 40.12620160821825,35.34784747986123 37.34976624324918,36.81525116763078 34.825734093785286,38.869615053758025 33.0589115889743,41.217457671882585 32.04929872881621,44.44573809532449 32.301701944321394,47.087055708281696 30.282476224005222,55.30447253747843 30.282476224005222,58.53273691656068 25.739218356087804,70.85880345199257 24.729605495929718,67.92403056728654 25.99162156973034,65.28273237287067 29.27286336477846,73.79357329732738 24.9820087114349,74.96748038521037 30.534879439510405,75.26095708087087 33.8161212336272,76.14138698601164 36.08775016758591,78.48919873009436 38.611782317981124,79.66310387314297 42.14542732667178,80.25005626236089 47.69829805474728,79.0761513626203 50.222330204211175,77.60876955394633 51.989152709022164,75.84791038162075 53.50357199925929,73.50009644916281 54.260781643912196,70.56532629998401 54.51318485941738,46.20661677699536 54.260781643912196,43.27181836729869 53.25116878468543,40.630497199017555 51.736749494448304,38.28265409520827 47.44589484017342,35.05436665122397 44.66945947520435,33.88044303259812 41.640620896592736,33.88044303259812 38.86418553162366,34.467404902912676 36.34015338309109,35.641328278696164 33.8161212336272,37.695693015353754 31.292089084163308,42.39137825137004 30.534879439510405,63.815343423280865 30.787282655015588,69.68489466211759 31.79689551331103,72.91314266296104 35.83534695301205,77.60876955394633 40.63100803736597,79.95658008242026 43.407443401403725,80.54353241086937 45.93147555086762,80.25005626236089 49.21271734498441,79.0761513626203 51.23194306436926,77.0218166182749 52.99876557011157,74.96748038521037 54.260781643912196,72.03271175432019 54.51318485941738,65.57621007133275 54.260781643912196,54.424036158947274 54.76558807305992,48.55445331684314 54.260781643912196,42.97833835869096 52.99876557011157,40.33701691776514 51.23194306436926,37.989173570880666 46.68868519645184,34.76088579185307 43.91224983148277,34.17392398323864 38.35937910247594,35.05436665122397 35.58294373843819,36.52177049056627 33.8161212336272,38.28265409520827 31.79689551331103,40.923977449769154 31.039685868658125,44.15225820848718 30.534879439510405,49.434891518903896 30.534879439510405,58.826215313980356 30.030073010362685,64.4022990942467 30.282476224005222,70.56532629998401 31.54449229873717,73.50009644916281 35.33054052386433,77.90224597649649 40.63100803736597,80.25005626236089 43.65984661690891,80.54353241086937 49.21271734498441,78.78267506184056 51.484346279874444,77.0218166182749 53.25116878468543,74.38052690192126 54.260781643912196,71.4457576633431 54.51318485941738,65.57621007133275 54.260781643912196,50.60880869417451 54.76558807305992,45.03269777819514 54.008378429338336,41.51093786209822 52.49395913910121,39.16309548704885 50.47473341971636,36.81525116763078 45.17426590714604,34.17392398323864 42.39783054124564,33.88044303259812 39.36899196263403,34.467404902912676 36.34015338309109,35.93480904609896 33.8161212336272,37.695693015353754 32.04929872881621,40.33701691776514 31.292089084163308,43.27181836729869 30.030073010362685,66.75012056319974 30.282476224005222,69.39141738926992 31.039685868658125,72.32618875405751 32.80650837440044,74.96748038521037 37.34976624324918,79.0761513626203 39.87379839178175,80.25005626236089 42.65023375675082,80.54353241086937 45.67907233629376,80.25005626236089 48.70791091583669,79.0761513626203 51.23194306436926,77.31529310136102 52.99876557011157,74.96748038521037 54.008378429338336,71.73923472384922 54.76558807305992,62.6414317174349 54.76558807305992,44.44573809532449 53.755975214764476,41.51093786209822 52.24155592452735,38.869615053758025 49.969926989637315,36.81525116763078 47.44589484017342,35.34784747986123 41.893024111166596,33.88044303259812 38.86418553162366,34.467404902912676 34.06852444820106,37.695693015353754 32.301701944321394,40.04353660531342 31.039685868658125,42.68485831958242 30.534879439510405,45.61965733813122 30.030073010362685,57.945780030218884 30.030073010362685,70.2718491172418 32.554105158895254,75.55443374579772 37.60216945875436,79.66310387314297 40.883411252871156,80.8370085300412 43.91224983148277,80.8370085300412 46.68868519645184,80.25005626236089 49.21271734498441,79.0761513626203 51.484346279874444,77.31529310136102 53.25116878468543,74.96748038521037 54.008378429338336,72.03271175432019 54.76558807305992,66.16316537791863 54.76558807305992,53.837078421609476 54.260781643912196,50.60880869417451 54.51318485941738,44.15225820848718 53.50357199925929,41.217457671882585 51.989152709022164,38.576134589267895 49.717523775063455,36.81525116763078 47.19349162559956,35.34784747986123 44.41705626156181,34.76088579185307 41.13581446651369,34.76088579185307 38.10697588790208,35.34784747986123 35.33054052386433,36.52177049056627 33.31131480354816,38.576134589267895 31.54449229873717,41.217457671882585 30.787282655015588,43.858778291614726 30.282476224005222,56.18490864173509 30.030073010362685,64.69577688421123 30.534879439510405,70.56532629998401 31.292089084163308,73.50009644916281 35.07813730929047,78.19572236901149 37.34976624324918,79.66310387314297 40.37860482186079,80.8370085300412 43.65984661690891,80.8370085300412 46.43628198094666,80.54353241086937 49.465120560489595,79.0761513626203 51.989152709022164,77.0218166182749 53.50357199925929,73.79357329732738 54.51318485941738,67.92403056728654 54.76558807305992,61.76099761831574 54.76558807305992,44.15225820848718 54.008378429338336,41.217457671882585 52.49395913910121,38.576134589267895 47.95070127118379,34.76088579185307 44.92186269070953,33.88044303259812 39.36899196263403,34.17392398323864 36.59255659766495,35.641328278696164 34.06852444820106,37.695693015353754 32.301701944321394,40.33701691776514 31.039685868658125,42.97833835869096 30.787282655015588,45.91313707246445 31.039685868658125,55.30447253747843 30.787282655015588,60.88056324608624 30.030073010362685,64.10882127424702 30.534879439510405,70.2718491172418 33.0589115889743,76.14138698601164 37.60216945875436,79.66310387314297 40.37860482186079,81.1304846177809 43.65984661690891,81.1304846177809 49.21271734498441,79.36962763266638 51.484346279874444,77.31529310136102 52.99876557011157,74.96748038521037 54.008378429338336,72.03271175432019 54.76558807305992,66.16316537791863 55.0179912885651,45.32617757329717 54.51318485941738,42.39137825137004 53.25116878468543,39.75005626305938 51.736749494448304,37.40221243002452 46.18387876544148,33.88044303259812 43.407443401403725,33.58696205238812 40.12620160821825,33.58696205238812 34.825734093785286,36.22828978369944 32.80650837440044,38.576134589267895 31.292089084163308,41.51093786209822 30.534879439510405,44.73921795212664 31.039685868658125,50.60880869417451 30.534879439510405,62.6414317174349 29.777669794857502,65.57621007133275 30.030073010362685,68.51098538725637 30.787282655015588,71.73923472384922 32.301701944321394,74.67400365835056 34.06852444820106,77.0218166182749 36.59255659766495,79.0761513626203 39.36899196263403,80.54353241086937 42.14542732667178,81.1304846177809 47.69829805474728,80.54353241086937 50.47473341971636,78.48919873009436 52.49395913910121,76.14138698601164 53.755975214764476,73.20661957142875 54.51318485941738,70.56532629998401 54.76558807305992,61.467519524740055 54.76558807305992,46.500096450559795 54.260781643912196,43.27181836729869 52.99876557011157,40.630497199017555 50.979539850726724,38.28265409520827 48.45550770033151,36.52177049056627 45.67907233629376,35.34784747986123 43.155040186829865,34.76088579185307 40.37860482186079,35.05436665122397 35.07813730929047,37.695693015353754 32.80650837440044,39.45657589077018 31.79689551331103,42.39137825137004 31.039685868658125,45.32617757329717 30.534879439510405,63.52186554251239 30.787282655015588,68.80446275207214 31.292089084163308,71.73923472384922 32.04929872881621,74.38052690192126 34.06852444820106,77.0218166182749 36.08775016758591,78.78267506184056 38.86418553162366,80.54353241086937 44.92186269070953,81.1304846177809 47.95070127118379,80.25005626236089 50.222330204211175,78.78267506184056 52.24155592452735,76.72834010515362 53.50357199925929,73.79357329732738 54.51318485941738,70.56532629998401 55.0179912885651,55.30447253747843 55.0179912885651,45.91313707246445 54.51318485941738,42.97833835869096 50.979539850726724,38.28265409520827 45.4266691217199,35.05436665122397 42.39783054124564,34.76088579185307 39.87379839178175,35.05436665122397 37.097363027743995,36.22828978369944 34.825734093785286,37.989173570880666 32.80650837440044,39.75005626305938 31.54449229873717,42.68485831958242 30.282476224005222,66.16316537791863 30.787282655015588,72.03271175432019 32.301701944321394,74.96748038521037 34.32092766370624,77.60876955394633 36.84495981223881,79.66310387314297 39.87379839178175,80.8370085300412 42.902636972256005,81.1304846177809 45.93147555086762,81.1304846177809 48.70791091583669,79.95658008242026 50.979539850726724,78.48919873009436 52.99876557011157,75.84791038162075 54.260781643912196,72.91314266296104 55.0179912885651,48.8479327482637 54.260781643912196,42.97833835869096 52.74636235367507,40.04353660531342 50.72713663522154,37.695693015353754 48.20310448575765,35.93480904609896 45.4266691217199,34.76088579185307 42.39783054124564,34.467404902912676 39.36899196263403,34.76088579185307 36.84495981223881,35.93480904609896 34.57333087734878,37.695693015353754 32.554105158895254,40.04353660531342 31.54449229873717,42.39137825137004 30.787282655015588,48.55445331684314 30.787282655015588,57.945780030218884 30.282476224005222,67.33707562554628 30.282476224005222,70.56532629998401 32.80650837440044,75.84791038162075 34.57333087734878,77.60876955394633 37.097363027743995,79.95658008242026 40.12620160821825,81.1304846177809 43.155040186829865,81.4239606759511 46.18387876544148,81.1304846177809 48.70791091583669,79.95658008242026 51.484346279874444,77.60876955394633 52.99876557011157,75.26095708087087 54.260781643912196,69.68489466211759 55.0179912885651,57.945780030218884 55.0179912885651,45.32617757329717 54.260781643912196,42.39137825137004 52.74636235367507,39.45657589077018 47.95070127118379,35.641328278696164 45.17426590714604,34.76088579185307 39.62139517720789,35.05436665122397 36.34015338309109,36.22828978369944 34.32092766370624,38.28265409520827 31.292089084163308,42.97833835869096 30.282476224005222,67.04359810939059 31.039685868658125,72.61966572352685 32.301701944321394,75.26095708087087 33.8161212336272,77.60876955394633 35.83534695301205,79.36962763266638 38.86418553162366,80.8370085300412 41.388217682018876,81.4239606759511 44.66945947520435,81.71743670315482 47.69829805474728,80.8370085300412 51.989152709022164,77.60876955394633 53.25116878468543,75.26095708087087 54.51318485941738,72.32618875405751 55.0179912885651,69.39141738926992 55.0179912885651,66.45664298464544 54.51318485941738,63.52186554251239 55.0179912885651,60.88056324608624 55.270394505001605,45.61965733813122 48.96031413041055,38.869615053758025 46.18387876544148,37.40221243002452 43.155040186829865,36.81525116763078 40.12620160821825,36.81525116763078 37.34976624324918,38.576134589267895 35.07813730929047,40.33701691776514 32.80650837440044,48.8479327482637 32.80650837440044,63.52186554251239 28.515653720125556,74.67400365835056 28.010847290046513,77.90224597649649 29.020460149273276,80.25005626236089 32.80650837440044,84.652195306262 34.32092766370624,87.0" stroke="#4dd2ff" stroke-linecap="round" stroke-linejoin="round" stroke-width="0.5"><title>2023-03-21 6.8km</title></polyline><polyline fill="none" points="110.51224955357611,79.33788821520284 111.76744352839887,75.32439444120973 112.3950405176729,58.905508674215525 112.08124202303588,44.310879323165864 110.82604804635048,41.02707938873209 108.9432570822537,38.47301065758802 106.11907063424587,35.91894007497467 102.98108569346368,34.459470339119434 99.52930225990713,34.09460281138308 95.76372032985091,34.824337830301374 92.62573538906872,36.2838074141182 90.11534743569791,39.202744770096615 87.91875797882676,42.85141306417063 87.60495948418975,46.13521129777655 87.91875797882676,78.97302533406764 92.62573538906872,84.44596458994783 96.39131731912494,86.27027578582056 100.1568992473185,87.0 107.06046611815691,85.17568918084726 111.45364503376186,78.60816241474822 112.08124202303588,74.59466781048104 111.76744352839887,52.70279858680442 112.3950405176729,49.05414049257524 111.76744352839887,42.121679707663134 110.1984510589391,39.202744770096615 106.7466676235199,36.2838074141182 103.60868268273771,34.824337830301374 99.8431007526815,34.09460281138308 96.39131731912494,34.824337830301374 92.93953388370574,36.2838074141182 90.11534743569791,38.83787773200311 88.23255647160113,42.121679707663134 87.60495948418975,49.05414049257524 87.91875797882676,60.36496828519739 87.91875797882676,78.97302533406764 89.80154894292355,81.89192732865922 92.31193689629436,84.08110223687254 95.76372032985091,85.90541362157091 99.8431007526815,87.0 103.60868268273771,86.27027578582056 107.06046611815691,84.81082690437324 111.76744352839887,78.97302533406764 112.3950405176729,75.6892577004619 112.08124202303588,45.04061222774908 111.76744352839887,41.3919461988844 109.57085406966507,38.10814354498871 103.60868268273771,34.09460281138308 100.47069774195552,33.364867641357705 96.7051158118993,34.09460281138308 93.25333237834275,35.91894007497467 90.74294442497194,38.10814354498871 88.54635496623814,41.3919461988844 87.91875797882676,45.04061222774908 88.23255647160113,60.36496828519739 87.91875797882676,68.02712132316083 88.54635496623814,79.33788821520284 90.74294442497194,82.25678990758024 93.56713087111712,84.81082690437324 97.01891430839896,86.27027578582056 100.78449623659253,86.63513791142032 104.5500781647861,85.54055142053403 107.68806310556829,83.35137741826475 110.1984510589391,80.4324766327627 111.45364503376186,76.78384725167416 112.08124202303588,65.47307216166519 111.76744352839887,43.581146268872544 108.9432570822537,37.3784092052374 106.11907063424587,34.824337830301374 102.66728719882667,33.364867641357705 99.52930225990713,33.364867641357705 95.76372032985091,34.09460281138308 92.62573538906872,35.91894007497467 90.42914593033493,38.47301065758802 88.54635496623814,41.3919461988844 87.60495948418975,45.405478621833026 87.91875797882676,75.32439444120973 88.86015346087515,78.60816241474822 90.74294442497194,81.89192732865922 93.56713087111712,84.08110223687254 97.01891430839896,85.54055142053403 100.47069774195552,85.90541362157091 104.5500781647861,85.54055142053403 107.68806310556829,83.71623984701 109.88465256243944,80.79733936395496 111.76744352839887,77.14871036051773 112.3950405176729,73.86494102631696 111.76744352839887,54.527126216329634 112.70883901044726,46.50007757986896 112.08124202303588,42.85141306417063 108.62945858761668,36.2838074141182 105.49147364683449,34.09460281138308 102.03969021141529,33.364867641357705 98.27410828322172,33.364867641357705 94.82232484780252,34.09460281138308 91.68433990702033,36.2838074141182 87.91875797882676,42.48654640512541 87.60495948418975,64.37847909727134 87.60495948418975,68.39198533864692 89.48775044828653,74.9595311449375 88.54635496623814,78.60816241474822 90.74294442497194,81.52706471108831 93.56713087111712,84.08110223687254 97.33271279931068,85.17568918084726 101.72589171864092,85.17568918084726 105.17767515406013,84.44596458994783 108.31566009297967,81.89192732865922 110.51224955357611,79.33788821520284 111.76744352839887,76.05412092199549 112.08124202303588,43.21627968526445 110.82604804635048,39.93247873103246 108.62945858761668,36.64867471624166 105.8052721414715,34.824337830301374 102.03969021141529,33.0 94.19472786039114,34.09460281138308 91.37054141238332,35.91894007497467 89.48775044828653,38.83787773200311 88.23255647160113,42.48654640512541 87.60495948418975,46.50007757986896 88.23255647160113,49.78387241391465 87.91875797882676,75.6892577004619 89.17395195551217,79.33788821520284 91.37054141238332,82.25678990758024 94.19472786039114,84.44596458994783 97.96030979044735,85.54055142053403 101.0982947293669,85.54055142053403 104.86387665942311,84.44596458994783 110.1984510589391,79.70275105955079 111.76744352839887,76.41898410581052 111.76744352839887,43.581146268872544 110.82604804635048,40.29734565527178 108.9432570822537,36.64867471624166 106.11907063424587,34.459470339119434 102.66728719882667,33.0 94.82232484780252,34.459470339119434 91.9981383997947,36.2838074141182 89.48775044828653,39.202744770096615 88.23255647160113,42.48654640512541 88.23255647160113,46.50007757986896 87.60495948418975,73.13521409244277 88.23255647160113,76.78384725167416 89.80154894292355,80.4324766327627 91.9981383997947,82.98651495203376 94.82232484780252,85.17568918084726 97.96030979044735,86.27027578582056 101.72589171864092,85.90541362157091 105.49147364683449,84.44596458994783 108.9432570822537,82.25678990758024 111.13984654098749,78.60816241474822 112.08124202303588,75.32439444120973 111.45364503376186,42.121679707663134 109.88465256243944,38.47301065758802 107.68806310556829,35.91894007497467 104.23627967014909,34.09460281138308 100.78449623659253,33.364867641357705 97.01891430839896,33.364867641357705 93.88092936575413,34.824337830301374 90.74294442497194,37.3784092052374 89.17395195551217,39.93247873103246 87.91875797882676,47.229810029733926 87.91875797882676,76.78384725167416 91.9981383997947,82.6216524487827 95.13612334243953,84.44596458994783 98.58790677785873,85.54055142053403 105.17767515406013,84.44596458994783 110.1984510589391,79.33788821520284 111.76744352839887,76.41898410581052 112.08124202303588,44.310879323165864 111.13984654098749,41.02707938873209 109.25705557502806,38.10814354498871 106.7466676235199,35.91894007497467 103.29488418996334,34.459470339119434 99.8431007526815,33.72973524592817 96.39131731912494,34.09460281138308 92.62573538906872,35.91894007497467 88.54635496623814,41.75681297201663 87.91875797882676,45.7703449788969 87.91875797882676,68.02712132316083 87.29116098955274,75.32439444120973 88.54635496623814,79.33788821520284 90.74294442497194,81.89192732865922 93.25333237834275,84.08110223687254 96.7051158118993,85.54055142053403 100.47069774195552,86.27027578582056 103.92248117737472,85.17568918084726 107.06046611815691,83.71623984701 111.45364503376186,77.14871036051773 111.76744352839887,73.86494102631696 111.45364503376186,70.21630484540947 112.08124202303588,63.28388569247909 111.76744352839887,60.000103439670056 112.08124202303588,51.9730672694277 111.76744352839887,44.67574579408392 110.82604804635048,41.02707938873209 109.25705557502806,37.74327639513649 106.7466676235199,35.55407269834541 103.29488418996334,33.72973524592817 99.21550376527011,33.364867641357705 95.4499218352139,34.459470339119434 92.31193689629436,36.2838074141182 89.80154894292355,39.202744770096615 88.54635496623814,42.48654640512541 87.60495948418975,50.51360418391414 88.54635496623814,64.01361466641538 87.91875797882676,75.6892577004619 88.54635496623814,78.97302533406764 91.05674291960895,82.25678990758024 93.88092936575413,84.81082690437324 97.64651129581034,85.90541362157091 101.72589171864092,85.90541362157091 105.49147364683449,84.81082690437324 108.31566009297967,83.35137741826475 110.1984510589391,80.4324766327627 111.76744352839887,76.78384725167416 112.08124202303588,72.77035056916066 111.45364503376186,43.21627968526445 109.88465256243944,39.56761176860891 108.0018616002053,37.0135419794824 105.17767515406013,34.824337830301374 101.41209322400391,33.72973524592817 93.56713087111712,35.55407269834541 90.74294442497194,37.74327639513649 88.86015346087515,40.29734565527178 87.60495948418975,48.32440842059441 88.23255647160113,59.63523855549283 87.60495948418975,66.5676648861263 88.54635496623814,73.13521409244277" stroke="#4dd2ff" stroke-linecap="round" stroke-linejoin="round" stroke-width="0.5"><title>2023-03-20 4.4km</title></polyline><polyline fill="none" points="173.4874631226994,47.49883054627571 172.97850225074217,44.24400384258479 172.97850225074217,39.80559184309095 172.85126203252003,38.32611811312381 172.4695413778536,37.14253802585881 171.57885985076427,35.66306153824553 169.28853592462838,33.73973981407471 167.761653306894,33.14794799336232 166.36201090738177,33.14794799336232 164.70788807142526,33.59179188206326 163.43548589013517,34.33153138961643 162.03584349062294,35.21921829297207 161.27240218175575,36.25485231692437 160.6362010911107,37.586380673688836 160.12724021822214,41.72890540235676 159.87275978224352,50.30981127812993 160.12724021822214,53.268732390133664 160.76344130840153,54.896136390045285 161.78136305417866,55.78381051798351 162.92652501678094,56.81942963635083 166.10753047140315,57.55915711901616 167.50717287091538,57.41121165326331 169.03405548864976,56.96737516357098 170.30645766947418,56.22764737496618 171.4516196330078,55.19202782725915 172.34230116009712,53.86051587713882 172.85126203252003,52.529002686729655 173.10574246849865,46.61115127138328 173.2329826867208,39.361749885138124 172.85126203252003,37.88227569509763 170.30645766947418,34.479479245026596 167.761653306894,33.14794799336232 166.23477068869397,33.0 164.83512828918174,33.443843934335746 162.4175641448237,34.77537491032854 161.39964239951223,35.811009255819954 160.38172065466642,38.62201298167929 160.6362010911107,47.35088403860573 160.12724021822214,48.830348424147815 159.74551956355572,51.49338045832701 160.0,52.972840554779395 160.5089608724229,54.15640752913896 162.67204458080232,56.22764737496618 163.81720654433593,56.96737516357098 166.6164913433604,57.263266172027215 169.28853592462838,56.3755929635372 170.56093810591847,55.63586486806162 172.21506094187498,53.268732390133664 172.4695413778536,51.93721864791587 172.4695413778536,49.126241117483005 173.10574246849865,43.35632254567463 173.2329826867208,38.91790778876748 172.97850225074217,37.586380673688836 172.21506094187498,36.10690464545041 169.92473701527342,34.0356356324628 168.65233483351767,33.29589597170707 165.8530500344932,33.29589597170707 164.45340763544664,33.59179188206326 162.92652501678094,34.479479245026596 162.03584349062294,35.36716605653055 161.14516196306795,36.69869524065871 160.76344130840153,38.178170655621216 160.6362010911107,39.657644539372995 160.38172065466642,51.34543436416425 160.5089608724229,52.67694865795784 161.01792174577713,54.008461710764095 162.79928479949012,56.3755929635372 164.19892719900236,57.115320675307885 166.99821199756116,57.70710256928578 168.27061417978257,57.55915711901616 169.6702565792948,56.81942963635083 170.6881783241406,55.78381051798351 171.70610006898642,54.60024489159696 172.34230116009712,53.268732390133664 172.85126203252003,51.93721864791587 173.10574246849865,46.31525805720594 172.72402181429788,37.586380673688836 172.08782072365284,36.25485231692437 171.06989897834137,35.21921829297207 169.03405548864976,33.443843934335746 167.63441308867186,33.0 166.23477068869397,33.0 163.6899663261138,34.183583518490195 162.54480436304584,35.071270514279604 160.89068152708933,37.29048559057992 160.6362010911107,38.769960392965004 160.6362010911107,40.10148640535772 159.74551956355572,51.34543436416425 159.87275978224352,52.82489461370278 160.38172065466642,54.304353331797756 161.27240218175575,55.33997352269944 162.54480436304584,56.22764737496618 163.81720654433593,56.81942963635083 165.21684894384816,57.263266172027215 166.6164913433604,57.115320675307885 169.28853592462838,56.52353853650857 170.56093810591847,55.63586486806162 171.4516196330078,54.7481906482717 172.21506094187498,53.564624164486304 172.72402181429788,52.23311069793999 173.10574246849865,49.42213374993298 173.2329826867208,44.98373783531133 172.97850225074217,39.21380253485404 172.72402181429788,37.734328192076646 171.19713919702917,35.36716605653055 169.92473701527342,34.479479245026596 168.7795750517398,33.73973981407471 167.37993265222758,33.29589597170707 165.98029025271535,33.29589597170707 164.45340763544664,33.73973981407471 163.18100545415655,34.479479245026596 162.03584349062294,35.36716605653055 161.27240218175575,36.69869524065871 160.38172065466642,39.21380253485404 160.12724021822214,42.02479956636671 160.38172065466642,53.268732390133664 159.61827934579924,54.304353331797756 159.36379890935495,55.63586486806162 161.01792174577713,58.15093882882502 163.81720654433593,61.405733854160644 164.32616741675884,62.73723877291195 164.58064785320312,64.21668722771574 163.43548589013517,66.87969058612362 162.54480436304584,67.91530166275334 162.54480436304584,69.39474475604948 163.18100545415655,72.20568241376895 164.07168698031455,73.53717726899777 168.65233483351767,76.93988070671912 167.37993265222758,79.75080352148507 165.21684894384816,78.27137115015648 149.69354233099148,85.0767473753076 148.93010102165863,85.22468997701071 146.5125368773006,87.0 150.71146407583728,82.5617208071053 150.07526298519224,85.96440275455825 147.53045862261206,86.70411514956504 151.8566260393709,83.4493777481839 150.58422385761514,84.63291947951075 149.1845814581029,83.74526327312924" stroke="#4dd2ff" stroke-linecap="round" stroke-linejoin="round" stroke-width="0.5"><title>2023-03-17 2.8km</title></polyline><polyline fill="none" points="33.147866637445986,147.0 32.38651848677546,144.63936564908363 29.08734316378832,140.2131709724199 28.325995012186468,137.55745086609386 29.08734316378832,134.90172828477807 31.878953052684665,135.49188907281496 37.969738262705505,139.03285123058595 41.77647901978344,139.9180910831783 45.07565434277058,139.9180910831783 48.121046947315335,139.03285123058595 51.16643955279142,136.96729050646536 52.942918572574854,134.6066478455905 54.97318030986935,128.40995155787095 54.21183215919882,119.26242288760841 54.465614875778556,104.50828251661733 53.95804944075644,101.85252913786098 52.68913585599512,98.90168914711103 50.658874119631946,96.54101495537907 45.58321977686137,93.0 36.95460739452392,95.06559259234928 34.67056294064969,96.54101495537907 33.147866637445986,98.90168914711103 30.863822183571756,100.96727746119723 28.579777728766203,106.8689501087647 30.61003946699202,113.36077590566128 30.61003946699202,116.60668325796723 30.102474031969905,119.26242288760841 30.102474031969905,125.16405764874071 31.117604901082814,131.65584176965058 32.13273576833308,134.31156737566926 33.65543207153678,136.37713002460077 38.4773036967963,139.9180910831783 41.268913585692644,140.80333065916784 47.10591607913375,139.9180910831783 49.64374325051904,138.1476111037191 51.92778770439327,136.37713002460077 54.71939759235829,131.06568018789403 54.97318030986935,128.11487044626847 55.22696302738041,105.39353309292346 53.704266724176705,99.49185738991946 51.92778770439327,97.13118368620053 46.852133362554014,93.59016946470365 43.29917532298714,93.29508474795148 40.507565435022116,93.59016946470365 37.71595554519445,94.18033880740404 33.147866637445986,98.31152078299783 31.878953052684665,103.91811531293206 32.13273576833308,112.47552780434489 31.625170335173607,127.2296269275248 32.13273576833308,132.83616456622258 33.90921478904784,135.1968086939305 38.984869131818414,138.44269117643125 41.52269630227238,139.32793121156283 47.359698795713484,138.44269117643125 49.897525968030095,136.96729050646536 52.43535313848406,134.90172828477807 53.45048400759697,131.65584176965058 53.95804944075644,123.09848687285557 53.95804944075644,104.50828251661733 53.19670128915459,101.5574452758301 51.67400498688221,98.90168914711103 49.64374325051904,96.24593054340221 47.10591607913375,95.06559259234928 43.80674075614661,94.77050802786835 40.507565435022116,95.06559259234928 37.969738262705505,95.65576162841171 35.68569380789995,97.42626800644211 33.401649354957044,99.78694146475755 32.13273576833308,102.73778053885326 31.878953052684665,112.18044504267164 32.89408391993493,114.836188796442 32.89408391993493,130.1804375865031 33.90921478904784,133.13124518981203 35.68569380789995,135.78696942026727 38.4773036967963,137.55745086609386 41.268913585692644,138.44269117643125 44.314306191168725,138.1476111037191 47.359698795713484,136.96729050646536 49.64374325051904,135.1968086939305 51.42022226937115,133.13124518981203 52.43535313848406,130.1804375865031 52.68913585599512,105.68861655681394 52.43535313848406,102.73778053885326 51.16643955279142,100.08202551002614 48.882395098917186,97.72135229525156 43.04539260454476,95.95084610162303 39.99999999906868,96.83609933592379 37.208390111103654,98.0164365535602 34.92434565722942,100.37710952479392 31.878953052684665,105.39353309292346 29.341125880368054,106.57386676734313 29.08734316378832,112.77061053481884 30.863822183571756,115.42635373910889 31.371387616731226,118.08209446887486 30.102474031969905,121.91816004225984 25.02681969013065,132.83616456622258 24.2654715385288,135.49188907281496 30.102474031969905,135.1968086939305 32.89408391993493,136.08204973791726 34.92434565722942,137.85253099980764 37.208390111103654,139.32793121156283 40.507565435022116,140.50825083092786 43.04539260454476,140.50825083092786 46.34456792846322,139.9180910831783 49.136177816428244,139.03285123058595 51.16643955279142,137.26237070118077 53.45048400759697,134.6066478455905 54.97318030986935,128.40995155787095 55.22696302738041,113.36077590566128 54.71939759235829,103.62303166487254 53.95804944075644,100.67219350859523 52.43535313848406,98.31152078299783 50.405091401189566,96.54101495537907 48.121046947315335,94.77050802786835 45.07565434277058,93.59016946470365 42.030261737294495,93.59016946470365 36.19325924385339,95.65576162841171 33.90921478904784,97.72135229525156 31.878953052684665,100.08202551002614 29.594908598810434,105.98369999113493 29.08734316378832,111.59027942735702 31.117604901082814,117.19684783415869 30.356256749480963,129.000113688875 31.625170335173607,134.6066478455905 33.65543207153678,136.96729050646536 36.19325924385339,139.03285123058595 41.77647901978344,141.09841045737267 44.82187162525952,140.80333065916784 47.61348151322454,139.9180910831783 49.897525968030095,138.44269117643125 51.92778770439327,136.6722102803178 53.704266724176705,134.0164868752472 54.71939759235829,131.3607609940227 55.48074574396014,107.16403341991827 55.22696302738041,103.91811531293206 54.465614875778556,101.26236138353124 51.42022226937115,96.54101495537907 48.882395098917186,95.06559259234928 46.34456792846322,93.8852541516535 40.76134815160185,93.59016946470365 37.969738262705505,94.47542343311943 33.401649354957044,98.31152078299783 31.625170335173607,100.37710952479392 29.341125880368054,105.39353309292346 29.341125880368054,111.00011369003914 29.84869131539017,113.65585854439996 31.371387616731226,116.01651856000535 31.625170335173607,121.62307825847529 31.117604901082814,130.1804375865031 31.625170335173607,132.83616456622258 32.89408391993493,135.49188907281496 34.92434565722942,137.26237070118077 39.99999999906868,140.2131709724199 42.79160988796502,140.50825083092786 45.58321977686137,140.2131709724199 48.37482966482639,139.03285123058595 50.658874119631946,137.55745086609386 52.43535313848406,135.49188907281496 54.71939759235829,129.88535665767267 55.22696302738041,106.27878339402378 55.22696302738041,103.3279479870107 53.95804944075644,100.37710952479392 50.405091401189566,95.95084610162303 47.86726423166692,93.8852541516535 44.82187162525952,93.29508474795148 41.52269630227238,93.29508474795148 35.93947652634233,95.65576162841171 33.65543207153678,97.72135229525156 32.13273576833308,100.67219350859523 31.371387616731226,103.62303166487254 30.863822183571756,106.27878339402378 31.878953052684665,108.93453264818527 31.878953052684665,112.18044504267164 30.863822183571756,114.54110627947375 30.863822183571756,132.54108391329646 34.41678022313863,137.26237070118077 36.70082467701286,139.03285123058595 39.492434564977884,140.2131709724199 42.53782717138529,140.50825083092786 45.58321977686137,140.2131709724199 48.37482966482639,139.32793121156283 50.91265683621168,137.55745086609386 52.942918572574854,135.1968086939305 54.21183215919882,132.54108391329646 54.97318030986935,129.59027569857426 55.48074574396014,110.70503077609465 55.22696302738041,104.50828251661733 54.71939759235829,101.5574452758301 53.45048400759697,98.90168914711103 51.42022226937115,96.54101495537907 49.136177816428244,94.77050802786835 46.598350645042956,93.8852541516535 43.80674075614661,93.29508474795148 37.969738262705505,94.47542343311943 35.43191109225154,96.24593054340221 33.401649354957044,98.0164365535602 31.878953052684665,100.67219350859523 31.117604901082814,103.91811531293206 30.863822183571756,112.47552780434489 30.61003946699202,129.88535665767267 31.371387616731226,132.83616456622258 34.41678022313863,137.26237070118077 36.19325924385339,139.32793121156283 42.28404445294291,140.80333065916784 48.62861238140613,139.32793121156283 53.19670128915459,135.1968086939305 54.21183215919882,132.54108391329646 54.97318030986935,129.29519470897503 55.22696302738041,121.03291459870525 55.48074574396014,105.39353309292346 55.22696302738041,102.14761296939105 53.95804944075644,99.78694146475755 51.92778770439327,97.13118368620053 49.64374325051904,95.3606771256309 46.852133362554014,93.8852541516535 44.06052347365767,93.59016946470365 40.76134815160185,93.8852541516535 37.969738262705505,94.77050802786835 34.92434565722942,96.54101495537907 32.89408391993493,99.19677328318357 31.625170335173607,102.44269676948898 30.863822183571756,108.3443663616199 31.117604901082814,122.80340521060862 30.61003946699202,128.70503263827413 30.863822183571756,131.65584176965058 32.13273576833308,134.6066478455905 33.65543207153678,136.6722102803178 35.93947652634233,138.73777121910825 41.52269630227238,140.50825083092786 44.314306191168725,140.2131709724199 47.10591607913375,139.62301116273738 51.67400498688221,136.37713002460077 53.19670128915459,134.0164868752472 54.71939759235829,128.40995155787095 55.22696302738041,122.80340521060862 54.97318030986935,103.03286427794956 53.95804944075644,100.08202551002614 52.43535313848406,97.42626800644211 50.405091401189566,95.65576162841171 48.121046947315335,94.18033880740404 42.53782717138529,93.0 36.70082467701286,94.77050802786835 34.41678022313863,96.83609933592379 32.38651848677546,99.49185738991946 31.625170335173607,102.14761296939105 31.117604901082814,107.7541999516543 31.371387616731226,116.31160092470236 30.863822183571756,128.40995155787095 31.117604901082814,131.65584176965058 32.38651848677546,134.6066478455905 34.41678022313863,136.96729050646536 36.95460739452392,138.73777121910825 39.746217283420265,140.2131709724199 42.79160988796502,140.80333065916784 45.83700249250978,140.50825083092786 48.62861238140613,139.32793121156283 50.91265683621168,137.85253099980764 54.21183215919882,132.83616456622258 55.22696302738041,129.88535665767267 55.7345284614712,105.98369999113493 55.22696302738041,102.73778053885326 54.21183215919882,100.08202551002614 52.68913585599512,97.42626800644211 50.405091401189566,95.3606771256309 45.32943705935031,93.0 39.492434564977884,93.8852541516535 36.95460739452392,95.06559259234928 34.67056294064969,96.54101495537907 32.89408391993493,98.90168914711103 31.625170335173607,101.5574452758301 30.863822183571756,110.70503077609465 31.371387616731226,126.04930180916563 30.863822183571756,129.000113688875 31.371387616731226,131.9509225145448 32.64030120335519,134.6066478455905 34.162997506558895,136.96729050646536 36.70082467701286,138.73777121910825 42.030261737294495,140.80333065916784 45.07565434277058,140.80333065916784 50.15130868460983,138.1476111037191 52.68913585599512,136.08204973791726 53.45048400759697,133.13124518981203 54.97318030986935,130.47551848413423 55.22696302738041,127.5247081303969 55.48074574396014,110.40994783164933 55.22696302738041,104.50828251661733 54.71939759235829,101.5574452758301 53.45048400759697,98.90168914711103 51.42022226937115,96.83609933592379 49.136177816428244,94.77050802786835 43.552958039566875,93.59016946470365 40.507565435022116,93.8852541516535 37.969738262705505,94.47542343311943 33.147866637445986,98.0164365535602 31.878953052684665,100.37710952479392 31.371387616731226,103.3279479870107 31.117604901082814,121.03291459870525 31.625170335173607,132.54108391329646 33.147866637445986,135.1968086939305 35.17812837474048,137.55745086609386 37.71595554519445,139.32793121156283 42.79160988796502,140.80333065916784 48.62861238140613,139.32793121156283 52.942918572574854,135.1968086939305 54.465614875778556,132.54108391329646 55.22696302738041,129.88535665767267 55.48074574396014,105.09844959760085 54.97318030986935,102.14761296939105 53.95804944075644,99.49185738991946 50.405091401189566,95.65576162841171 44.82187162525952,93.29508474795148 38.984869131818414,93.59016946470365 36.19325924385339,94.77050802786835 34.162997506558895,96.54101495537907 32.64030120335519,98.90168914711103 31.371387616731226,101.5574452758301 30.863822183571756,104.50828251661733 30.863822183571756,126.04930180916563 31.117604901082814,131.9509225145448 31.878953052684665,134.6066478455905 33.90921478904784,136.96729050646536 36.19325924385339,139.03285123058595 38.984869131818414,140.2131709724199 44.82187162525952,141.09841045737267 47.86726423166692,140.2131709724199 50.405091401189566,138.73777121910825 54.21183215919882,134.31156737566926 54.97318030986935,131.65584176965058 55.22696302738041,128.70503263827413 55.22696302738041,104.80336607270874 54.97318030986935,102.14761296939105 53.704266724176705,99.19677328318357 52.181570421904325,96.83609933592379 49.897525968030095,95.06559259234928 47.10591607913375,93.8852541516535 44.06052347365767,93.29508474795148 41.015130868181586,93.59016946470365 38.22352098021656,94.47542343311943 35.43191109225154,95.95084610162303 33.401649354957044,97.72135229525156 31.878953052684665,100.08202551002614 31.117604901082814,103.03286427794956 30.863822183571756,108.93453264818527" stroke="#4dd2ff" stroke-linecap="round" stroke-linejoin="round" stroke-width="0.5"><title>2023-03-13 6.5km</title></polyline><polyline fill="none" points="90.12140666786581,147.0 87.81212511099875,144.61328104464337 87.55553827062249,144.91162102180533 85.7594303926453,141.6298795712646 85.50284355320036,138.64647500775754 89.09505930915475,138.0497937244363 93.97020926512778,141.33153925440274 99.61511974036694,143.71826092735864 105.51661705505103,142.22656011255458 110.64835384953767,138.94481560355052 112.95763540826738,132.97799782804213 113.47080908808857,126.41448400425725 112.70104856882244,123.13272148510441 112.70104856882244,104.6354446541518 109.6220064908266,98.96690056333318 107.82589861284941,96.8784867725335 105.26003021467477,95.38676170888357 102.18098813761026,94.79007146693766 98.58877238072455,94.49172629928216 92.43068822659552,97.47517658188008 90.89116718806326,100.45862377458252 90.12140666786581,103.74041211837903 90.12140666786581,110.30397759284824 89.86481982842088,113.28741150256246 88.58188563026488,115.67415640526451 88.83847246877849,118.95592741924338 88.06871195044369,125.51945823361166 88.06871195044369,128.20453471131623 87.81212511099875,131.4862914539408 88.32529878988862,134.17136237118393 90.63458034861833,140.4365181166213 93.45703558530658,142.22656011255458 99.35853289999068,144.31494103581645 102.95074865687639,144.01660099695437 105.51661705505103,143.1215806941036 108.59565913211554,141.03319890564308 110.9049406889826,138.64647500775754 112.18787488806993,135.66306735621765 113.72739592660218,128.80121803306974 112.95763540826738,125.22111624875106 113.72739592660218,103.44206787832081 112.70104856882244,100.45862377458252 110.9049406889826,98.07186626689509 108.33907229267061,95.9834518271964 105.51661705505103,94.79007146693766 99.61511974036694,94.19338110135868 93.97020926512778,95.9834518271964 91.40434086788446,98.3702110638842 91.66092770732939,101.05531284236349 90.63458034861833,103.44206787832081 90.12140666786581,106.72385282348841 90.63458034861833,109.70729044033214 89.86481982842088,112.69072496704757 89.60823298804462,115.97249937872402 88.32529878988862,121.64101001387462 87.55553827062249,127.60785126592964 87.55553827062249,133.57468016189523 88.58188563026488,136.55808997596614 92.43068822659552,140.4365181166213 94.73996978346258,141.92821985716 97.30583818256855,142.82324053090997 103.20733549725264,142.82324053090997 106.0297907339409,141.92821985716 110.64835384953767,138.3481343819294 113.72739592660218,133.27633901010267 113.98398276697844,121.64101001387462 113.72739592660218,115.67415640526451 113.98398276697844,106.42550889239646 113.47080908808857,103.44206787832081 112.18787488806993,101.05531284236349 107.82589861284941,96.58014182094485 105.26003021467477,95.08841660292819 99.10194605961442,94.19338110135868 96.53607766330242,94.79007146693766 93.71362242568284,95.9834518271964 91.40434086788446,97.77352143987082 89.60823298804462,100.16027919342741 88.06871195044369,106.72385282348841 88.83847246877849,109.70729044033214 88.83847246877849,115.67415640526451 89.351646149531,118.35924205835909 87.81212511099875,123.72940585762262 86.78577775135636,130.2929257976357 90.12140666786581,138.64647500775754 92.17410138715059,141.33153925440274 94.22679610457271,143.1215806941036 97.56242502108216,144.01660099695437 100.89805393852293,144.01660099695437 106.54296441283077,143.1215806941036 108.59565913211554,141.03319890564308 111.16152752935886,139.83983720396645 113.72739592660218,134.76804445777088 114.2405696073547,131.4862914539408 113.72739592660218,128.20453471131623 114.2405696073547,124.92277423106134 114.49715644586831,119.25427005300298 113.98398276697844,116.5691852341406 114.2405696073547,113.58575472328812 113.47080908808857,104.33710050676018 110.39176701009274,98.3702110638842 102.69416181743145,93.59669061284512 96.53607766330242,94.49172629928216 93.97020926512778,95.38676170888357 90.12140666786581,99.56358994101174 88.58188563026488,104.93378877127543 87.81212511099875,117.4642137857154 88.06871195044369,120.745982759865 86.78577775135636,123.72940585762262 88.06871195044369,126.11614211113192 88.32529878988862,128.80121803306974 87.55553827062249,131.78463279036805 88.06871195044369,135.0663854549639 89.60823298804462,137.1547715680208 92.17410138715059,139.24315616767853 97.56242502108216,141.92821985716 102.95074865687639,142.82324053090997 108.33907229267061,140.4365181166213 110.64835384953767,138.3481343819294 113.47080908808857,132.97799782804213 114.49715644586831,121.64101001387462 114.2405696073547,118.65758475405164 113.47080908808857,115.97249937872402 113.72739592660218,104.33710050676018 112.70104856882244,101.65200178697705 110.64835384953767,99.56358994101174 106.28637757338583,95.68510678317398 103.46392233576626,94.79007146693766 94.99655662383884,96.58014182094485 92.43068822659552,98.66855582897551 89.351646149531,104.93378877127543 88.58188563026488,118.35924205835909 88.83847246877849,124.62443218450062 89.60823298804462,127.90619300422259 88.32529878988862,130.88960868725553 88.83847246877849,134.76804445777088 90.12140666786581,137.4531123181805 94.48338294401765,141.6298795712646 97.30583818256855,142.82324053090997 100.38488025870174,142.82324053090997 106.54296441283077,141.03319890564308 111.16152752935886,136.25974913313985 112.95763540826738,133.27633901010267 113.72739592660218,120.745982759865 113.47080908808857,104.93378877127543 110.9049406889826,98.96690056333318 108.85224597156048,97.17683169222437 103.46392233576626,93.59669061284512 100.64146709814668,93.0 94.48338294401765,94.19338110135868 90.89116718806326,99.26524526835419 88.32529878988862,105.82882093661465 88.06871195044369,111.49735152744688 86.78577775135636,114.48078420106322 87.81212511099875,117.76255657384172 86.78577775135636,127.60785126592964 87.04236459173262,130.2929257976357 86.78577775135636,133.27633901010267" stroke="#4dd2ff" stroke-linecap="round" stroke-linejoin="round" stroke-width="0.5"><title>2023-03-12 2.9km</title></polyline><polyline fill="none" points="151.17598177865148,140.16004638839513 155.51058722101152,141.24003995815292 159.84519266150892,140.88004213850945 163.56056875549257,139.0800524824299 166.3471008259803,136.92006366536953 168.51440354809165,133.6800779227633 169.75286224484444,130.08009022520855 170.06247691996396,122.88010364444926 169.44324757158756,119.64010481815785 169.13363289646804,102.00005824305117 167.8951741978526,98.76003996049985 165.7278714776039,95.88002117210999 162.63172473199666,94.08000822016038 159.22596331313252,93.0 155.51058722101152,93.0 152.4144404772669,94.44001088500954 149.00867905654013,96.96002849750221 146.84137633629143,99.4800442836713 145.602917637676,102.72006189613603 144.0548442658037,129.72009124956094 144.0548442658037,137.28006189432926 145.91253231279552,140.52004428207874 148.07983503490686,143.04002849571407 152.1048258021474,145.20001351134852 156.43943124450743,145.92000821838155 163.56056875549257,143.04002849571407 166.03748615272343,140.88004213850945 167.8951741978526,138.0000582416542 169.13363289646804,134.40007501537912 168.82401822134852,102.72006189613603 167.58555952459574,98.40003774198703 164.799027454108,95.52001865650527 162.01249538362026,93.36000277777202 158.29711929149926,93.0 153.6528991740197,93.0 150.24713775515556,95.16001610364765 147.46060568466783,98.04003548622131 145.29330296441913,101.64005636097863 144.67407361604273,105.24007350741886 144.9836882892996,122.88010364444926 146.22214698791504,127.20009738067165 145.602917637676,131.52008575107902 145.602917637676,135.84006875287741 146.5317616611719,139.44005048833787 149.00867905654013,142.68003086326644 152.72405515052378,144.48001865507104 156.43943124450743,145.20001351134852 160.4644220136106,144.8400161024183 163.8701834306121,143.40002609184012 166.65671550109982,140.52004428207874 169.44324757158756,136.20006709452718 168.82401822134852,121.44010453834198 169.44324757158756,101.64005636097863 168.51440354809165,98.40003774198703 166.03748615272343,95.52001865650527 162.32211006060243,93.72000551712699 158.91634863987565,93.0 155.51058722101152,93.0 151.79521112702787,94.8000135126058 148.69906438328326,96.60002609342337 146.5317616611719,99.4800442836713 146.22214698791504,103.08006366714835 160.15480733662844,100.92005248530768 173.4682383388281,97.68003319459967 176.87399975769222,97.68003319459967 173.77785301208496,98.76003996049985 170.68170626834035,100.56005049054511 167.58555952459574,100.20004845852964 162.32211006060243,95.16001610364765 159.22596331313252,93.72000551712699 155.82020189613104,93.72000551712699 149.62790840677917,95.88002117210999 147.15099101141095,98.04003548622131 144.0548442658037,104.8800719610881 144.67407361604273,108.48008575313725 144.67407361604273,112.44009661790915 145.602917637676,115.68010215414688 146.22214698791504,137.28006189432926 147.77022035978734,140.52004428207874 150.24713775515556,142.68003086326644 156.43943124450743,145.56001088418998 159.5355779901147,144.8400161024183 164.799027454108,140.88004213850945 167.27594484947622,134.76007350580767 167.58555952459574,123.96010258095339 167.27594484947622,120.72010476258583 167.8951741978526,117.12010364397429 168.82401822134852,106.32007792545483 167.8951741978526,102.72006189613603 163.2509540822357,97.68003319459967 159.22596331313252,96.24002365232445 154.89135787263513,95.88002117210999 151.17598177865148,96.96002849750221 148.07983503490686,99.12004214106128 145.602917637676,102.36006008880213 144.67407361604273,106.6800793223083 144.9836882892996,114.60010064416565 144.0548442658037,117.84010416641831 143.74522959254682,132.9600806820672 144.9836882892996,140.16004638839513 147.15099101141095,143.04002849571407 149.93752308003604,145.20001351134852 153.9625138491392,146.2800055157859 158.29711929149926,146.64000277640298 162.32211006060243,145.20001351134852 165.10864212922752,143.04002849571407 167.27594484947622,140.16004638839513 168.82401822134852,136.92006366536953 169.44324757158756,132.9600806820672 168.82401822134852,128.6400941007305 169.13363289646804,109.56008916348219 167.8951741978526,101.28005444188602 165.7278714776039,97.68003319459967 162.94133940711617,95.52001865650527 156.1298165693879,93.36000277777202 149.00867905654013,94.8000135126058 145.91253231279552,97.32003086409532 144.0548442658037,100.92005248530768 143.12600024230778,104.5200703763403 143.12600024230778,116.40010297298431 143.74522959254682,127.56009661825374 143.4356149174273,135.84006875287741 147.15099101141095,142.68003086326644 149.93752308003604,145.56001088418998 153.6528991740197,147.0 161.08365136012435,145.20001351134852 164.48941277898848,143.04002849571407 168.51440354809165,137.28006189432926 168.82401822134852,126.48009879840538" stroke="#4dd2ff" stroke-linecap="round" stroke-linejoin="round" stroke-width="0.5"><title>2023-03-10 2.4km</title></polyline><polyline fill="none" points="54.70211617555469,162.26633935119025 49.48080388922244,156.19529257435352 43.16026796307415,153.31952940602787 36.56492612697184,153.9585881193634 32.992449298501015,155.87576346611604 30.79400202073157,157.7929376210086 28.5955547420308,160.66869662050158 26.397107462398708,166.73973459750414 27.221525192260742,169.93501294590533 25.297883823513985,187.5089847203344 26.67191337235272,195.1775955853518 27.49633110128343,197.7337949727662 28.870360650122166,200.60951675125398 31.068807929754257,202.846187394578 33.81686702836305,204.44380828924477 36.83973203599453,205.72190440888517 43.16026796307415,205.72190440888517 46.18313297070563,204.44380828924477 49.205997980199754,202.20713880471885 52.503668896853924,196.77522045047954 53.60289253760129,183.35514587839134 53.60289253760129,166.10067853075452 53.05328071769327,162.58586779842153 51.12963934894651,159.7101105854381 48.10677434038371,157.7929376210086 46.18313297070563,154.91717594210058 38.76337340660393,154.27811742690392 32.992449298501015,156.51482165022753 30.79400202073157,158.43199540791102 28.5955547420308,161.9468108713627 27.771137012168765,165.46162233268842 27.221525192260742,174.4083970747888 27.221525192260742,184.31372456881218 27.771137012168765,195.1775955853518 28.5955547420308,198.37284448812716 32.442837479524314,203.16571163921617 37.9389556767419,205.72190440888517 41.23662659432739,206.36095227161422 45.083909331820905,205.72190440888517 50.30522161908448,202.52666311571375 53.32808662671596,197.41427016467787 53.87769844662398,194.21902026887983 53.60289253760129,187.82851055334322 54.15250435657799,170.25454059848562 53.32808662671596,163.86398125533015 52.503668896853924,160.98822523327544 50.30522161908448,158.11246653157286 45.358715240843594,155.23670514975674 41.51143250335008,153.63905877945945 34.36647884733975,155.23670514975674 29.6947783799842,159.7101105854381 28.870360650122166,162.58586779842153 27.49633110128343,165.7811504479032 25.847495642490685,181.43798760371283 26.397107462398708,184.63325073290616 25.847495642490685,193.89949509804137 28.045942921191454,199.65094312280416 29.969584290869534,202.52666311571375 32.442837479524314,204.44380828924477 35.465702487155795,205.72190440888517 38.4885674957186,206.36095227161422 42.0610443232581,206.0414283568971 48.65638615936041,203.4852358510252 52.77847480773926,198.05331974686123 53.87769844662398,194.8580705130007 54.42731026746333,188.14803635375574 53.87769844662398,181.75751406583004 54.42731026746333,168.65690200263634 54.15250435657799,165.46162233268842 53.32808662671596,162.58586779842153 51.67925116792321,159.7101105854381 49.48080388922244,157.15387970232405 46.45793888159096,155.55623432481661 43.70987978205085,154.59764670068398 37.38934385497123,154.91717594210058 34.36647884733975,156.19529257435352 31.89322565961629,157.7929376210086 28.045942921191454,163.86398125533015 27.221525192260742,170.25454059848562 27.49633110128343,173.4498153065797 26.67191337235272,177.28414059057832 26.397107462398708,184.63325073290616 26.397107462398708,191.66281797131523 27.221525192260742,194.53854540758766 29.6947783799842,200.28999224188738 35.190896577201784,205.08285641483963 38.4885674957186,206.0414283568971 45.083909331820905,205.08285641483963 48.10677434038371,203.4852358510252 50.85483343806118,201.56809008284472 52.77847480773926,199.01189387170598 54.42731026746333,192.94091938459314 54.70211617555469,169.93501294590533 54.42731026746333,164.18350953632034 53.60289253760129,160.98822523327544 51.4044452579692,158.75152425142005 48.65638615936041,156.51482165022753 42.33585023321211,154.27811742690392 35.74050839710981,155.55623432481661 33.26725520938635,157.15387970232405 30.79400202073157,159.7101105854381 28.870360650122166,162.26633935119025 27.49633110128343,168.97642978816293 27.221525192260742,175.04745142091997 26.397107462398708,178.5622479596641 26.397107462398708,185.9113550586626 25.572689732536674,189.10661355615593 25.847495642490685,192.6213940808084 27.221525192260742,199.3314185142517 28.5955547420308,201.88761445973068 30.79400202073157,204.12428417685442 33.81686702836305,205.72190440888517 36.83973203599453,206.36095227161422 40.412208864465356,207.0 43.70987978205085,206.36095227161422 46.73274479061365,205.08285641483963 51.12963934894651,200.28999224188738 53.05328071769327,197.41427016467787 53.60289253760129,194.53854540758766 53.05328071769327,191.3432925355155 53.87769844662398,174.7279242638033 53.60289253760129,171.21312335785478 54.42731026746333,168.01784633402713 52.503668896853924,161.30775381298736 50.58002752996981,158.11246653157286 47.8319684304297,155.87576346611604 44.534297512844205,154.27811742690392 41.23662659432739,153.31952940602787 35.190896577201784,154.59764670068398 29.6947783799842,159.39058184088208 28.320748831145465,161.9468108713627 27.221525192260742,165.7811504479032 27.221525192260742,176.64508670708165 26.397107462398708,188.14803635375574 28.320748831145465,198.37284448812716 29.41997247096151,201.56809008284472 31.34361383970827,203.8047600304708 34.64128475822508,205.72190440888517 38.21376158576459,206.36095227161422 41.23662659432739,206.36095227161422 44.534297512844205,205.72190440888517 47.557162520475686,204.12428417685442 50.30522161908448,201.88761445973068 53.60289253760129,196.45569554297253 54.42731026746333,192.6213940808084 53.87769844662398,178.24272116669454 54.15250435657799,165.14209418278188 51.4044452579692,159.07105306372978 49.205997980199754,156.8343506923411 43.70987978205085,154.27811742690392 36.83973203599453,154.91717594210058 33.81686702836305,156.8343506923411 29.41997247096151,160.98822523327544 27.771137012168765,164.18350953632034 26.397107462398708,170.893595804926 26.67191337235272,183.67467214120552 25.847495642490685,187.18945885449648 26.12230155337602,194.21902026887983 28.5955547420308,200.92904122848995 30.519196109846234,203.4852358510252 33.54206111840904,205.08285641483963 36.83973203599453,206.36095227161422 40.137402954511344,206.36095227161422 43.16026796307415,206.0414283568971 46.45793888159096,205.08285641483963 48.93119207024574,203.16571163921617 51.12963934894651,200.60951675125398 53.32808662671596,195.1775955853518 53.87769844662398,188.78708785469644 54.42731026746333,175.04745142091997 53.87769844662398,171.5326508784201 53.87769844662398,168.3373741847463 51.67925116792321,161.62728235917166 50.03041570819914,158.75152425142005 47.282356611453,155.87576346611604 43.98468569200486,154.59764670068398 40.96182068437338,154.27811742690392 34.91609066724777,155.55623432481661 31.89322565961629,157.7929376210086 28.045942921191454,162.58586779842153 27.221525192260742,165.46162233268842 25.572689732536674,189.4261392231565 27.221525192260742,199.970467699226 31.61841974966228,204.76333236834034 37.38934385497123,207.0 44.534297512844205,206.6804761523381 47.282356611453,205.08285641483963 49.755609799176455,202.846187394578 53.60289253760129,197.09474532376043 53.87769844662398,193.5799698936753 52.77847480773926,190.70424156286754 53.87769844662398,187.18945885449648 53.60289253760129,183.99419837188907 54.70211617555469,173.76934259594418 53.87769844662398,164.18350953632034 50.30522161908448,157.7929376210086 47.557162520475686,155.55623432481661 41.78623841423541,153.0 38.76337340660393,153.0 35.465702487155795,154.59764670068398 32.992449298501015,156.51482165022753 28.870360650122166,161.30775381298736 27.221525192260742,164.8225660000462 26.94671928230673,168.01784633402713 26.397107462398708,175.04745142091997 26.67191337235272,178.5622479596641 26.12230155337602,188.78708785469644 25.572689732536674,192.30186874372885 26.94671928230673,198.05331974686123 28.5955547420308,200.92904122848995 31.068807929754257,203.4852358510252 34.09167293738574,204.76333236834034" stroke="#4dd2ff" stroke-linecap="round" stroke-linejoin="round" stroke-width="0.5"><title>2022-11-10 4.1km</title></polyline><polyline fill="none" points="113.8776941364631,166.4202065821737 113.32808248791844,162.58586779981852 112.22885918896645,159.7101105854381 109.7556067686528,156.83435069350526 103.9846844561398,153.6390587799251 100.41220873687416,153.0 96.56492719426751,154.27811742736958 90.7940048808232,158.75152425281703 88.59555828385055,161.62728235893883 87.77114081010222,165.1420941830147 86.94672333821654,176.3255597166717 86.94672333821654,196.1361706033349 87.77114081010222,199.33141851355322 89.41997575759888,201.5680900819134 92.4428398264572,204.1242841759231 95.46570389624685,205.72190440865234 99.03817961458117,206.04142835573293 102.61065533291548,205.72190440865234 106.1831310512498,204.76333236834034 109.20599512010813,202.20713880378753 111.40444171521813,199.33141851355322 112.77847083844244,196.45569554297253 113.8776941364631,189.74566485802643 114.15249996166676,166.100678531453 113.32808248791844,162.9053962128237 111.95405336469412,160.02963929832913 106.73274269979447,154.27811742736958 100.13740291260183,153.6390587799251 96.56492719426751,154.27811742736958 93.26725730113685,155.8757634672802 91.06881070509553,157.79293762193993 89.14516993332654,160.3491679765284 86.94672333821654,167.0592625818681 86.94672333821654,180.4794080206193 85.84750004019588,186.86993295536377 86.39711168874055,190.70424156356603 86.39711168874055,193.8994950975757 88.59555828385055,200.60951675125398 92.99245147686452,205.08285641553812 96.01531554572284,206.04142835573293 99.31298543978482,206.68047615140676 106.1831310512498,204.44380828831345 111.12963589187711,199.33141851355322 112.77847083844244,195.8166456304025 113.8776941364631,192.62139408127405 113.32808248791844,184.95277686417103 114.15249996166676,178.56224795919843 113.32808248791844,171.8521783668548 113.8776941364631,165.78115044813603 113.32808248791844,162.26633935282007 111.40444171521813,159.0710530639626 105.08390775229782,153.9585881207604 101.78623785916716,153.0 99.03817961458117,153.0 95.74050972145051,153.9585881207604 92.71764565166086,155.55623432504945 90.51919905655086,158.1124665325042 88.59555828385055,161.30775381345302 87.22152916248888,168.0178463337943 87.22152916248888,181.4379876041785 87.77114081010222,187.82851055450737 86.94672333821654,195.17759558488615 88.0459466362372,198.6923691967968 89.96958740707487,201.5680900819134 95.19089807197452,205.08285641553812 98.48856796696782,205.72190440865234 104.53429610468447,205.08285641553812 107.5571601735428,203.80476003023796 109.7556067686528,201.24856567196548 112.50366501417011,196.1361706033349 113.32808248791844,192.9409193843603 113.05327666271478,187.18945885449648 113.8776941364631,177.92319434089586 113.32808248791844,164.50303778634407 109.7556067686528,158.75152425281703 107.00754852499813,156.51482165162452 103.43507280573249,155.23670515068807 96.56492719426751,154.91717594233342 93.81686894968152,156.19529257551767 91.06881070509553,159.0710530639626 88.87036410905421,161.94681087252684 87.22152916248888,165.4616223324556 86.67191751394421,168.65690200356767 86.94672333821654,171.8521783668548 86.12230586446822,174.7279242647346 86.94672333821654,193.8994950975757 88.0459466362372,197.09474532376043 91.06881070509553,202.52666311571375 96.01531554572284,206.04142835573293 99.31298543978482,206.36095227045007 102.88546115718782,206.04142835573293 106.1831310512498,204.76333236834034 109.20599512010813,202.84618739341386 111.12963589187711,200.28999224188738 113.60288831219077,193.8994950975757 114.42730578500777,180.79893458122388 114.15249996166676,163.544452941278 112.50366501417011,160.02963929832913 110.03041259385645,157.47340867924504 107.5571601735428,154.91717594233342 104.25949028041214,153.6390587799251 100.41220873687416,153.3195294069592 97.11453884281218,153.6390587799251 94.36648059915751,154.5976467016153 91.34361653029919,156.83435069350526 89.41997575759888,160.02963929832913 88.0459466362372,163.544452941278 87.49633498769253,167.0592625818681 87.77114081010222,174.40839707455598 87.22152916248888,181.11846110969782 87.22152916248888,194.53854540805332 88.59555828385055,197.41427016397938 90.51919905655086,200.28999224188738 92.71764565166086,202.52666311571375 95.46570389624685,204.44380828831345 103.43507280573249,204.76333236834034 106.1831310512498,204.1242841759231 109.20599512010813,202.20713880378753 111.12963589187711,199.01189387170598 113.60288831219077,196.45569554297253 114.42730578500777,193.26044465508312 114.42730578500777,176.3255597166717 113.8776941364631,163.22492459323257 112.22885918896645,160.66869662166573 105.35871357750148,154.27811742736958 102.0610436834395,153.6390587799251 96.01531554572284,154.5976467016153 93.26725730113685,156.19529257551767 89.14516993332654,160.3491679765284 87.49633498769253,163.22492459323257 86.67191751394421,166.100678531453 86.67191751394421,178.56224795919843 85.57269421499223,194.53854540805332 85.84750004019588,197.41427016397938 87.22152916248888,199.97046769876033 89.14516993332654,202.52666311571375 94.09167477395386,206.04142835573293 97.11453884281218,207.0 99.8625970883295,206.04142835573293 102.61065533291548,206.04142835573293 105.63351940270513,205.08285641553812 111.95405336469412,199.01189387170598 114.42730578500777,193.26044465508312 113.60288831219077,170.57406821846962 113.8776941364631,167.37879053200595 113.05327666271478,164.183509538183 111.40444171521813,160.98822523350827 108.65638347156346,158.1124665325042 105.90832522604614,156.19529257551767 102.88546115718782,155.55623432504945 96.01531554572284,155.23670515068807 92.71764565166086,156.83435069350526 90.2443932313472,159.0710530639626 87.22152916248888,164.82256600097753 86.67191751394421,168.0178463337943 86.39711168874055,177.92319434089586 86.67191751394421,193.5799698929768 87.49633498769253,196.45569554297253 90.51919905655086,201.5680900819134" stroke="#4dd2ff" stroke-linecap="round" stroke-linejoin="round" stroke-width="0.5"><title>2022-11-09 3.1km</title></polyline><polyline fill="none" points="169.80766118038446,159.70812350232154 168.07689744234085,157.024875768926 165.76921245921403,154.67703217780218 162.30768498405814,153.0 159.13461813144386,153.3354065043386 151.3461813116446,155.68325106799603 146.73081134539098,160.7143408297561 145.8654294759035,163.73299093497917 146.44235072098672,177.81998756853864 145.8654294759035,181.8448324969504 145.8654294759035,195.2609461408574 147.0192719688639,198.6149658705108 151.05772069003433,203.645988953067 154.2307875417173,205.65839599748142 158.55769688636065,206.66459905193187 162.01922436151654,206.32919806824066 168.36535806581378,203.645988953067 170.9615036714822,200.9627776145935 172.98072803206742,197.60876031592488 174.1345705250278,171.44730620319024 173.55764927901328,164.40380168776028 171.82688554096967,161.04974653571844 166.9230549512431,156.01865729503334 160.00000000093132,154.00621941057034 153.0769450487569,156.35406348784454 148.17311445903033,161.72055784310214 147.0192719688639,165.41001755697653 147.0192719688639,175.47215905063786 145.8654294759035,193.2485326367896 146.73081134539098,196.9379564402625 148.17311445903033,200.6273760406766 153.65386629570276,204.98759378795512 157.40385439340025,205.993797050789 165.19229121413082,205.65839599748142 170.38458242546767,201.29817915405147 172.6922674095258,194.925543977879 172.6922674095258,164.06839632848278 171.2499642940238,160.3789350874722 168.94227931182832,157.6956879098434 165.76921245921403,155.68325106799603 162.01922436151654,154.67703217780218 155.09616941120476,155.68325106799603 152.21156318113208,157.024875768926 149.90387819707394,159.37271765666083 147.88465383648872,162.7267745458521 147.0192719688639,166.75163822784089 147.3077325904742,172.78892437485047 146.73081134539098,176.47837148117833 146.73081134539098,183.52184974146076 146.15389010030776,186.5404785927385 146.44235072098672,193.58393497462384 147.0192719688639,196.60255444957875 150.19233882054687,203.31058765691705 156.82693314831704,206.66459905193187 160.00000000093132,207.0 163.17306685261428,206.66459905193187 168.94227931182832,203.98139021382667 170.9615036714822,200.9627776145935 172.4038067869842,197.60876031592488 173.26918865647167,193.919337276835 172.98072803206742,190.2299100367818 172.98072803206742,179.1616031001322 174.1345705250278,168.42866328614764 172.4038067869842,161.72055784310214 170.6730430489406,158.36649991292506 168.07689744234085,156.01865729503334 162.30768498405814,153.0 158.55769688636065,154.67703217780218 155.38463003374636,155.01243850938044 152.21156318113208,156.68946964549832 149.61541757453233,159.70812350232154 148.17311445903033,162.7267745458521 147.3077325904742,165.74542277655564 146.44235072098672,190.56531268637627 147.3077325904742,197.9441622023005 148.7500357059762,200.9627776145935 151.05772069003433,203.98139021382667 153.94232691824436,205.65839599748142 156.82693314831704,206.32919806824066 164.03844872117043,205.65839599748142 166.9230549512431,203.98139021382667 171.53842491842806,198.6149658705108 172.11534616351128,195.2609461408574 172.6922674095258,170.44109221012332 171.53842491842806,167.08704330935143 170.6730430489406,163.0621800441295 168.36535806581378,160.3789350874722 163.17306685261428,157.36028185649775 159.71153937652707,157.024875768926 153.94232691824436,159.03731177700683 151.3461813116446,161.38515220675617 149.32695695199072,163.73299093497917 149.0384963285178,178.1553915028926" stroke="#4dd2ff" stroke-linecap="round" stroke-linejoin="round" stroke-width="0.5"><title>2022-11-08 1.9km</title></polyline><polyline fill="none" points="32.40567819029093,261.5660779650789 41.16835720092058,265.98114030458964 51.97566131595522,257.83025134401396 53.43610781803727,225.22649295139126 50.80730411410332,218.77362735010684 40.876267900690436,214.35850146738812 29.776874486356974,223.52837165561505 29.484785185195506,257.4906305302866 39.707910699769855,265.98114030458964 51.97566131595522,259.52835488086566 52.559839917346835,223.1887472907547 41.46044650208205,215.03775199037045 29.19269588496536,225.90574122359976 29.776874486356974,258.1698721211869 41.46044650208205,265.6415203360375 52.26775061711669,257.4906305302866 52.85192921757698,224.54724453948438 43.21298230532557,214.69812674610876 32.69776748958975,218.09437760175206 29.484785185195506,224.20762027939782 29.776874486356974,259.52835488086566 42.9208930041641,265.3019003313966 52.85192921757698,255.4529049147386 52.559839917346835,223.52837165561505 41.752535802312195,215.03775199037045 29.19269588496536,225.22649295139126 29.19269588496536,258.1698721211869 40.58417860139161,264.9622802915983 51.97566131595522,257.83025134401396 52.559839917346835,222.16987398685887 42.9208930041641,213.67925080424175 28.900606584735215,222.84912289120257 28.316427985206246,254.7736627617851 39.707910699769855,265.98114030458964 51.6835720166564,259.52835488086566 53.14401851873845,223.52837165561505 44.089250206016004,214.35850146738812 36.49492839537561,214.69812674610876 29.484785185195506,222.84912289120257 28.316427985206246,257.1510096825659 38.831642798148096,265.98114030458964 49.054768312722445,263.6037997833919 53.43610781803727,257.4906305302866 53.72819711826742,225.22649295139126 42.33671440370381,214.01887615397573 28.608517283573747,223.1887472907547 28.316427985206246,255.79252593871206 31.52941028866917,262.5849390318617 40.876267900690436,265.98114030458964 53.72819711826742,255.4529049147386 53.14401851873845,222.50949845672585 42.33671440370381,214.35850146738812 28.900606584735215,223.1887472907547 28.02433868404478,257.1510096825659 31.821499588899314,263.9434199628886 44.673428806476295,265.98114030458964 54.020286419428885,253.75479926750995 51.09939341433346,216.39625261328183 41.16835720092058,213.0 28.900606584735215,219.45287695876323 25.979713580571115,252.39631411759183 34.450303291901946,266.66038013622165 51.6835720166564,263.6037997833919 54.31237571965903,224.88686876255088 35.326571193523705,236.77369444607757 30.945231687277555,259.18873424385674 43.21298230532557,265.3019003313966 53.43610781803727,256.1321469275281 53.43610781803727,223.52837165561505 44.96551810763776,215.71700237272307 38.24746419861913,215.3773771985434 29.776874486356974,222.50949845672585 28.02433868404478,253.75479926750995 35.910749793983996,265.3019003313966 51.97566131595522,259.52835488086566 53.14401851873845,223.1887472907547 43.21298230532557,214.35850146738812 29.484785185195506,222.16987398685887 28.02433868404478,256.1321469275281 40.58417860139161,267.0 52.559839917346835,259.52835488086566 54.020286419428885,224.20762027939782 45.84178600739688,214.35850146738812 35.61866049468517,215.03775199037045 28.316427985206246,223.1887472907547 27.73224938288331,254.4340416325722 37.66328559629619,266.66038013622165 52.26775061711669,261.5660779650789 53.14401851873845,224.20762027939782 44.38133950531483,214.69812674610876 34.450303291901946,215.71700237272307 30.06896378658712,220.81137575372122 28.316427985206246,257.4906305302866 41.16835720092058,266.66038013622165 53.43610781803727,257.1510096825659 53.72819711826742,225.56611710460857 42.9208930041641,214.69812674610876 30.06896378658712,224.20762027939782 30.06896378658712,257.1510096825659 39.41582139860839,264.62266021757387 51.97566131595522,256.81138879968785 51.97566131595522,222.50949845672585 44.38133950531483,214.69812674610876 37.95537489745766,215.3773771985434 28.900606584735215,224.54724453948438 28.900606584735215,258.84911357215606 42.9208930041641,266.32076023775153 53.43610781803727,257.83025134401396 53.43610781803727,223.8679959848523 43.797160904854536,214.69812674610876 30.06896378658712,222.16987398685887 28.316427985206246,256.471767880721 37.37119629699737,266.32076023775153 51.97566131595522,260.5472165814135 53.43610781803727,230.32085156347603 45.25760740786791,215.71700237272307 38.53955349791795,215.3773771985434 30.361053086817265,222.16987398685887 29.776874486356974,257.1510096825659 39.41582139860839,265.3019003313966 50.80730411410332,260.2075960494112 51.97566131595522,224.20762027939782 42.628803703933954,215.03775199037045 29.776874486356974,224.20762027939782 28.608517283573747,255.1132838553749 39.123732099309564,265.6415203360375 51.09939341433346,259.52835488086566 54.604465019889176,226.24536530626938 45.25760740786791,213.33962542004883 35.326571193523705,214.01887615397573 28.316427985206246,221.1510003642179 25.395534980110824,252.73593545728363" stroke="#4dd2ff" stroke-linecap="round" stroke-linejoin="round" stroke-width="0.5"><title>2022-04-26 8.3km</title></polyline><polyline fill="none" points="91.64606747310609,260.08541704388335 103.53980191703886,264.6951406856533 112.31851067580283,258.4390855531674 113.73443144373596,225.84154651756398 102.69024945795536,213.65854210895486 88.24785763118416,221.23176655475982 86.26556855812669,256.1342200336512 95.04427731502801,266.01220335485414 104.67253853194416,265.6829377382528 113.16806313581765,258.4390855531674 113.16806313581765,222.87811730941758 99.57522376906127,213.0 87.6814893251285,219.91468533780426 86.26556855812669,253.5000859652646 91.64606747310609,263.37807746976614 98.44248715694994,266.01220335485414 107.5043800668791,264.3658749323804 113.16806313581765,255.47568672103807 113.73443144373596,223.86592735210434 100.42477623000741,213.3292710718233 87.6814893251285,222.21957710990682 87.11512101814151,257.12201974657364 96.4601980810985,266.34146893699653 106.37164345290512,265.0244064037688 113.16806313581765,256.7927532088943 113.45124728884548,224.19519729795866 105.23890683799982,214.31708408123814 87.6814893251285,220.57322601531632 85.98238440323621,251.85375106544234 99.0088554630056,265.0244064037688 111.18577406182885,259.75615081447177 113.45124728884548,221.56103677349165 106.08845929894596,213.98781311232597 96.4601980810985,214.31708408123814 89.94696255214512,217.28052126825787 86.54875271115452,227.15862527955323 90.23014670610428,262.3902796995826 102.12388115096837,266.6707344856113 111.18577406182885,261.73174768243916 114.01761559676379,224.19519729795866 103.25661776587367,213.0 93.62835654709488,214.97562591684982 86.83193686418235,223.20738735748455 86.83193686418235,257.12201974657364 99.0088554630056,266.6707344856113 112.60169482883066,259.09761825134046 113.73443144373596,224.5244672105182 105.23890683799982,213.65854210895486 88.81422593817115,218.9268740674015 86.26556855812669,255.80495339399204 92.4956199331209,265.0244064037688 99.57522376906127,267.0 112.88487898278981,257.45128624886274 113.45124728884548,222.5488472271245 101.27432869002223,213.0 91.92925162706524,216.62197990971617 86.83193686418235,225.51227674237452 87.11512101814151,258.4390855531674 100.14159207697958,266.6707344856113 112.31851067580283,259.42688454990275 113.45124728884548,222.87811730941758 104.10617022588849,213.3292710718233 91.07969916705042,216.29270917968825 87.96467347908765,221.89030695869587 86.26556855812669,252.84155210736208 89.66377839911729,254.158619687194" stroke="#4dd2ff" stroke-linecap="round" stroke-linejoin="round" stroke-width="0.5"><title>2022-04-19 4.1km</title></polyline><polyline fill="none" points="156.05944816954434,256.8546158373356 154.0891722543165,261.76367675629444 159.99999999906868,264.70910964813083 170.97725152689964,258.81824111938477 173.5104634175077,224.4546225471422 170.4143155515194,217.90912903146818 160.84440396353602,213.3272755057551 147.05247255787253,222.1637013584841 146.48953658156097,258.49097032425925 150.14862042479217,264.70910964813083 161.40733993891627,267.0 173.22899542935193,256.2000738044735 173.22899542935193,222.1637013584841 159.99999999906868,213.3272755057551 147.05247255787253,224.12734819343314 147.61540853325278,259.14551188168116 162.53321189060807,266.0181900530588 173.22899542935193,258.49097032425925 172.66605945397168,220.8546027909033 160.56293597538024,213.0 150.43008841201663,221.18187748407945 148.17834450863302,254.8909893343225 160.84440396353602,264.3818394620903 170.97725152689964,255.8728027381003 170.97725152689964,225.10917115327902 162.2517439033836,215.9454783333931 155.4965121941641,216.92730383435264 149.02274847216904,225.10917115327902 149.30421646032482,256.52734483755194 159.71853201184422,264.3818394620903 170.4143155515194,256.2000738044735 171.2587195141241,226.41826795879751 163.65908384136856,215.9454783333931 148.74128048401326,224.12734819343314 149.5856844484806,258.1636994939763 157.7482560966164,263.7272989896592 167.88110366091132,261.43640626594424 171.54018750134856,251.94554729247466 168.44403963536024,220.20005330373533 156.05944816954434,215.61820309888572 150.9930243883282,220.20005330373533 148.17834450863302,239.83647895255126 151.27449237555265,259.80005330312997 159.99999999906868,264.05456924275495 166.7552317082882,261.76367675629444 171.82165549043566,253.90917562507093 170.4143155515194,222.81825043912977 155.77798018138856,216.92730383435264 148.17834450863302,231.6546497582458 149.02274847216904,256.8546158373356 152.11889633815736,262.4182176361792 165.06642378028482,262.7454880250152 170.97725152689964,255.21826050244272 169.56991158705205,220.52732806373388 161.12587195076048,215.61820309888572 151.83742835186422,219.21822881908156 147.89687652140856,241.14556965837255 152.68183231540024,261.76367675629444 167.31816768459976,260.7818651825655 171.54018750134856,250.9637326686643 169.0069756116718,220.8546027909033 157.46678810939193,216.27275353483856 148.4598124967888,225.43644540500827 149.02274847216904,255.8728027381003 152.68183231540024,261.76367675629444 162.53321189060807,263.7272989896592 170.97725152689964,253.90917562507093 169.28844359889627,220.52732806373388 160.84440396353602,216.27275353483856 151.27449237555265,220.52732806373388 150.9930243883282,242.4546598214656" stroke="#4dd2ff" stroke-linecap="round" stroke-linejoin="round" stroke-width="0.5"><title>2022-04-13 4.1km</title></polyline></svg>