<?xml version="1.0" encoding="utf-8" ?>
<svg baseProfile="full" height="300mm" version="1.1" viewBox="0,0,200,300" width="200mm" xmlns="http://www.w3.org/2000/svg" xmlns:ev="http://www.w3.org/2001/xml-events" xmlns:xlink="http://www.w3.org/1999/xlink"><defs /><rect fill="#222222" height="300" width="200" x="0" y="0" /><text fill="#FFFFFF" style="font-size:12px; font-family:Arial; font-weight:bold;" x="10" y="20">Over 1km Runs</text><text fill="#FFFFFF" style="font-size:4px; font-family:Arial" x="10" y="280">ATHLETE</text><text fill="#FFFFFF" style="font-size:9px; font-family:Arial" x="10" y="290">InzamZ</text><text fill="#FFFFFF" style="font-size:4px; font-family:Arial" x="120" y="280">STATISTICS</text><text fill="#FFFFFF" style="font-size:3px; font-family:Arial" x="120" y="285">Number: 5</text><text fill="#FFFFFF" style="font-size:3px; font-family:Arial" x="120" y="290">Weekly: 1.2</text><text fill="#FFFFFF" style="font-size:3px; font-family:Arial" x="141" y="285">Total: 21.6 km</text><text fill="#FFFFFF" style="font-size:3px; font-family:Arial" x="141" y="290">Avg: 4.3 km</text><text fill="#FFFFFF" style="font-size:3px; font-family:Arial" x="167" y="285">Min: 1.9 km</text><text fill="#FFFFFF" style="font-size:3px; font-family:Arial" x="167" y="290">Max: 8.3 km</text><polyline fill="none" points="68.50359218381345,51.893608775921166 67.77077665179968,46.78115706611425 66.30514558777213,42.94681411376223 63.007475692778826,39.11246759071946 55.31291260942817,34.85207837307826 50.549611650407314,34.0 45.41990292817354,35.704156569670886 37.72533984296024,41.668699003290385 34.7940777130425,45.50304314494133 33.69485441595316,50.18945891037583 32.59563111886382,65.10074628842995 32.59563111886382,91.51489413762465 33.69485441595316,95.77522468473762 35.89330101199448,98.7574534425512 39.923786437138915,102.16571223409846 43.954271864145994,104.29587254440412 48.7175728213042,104.72190447431058 53.48087377846241,104.29587254440412 58.24417473748326,103.01777649112046 62.2746601626277,99.60951840458438 65.20592228882015,95.77522468473762 67.0379611197859,91.94092739047483 68.50359218381345,82.99421981023625 68.86999995075166,51.467571374960244 67.77077665179968,47.207194949965924 65.93873782083392,43.37285239761695 58.97699026763439,35.704156569670886 50.18320388533175,34.85207837307826 45.41990292817354,35.704156569670886 41.0230097360909,37.834351289551705 38.0917476080358,40.39058349560946 35.52689324691892,43.79889063490555 32.59563111886382,52.745683441869915 32.59563111886382,70.63921069400385 31.130000054836273,79.15991060668603 31.862815586850047,84.27232208428904 31.862815586850047,88.53266012948006 34.7940777130425,97.47935566818342 40.656601971015334,103.44380855374038 44.68708739615977,104.72190447431058 49.08398058824241,105.57396820141003 58.24417473748326,102.59174438426271 64.83951452374458,95.77522468473762 67.0379611197859,91.08886084007099 68.50359218381345,86.82852544123307 67.77077665179968,76.60370248509571 68.86999995075166,68.08299727877602 67.77077665179968,59.13623782200739 68.50359218381345,51.04153393069282 67.77077665179968,46.355119137093425 65.20592228882015,42.09473741846159 56.77854367159307,35.278117494191974 52.38165048137307,34.0 48.7175728213042,34.0 44.320679631084204,35.278117494191974 40.290194204077125,37.40831243339926 37.35893207602203,40.816622043028474 34.7940777130425,45.077005084604025 32.962038883939385,54.02379511157051 32.962038883939385,71.91731680510566 33.69485441595316,80.43801407236606 32.59563111886382,90.23679411271587 34.06126218289137,94.92315892875195 36.626116544008255,98.7574534425512 43.58786409907043,103.44380855374038 47.98475729115307,104.29587254440412 56.04572814144194,103.44380855374038 60.076213566586375,101.73968004016206 63.007475692778826,98.33142089564353 66.67155335471034,91.51489413762465 67.77077665179968,87.25455917883664 67.40436888486147,79.58594513870776 68.50359218381345,67.23092578770593 67.77077665179968,49.33738371450454 63.007475692778826,41.668699003290385 59.3433980345726,38.686428868211806 54.58009707555175,36.982273533940315 45.41990292817354,36.556234589312226 41.75582526810467,38.260390100535005 38.0917476080358,42.09473741846159 35.16048547998071,45.92908116290346 32.962038883939385,50.6154964431189 32.22922335378826,54.87586933746934 32.59563111886382,59.13623782200739 31.496407821774483,62.970565686002374 32.59563111886382,88.53266012948006 34.06126218289137,92.79299376485869 38.0917476080358,100.03555082064122 44.68708739615977,104.72190447431058 49.08398058824241,105.14793636044487 53.84728154540062,104.72190447431058 58.24417473748326,103.01777649112046 62.2746601626277,100.46158319106326 64.83951452374458,97.05332298902795 68.13718441873789,88.53266012948006 69.23640771396458,71.06524610798806 68.86999995075166,48.05927058821544 66.67155335471034,43.37285239761695 63.373883459717035,39.96454490534961 60.076213566586375,36.556234589312226 55.67932037450373,34.85207837307826 50.549611650407314,34.4260392091237 46.15271845832467,34.85207837307826 42.488640800118446,36.1301956018433 38.45815537497401,39.11246759071946 35.89330101199448,43.37285239761695 34.06126218289137,48.05927058821544 33.328446650877595,52.745683441869915 33.69485441595316,62.54452943243086 32.962038883939385,71.49128147913143 32.962038883939385,89.3847272102721 34.7940777130425,93.2190268849954 37.35893207602203,97.05332298902795 40.290194204077125,100.03555082064122 43.954271864145994,102.59174438426271 54.58009707555175,103.01777649112046 58.24417473748326,102.16571223409846 62.2746601626277,99.60951840458438 64.83951452374458,95.34919182863086 68.13718441873789,91.94092739047483 69.23640771396458,87.68059287313372 69.23640771396458,65.10074628842995 68.50359218381345,47.6332327905111 66.30514558777213,44.22492882842198 57.14495143853128,35.704156569670886 52.748058246448636,34.85207837307826 44.68708739615977,36.1301956018433 41.0230097360909,38.260390100535005 35.52689324691892,43.79889063490555 33.328446650877595,47.6332327905111 32.22922335378826,51.467571374960244 32.22922335378826,68.08299727877602 30.763592287898064,89.3847272102721 31.130000054836273,93.2190268849954 32.962038883939385,96.62729026470333 35.52689324691892,100.03555082064122 42.12223303318024,104.72190447431058 46.15271845832467,106.0 49.816796120256186,104.72190447431058 53.48087377846241,104.72190447431058 57.51135920546949,103.44380855374038 65.93873782083392,95.34919182863086 69.23640771396458,87.68059287313372 68.13718441873789,57.43209095764905 68.50359218381345,53.171720708720386 67.40436888486147,48.91134605044499 65.20592228882015,44.65096697770059 61.54184463061392,40.816622043028474 57.87776697054505,38.260390100535005 53.84728154540062,37.40831243339926 44.68708739615977,36.982273533940315 40.290194204077125,39.11246759071946 36.99252430908382,42.09473741846159 32.962038883939385,49.76342133432627 32.22922335378826,54.02379511157051 31.862815586850047,67.23092578770593 32.22922335378826,88.10662652365863 33.328446650877595,91.94092739047483 37.35893207602203,98.7574534425512" stroke="#4dd2ff" stroke-linecap="round" stroke-linejoin="round" stroke-width="0.5"><title>2022-11-09 3.1km</title></polyline><polyline fill="none" points="163.07688157260418,42.944164669606835 160.76919658854604,39.36650102538988 157.69228327833116,36.236042903736234 153.07691331021488,34.0 148.84615750797093,34.44720867276192 138.46157508157194,37.57766809081659 132.30774845927954,44.28578777331859 131.15390596725047,48.31065458012745 131.92313429526985,67.09331675805151 131.15390596725047,72.45977666275576 131.15390596725047,90.34792818780988 132.69236262515187,94.81995449401438 138.0769609194249,101.52798527060077 142.30771672166884,104.21119466330856 148.0769291818142,105.55279873590916 152.69229914806783,105.10559742432088 161.15381075441837,101.52798527060077 164.61533822864294,97.95037015294656 167.30763737484813,93.47834708821028 168.84609403274953,58.59640827123076 168.07686570473015,49.205068917013705 165.769180720672,44.73299538111314 159.23073993436992,38.02487639337778 150.0,35.34162588091567 140.76926006563008,38.47208465076983 134.23081927746534,45.627410457935184 132.69236262515187,50.54669007612392 132.69236262515187,63.96287873433903 131.15390596725047,87.66471018223092 132.30774845927954,92.58394192066044 134.23081927746534,97.5031680543907 141.53848839364946,103.31679171742871 146.5384725239128,104.65839606756344 156.92305495217443,104.21119466330856 163.84610990062356,98.39757220540196 166.92302321270108,89.90072530368343 166.92302321270108,48.75786177115515 164.99995239265263,43.8385801166296 161.9230390805751,40.260917213279754 157.69228327833116,37.57766809081659 152.69229914806783,36.236042903736234 143.4615592136979,37.57766809081659 139.615417573601,39.36650102538988 136.53850426152349,42.49695687554777 133.8462051153183,46.969032728113234 132.69236262515187,52.33551763743162 133.07697678729892,60.38523249980062 132.30774845927954,65.30449530854821 132.30774845927954,74.69579965528101 131.5385201331228,78.72063812380657 131.92313429526985,88.11191329965368 132.69236262515187,92.136739266105 136.92311842739582,101.08078354271129 145.76924419775605,105.55279873590916 150.0,106.0 154.23075580224395,105.55279873590916 161.9230390805751,101.97518695192412 164.61533822864294,97.95037015294656 166.5384090486914,93.47834708821028 167.69225154072046,88.55911636957899 167.30763737484813,83.6398800490424 167.30763737484813,68.88213746715337 168.84609403274953,54.57155104819685 166.5384090486914,45.627410457935184 164.23072406463325,41.15533321723342 160.76919658854604,38.02487639337778 153.07691331021488,34.0 148.0769291818142,36.236042903736234 143.8461733777076,36.683251345995814 139.615417573601,38.91929286066443 136.15389009937644,42.944164669606835 134.23081927746534,46.969032728113234 133.07697678729892,50.9938970352523 131.92313429526985,84.08708358183503 133.07697678729892,93.925549603533 135.00004760734737,97.95037015294656 138.0769609194249,101.97518695192412 141.9231025557965,104.21119466330856 145.76924419775605,105.10559742432088 155.38459829427302,104.21119466330856 159.23073993436992,101.97518695192412 165.38456655666232,94.81995449401438 166.1537948846817,90.34792818780988 166.92302321270108,57.254789613652974 165.38456655666232,52.78272441262379 164.23072406463325,47.41624005883932 161.15381075441837,43.8385801166296 154.23075580224395,39.81370914215222 149.6153858359903,39.36650102538988 141.9231025557965,42.049749036319554 138.46157508157194,45.18020294280723 135.76927593536675,48.31065458012745 135.38466176949441,67.54052200401202" stroke="#4dd2ff" stroke-linecap="round" stroke-linejoin="round" stroke-width="0.5"><title>2022-11-08 1.9km</title></polyline><polyline fill="none" points="39.87423758581281,178.75477061979473 51.55780960060656,184.64152040611953 65.96754842065275,173.77366845868528 67.91481042467058,130.3019906016998 64.40973881818354,121.69816980045289 51.16835720092058,115.81133528985083 36.36916598118842,128.03782887430862 35.97971357963979,173.32084070704877 49.610547598451376,184.64152040611953 65.96754842065275,176.03780650766566 66.74645322188735,127.58499638736248 51.947262002155185,116.71700265398249 35.590261179953814,131.20765496464446 36.36916598118842,174.22649616142735 51.947262002155185,184.18869378138334 66.35700082220137,173.32084070704877 67.13590562157333,129.39632605249062 54.28397640585899,116.26416899450123 40.263689985498786,120.79250346915796 35.97971357963979,128.9434937061742 36.36916598118842,176.03780650766566 53.89452400431037,183.73586710868403 67.13590562157333,170.6038732198067 66.74645322188735,128.03782887430862 52.336714401841164,116.71700265398249 35.590261179953814,130.3019906016998 35.590261179953814,174.22649616142735 50.7789048012346,183.28304038895294 65.96754842065275,173.77366845868528 66.74645322188735,126.2264986494556 53.89452400431037,114.905667738989 35.200808780267835,127.13216385478154 34.42190397903323,169.69821701571345 49.610547598451376,184.64152040611953 65.57809602282941,176.03780650766566 67.52535802312195,128.03782887430862 55.45233360864222,115.81133528985083 45.32657119445503,116.26416899450123 35.97971357963979,127.13216385478154 34.42190397903323,172.86801291024312 48.442190397530794,184.64152040611953 62.07302441634238,181.47173304436728 67.91481042467058,173.32084070704877 68.30426282435656,130.3019906016998 53.11561920493841,115.3585015386343 34.811356376856565,127.58499638736248 34.42190397903323,171.05670125130564 38.705880384892225,180.11325204232708 51.16835720092058,184.64152040611953 68.30426282435656,170.6038732198067 67.52535802312195,126.67933127563447 53.11561920493841,115.81133528985083 35.200808780267835,127.58499638736248 34.03245157748461,172.86801291024312 39.095332784578204,181.9245599503629 56.23123840801418,184.64152040611953 68.69371522590518,168.33973235683516 64.79919121786952,118.52833681786433 51.55780960060656,114.0 35.200808780267835,122.60383594501764 31.30628477409482,166.528418823611 42.600404389202595,185.5471735149622 65.57809602282941,181.47173304436728 69.08316762559116,129.84915835037827 43.76876159012318,145.69825926143676 37.92697558365762,175.58497899211943 54.28397640585899,183.73586710868403 67.91481042467058,171.5095292367041 67.91481042467058,128.03782887430862 56.6206908095628,117.62266982998699 47.66328559629619,117.16983626456931 36.36916598118842,126.67933127563447 34.03245157748461,168.33973235683516 44.54766639135778,183.73586710868403 65.96754842065275,176.03780650766566 67.52535802312195,127.58499638736248 54.28397640585899,115.81133528985083 35.97971357963979,126.2264986494556 34.03245157748461,171.5095292367041 50.7789048012346,186.0 66.74645322188735,176.03780650766566 68.69371522590518,128.9434937061742 57.789048010483384,115.81133528985083 44.1582139916718,116.71700265398249 34.42190397903323,127.58499638736248 33.642999175935984,169.24538884311914 46.88438079319894,185.5471735149622 66.35700082220137,178.75477061979473 67.52535802312195,128.9434937061742 55.841786006465554,116.26416899450123 42.600404389202595,117.62266982998699 36.758618380874395,124.4151676716283 34.42190397903323,173.32084070704877 51.55780960060656,185.5471735149622 67.91481042467058,172.86801291024312 68.30426282435656,130.75482280598953 53.89452400431037,116.26416899450123 36.758618380874395,128.9434937061742 36.758618380874395,172.86801291024312 49.22109519690275,182.83021362312138 65.96754842065275,172.41518506640568 65.96754842065275,126.67933127563447 55.841786006465554,116.26416899450123 47.27383319474757,117.16983626456931 35.200808780267835,129.39632605249062 35.200808780267835,175.1321514295414 53.89452400431037,185.09434698382393 67.91481042467058,173.77366845868528 67.91481042467058,128.49066131329164 55.0628812070936,116.26416899450123 36.758618380874395,126.2264986494556 34.42190397903323,171.96235717413947 46.49492839537561,185.09434698382393 65.96754842065275,177.39628877537325 67.91481042467058,137.09446875099093 57.01014320924878,117.62266982998699 48.052737997844815,117.16983626456931 37.148070780560374,126.2264986494556 36.36916598118842,172.86801291024312 49.22109519690275,183.73586710868403 64.40973881818354,176.94346139905974 65.96754842065275,128.9434937061742 53.50507160462439,116.71700265398249 36.36916598118842,128.9434937061742 34.811356376856565,170.15104514034465 48.83164279907942,184.18869378138334 64.79919121786952,176.03780650766566 69.47262002527714,131.66048707487062 57.01014320924878,114.45283389324322 43.76876159012318,115.3585015386343 34.42190397903323,124.86800048546866 30.527379972860217,166.9812472765334" stroke="#4dd2ff" stroke-linecap="round" stroke-linejoin="round" stroke-width="0.5"><title>2022-04-26 8.3km</title></polyline><polyline fill="none" points="138.8614232968539,176.78055605851114 154.7197358906269,182.9268542472273 166.42468089982867,174.58544740406796 168.3125752583146,131.12206202326342 153.58699927665293,114.87805614480749 134.330476840958,124.97568873967975 131.68742474354804,171.51229337835684 143.3923697527498,184.68293780647218 156.23005137592554,184.24391698418185 167.55741751380265,174.58544740406796 167.55741751380265,127.17082307906821 149.4336316920817,114.0 133.57531910017133,123.21958045009524 131.68742474354804,168.00011462019756 138.8614232968539,181.1707699596882 147.9233162086457,184.68293780647218 160.00584008917212,182.48783324286342 167.55741751380265,170.63424896122888 168.3125752583146,128.48790313629434 150.56636830605567,114.43902809591964 133.57531910017133,126.29276948003098 132.820161357522,172.82935966178775 145.2802641093731,185.12195858219638 158.4955246038735,183.36587520502508 167.55741751380265,172.3903376115486 167.9349963851273,128.92692973045632 156.98520911857486,115.75611210800707 133.57531910017133,124.09763468708843 131.30984587222338,165.80500142043456 148.67847395129502,183.36587520502508 164.91436541639268,176.34153441898525 167.9349963851273,125.41471569798887 158.11794573254883,115.31708414992318 145.2802641093731,115.75611210800707 136.59595006890595,119.70736169070005 132.0650036148727,132.8781670392491 136.97352894209325,179.8537062657997 152.83184153400362,185.56097931414843 164.91436541639268,178.97566357674077 168.69015412777662,128.92692973045632 154.3421570211649,114.0 141.5044753961265,116.6341678891331 132.44258248619735,127.60984980966896 132.44258248619735,172.82935966178775 148.67847395129502,185.56097931414843 166.80225977115333,175.46349100163206 168.3125752583146,129.3659562803805 156.98520911857486,114.87805614480749 135.08563458360732,121.90249875653535 131.68742474354804,171.07327119167894 139.99415991082788,183.36587520502508 149.4336316920817,186.0 167.17983864434063,173.2683816649951 167.9349963851273,126.73179630283266 151.69910492002964,114.0 139.2390021700412,118.82930654613301 132.44258248619735,130.68303565634415 132.820161357522,174.58544740406796 150.188789434731,185.56097931414843 166.42468089982867,175.90251273289323 167.9349963851273,127.17082307906821 155.47489363513887,114.43902809591964 138.10626555606723,118.39027890609577 133.952897971496,125.8537426115945 131.68742474354804,167.122069476638 136.2183711975813,168.87815958308056" stroke="#4dd2ff" stroke-linecap="round" stroke-linejoin="round" stroke-width="0.5"><title>2022-04-19 4.1km</title></polyline><polyline fill="none" points="44.74593089334667,252.47282111644745 42.11889633908868,259.01823567505926 50.0,262.9454795313068 64.63633536919951,255.0909881591797 68.01395122520626,209.2728300630115 63.88575406931341,200.54550537560135 51.125871950760484,194.43636734131724 32.73663007840514,206.21826847828925 31.98604877665639,254.65462709916756 36.864827232435346,262.9454795313068 51.876453252509236,266.0 67.63866057246923,251.60009840596467 67.63866057246923,206.21826847828925 50.0,194.43636734131724 32.73663007840514,208.83646425791085 33.48721137829125,255.52734917588532 53.377615854144096,264.69092007074505 67.63866057246923,254.65462709916756 66.88807927258313,204.4728037212044 50.75058130174875,194.0 37.24011788330972,204.90916997892782 34.23779267817736,249.85465244576335 51.125871950760484,262.50911928294227 64.63633536919951,251.16373698413372 64.63633536919951,210.14556153770536 53.002325205132365,197.9273044448346 43.99534959346056,199.23640511278063 35.36366462893784,210.14556153770536 35.73895528167486,252.0364597835578 49.624709349125624,262.50911928294227 63.88575406931341,251.60009840596467 65.01162602007389,211.891023945529 54.878778455778956,197.9273044448346 34.98837397992611,208.83646425791085 36.11424593068659,254.21826599212363 46.99767479673028,261.6363986530341 60.50813821516931,258.58187502156943 65.38691666908562,245.92739639012143 61.25871951505542,203.6000710716471 44.74593089334667,197.49093746533617 37.990699185058475,203.6000710716471 34.23779267817736,229.78197193704545 38.365989834070206,256.4000710709952 50.0,262.07275899033993 59.006975611671805,259.01823567505926 65.76220732182264,248.545567500405 63.88575406931341,207.09100058535114 44.37064024247229,199.23640511278063 34.23779267817736,218.87286634463817 35.36366462893784,252.47282111644745 39.49186178483069,259.8909568483941 56.75523170828819,260.3273173668422 64.63633536919951,250.2910140035674 62.75988211669028,204.0364374187775 51.50116260163486,197.49093746533617 39.11657113581896,202.29097175924107 33.862502029165626,231.52742621162906 40.24244308844209,259.01823567505926 59.75755691342056,257.70915357675403 65.38691666908562,244.61831022519618 62.00930081680417,204.4728037212044 46.622384145855904,198.36367138009518 34.61308332905173,210.58192720683292 35.36366462893784,251.16373698413372 40.24244308844209,259.01823567505926 53.377615854144096,261.6363986530341 64.63633536919951,248.545567500405 62.3845914658159,204.0364374187775 51.125871950760484,198.36367138009518 38.365989834070206,204.0364374187775 37.990699185058475,233.27287976210937" stroke="#4dd2ff" stroke-linecap="round" stroke-linejoin="round" stroke-width="0.5"><title>2022-04-13 4.1km</title></polyline></svg>