<?xml version="1.0" encoding="utf-8" ?>
<svg baseProfile="full" height="300mm" version="1.1" viewBox="0,0,200,300" width="200mm" xmlns="http://www.w3.org/2000/svg" xmlns:ev="http://www.w3.org/2001/xml-events" xmlns:xlink="http://www.w3.org/1999/xlink"><defs /><rect fill="#222222" height="300" width="200" x="0" y="0" /><text fill="#FFFFFF" style="font-size:12px; font-family:Arial; font-weight:bold;" x="10" y="20">Over 1km Runs</text><text fill="#FFFFFF" style="font-size:4px; font-family:Arial" x="10" y="280">ATHLETE</text><text fill="#FFFFFF" style="font-size:9px; font-family:Arial" x="10" y="290">InzamZ</text><text fill="#FFFFFF" style="font-size:4px; font-family:Arial" x="120" y="280">STATISTICS</text><text fill="#FFFFFF" style="font-size:3px; font-family:Arial" x="120" y="285">Number: 3</text><text fill="#FFFFFF" style="font-size:3px; font-family:Arial" x="120" y="290">Weekly: 1.0</text><text fill="#FFFFFF" style="font-size:3px; font-family:Arial" x="141" y="285">Total: 16.5 km</text><text fill="#FFFFFF" style="font-size:3px; font-family:Arial" x="141" y="290">Avg: 5.5 km</text><text fill="#FFFFFF" style="font-size:3px; font-family:Arial" x="167" y="285">Min: 4.1 km</text><text fill="#FFFFFF" style="font-size:3px; font-family:Arial" x="167" y="290">Max: 8.3 km</text><polyline fill="none" points="43.60851728543639,107.3491169475019 56.75253580324352,113.97171045653522 72.9634919743985,101.74537701578811 75.15416172891855,52.83973942697048 71.21095617301762,43.16044102516025 56.31440185196698,36.537752201315016 39.66531172953546,50.292557483538985 39.22717777825892,101.23594579519704 54.561866050586104,113.97171045653522 72.9634919743985,104.29253232106566 73.83975987695158,49.78312093578279 57.19066975452006,37.55662798555568 38.789043828845024,53.85861183516681 39.66531172953546,102.2548081818968 57.19066975452006,113.46228050393984 73.40162592567503,101.23594579519704 74.27789382636547,51.82086680922657 59.81947345845401,37.04719011904672 44.04665123485029,42.1415664027445 39.22717777825892,51.311430419329554 39.66531172953546,104.29253232106566 59.38133950717747,112.95285049686208 74.27789382636547,98.17935737222433 73.83975987695158,50.292557483538985 57.628803703933954,37.55662798555568 38.789043828845024,52.83973942697048 38.789043828845024,102.2548081818968 55.87626790255308,112.4434204371646 72.9634919743985,101.74537701578811 73.83975987695158,48.25481098052114 59.38133950717747,35.51887620612979 38.35090987756848,49.27368433680385 37.47464197874069,97.16049414267763 54.561866050586104,113.97171045653522 72.52535802684724,104.29253232106566 74.71602777764201,50.292557483538985 61.13387531042099,36.537752201315016 49.74239259399474,37.04719011904672 39.22717777825892,49.27368433680385 37.47464197874069,100.72651452384889 53.24746419861913,113.97171045653522 68.58215247094631,110.4056996749714 75.15416172891855,101.23594579519704 75.59229567833245,52.83973942697048 58.505071606487036,36.02831423096359 37.91277592629194,49.78312093578279 37.47464197874069,98.68878890806809 42.294115433469415,108.87740854779258 56.31440185196698,113.97171045653522 75.59229567833245,98.17935737222433 74.71602777764201,48.76424768520519 58.505071606487036,36.537752201315016 38.35090987756848,49.78312093578279 37.036508025601506,100.72651452384889 42.732249384745955,110.91512994421646 62.010143211111426,113.97171045653522 76.03042962960899,95.63219890138134 71.64909012243152,39.59437891980633 56.75253580324352,34.5 38.35090987756848,44.179315438028425 33.969570372253656,93.59447117615491 46.67545493878424,114.99057020433247 72.52535802684724,110.4056996749714 76.46856358088553,52.3303031437099 47.98985679075122,70.16054166899994 41.41784753277898,103.78310136590153 59.81947345845401,112.95285049686208 75.15416172891855,99.19822039129212 75.15416172891855,50.292557483538985 62.44827716238797,38.57550355885178 52.37119629792869,38.06606579758227 39.66531172953546,48.76424768520519 37.036508025601506,95.63219890138134 48.8661246933043,112.95285049686208 72.9634919743985,104.29253232106566 74.71602777764201,49.78312093578279 59.81947345845401,36.537752201315016 39.22717777825892,48.25481098052114 37.036508025601506,99.19822039129212 55.87626790255308,115.5 73.83975987695158,104.29253232106566 76.03042962960899,51.311430419329554 63.7626790124923,36.537752201315016 48.42799074202776,37.55662798555568 37.47464197874069,49.78312093578279 36.598374074324965,96.65106244850904 51.49492839537561,114.99057020433247 73.40162592567503,107.3491169475019 74.71602777764201,51.311430419329554 61.57200925797224,37.04719011904672 46.67545493878424,38.57550355885178 40.103445680812,46.21706363046542 37.47464197874069,101.23594579519704 56.75253580324352,114.99057020433247 75.15416172891855,100.72651452384889 75.59229567833245,53.34917565668002 59.38133950717747,37.04719011904672 40.103445680812,51.311430419329554 40.103445680812,100.72651452384889 54.123732099309564,111.93399032624438 72.9634919743985,100.21708319941536 72.9634919743985,48.76424768520519 61.57200925797224,37.04719011904672 51.93306234665215,38.06606579758227 38.35090987756848,51.82086680922657 38.35090987756848,103.27367035811767 59.38133950717747,114.48114035651088 75.15416172891855,101.74537701578811 75.15416172891855,50.80199397727847 60.69574135914445,37.04719011904672 40.103445680812,48.25481098052114 37.47464197874069,99.70765182096511 51.056794445961714,114.48114035651088 72.9634919743985,105.8208248722367 75.15416172891855,60.48127734521404 62.88641111180186,38.57550355885178 52.80933024920523,38.06606579758227 40.5415796302259,48.25481098052114 39.66531172953546,100.72651452384889 54.123732099309564,112.95285049686208 71.21095617301762,105.31139407400042 72.9634919743985,51.311430419329554 58.94320555590093,37.55662798555568 39.66531172953546,51.311430419329554 37.91277592629194,97.66992578282952 53.68559814989567,113.46228050393984 71.64909012243152,104.29253232106566 76.90669753029943,54.368047959171236 62.88641111180186,35.00943813007325 47.98985679075122,36.02831423096359 37.47464197874069,46.72650054609403 33.093302469700575,94.10390318604186" stroke="#4dd2ff" stroke-linecap="round" stroke-linejoin="round" stroke-width="0.5"><title>2022-04-26 8.3km</title></polyline><polyline fill="none" points="132.46910120919347,105.12812556605786 150.30970287509263,112.04271102836356 163.47776601277292,102.65862832963467 165.6016471646726,53.76231977622956 149.03537418693304,35.48781316308305 127.37178644537926,46.84764983225614 124.39835283719003,99.20133005036041 137.56641597114503,114.01830503204837 152.0088077969849,113.52440660726279 164.75209470279515,102.65862832963467 164.75209470279515,49.31717596389353 144.36283565312624,34.5 126.52223398722708,44.87202800670639 124.39835283719003,95.25012894812971 132.46910120919347,110.06711620464921 142.66373073495924,114.01830503204837 156.25657009892166,111.548812398687 164.75209470279515,98.21353008132428 165.6016471646726,50.798891028389335 145.63716434501112,34.993906607851386 126.52223398722708,48.329365665093064 125.67268152721226,100.68302961997688 139.69029712118208,114.51220340514556 154.55746517889202,112.53660960588604 164.75209470279515,100.18912981357425 165.17687093280256,51.29279594682157 152.85836025699973,36.47562612174079 126.52223398722708,45.8598390230909 123.97357660531998,92.78062659827992 143.51328319311142,112.53660960588604 161.77866109274328,104.63422622159123 165.17687093280256,47.341555160004646 154.13268894702196,35.98171966848895 139.69029712118208,36.47562612174079 129.92044382728636,40.92078190250322 124.8231290653348,55.73793791932985 130.34522005915642,108.58541954914108 148.18582172505558,115.00610172841698 161.77866109274328,107.59762152377516 166.02642339468002,51.29279594682157 149.88492664694786,34.5 135.44253481924534,37.46343887550756 125.2479052953422,49.81108103599399 125.2479052953422,100.68302961997688 143.51328319311142,115.00610172841698 163.90254224278033,103.64642737666145 165.6016471646726,51.78670081589371 152.85836025699973,35.48781316308305 128.22133890725672,43.390311101451516 124.39835283719003,98.70743009075522 133.7434298992157,112.53660960588604 144.36283565312624,115.5 164.32731847465038,101.17692937329412 165.17687093280256,48.82327084057033 146.91149303503335,34.5 132.89387744106352,39.932969864457846 125.2479052953422,53.26841511344537 125.67268152721226,102.65862832963467 145.2123881150037,115.00610172841698 163.47776601277292,104.14032682450488 165.17687093280256,49.31717596389353 151.15925533883274,34.993906607851386 131.61954874917865,39.43906376929954 126.94701021723449,47.835460437927395 124.39835283719003,94.2623281609267 129.49566759727895,96.23792953090742" stroke="#4dd2ff" stroke-linecap="round" stroke-linejoin="round" stroke-width="0.5"><title>2022-04-19 4.1km</title></polyline><polyline fill="none" points="49.08917225524783,250.28192375600338 46.13375838287175,257.6455151345581 55.0,262.06366447219625 71.46587729081511,253.22736167907715 75.26569512858987,201.6819338207133 70.62147332914174,191.86369354696944 56.266605945304036,184.99091325839981 35.578708838671446,198.24555203784257 34.73430487327278,252.73645548615605 40.22293063811958,262.06366447219625 57.111009910702705,265.5 74.84349314495921,249.30011070659384 74.84349314495921,198.24555203784257 55.0,184.99091325839981 35.578708838671446,201.19102228991687 36.423112800344825,253.71826782263815 58.799817837774754,264.02728507947177 74.84349314495921,252.73645548615605 73.99908918328583,196.28190418612212 55.84440396539867,184.5 40.64513261988759,196.77281622588634 37.26751676388085,247.33648400148377 56.266605945304036,261.57275919336826 71.46587729081511,248.80920410715044 71.46587729081511,202.6637567295693 58.37761585600674,188.91821750020608 48.24476829171181,190.39095575129613 38.534122709184885,202.6637567295693 38.95632469281554,249.7910172562115 54.57779801823199,261.57275919336826 70.62147332914174,249.30011070659384 71.88807927258313,204.62740193819627 60.48862576298416,188.91821750020608 38.11192072741687,201.19102228991687 39.37852667272091,252.24554924108088 51.622384145855904,260.59094848437235 66.82165549136698,257.15460939891636 72.31028125435114,242.91832093847916 67.666059454903,195.30007995525375 49.08917225524783,188.42730464832857 41.489536583423615,195.30007995525375 37.26751676388085,224.7547184289433 41.91173856519163,254.70007995469496 55.0,261.0818538637832 65.13284756243229,257.6455151345581 72.73248323611915,245.8637634376064 70.62147332914174,199.22737565869465 48.66697027347982,190.39095575129613 37.26751676388085,212.48197463713586 38.534122709184885,250.28192375600338 43.17834450863302,258.6273264545016 62.59963567182422,259.1182320374064 71.46587729081511,247.82739075366408 69.35486738197505,195.7909920956008 56.68880792707205,188.42730464832857 42.75614252872765,193.82734322873875 36.84531478397548,226.71835448779166 44.02274847403169,257.6455151345581 65.97725152783096,256.1727977739647 72.31028125435114,241.44559900276363 68.51046341843903,196.28190418612212 51.20018216595054,189.40913030225784 37.68971874564886,203.15466810716316 38.534122709184885,248.80920410715044 44.02274847403169,257.6455151345581 58.799817837774754,260.59094848437235 71.46587729081511,245.8637634376064 68.93266540020704,195.7909920956008 56.266605945304036,189.40913030225784 41.91173856519163,195.7909920956008 41.489536583423615,228.68198973219842" stroke="#4dd2ff" stroke-linecap="round" stroke-linejoin="round" stroke-width="0.5"><title>2022-04-13 4.1km</title></polyline></svg>