<?xml version="1.0" encoding="utf-8" ?>
<svg baseProfile="full" height="300mm" version="1.1" viewBox="0,0,200,300" width="200mm" xmlns="http://www.w3.org/2000/svg" xmlns:ev="http://www.w3.org/2001/xml-events" xmlns:xlink="http://www.w3.org/1999/xlink"><defs /><rect fill="#222222" height="300" width="200" x="0" y="0" /><text fill="#FFFFFF" style="font-size:12px; font-family:Arial; font-weight:bold;" x="10" y="20">Over 1km Runs</text><text fill="#FFFFFF" style="font-size:4px; font-family:Arial" x="10" y="280">ATHLETE</text><text fill="#FFFFFF" style="font-size:9px; font-family:Arial" x="10" y="290">InzamZ</text><text fill="#FFFFFF" style="font-size:4px; font-family:Arial" x="120" y="280">STATISTICS</text><text fill="#FFFFFF" style="font-size:3px; font-family:Arial" x="120" y="285">Number: 9</text><text fill="#FFFFFF" style="font-size:3px; font-family:Arial" x="120" y="290">Weekly: 1.5</text><text fill="#FFFFFF" style="font-size:3px; font-family:Arial" x="141" y="285">Total: 37.4 km</text><text fill="#FFFFFF" style="font-size:3px; font-family:Arial" x="141" y="290">Avg: 4.2 km</text><text fill="#FFFFFF" style="font-size:3px; font-family:Arial" x="167" y="285">Min: 1.9 km</text><text fill="#FFFFFF" style="font-size:3px; font-family:Arial" x="167" y="290">Max: 8.3 km</text><polyline fill="none" points="33.147866637445986,87.0 32.38651848677546,84.63936564908363 29.08734316378832,80.2131709724199 28.325995012186468,77.55745086609386 29.08734316378832,74.90172828477807 31.878953052684665,75.49188907281496 37.969738262705505,79.03285123058595 41.77647901978344,79.9180910831783 45.07565434277058,79.9180910831783 48.121046947315335,79.03285123058595 51.16643955279142,76.96729050646536 52.942918572574854,74.60664784559049 54.97318030986935,68.40995155787095 54.21183215919882,59.26242288760841 54.465614875778556,44.50828251661733 53.95804944075644,41.852529137860984 52.68913585599512,38.90168914711103 50.658874119631946,36.54101495537907 45.58321977686137,33.0 36.95460739452392,35.065592592349276 34.67056294064969,36.54101495537907 33.147866637445986,38.90168914711103 30.863822183571756,40.96727746119723 28.579777728766203,46.86895010876469 30.61003946699202,53.360775905661285 30.61003946699202,56.606683257967234 30.102474031969905,59.26242288760841 30.102474031969905,65.16405764874071 31.117604901082814,71.65584176965058 32.13273576833308,74.31156737566926 33.65543207153678,76.37713002460077 38.4773036967963,79.9180910831783 41.268913585692644,80.80333065916784 47.10591607913375,79.9180910831783 49.64374325051904,78.1476111037191 51.92778770439327,76.37713002460077 54.71939759235829,71.06568018789403 54.97318030986935,68.11487044626847 55.22696302738041,45.39353309292346 53.704266724176705,39.49185738991946 51.92778770439327,37.13118368620053 46.852133362554014,33.59016946470365 43.29917532298714,33.29508474795148 40.507565435022116,33.59016946470365 37.71595554519445,34.18033880740404 33.147866637445986,38.31152078299783 31.878953052684665,43.91811531293206 32.13273576833308,52.47552780434489 31.625170335173607,67.2296269275248 32.13273576833308,72.83616456622258 33.90921478904784,75.1968086939305 38.984869131818414,78.44269117643125 41.52269630227238,79.32793121156283 47.359698795713484,78.44269117643125 49.897525968030095,76.96729050646536 52.43535313848406,74.90172828477807 53.45048400759697,71.65584176965058 53.95804944075644,63.098486872855574 53.95804944075644,44.50828251661733 53.19670128915459,41.557445275830105 51.67400498688221,38.90168914711103 49.64374325051904,36.24593054340221 47.10591607913375,35.065592592349276 43.80674075614661,34.770508027868345 40.507565435022116,35.065592592349276 37.969738262705505,35.65576162841171 35.68569380789995,37.426268006442115 33.401649354957044,39.78694146475755 32.13273576833308,42.73778053885326 31.878953052684665,52.180445042671636 32.89408391993493,54.836188796442 32.89408391993493,70.1804375865031 33.90921478904784,73.13124518981203 35.68569380789995,75.78696942026727 38.4773036967963,77.55745086609386 41.268913585692644,78.44269117643125 44.314306191168725,78.1476111037191 47.359698795713484,76.96729050646536 49.64374325051904,75.1968086939305 51.42022226937115,73.13124518981203 52.43535313848406,70.1804375865031 52.68913585599512,45.68861655681394 52.43535313848406,42.73778053885326 51.16643955279142,40.08202551002614 48.882395098917186,37.72135229525156 43.04539260454476,35.95084610162303 39.99999999906868,36.83609933592379 37.208390111103654,38.0164365535602 34.92434565722942,40.37710952479392 31.878953052684665,45.39353309292346 29.341125880368054,46.573866767343134 29.08734316378832,52.77061053481884 30.863822183571756,55.42635373910889 31.371387616731226,58.08209446887486 30.102474031969905,61.91816004225984 25.02681969013065,72.83616456622258 24.2654715385288,75.49188907281496 30.102474031969905,75.1968086939305 32.89408391993493,76.08204973791726 34.92434565722942,77.85253099980764 37.208390111103654,79.32793121156283 40.507565435022116,80.50825083092786 43.04539260454476,80.50825083092786 46.34456792846322,79.9180910831783 49.136177816428244,79.03285123058595 51.16643955279142,77.26237070118077 53.45048400759697,74.60664784559049 54.97318030986935,68.40995155787095 55.22696302738041,53.360775905661285 54.71939759235829,43.62303166487254 53.95804944075644,40.67219350859523 52.43535313848406,38.31152078299783 50.405091401189566,36.54101495537907 48.121046947315335,34.770508027868345 45.07565434277058,33.59016946470365 42.030261737294495,33.59016946470365 36.19325924385339,35.65576162841171 33.90921478904784,37.72135229525156 31.878953052684665,40.08202551002614 29.594908598810434,45.98369999113493 29.08734316378832,51.59027942735702 31.117604901082814,57.19684783415869 30.356256749480963,69.00011368887499 31.625170335173607,74.60664784559049 33.65543207153678,76.96729050646536 36.19325924385339,79.03285123058595 41.77647901978344,81.09841045737267 44.82187162525952,80.80333065916784 47.61348151322454,79.9180910831783 49.897525968030095,78.44269117643125 51.92778770439327,76.67221028031781 53.704266724176705,74.01648687524721 54.71939759235829,71.36076099402271 55.48074574396014,47.16403341991827 55.22696302738041,43.91811531293206 54.465614875778556,41.26236138353124 51.42022226937115,36.54101495537907 48.882395098917186,35.065592592349276 46.34456792846322,33.8852541516535 40.76134815160185,33.59016946470365 37.969738262705505,34.47542343311943 33.401649354957044,38.31152078299783 31.625170335173607,40.37710952479392 29.341125880368054,45.39353309292346 29.341125880368054,51.00011369003914 29.84869131539017,53.65585854439996 31.371387616731226,56.01651856000535 31.625170335173607,61.62307825847529 31.117604901082814,70.1804375865031 31.625170335173607,72.83616456622258 32.89408391993493,75.49188907281496 34.92434565722942,77.26237070118077 39.99999999906868,80.2131709724199 42.79160988796502,80.50825083092786 45.58321977686137,80.2131709724199 48.37482966482639,79.03285123058595 50.658874119631946,77.55745086609386 52.43535313848406,75.49188907281496 54.71939759235829,69.88535665767267 55.22696302738041,46.278783394023776 55.22696302738041,43.3279479870107 53.95804944075644,40.37710952479392 50.405091401189566,35.95084610162303 47.86726423166692,33.8852541516535 44.82187162525952,33.29508474795148 41.52269630227238,33.29508474795148 35.93947652634233,35.65576162841171 33.65543207153678,37.72135229525156 32.13273576833308,40.67219350859523 31.371387616731226,43.62303166487254 30.863822183571756,46.278783394023776 31.878953052684665,48.93453264818527 31.878953052684665,52.180445042671636 30.863822183571756,54.54110627947375 30.863822183571756,72.54108391329646 34.41678022313863,77.26237070118077 36.70082467701286,79.03285123058595 39.492434564977884,80.2131709724199 42.53782717138529,80.50825083092786 45.58321977686137,80.2131709724199 48.37482966482639,79.32793121156283 50.91265683621168,77.55745086609386 52.942918572574854,75.1968086939305 54.21183215919882,72.54108391329646 54.97318030986935,69.59027569857426 55.48074574396014,50.705030776094645 55.22696302738041,44.50828251661733 54.71939759235829,41.557445275830105 53.45048400759697,38.90168914711103 51.42022226937115,36.54101495537907 49.136177816428244,34.770508027868345 46.598350645042956,33.8852541516535 43.80674075614661,33.29508474795148 37.969738262705505,34.47542343311943 35.43191109225154,36.24593054340221 33.401649354957044,38.0164365535602 31.878953052684665,40.67219350859523 31.117604901082814,43.91811531293206 30.863822183571756,52.47552780434489 30.61003946699202,69.88535665767267 31.371387616731226,72.83616456622258 34.41678022313863,77.26237070118077 36.19325924385339,79.32793121156283 42.28404445294291,80.80333065916784 48.62861238140613,79.32793121156283 53.19670128915459,75.1968086939305 54.21183215919882,72.54108391329646 54.97318030986935,69.29519470897503 55.22696302738041,61.03291459870525 55.48074574396014,45.39353309292346 55.22696302738041,42.14761296939105 53.95804944075644,39.78694146475755 51.92778770439327,37.13118368620053 49.64374325051904,35.3606771256309 46.852133362554014,33.8852541516535 44.06052347365767,33.59016946470365 40.76134815160185,33.8852541516535 37.969738262705505,34.770508027868345 34.92434565722942,36.54101495537907 32.89408391993493,39.196773283183575 31.625170335173607,42.442696769488975 30.863822183571756,48.344366361619905 31.117604901082814,62.80340521060862 30.61003946699202,68.70503263827413 30.863822183571756,71.65584176965058 32.13273576833308,74.60664784559049 33.65543207153678,76.67221028031781 35.93947652634233,78.73777121910825 41.52269630227238,80.50825083092786 44.314306191168725,80.2131709724199 47.10591607913375,79.62301116273738 51.67400498688221,76.37713002460077 53.19670128915459,74.01648687524721 54.71939759235829,68.40995155787095 55.22696302738041,62.80340521060862 54.97318030986935,43.03286427794956 53.95804944075644,40.08202551002614 52.43535313848406,37.426268006442115 50.405091401189566,35.65576162841171 48.121046947315335,34.18033880740404 42.53782717138529,33.0 36.70082467701286,34.770508027868345 34.41678022313863,36.83609933592379 32.38651848677546,39.49185738991946 31.625170335173607,42.14761296939105 31.117604901082814,47.7541999516543 31.371387616731226,56.31160092470236 30.863822183571756,68.40995155787095 31.117604901082814,71.65584176965058 32.38651848677546,74.60664784559049 34.41678022313863,76.96729050646536 36.95460739452392,78.73777121910825 39.746217283420265,80.2131709724199 42.79160988796502,80.80333065916784 45.83700249250978,80.50825083092786 48.62861238140613,79.32793121156283 50.91265683621168,77.85253099980764 54.21183215919882,72.83616456622258 55.22696302738041,69.88535665767267 55.7345284614712,45.98369999113493 55.22696302738041,42.73778053885326 54.21183215919882,40.08202551002614 52.68913585599512,37.426268006442115 50.405091401189566,35.3606771256309 45.32943705935031,33.0 39.492434564977884,33.8852541516535 36.95460739452392,35.065592592349276 34.67056294064969,36.54101495537907 32.89408391993493,38.90168914711103 31.625170335173607,41.557445275830105 30.863822183571756,50.705030776094645 31.371387616731226,66.04930180916563 30.863822183571756,69.00011368887499 31.371387616731226,71.9509225145448 32.64030120335519,74.60664784559049 34.162997506558895,76.96729050646536 36.70082467701286,78.73777121910825 42.030261737294495,80.80333065916784 45.07565434277058,80.80333065916784 50.15130868460983,78.1476111037191 52.68913585599512,76.08204973791726 53.45048400759697,73.13124518981203 54.97318030986935,70.47551848413423 55.22696302738041,67.5247081303969 55.48074574396014,50.40994783164933 55.22696302738041,44.50828251661733 54.71939759235829,41.557445275830105 53.45048400759697,38.90168914711103 51.42022226937115,36.83609933592379 49.136177816428244,34.770508027868345 43.552958039566875,33.59016946470365 40.507565435022116,33.8852541516535 37.969738262705505,34.47542343311943 33.147866637445986,38.0164365535602 31.878953052684665,40.37710952479392 31.371387616731226,43.3279479870107 31.117604901082814,61.03291459870525 31.625170335173607,72.54108391329646 33.147866637445986,75.1968086939305 35.17812837474048,77.55745086609386 37.71595554519445,79.32793121156283 42.79160988796502,80.80333065916784 48.62861238140613,79.32793121156283 52.942918572574854,75.1968086939305 54.465614875778556,72.54108391329646 55.22696302738041,69.88535665767267 55.48074574396014,45.09844959760085 54.97318030986935,42.14761296939105 53.95804944075644,39.49185738991946 50.405091401189566,35.65576162841171 44.82187162525952,33.29508474795148 38.984869131818414,33.59016946470365 36.19325924385339,34.770508027868345 34.162997506558895,36.54101495537907 32.64030120335519,38.90168914711103 31.371387616731226,41.557445275830105 30.863822183571756,44.50828251661733 30.863822183571756,66.04930180916563 31.117604901082814,71.9509225145448 31.878953052684665,74.60664784559049 33.90921478904784,76.96729050646536 36.19325924385339,79.03285123058595 38.984869131818414,80.2131709724199 44.82187162525952,81.09841045737267 47.86726423166692,80.2131709724199 50.405091401189566,78.73777121910825 54.21183215919882,74.31156737566926 54.97318030986935,71.65584176965058 55.22696302738041,68.70503263827413 55.22696302738041,44.80336607270874 54.97318030986935,42.14761296939105 53.704266724176705,39.196773283183575 52.181570421904325,36.83609933592379 49.897525968030095,35.065592592349276 47.10591607913375,33.8852541516535 44.06052347365767,33.29508474795148 41.015130868181586,33.59016946470365 38.22352098021656,34.47542343311943 35.43191109225154,35.95084610162303 33.401649354957044,37.72135229525156 31.878953052684665,40.08202551002614 31.117604901082814,43.03286427794956 30.863822183571756,48.93453264818527" stroke="#4dd2ff" stroke-linecap="round" stroke-linejoin="round" stroke-width="0.5"><title>2023-03-13 6.5km</title></polyline><polyline fill="none" points="90.12140666786581,87.0 87.81212511099875,84.61328104464337 87.55553827062249,84.91162102180533 85.7594303926453,81.62987957126461 85.50284355320036,78.64647500775754 89.09505930915475,78.04979372443631 93.97020926512778,81.33153925440274 99.61511974036694,83.71826092735864 105.51661705505103,82.22656011255458 110.64835384953767,78.94481560355052 112.95763540826738,72.97799782804213 113.47080908808857,66.41448400425725 112.70104856882244,63.13272148510441 112.70104856882244,44.6354446541518 109.6220064908266,38.96690056333318 107.82589861284941,36.878486772533506 105.26003021467477,35.38676170888357 102.18098813761026,34.79007146693766 98.58877238072455,34.49172629928216 92.43068822659552,37.47517658188008 90.89116718806326,40.45862377458252 90.12140666786581,43.74041211837903 90.12140666786581,50.30397759284824 89.86481982842088,53.28741150256246 88.58188563026488,55.67415640526451 88.83847246877849,58.95592741924338 88.06871195044369,65.51945823361166 88.06871195044369,68.20453471131623 87.81212511099875,71.4862914539408 88.32529878988862,74.17136237118393 90.63458034861833,80.4365181166213 93.45703558530658,82.22656011255458 99.35853289999068,84.31494103581645 102.95074865687639,84.01660099695437 105.51661705505103,83.12158069410361 108.59565913211554,81.03319890564308 110.9049406889826,78.64647500775754 112.18787488806993,75.66306735621765 113.72739592660218,68.80121803306974 112.95763540826738,65.22111624875106 113.72739592660218,43.44206787832081 112.70104856882244,40.45862377458252 110.9049406889826,38.071866266895086 108.33907229267061,35.983451827196404 105.51661705505103,34.79007146693766 99.61511974036694,34.19338110135868 93.97020926512778,35.983451827196404 91.40434086788446,38.3702110638842 91.66092770732939,41.05531284236349 90.63458034861833,43.44206787832081 90.12140666786581,46.723852823488414 90.63458034861833,49.707290440332144 89.86481982842088,52.69072496704757 89.60823298804462,55.972499378724024 88.32529878988862,61.64101001387462 87.55553827062249,67.60785126592964 87.55553827062249,73.57468016189523 88.58188563026488,76.55808997596614 92.43068822659552,80.4365181166213 94.73996978346258,81.92821985716 97.30583818256855,82.82324053090997 103.20733549725264,82.82324053090997 106.0297907339409,81.92821985716 110.64835384953767,78.34813438192941 113.72739592660218,73.27633901010267 113.98398276697844,61.64101001387462 113.72739592660218,55.67415640526451 113.98398276697844,46.425508892396465 113.47080908808857,43.44206787832081 112.18787488806993,41.05531284236349 107.82589861284941,36.580141820944846 105.26003021467477,35.08841660292819 99.10194605961442,34.19338110135868 96.53607766330242,34.79007146693766 93.71362242568284,35.983451827196404 91.40434086788446,37.77352143987082 89.60823298804462,40.160279193427414 88.06871195044369,46.723852823488414 88.83847246877849,49.707290440332144 88.83847246877849,55.67415640526451 89.351646149531,58.35924205835909 87.81212511099875,63.72940585762262 86.78577775135636,70.29292579763569 90.12140666786581,78.64647500775754 92.17410138715059,81.33153925440274 94.22679610457271,83.12158069410361 97.56242502108216,84.01660099695437 100.89805393852293,84.01660099695437 106.54296441283077,83.12158069410361 108.59565913211554,81.03319890564308 111.16152752935886,79.83983720396645 113.72739592660218,74.76804445777088 114.2405696073547,71.4862914539408 113.72739592660218,68.20453471131623 114.2405696073547,64.92277423106134 114.49715644586831,59.25427005300298 113.98398276697844,56.569185234140605 114.2405696073547,53.58575472328812 113.47080908808857,44.33710050676018 110.39176701009274,38.3702110638842 102.69416181743145,33.59669061284512 96.53607766330242,34.49172629928216 93.97020926512778,35.38676170888357 90.12140666786581,39.56358994101174 88.58188563026488,44.93378877127543 87.81212511099875,57.4642137857154 88.06871195044369,60.745982759865 86.78577775135636,63.72940585762262 88.06871195044369,66.11614211113192 88.32529878988862,68.80121803306974 87.55553827062249,71.78463279036805 88.06871195044369,75.06638545496389 89.60823298804462,77.1547715680208 92.17410138715059,79.24315616767853 97.56242502108216,81.92821985716 102.95074865687639,82.82324053090997 108.33907229267061,80.4365181166213 110.64835384953767,78.34813438192941 113.47080908808857,72.97799782804213 114.49715644586831,61.64101001387462 114.2405696073547,58.65758475405164 113.47080908808857,55.972499378724024 113.72739592660218,44.33710050676018 112.70104856882244,41.65200178697705 110.64835384953767,39.56358994101174 106.28637757338583,35.68510678317398 103.46392233576626,34.79007146693766 94.99655662383884,36.580141820944846 92.43068822659552,38.668555828975514 89.351646149531,44.93378877127543 88.58188563026488,58.35924205835909 88.83847246877849,64.62443218450062 89.60823298804462,67.90619300422259 88.32529878988862,70.88960868725553 88.83847246877849,74.76804445777088 90.12140666786581,77.4531123181805 94.48338294401765,81.62987957126461 97.30583818256855,82.82324053090997 100.38488025870174,82.82324053090997 106.54296441283077,81.03319890564308 111.16152752935886,76.25974913313985 112.95763540826738,73.27633901010267 113.72739592660218,60.745982759865 113.47080908808857,44.93378877127543 110.9049406889826,38.96690056333318 108.85224597156048,37.17683169222437 103.46392233576626,33.59669061284512 100.64146709814668,33.0 94.48338294401765,34.19338110135868 90.89116718806326,39.26524526835419 88.32529878988862,45.82882093661465 88.06871195044369,51.49735152744688 86.78577775135636,54.480784201063216 87.81212511099875,57.76255657384172 86.78577775135636,67.60785126592964 87.04236459173262,70.29292579763569 86.78577775135636,73.27633901010267" stroke="#4dd2ff" stroke-linecap="round" stroke-linejoin="round" stroke-width="0.5"><title>2023-03-12 2.9km</title></polyline><polyline fill="none" points="151.17598177865148,80.16004638839513 155.51058722101152,81.24003995815292 159.84519266150892,80.88004213850945 163.56056875549257,79.08005248242989 166.3471008259803,76.92006366536953 168.51440354809165,73.6800779227633 169.75286224484444,70.08009022520855 170.06247691996396,62.880103644449264 169.44324757158756,59.64010481815785 169.13363289646804,42.00005824305117 167.8951741978526,38.76003996049985 165.7278714776039,35.88002117210999 162.63172473199666,34.08000822016038 159.22596331313252,33.0 155.51058722101152,33.0 152.4144404772669,34.44001088500954 149.00867905654013,36.96002849750221 146.84137633629143,39.480044283671305 145.602917637676,42.72006189613603 144.0548442658037,69.72009124956094 144.0548442658037,77.28006189432926 145.91253231279552,80.52004428207874 148.07983503490686,83.04002849571407 152.1048258021474,85.20001351134852 156.43943124450743,85.92000821838155 163.56056875549257,83.04002849571407 166.03748615272343,80.88004213850945 167.8951741978526,78.00005824165419 169.13363289646804,74.40007501537912 168.82401822134852,42.72006189613603 167.58555952459574,38.400037741987035 164.799027454108,35.52001865650527 162.01249538362026,33.360002777772024 158.29711929149926,33.0 153.6528991740197,33.0 150.24713775515556,35.16001610364765 147.46060568466783,38.04003548622131 145.29330296441913,41.64005636097863 144.67407361604273,45.240073507418856 144.9836882892996,62.880103644449264 146.22214698791504,67.20009738067165 145.602917637676,71.52008575107902 145.602917637676,75.84006875287741 146.5317616611719,79.44005048833787 149.00867905654013,82.68003086326644 152.72405515052378,84.48001865507104 156.43943124450743,85.20001351134852 160.4644220136106,84.8400161024183 163.8701834306121,83.40002609184012 166.65671550109982,80.52004428207874 169.44324757158756,76.20006709452718 168.82401822134852,61.440104538341984 169.44324757158756,41.64005636097863 168.51440354809165,38.400037741987035 166.03748615272343,35.52001865650527 162.32211006060243,33.72000551712699 158.91634863987565,33.0 155.51058722101152,33.0 151.79521112702787,34.8000135126058 148.69906438328326,36.60002609342337 146.5317616611719,39.480044283671305 146.22214698791504,43.08006366714835 160.15480733662844,40.92005248530768 173.4682383388281,37.68003319459967 176.87399975769222,37.68003319459967 173.77785301208496,38.76003996049985 170.68170626834035,40.56005049054511 167.58555952459574,40.200048458529636 162.32211006060243,35.16001610364765 159.22596331313252,33.72000551712699 155.82020189613104,33.72000551712699 149.62790840677917,35.88002117210999 147.15099101141095,38.04003548622131 144.0548442658037,44.880071961088106 144.67407361604273,48.480085753137246 144.67407361604273,52.44009661790915 145.602917637676,55.68010215414688 146.22214698791504,77.28006189432926 147.77022035978734,80.52004428207874 150.24713775515556,82.68003086326644 156.43943124450743,85.56001088418998 159.5355779901147,84.8400161024183 164.799027454108,80.88004213850945 167.27594484947622,74.76007350580767 167.58555952459574,63.96010258095339 167.27594484947622,60.720104762585834 167.8951741978526,57.12010364397429 168.82401822134852,46.320077925454825 167.8951741978526,42.72006189613603 163.2509540822357,37.68003319459967 159.22596331313252,36.24002365232445 154.89135787263513,35.88002117210999 151.17598177865148,36.96002849750221 148.07983503490686,39.120042141061276 145.602917637676,42.36006008880213 144.67407361604273,46.6800793223083 144.9836882892996,54.60010064416565 144.0548442658037,57.840104166418314 143.74522959254682,72.9600806820672 144.9836882892996,80.16004638839513 147.15099101141095,83.04002849571407 149.93752308003604,85.20001351134852 153.9625138491392,86.28000551578589 158.29711929149926,86.64000277640298 162.32211006060243,85.20001351134852 165.10864212922752,83.04002849571407 167.27594484947622,80.16004638839513 168.82401822134852,76.92006366536953 169.44324757158756,72.9600806820672 168.82401822134852,68.6400941007305 169.13363289646804,49.56008916348219 167.8951741978526,41.28005444188602 165.7278714776039,37.68003319459967 162.94133940711617,35.52001865650527 156.1298165693879,33.360002777772024 149.00867905654013,34.8000135126058 145.91253231279552,37.320030864095315 144.0548442658037,40.92005248530768 143.12600024230778,44.5200703763403 143.12600024230778,56.400102972984314 143.74522959254682,67.56009661825374 143.4356149174273,75.84006875287741 147.15099101141095,82.68003086326644 149.93752308003604,85.56001088418998 153.6528991740197,87.0 161.08365136012435,85.20001351134852 164.48941277898848,83.04002849571407 168.51440354809165,77.28006189432926 168.82401822134852,66.48009879840538" stroke="#4dd2ff" stroke-linecap="round" stroke-linejoin="round" stroke-width="0.5"><title>2023-03-10 2.4km</title></polyline><polyline fill="none" points="54.70211617555469,132.26633935119025 49.48080388922244,126.19529257435352 43.16026796307415,123.31952940602787 36.56492612697184,123.95858811936341 32.992449298501015,125.87576346611604 30.79400202073157,127.7929376210086 28.5955547420308,130.66869662050158 26.397107462398708,136.73973459750414 27.221525192260742,139.93501294590533 25.297883823513985,157.5089847203344 26.67191337235272,165.1775955853518 27.49633110128343,167.7337949727662 28.870360650122166,170.60951675125398 31.068807929754257,172.846187394578 33.81686702836305,174.44380828924477 36.83973203599453,175.72190440888517 43.16026796307415,175.72190440888517 46.18313297070563,174.44380828924477 49.205997980199754,172.20713880471885 52.503668896853924,166.77522045047954 53.60289253760129,153.35514587839134 53.60289253760129,136.10067853075452 53.05328071769327,132.58586779842153 51.12963934894651,129.7101105854381 48.10677434038371,127.7929376210086 46.18313297070563,124.91717594210058 38.76337340660393,124.27811742690392 32.992449298501015,126.51482165022753 30.79400202073157,128.43199540791102 28.5955547420308,131.9468108713627 27.771137012168765,135.46162233268842 27.221525192260742,144.4083970747888 27.221525192260742,154.31372456881218 27.771137012168765,165.1775955853518 28.5955547420308,168.37284448812716 32.442837479524314,173.16571163921617 37.9389556767419,175.72190440888517 41.23662659432739,176.36095227161422 45.083909331820905,175.72190440888517 50.30522161908448,172.52666311571375 53.32808662671596,167.41427016467787 53.87769844662398,164.21902026887983 53.60289253760129,157.82851055334322 54.15250435657799,140.25454059848562 53.32808662671596,133.86398125533015 52.503668896853924,130.98822523327544 50.30522161908448,128.11246653157286 45.358715240843594,125.23670514975674 41.51143250335008,123.63905877945945 34.36647884733975,125.23670514975674 29.6947783799842,129.7101105854381 28.870360650122166,132.58586779842153 27.49633110128343,135.7811504479032 25.847495642490685,151.43798760371283 26.397107462398708,154.63325073290616 25.847495642490685,163.89949509804137 28.045942921191454,169.65094312280416 29.969584290869534,172.52666311571375 32.442837479524314,174.44380828924477 35.465702487155795,175.72190440888517 38.4885674957186,176.36095227161422 42.0610443232581,176.0414283568971 48.65638615936041,173.4852358510252 52.77847480773926,168.05331974686123 53.87769844662398,164.8580705130007 54.42731026746333,158.14803635375574 53.87769844662398,151.75751406583004 54.42731026746333,138.65690200263634 54.15250435657799,135.46162233268842 53.32808662671596,132.58586779842153 51.67925116792321,129.7101105854381 49.48080388922244,127.15387970232405 46.45793888159096,125.55623432481661 43.70987978205085,124.59764670068398 37.38934385497123,124.91717594210058 34.36647884733975,126.19529257435352 31.89322565961629,127.7929376210086 28.045942921191454,133.86398125533015 27.221525192260742,140.25454059848562 27.49633110128343,143.4498153065797 26.67191337235272,147.28414059057832 26.397107462398708,154.63325073290616 26.397107462398708,161.66281797131523 27.221525192260742,164.53854540758766 29.6947783799842,170.28999224188738 35.190896577201784,175.08285641483963 38.4885674957186,176.0414283568971 45.083909331820905,175.08285641483963 48.10677434038371,173.4852358510252 50.85483343806118,171.56809008284472 52.77847480773926,169.01189387170598 54.42731026746333,162.94091938459314 54.70211617555469,139.93501294590533 54.42731026746333,134.18350953632034 53.60289253760129,130.98822523327544 51.4044452579692,128.75152425142005 48.65638615936041,126.51482165022753 42.33585023321211,124.27811742690392 35.74050839710981,125.55623432481661 33.26725520938635,127.15387970232405 30.79400202073157,129.7101105854381 28.870360650122166,132.26633935119025 27.49633110128343,138.97642978816293 27.221525192260742,145.04745142091997 26.397107462398708,148.5622479596641 26.397107462398708,155.9113550586626 25.572689732536674,159.10661355615593 25.847495642490685,162.6213940808084 27.221525192260742,169.3314185142517 28.5955547420308,171.88761445973068 30.79400202073157,174.12428417685442 33.81686702836305,175.72190440888517 36.83973203599453,176.36095227161422 40.412208864465356,177.0 43.70987978205085,176.36095227161422 46.73274479061365,175.08285641483963 51.12963934894651,170.28999224188738 53.05328071769327,167.41427016467787 53.60289253760129,164.53854540758766 53.05328071769327,161.3432925355155 53.87769844662398,144.7279242638033 53.60289253760129,141.21312335785478 54.42731026746333,138.01784633402713 52.503668896853924,131.30775381298736 50.58002752996981,128.11246653157286 47.8319684304297,125.87576346611604 44.534297512844205,124.27811742690392 41.23662659432739,123.31952940602787 35.190896577201784,124.59764670068398 29.6947783799842,129.39058184088208 28.320748831145465,131.9468108713627 27.221525192260742,135.7811504479032 27.221525192260742,146.64508670708165 26.397107462398708,158.14803635375574 28.320748831145465,168.37284448812716 29.41997247096151,171.56809008284472 31.34361383970827,173.8047600304708 34.64128475822508,175.72190440888517 38.21376158576459,176.36095227161422 41.23662659432739,176.36095227161422 44.534297512844205,175.72190440888517 47.557162520475686,174.12428417685442 50.30522161908448,171.88761445973068 53.60289253760129,166.45569554297253 54.42731026746333,162.6213940808084 53.87769844662398,148.24272116669454 54.15250435657799,135.14209418278188 51.4044452579692,129.07105306372978 49.205997980199754,126.8343506923411 43.70987978205085,124.27811742690392 36.83973203599453,124.91717594210058 33.81686702836305,126.8343506923411 29.41997247096151,130.98822523327544 27.771137012168765,134.18350953632034 26.397107462398708,140.893595804926 26.67191337235272,153.67467214120552 25.847495642490685,157.18945885449648 26.12230155337602,164.21902026887983 28.5955547420308,170.92904122848995 30.519196109846234,173.4852358510252 33.54206111840904,175.08285641483963 36.83973203599453,176.36095227161422 40.137402954511344,176.36095227161422 43.16026796307415,176.0414283568971 46.45793888159096,175.08285641483963 48.93119207024574,173.16571163921617 51.12963934894651,170.60951675125398 53.32808662671596,165.1775955853518 53.87769844662398,158.78708785469644 54.42731026746333,145.04745142091997 53.87769844662398,141.5326508784201 53.87769844662398,138.3373741847463 51.67925116792321,131.62728235917166 50.03041570819914,128.75152425142005 47.282356611453,125.87576346611604 43.98468569200486,124.59764670068398 40.96182068437338,124.27811742690392 34.91609066724777,125.55623432481661 31.89322565961629,127.7929376210086 28.045942921191454,132.58586779842153 27.221525192260742,135.46162233268842 25.572689732536674,159.4261392231565 27.221525192260742,169.970467699226 31.61841974966228,174.76333236834034 37.38934385497123,177.0 44.534297512844205,176.6804761523381 47.282356611453,175.08285641483963 49.755609799176455,172.846187394578 53.60289253760129,167.09474532376043 53.87769844662398,163.5799698936753 52.77847480773926,160.70424156286754 53.87769844662398,157.18945885449648 53.60289253760129,153.99419837188907 54.70211617555469,143.76934259594418 53.87769844662398,134.18350953632034 50.30522161908448,127.7929376210086 47.557162520475686,125.55623432481661 41.78623841423541,123.0 38.76337340660393,123.0 35.465702487155795,124.59764670068398 32.992449298501015,126.51482165022753 28.870360650122166,131.30775381298736 27.221525192260742,134.8225660000462 26.94671928230673,138.01784633402713 26.397107462398708,145.04745142091997 26.67191337235272,148.5622479596641 26.12230155337602,158.78708785469644 25.572689732536674,162.30186874372885 26.94671928230673,168.05331974686123 28.5955547420308,170.92904122848995 31.068807929754257,173.4852358510252 34.09167293738574,174.76333236834034" stroke="#4dd2ff" stroke-linecap="round" stroke-linejoin="round" stroke-width="0.5"><title>2022-11-10 4.1km</title></polyline><polyline fill="none" points="113.8776941364631,136.4202065821737 113.32808248791844,132.58586779981852 112.22885918896645,129.7101105854381 109.7556067686528,126.83435069350526 103.9846844561398,123.63905877992511 100.41220873687416,123.0 96.56492719426751,124.27811742736958 90.7940048808232,128.75152425281703 88.59555828385055,131.62728235893883 87.77114081010222,135.1420941830147 86.94672333821654,146.3255597166717 86.94672333821654,166.1361706033349 87.77114081010222,169.33141851355322 89.41997575759888,171.5680900819134 92.4428398264572,174.1242841759231 95.46570389624685,175.72190440865234 99.03817961458117,176.04142835573293 102.61065533291548,175.72190440865234 106.1831310512498,174.76333236834034 109.20599512010813,172.20713880378753 111.40444171521813,169.33141851355322 112.77847083844244,166.45569554297253 113.8776941364631,159.74566485802643 114.15249996166676,136.100678531453 113.32808248791844,132.9053962128237 111.95405336469412,130.02963929832913 106.73274269979447,124.27811742736958 100.13740291260183,123.63905877992511 96.56492719426751,124.27811742736958 93.26725730113685,125.8757634672802 91.06881070509553,127.79293762193993 89.14516993332654,130.3491679765284 86.94672333821654,137.0592625818681 86.94672333821654,150.4794080206193 85.84750004019588,156.86993295536377 86.39711168874055,160.70424156356603 86.39711168874055,163.8994950975757 88.59555828385055,170.60951675125398 92.99245147686452,175.08285641553812 96.01531554572284,176.04142835573293 99.31298543978482,176.68047615140676 106.1831310512498,174.44380828831345 111.12963589187711,169.33141851355322 112.77847083844244,165.8166456304025 113.8776941364631,162.62139408127405 113.32808248791844,154.95277686417103 114.15249996166676,148.56224795919843 113.32808248791844,141.8521783668548 113.8776941364631,135.78115044813603 113.32808248791844,132.26633935282007 111.40444171521813,129.0710530639626 105.08390775229782,123.9585881207604 101.78623785916716,123.0 99.03817961458117,123.0 95.74050972145051,123.9585881207604 92.71764565166086,125.55623432504945 90.51919905655086,128.1124665325042 88.59555828385055,131.30775381345302 87.22152916248888,138.0178463337943 87.22152916248888,151.4379876041785 87.77114081010222,157.82851055450737 86.94672333821654,165.17759558488615 88.0459466362372,168.6923691967968 89.96958740707487,171.5680900819134 95.19089807197452,175.08285641553812 98.48856796696782,175.72190440865234 104.53429610468447,175.08285641553812 107.5571601735428,173.80476003023796 109.7556067686528,171.24856567196548 112.50366501417011,166.1361706033349 113.32808248791844,162.9409193843603 113.05327666271478,157.18945885449648 113.8776941364631,147.92319434089586 113.32808248791844,134.50303778634407 109.7556067686528,128.75152425281703 107.00754852499813,126.51482165162452 103.43507280573249,125.23670515068807 96.56492719426751,124.91717594233342 93.81686894968152,126.19529257551767 91.06881070509553,129.0710530639626 88.87036410905421,131.94681087252684 87.22152916248888,135.4616223324556 86.67191751394421,138.65690200356767 86.94672333821654,141.8521783668548 86.12230586446822,144.7279242647346 86.94672333821654,163.8994950975757 88.0459466362372,167.09474532376043 91.06881070509553,172.52666311571375 96.01531554572284,176.04142835573293 99.31298543978482,176.36095227045007 102.88546115718782,176.04142835573293 106.1831310512498,174.76333236834034 109.20599512010813,172.84618739341386 111.12963589187711,170.28999224188738 113.60288831219077,163.8994950975757 114.42730578500777,150.79893458122388 114.15249996166676,133.544452941278 112.50366501417011,130.02963929832913 110.03041259385645,127.47340867924504 107.5571601735428,124.91717594233342 104.25949028041214,123.63905877992511 100.41220873687416,123.31952940695919 97.11453884281218,123.63905877992511 94.36648059915751,124.5976467016153 91.34361653029919,126.83435069350526 89.41997575759888,130.02963929832913 88.0459466362372,133.544452941278 87.49633498769253,137.0592625818681 87.77114081010222,144.40839707455598 87.22152916248888,151.11846110969782 87.22152916248888,164.53854540805332 88.59555828385055,167.41427016397938 90.51919905655086,170.28999224188738 92.71764565166086,172.52666311571375 95.46570389624685,174.44380828831345 103.43507280573249,174.76333236834034 106.1831310512498,174.1242841759231 109.20599512010813,172.20713880378753 111.12963589187711,169.01189387170598 113.60288831219077,166.45569554297253 114.42730578500777,163.26044465508312 114.42730578500777,146.3255597166717 113.8776941364631,133.22492459323257 112.22885918896645,130.66869662166573 105.35871357750148,124.27811742736958 102.0610436834395,123.63905877992511 96.01531554572284,124.5976467016153 93.26725730113685,126.19529257551767 89.14516993332654,130.3491679765284 87.49633498769253,133.22492459323257 86.67191751394421,136.100678531453 86.67191751394421,148.56224795919843 85.57269421499223,164.53854540805332 85.84750004019588,167.41427016397938 87.22152916248888,169.97046769876033 89.14516993332654,172.52666311571375 94.09167477395386,176.04142835573293 97.11453884281218,177.0 99.8625970883295,176.04142835573293 102.61065533291548,176.04142835573293 105.63351940270513,175.08285641553812 111.95405336469412,169.01189387170598 114.42730578500777,163.26044465508312 113.60288831219077,140.57406821846962 113.8776941364631,137.37879053200595 113.05327666271478,134.183509538183 111.40444171521813,130.98822523350827 108.65638347156346,128.1124665325042 105.90832522604614,126.19529257551767 102.88546115718782,125.55623432504945 96.01531554572284,125.23670515068807 92.71764565166086,126.83435069350526 90.2443932313472,129.0710530639626 87.22152916248888,134.82256600097753 86.67191751394421,138.0178463337943 86.39711168874055,147.92319434089586 86.67191751394421,163.5799698929768 87.49633498769253,166.45569554297253 90.51919905655086,171.5680900819134" stroke="#4dd2ff" stroke-linecap="round" stroke-linejoin="round" stroke-width="0.5"><title>2022-11-09 3.1km</title></polyline><polyline fill="none" points="169.80766118038446,129.70812350232154 168.07689744234085,127.024875768926 165.76921245921403,124.67703217780218 162.30768498405814,123.0 159.13461813144386,123.33540650433861 151.3461813116446,125.68325106799603 146.73081134539098,130.7143408297561 145.8654294759035,133.73299093497917 146.44235072098672,147.81998756853864 145.8654294759035,151.8448324969504 145.8654294759035,165.2609461408574 147.0192719688639,168.6149658705108 151.05772069003433,173.645988953067 154.2307875417173,175.65839599748142 158.55769688636065,176.66459905193187 162.01922436151654,176.32919806824066 168.36535806581378,173.645988953067 170.9615036714822,170.9627776145935 172.98072803206742,167.60876031592488 174.1345705250278,141.44730620319024 173.55764927901328,134.40380168776028 171.82688554096967,131.04974653571844 166.9230549512431,126.01865729503334 160.00000000093132,124.00621941057034 153.0769450487569,126.35406348784454 148.17311445903033,131.72055784310214 147.0192719688639,135.41001755697653 147.0192719688639,145.47215905063786 145.8654294759035,163.2485326367896 146.73081134539098,166.9379564402625 148.17311445903033,170.6273760406766 153.65386629570276,174.98759378795512 157.40385439340025,175.993797050789 165.19229121413082,175.65839599748142 170.38458242546767,171.29817915405147 172.6922674095258,164.925543977879 172.6922674095258,134.06839632848278 171.2499642940238,130.3789350874722 168.94227931182832,127.6956879098434 165.76921245921403,125.68325106799603 162.01922436151654,124.67703217780218 155.09616941120476,125.68325106799603 152.21156318113208,127.024875768926 149.90387819707394,129.37271765666083 147.88465383648872,132.7267745458521 147.0192719688639,136.75163822784089 147.3077325904742,142.78892437485047 146.73081134539098,146.47837148117833 146.73081134539098,153.52184974146076 146.15389010030776,156.5404785927385 146.44235072098672,163.58393497462384 147.0192719688639,166.60255444957875 150.19233882054687,173.31058765691705 156.82693314831704,176.66459905193187 160.00000000093132,177.0 163.17306685261428,176.66459905193187 168.94227931182832,173.98139021382667 170.9615036714822,170.9627776145935 172.4038067869842,167.60876031592488 173.26918865647167,163.919337276835 172.98072803206742,160.2299100367818 172.98072803206742,149.1616031001322 174.1345705250278,138.42866328614764 172.4038067869842,131.72055784310214 170.6730430489406,128.36649991292506 168.07689744234085,126.01865729503334 162.30768498405814,123.0 158.55769688636065,124.67703217780218 155.38463003374636,125.01243850938044 152.21156318113208,126.68946964549832 149.61541757453233,129.70812350232154 148.17311445903033,132.7267745458521 147.3077325904742,135.74542277655564 146.44235072098672,160.56531268637627 147.3077325904742,167.9441622023005 148.7500357059762,170.9627776145935 151.05772069003433,173.98139021382667 153.94232691824436,175.65839599748142 156.82693314831704,176.32919806824066 164.03844872117043,175.65839599748142 166.9230549512431,173.98139021382667 171.53842491842806,168.6149658705108 172.11534616351128,165.2609461408574 172.6922674095258,140.44109221012332 171.53842491842806,137.08704330935143 170.6730430489406,133.0621800441295 168.36535806581378,130.3789350874722 163.17306685261428,127.36028185649775 159.71153937652707,127.024875768926 153.94232691824436,129.03731177700683 151.3461813116446,131.38515220675617 149.32695695199072,133.73299093497917 149.0384963285178,148.1553915028926" stroke="#4dd2ff" stroke-linecap="round" stroke-linejoin="round" stroke-width="0.5"><title>2022-11-08 1.9km</title></polyline><polyline fill="none" points="32.40567819029093,261.5660779650789 41.16835720092058,265.98114030458964 51.97566131595522,257.83025134401396 53.43610781803727,225.22649295139126 50.80730411410332,218.77362735010684 40.876267900690436,214.35850146738812 29.776874486356974,223.52837165561505 29.484785185195506,257.4906305302866 39.707910699769855,265.98114030458964 51.97566131595522,259.52835488086566 52.559839917346835,223.1887472907547 41.46044650208205,215.03775199037045 29.19269588496536,225.90574122359976 29.776874486356974,258.1698721211869 41.46044650208205,265.6415203360375 52.26775061711669,257.4906305302866 52.85192921757698,224.54724453948438 43.21298230532557,214.69812674610876 32.69776748958975,218.09437760175206 29.484785185195506,224.20762027939782 29.776874486356974,259.52835488086566 42.9208930041641,265.3019003313966 52.85192921757698,255.4529049147386 52.559839917346835,223.52837165561505 41.752535802312195,215.03775199037045 29.19269588496536,225.22649295139126 29.19269588496536,258.1698721211869 40.58417860139161,264.9622802915983 51.97566131595522,257.83025134401396 52.559839917346835,222.16987398685887 42.9208930041641,213.67925080424175 28.900606584735215,222.84912289120257 28.316427985206246,254.7736627617851 39.707910699769855,265.98114030458964 51.6835720166564,259.52835488086566 53.14401851873845,223.52837165561505 44.089250206016004,214.35850146738812 36.49492839537561,214.69812674610876 29.484785185195506,222.84912289120257 28.316427985206246,257.1510096825659 38.831642798148096,265.98114030458964 49.054768312722445,263.6037997833919 53.43610781803727,257.4906305302866 53.72819711826742,225.22649295139126 42.33671440370381,214.01887615397573 28.608517283573747,223.1887472907547 28.316427985206246,255.79252593871206 31.52941028866917,262.5849390318617 40.876267900690436,265.98114030458964 53.72819711826742,255.4529049147386 53.14401851873845,222.50949845672585 42.33671440370381,214.35850146738812 28.900606584735215,223.1887472907547 28.02433868404478,257.1510096825659 31.821499588899314,263.9434199628886 44.673428806476295,265.98114030458964 54.020286419428885,253.75479926750995 51.09939341433346,216.39625261328183 41.16835720092058,213.0 28.900606584735215,219.45287695876323 25.979713580571115,252.39631411759183 34.450303291901946,266.66038013622165 51.6835720166564,263.6037997833919 54.31237571965903,224.88686876255088 35.326571193523705,236.77369444607757 30.945231687277555,259.18873424385674 43.21298230532557,265.3019003313966 53.43610781803727,256.1321469275281 53.43610781803727,223.52837165561505 44.96551810763776,215.71700237272307 38.24746419861913,215.3773771985434 29.776874486356974,222.50949845672585 28.02433868404478,253.75479926750995 35.910749793983996,265.3019003313966 51.97566131595522,259.52835488086566 53.14401851873845,223.1887472907547 43.21298230532557,214.35850146738812 29.484785185195506,222.16987398685887 28.02433868404478,256.1321469275281 40.58417860139161,267.0 52.559839917346835,259.52835488086566 54.020286419428885,224.20762027939782 45.84178600739688,214.35850146738812 35.61866049468517,215.03775199037045 28.316427985206246,223.1887472907547 27.73224938288331,254.4340416325722 37.66328559629619,266.66038013622165 52.26775061711669,261.5660779650789 53.14401851873845,224.20762027939782 44.38133950531483,214.69812674610876 34.450303291901946,215.71700237272307 30.06896378658712,220.81137575372122 28.316427985206246,257.4906305302866 41.16835720092058,266.66038013622165 53.43610781803727,257.1510096825659 53.72819711826742,225.56611710460857 42.9208930041641,214.69812674610876 30.06896378658712,224.20762027939782 30.06896378658712,257.1510096825659 39.41582139860839,264.62266021757387 51.97566131595522,256.81138879968785 51.97566131595522,222.50949845672585 44.38133950531483,214.69812674610876 37.95537489745766,215.3773771985434 28.900606584735215,224.54724453948438 28.900606584735215,258.84911357215606 42.9208930041641,266.32076023775153 53.43610781803727,257.83025134401396 53.43610781803727,223.8679959848523 43.797160904854536,214.69812674610876 30.06896378658712,222.16987398685887 28.316427985206246,256.471767880721 37.37119629699737,266.32076023775153 51.97566131595522,260.5472165814135 53.43610781803727,230.32085156347603 45.25760740786791,215.71700237272307 38.53955349791795,215.3773771985434 30.361053086817265,222.16987398685887 29.776874486356974,257.1510096825659 39.41582139860839,265.3019003313966 50.80730411410332,260.2075960494112 51.97566131595522,224.20762027939782 42.628803703933954,215.03775199037045 29.776874486356974,224.20762027939782 28.608517283573747,255.1132838553749 39.123732099309564,265.6415203360375 51.09939341433346,259.52835488086566 54.604465019889176,226.24536530626938 45.25760740786791,213.33962542004883 35.326571193523705,214.01887615397573 28.316427985206246,221.1510003642179 25.395534980110824,252.73593545728363" stroke="#4dd2ff" stroke-linecap="round" stroke-linejoin="round" stroke-width="0.5"><title>2022-04-26 8.3km</title></polyline><polyline fill="none" points="91.64606747310609,260.08541704388335 103.53980191703886,264.6951406856533 112.31851067580283,258.4390855531674 113.73443144373596,225.84154651756398 102.69024945795536,213.65854210895486 88.24785763118416,221.23176655475982 86.26556855812669,256.1342200336512 95.04427731502801,266.01220335485414 104.67253853194416,265.6829377382528 113.16806313581765,258.4390855531674 113.16806313581765,222.87811730941758 99.57522376906127,213.0 87.6814893251285,219.91468533780426 86.26556855812669,253.5000859652646 91.64606747310609,263.37807746976614 98.44248715694994,266.01220335485414 107.5043800668791,264.3658749323804 113.16806313581765,255.47568672103807 113.73443144373596,223.86592735210434 100.42477623000741,213.3292710718233 87.6814893251285,222.21957710990682 87.11512101814151,257.12201974657364 96.4601980810985,266.34146893699653 106.37164345290512,265.0244064037688 113.16806313581765,256.7927532088943 113.45124728884548,224.19519729795866 105.23890683799982,214.31708408123814 87.6814893251285,220.57322601531632 85.98238440323621,251.85375106544234 99.0088554630056,265.0244064037688 111.18577406182885,259.75615081447177 113.45124728884548,221.56103677349165 106.08845929894596,213.98781311232597 96.4601980810985,214.31708408123814 89.94696255214512,217.28052126825787 86.54875271115452,227.15862527955323 90.23014670610428,262.3902796995826 102.12388115096837,266.6707344856113 111.18577406182885,261.73174768243916 114.01761559676379,224.19519729795866 103.25661776587367,213.0 93.62835654709488,214.97562591684982 86.83193686418235,223.20738735748455 86.83193686418235,257.12201974657364 99.0088554630056,266.6707344856113 112.60169482883066,259.09761825134046 113.73443144373596,224.5244672105182 105.23890683799982,213.65854210895486 88.81422593817115,218.9268740674015 86.26556855812669,255.80495339399204 92.4956199331209,265.0244064037688 99.57522376906127,267.0 112.88487898278981,257.45128624886274 113.45124728884548,222.5488472271245 101.27432869002223,213.0 91.92925162706524,216.62197990971617 86.83193686418235,225.51227674237452 87.11512101814151,258.4390855531674 100.14159207697958,266.6707344856113 112.31851067580283,259.42688454990275 113.45124728884548,222.87811730941758 104.10617022588849,213.3292710718233 91.07969916705042,216.29270917968825 87.96467347908765,221.89030695869587 86.26556855812669,252.84155210736208 89.66377839911729,254.158619687194" stroke="#4dd2ff" stroke-linecap="round" stroke-linejoin="round" stroke-width="0.5"><title>2022-04-19 4.1km</title></polyline><polyline fill="none" points="156.05944816954434,256.8546158373356 154.0891722543165,261.76367675629444 159.99999999906868,264.70910964813083 170.97725152689964,258.81824111938477 173.5104634175077,224.4546225471422 170.4143155515194,217.90912903146818 160.84440396353602,213.3272755057551 147.05247255787253,222.1637013584841 146.48953658156097,258.49097032425925 150.14862042479217,264.70910964813083 161.40733993891627,267.0 173.22899542935193,256.2000738044735 173.22899542935193,222.1637013584841 159.99999999906868,213.3272755057551 147.05247255787253,224.12734819343314 147.61540853325278,259.14551188168116 162.53321189060807,266.0181900530588 173.22899542935193,258.49097032425925 172.66605945397168,220.8546027909033 160.56293597538024,213.0 150.43008841201663,221.18187748407945 148.17834450863302,254.8909893343225 160.84440396353602,264.3818394620903 170.97725152689964,255.8728027381003 170.97725152689964,225.10917115327902 162.2517439033836,215.9454783333931 155.4965121941641,216.92730383435264 149.02274847216904,225.10917115327902 149.30421646032482,256.52734483755194 159.71853201184422,264.3818394620903 170.4143155515194,256.2000738044735 171.2587195141241,226.41826795879751 163.65908384136856,215.9454783333931 148.74128048401326,224.12734819343314 149.5856844484806,258.1636994939763 157.7482560966164,263.7272989896592 167.88110366091132,261.43640626594424 171.54018750134856,251.94554729247466 168.44403963536024,220.20005330373533 156.05944816954434,215.61820309888572 150.9930243883282,220.20005330373533 148.17834450863302,239.83647895255126 151.27449237555265,259.80005330312997 159.99999999906868,264.05456924275495 166.7552317082882,261.76367675629444 171.82165549043566,253.90917562507093 170.4143155515194,222.81825043912977 155.77798018138856,216.92730383435264 148.17834450863302,231.6546497582458 149.02274847216904,256.8546158373356 152.11889633815736,262.4182176361792 165.06642378028482,262.7454880250152 170.97725152689964,255.21826050244272 169.56991158705205,220.52732806373388 161.12587195076048,215.61820309888572 151.83742835186422,219.21822881908156 147.89687652140856,241.14556965837255 152.68183231540024,261.76367675629444 167.31816768459976,260.7818651825655 171.54018750134856,250.9637326686643 169.0069756116718,220.8546027909033 157.46678810939193,216.27275353483856 148.4598124967888,225.43644540500827 149.02274847216904,255.8728027381003 152.68183231540024,261.76367675629444 162.53321189060807,263.7272989896592 170.97725152689964,253.90917562507093 169.28844359889627,220.52732806373388 160.84440396353602,216.27275353483856 151.27449237555265,220.52732806373388 150.9930243883282,242.4546598214656" stroke="#4dd2ff" stroke-linecap="round" stroke-linejoin="round" stroke-width="0.5"><title>2022-04-13 4.1km</title></polyline></svg>