<?xml version="1.0" encoding="utf-8" ?>
<svg baseProfile="full" height="200mm" version="1.1" viewBox="0,0,200,200" width="200mm" xmlns="http://www.w3.org/2000/svg" xmlns:ev="http://www.w3.org/2001/xml-events" xmlns:xlink="http://www.w3.org/1999/xlink"><defs /><rect fill="#1a1a1a" height="200" width="200" x="0" y="0" /><text alignment-baseline="middle" fill="#e1ed5e" style="dominant-baseline: central; font-size:9.0px; font-family:Arial;" text-anchor="middle" x="100.0" y="100.0">2023</text><line stroke="#e1ed5e" stroke-width="0.3" x1="100.0" x2="100.0" y1="15.0" y2="10.0" /><path d="M 100.0 14.0 a86.0,86.0 0 0,1 42.46469731375804,11.215312516191453" fill="none" id="id13" stroke="none" /><text fill="#e1ed5e" style="font-size:6.75px; font-family:Arial;" text-anchor="middle"><textPath startOffset="22.20632615414155" xlink:href="#id13">January</textPath></text><line stroke="#e1ed5e" stroke-width="0.3" x1="143.23703022742887" x2="145.7803849466894" y1="26.81831364943548" y2="22.513508569990506" /><path d="M 143.74570117128098 25.957352633546492 a86.0,86.0 0 0,1 28.547481713284135,27.462654790039103" fill="none" id="id14" stroke="none" /><text fill="#e1ed5e" style="font-size:6.75px; font-family:Arial;" text-anchor="middle"><textPath startOffset="19.985693538727396" xlink:href="#id14">February</textPath></text><line stroke="#e1ed5e" stroke-width="0.3" x1="172.23445277983987" x2="176.4835382374775" y1="55.19839476539836" y2="52.563006222186495" /><path d="M 173.08426987136738 54.67131705675599 a86.0,86.0 0 0,1 12.851231095245387,41.99856678651699" fill="none" id="id15" stroke="none" /><text fill="#e1ed5e" style="font-size:6.75px; font-family:Arial;" text-anchor="middle"><textPath startOffset="22.20632615414155" xlink:href="#id15">March</textPath></text><path d="M 119.34039704204932 91.81776055985345 l 20.22565161468684 -8.556759408017756 a42.961218427158926,42.961218427158926 0 0,0 0.2822722118044286,0.683544550515426 l -20.369945513377466 8.207340287049027" fill="#ffc512" stroke="none" /><path d="M 119.61058180528143 92.48833698450437 l 25.243541078505952 -9.669319135064628 a48.03205687175773,48.03205687175773 0 0,0 0.2890967425437694,0.7746355401597887 l -25.406242409551346 9.233360457875506" fill="#f0ff19" stroke="none" /><path d="M 119.7369772167798 92.82701384747503 l 56.75274293001598 -20.6255818549925 a81.38450510633895,81.38450510633895 0 0,0 0.46717387430416585,1.320763452968363 l -57.09936988512995 19.64562077559752" fill="#49eeff" stroke="none" /><path d="M 120.18372546131832 94.20196356495316 l 24.907411080507735 -7.154976281471917 a46.91472192252553,46.91472192252553 0 0,0 0.21628408272860664,0.7780889213742257 l -25.026881933802706 6.725176056678739" fill="#fffe18" stroke="none" /><path d="M 120.45610955862082 95.25157060432595 l 39.57137511711627 -9.18561177504899 a61.62350541670976,61.62350541670976 0 0,0 0.23095789375739995,1.0353389514224407 l -39.7236273978757 8.503094654076586" fill="#44ff2d" stroke="none" /><path d="M 120.53481517161879 95.60439243477599 l 61.60444551485638 -13.186822695672053 a84.0,84.0 0 0,0 0.2904828163400124,1.4164973753463528 l -61.822307627111385 12.124449664162288" fill="#4dd2ff" stroke="none" /><path d="M 120.67395015179393 96.31383870115 l 39.3850346087988 -7.02234402534941 a61.00617785725899,61.00617785725899 0 0,0 0.17543092936028856,1.0354032756599405 l -39.500077399679306 6.343354961373631" fill="#4bff2c" stroke="none" /><path d="M 120.83666639777658 97.38593545837742 l 61.64156096093988 -7.733243683137994 a83.1247542897681,83.1247542897681 0 0,0 0.1658918623308376,1.4212601679975856 l -61.7655431762743 6.671039776815555" fill="#4cdbff" stroke="none" /><path d="M 120.91429891909075 98.10471618934814 l 59.774569175356135 -5.4168573225914125 a81.0195090229231,81.0195090229231 0 0,0 0.11391156307585272,1.3900095969342285 l -59.85895522225148 4.387133808449415" fill="#49f2ff" stroke="none" /><path d="M 120.96714384426684 98.82574320788733 l 31.71706211265805 -1.7763018124107497 a52.76676371912919,52.76676371912919 0 0,0 0.042983282496664214,0.9073091580202859 l -31.74293900338821 1.230081547767464" fill="#b0ff20" stroke="none" /><path d="M 120.98425023603335 99.18683210126433 l 32.04997566754737 -1.2419796311500375 a53.07403083016804,53.07403083016804 0 0,0 0.027518393530923026,0.9132015112107463 l -32.066605755533935 0.6901079725142921" fill="#acff20" stroke="none" /><line stroke="#e1ed5e" stroke-width="0.3" x1="184.98032266829074" x2="189.97916517819016" y1="98.17113171792111" y2="98.06355123074" /><path d="M 185.9800911702706 98.14961562048488 a86.0,86.0 0 0,1 -9.607161424134198,41.387399972396054" fill="none" id="id16" stroke="none" /><text fill="#e1ed5e" style="font-size:6.75px; font-family:Arial;" text-anchor="middle"><textPath startOffset="21.466115282336823" xlink:href="#id16">April</textPath></text><path d="M 120.99980553446 99.90962569577887 l 9.54940093531377 -0.04109659319660852 a30.54948936610455,30.54948936610455 0 0,0 -0.0022631392100546533,0.5258738500744818 l -9.548693498814211 -0.12328673508155802" fill="#ff0000" stroke="none" /><path d="M 120.99824983174949 100.27111621757518 l 20.522801364504847 0.26497752548779097 a41.52451190493785,41.52451190493785 0 0,0 -0.0153797643158223,0.7146372141328171 l -20.515199537504017 -0.618204555410723" fill="#ffb010" stroke="none" /><path d="M 120.9764740272857 100.99374915477107 l 13.568781702194963 0.6428137221865647 a34.58399964529049,34.58399964529049 0 0,0 -0.033288992082653006,0.5943973159157631 l -13.55570635922478 -0.8762827544377512" fill="#ff4306" stroke="none" /><path d="M 120.92983693683757 101.71520430193887 l 29.331344026660485 2.4037094798206593 a50.429671450318494,50.429671450318494 0 0,0 -0.07834706622290898,0.8645533472140695 l -29.285622364160503 -2.908244215583299" fill="#d0ff1d" stroke="none" /><path d="M 120.81339534386255 102.79330883721812 l 35.57266151785532 4.774109564516337 a56.8915919067114,56.8915919067114 0 0,0 -0.13861487090872054,0.9694720842885415 l -35.48521259593 -5.385727120785288" fill="#7cff26" stroke="none" /><path d="M 120.13307415673323 105.97154293290107 l 22.237404575089695 6.59569497944896 a44.19494243360281,44.19494243360281 0 0,0 -0.22260198571942094,0.7274761689957638 l -22.120575816864143 -6.97749812099678" fill="#ffd714" stroke="none" /><path d="M 119.26925614724726 108.34839909993367 l 28.36007545935144 12.286993676853651 a51.90734692067809,51.90734692067809 0 0,0 -0.36226116472248016,0.8168032922947257 l -28.144373209897687 -12.773345305641064" fill="#bcff1f" stroke="none" /><line stroke="#e1ed5e" stroke-width="0.3" x1="174.80103733775053" x2="179.2010983576182" y1="140.37084112569926" y2="142.7455964860345" /><path d="M 175.68104954172406 140.8457921977663 a86.0,86.0 0 0,1 -30.038265399797805,32.042727171017184" fill="none" id="id17" stroke="none" /><text fill="#e1ed5e" style="font-size:6.75px; font-family:Arial;" text-anchor="middle"><textPath startOffset="22.206326154141568" xlink:href="#id17">May</textPath></text><path d="M 117.75023020441432 111.22182372390056 l 29.027729739262522 18.351540373714137 a55.34222077710942,55.34222077710942 0 0,0 -0.5159875084795992,0.8008240717400826 l -28.707537367405873 -18.848486045375672" fill="#8fff24" stroke="none" /><path d="M 116.0416608686014 113.55231037782055 l 20.68433246862138 17.474530590623818 a48.07768138218471,48.07768138218471 0 0,0 -0.5395174161991114,0.6275806421939176 l -20.380472542851493 -17.827988331979263" fill="#f0ff19" stroke="none" /><path d="M 115.56566222782051 114.09645910891815 l 20.937415719782038 18.961186502737917 a49.247158629047746,49.247158629047746 0 0,0 -0.5744413524852249,0.6234426345777124 l -20.607927959301094 -19.318780392116963" fill="#e0ff1b" stroke="none" /><path d="M 115.32070863581623 114.36230785411682 l 35.50769694962019 33.286480860874384 a69.67017927609702,69.67017927609702 0 0,0 -0.8277263473161545,0.8678677659546608 l -34.92946405092507 -33.89275574341155" fill="#38ff84" stroke="none" /><path d="M 114.81725581225074 114.88116024355365 l 19.041841347110246 19.123965733546314 a47.98736347378845,47.98736347378845 0 0,0 -0.5903589351815866,0.5777904721602161 l -18.709832459552864 -19.448906308629102" fill="#f1ff19" stroke="none" /><path d="M 113.75828350139079 115.86535959552629 l 20.983614011654 24.197246834967554 a53.028406319741066,53.028406319741066 0 0,0 -0.6947593000314597,0.5920889479679347 l -20.563989235045494 -24.554860173158435" fill="#adff20" stroke="none" /><path d="M 113.48314897796784 116.09983520530334 l 23.564473622820746 28.137651126384842 a57.70165974490474,57.70165974490474 0 0,0 -0.7669646127311062,0.6311596615927084 l -23.076638881544948 -28.539105906834727" fill="#72ff27" stroke="none" /><path d="M 113.20401910651253 116.32954008644616 l 28.57751664826988 35.34209545704452 a66.45039239739289,66.45039239739289 0 0,0 -0.8956326511463788,0.7115447452964415 l -27.96492650440615 -35.82877411634609" fill="#34ff59" stroke="none" /><path d="M 112.92097659922987 116.55440617244103 l 25.75468156035438 32.996999577988205 a62.858160535611354,62.858160535611354 0 0,0 -0.858676211305282,0.6583963029968485 l -25.182876620555604 -33.43543522281242" fill="#36ff2f" stroke="none" /><path d="M 111.7513745106137 117.40417183066458 l 12.588339287466654 18.643744170002936 a43.49567697787499,43.49567697787499 0 0,0 -0.6241118080413043,0.41362727459306753 l -12.265552780685386 -18.857669465687323" fill="#ffcd13" stroke="none" /><line stroke="#e1ed5e" stroke-width="0.3" x1="143.8653032363475" x2="146.44561519142675" y1="172.8068346515853" y2="177.08958963109032" /><path d="M 144.38136562736335 173.6633856474863 a86.0,86.0 0 0,1 -40.68145358897372,12.25698825130547" fill="none" id="id18" stroke="none" /><text fill="#e1ed5e" style="font-size:6.75px; font-family:Arial;" text-anchor="middle"><textPath startOffset="21.466115282336833" xlink:href="#id18">June</textPath></text><line stroke="#e1ed5e" stroke-width="0.3" x1="102.19456741930631" x2="102.32365962044197" y1="184.97166512339345" y2="189.96999836594603" /><path d="M 102.22038585953345 185.97133177190398 a86.0,86.0 0 0,1 -42.740103519485714,-10.115201625700543" fill="none" id="id19" stroke="none" /><text fill="#e1ed5e" style="font-size:6.75px; font-family:Arial;" text-anchor="middle"><textPath startOffset="22.20632615414155" xlink:href="#id19">July</textPath></text><line stroke="#e1ed5e" stroke-width="0.3" x1="58.666819895761336" x2="56.23545636021788" y1="174.27360380694188" y2="178.64263932499728" /><path d="M 58.180547188652646 175.14741091055294 a86.0,86.0 0 0,1 -31.652253787137756,-30.449443065178592" fill="none" id="id20" stroke="none" /><text fill="#e1ed5e" style="font-size:6.75px; font-family:Arial;" text-anchor="middle"><textPath startOffset="22.20632615414155" xlink:href="#id20">August</textPath></text><line stroke="#e1ed5e" stroke-width="0.3" x1="26.63291911575756" x2="22.317208475507996" y1="142.92168965132927" y2="145.44649492493687" /><path d="M 25.769776987707644 143.4266507060508 a86.0,86.0 0 0,1 -11.730757126820373,-40.83630448921669" fill="none" id="id21" stroke="none" /><text fill="#e1ed5e" style="font-size:6.75px; font-family:Arial;" text-anchor="middle"><textPath startOffset="21.46611528233685" xlink:href="#id21">September</textPath></text><line stroke="#e1ed5e" stroke-width="0.3" x1="15.007084014347285" x2="10.007500721073583" y1="101.09737516637583" y2="101.16192664675087" /><path d="M 14.007167355692545 101.11028546245083 a86.0,86.0 0 0,1 10.666146001902534,-42.60595125391555" fill="none" id="id22" stroke="none" /><text fill="#e1ed5e" style="font-size:6.75px; font-family:Arial;" text-anchor="middle"><textPath startOffset="22.20632615414155" xlink:href="#id22">October</textPath></text><path d="M 81.43458229118936 90.18545643968196 l -20.349493408884335 -10.757688979823929 a44.01803106664104,44.01803106664104 0 0,0 0.35988282964247426,-0.6668082265981198 l 20.161302480023387 11.10637818975452" fill="#ffd513" stroke="none" /><path d="M 81.6062741919709 89.86733742301443 l -16.509253108818964 -9.094551745285418 a39.84850948108955,39.84850948108955 0 0,0 0.33613614097434014,-0.5979486877148285 l 16.35025932655219 9.377383942935031" fill="#ff960d" stroke="none" /><line stroke="#e1ed5e" stroke-width="0.3" x1="26.266209847984243" x2="21.928928074336255" y1="57.711370442889674" y2="55.22380399835377" /><path d="M 25.398753493254645 57.213857153982495 a86.0,86.0 0 0,1 29.58750427330803,-30.492523968695096" fill="none" id="id23" stroke="none" /><text fill="#e1ed5e" style="font-size:6.75px; font-family:Arial;" text-anchor="middle"><textPath startOffset="21.46611528233685" xlink:href="#id23">November</textPath></text><path d="M 82.95767976084542 87.72973835380427 l -25.608440589332798 -18.437763284147742 a52.55540119123276,52.55540119123276 0 0,0 0.5349073404243795,-0.7296130111979 l 25.287270636394783 18.87583873901714" fill="#b3ff20" stroke="none" /><path d="M 83.39014120810768 87.1503855733568 l -19.770987827277516 -15.29510717685211 a45.99664503923974,45.99664503923974 0 0,0 0.4898553318758825,-0.6220665258945668 l 19.504778414807664 15.633166096699725" fill="#fff116" stroke="none" /><path d="M 85.05521093208273 85.24692304244772 l -27.352800635575463 -27.001918257081666 a59.43539114113004,59.43539114113004 0 0,0 0.7250104482576352,-0.7218970229852552 l 26.883954387150517 27.46875113071703" fill="#5dff2a" stroke="none" /><path d="M 85.57189188830299 84.74124197986013 l -27.0155187873501 -28.570846626143858 a60.320879088396566,60.320879088396566 0 0,0 0.7605949154843398,-0.7068900813142901 l 26.519715988070903 29.031641293532797" fill="#53ff2b" stroke="none" /><path d="M 86.10567301691215 84.25364557470407 l -12.230564443116846 -13.860822678000632 a39.48537562258908,39.48537562258908 0 0,0 0.5135095688233616,-0.44531043787629854 l 11.99016107564671 14.06929810929661" fill="#ff910d" stroke="none" /><path d="M 86.65592168130627 83.78471172551755 l -19.2525816270951 -23.395108575914875 a51.298399373346534,51.298399373346534 0 0,0 0.6866574153775556,-0.5552292094129058 l 18.847020813153044 23.723043882591913" fill="#c4ff1e" stroke="none" /><path d="M 87.51073957382395 83.11751280151077 l -22.969858078262913 -31.04974367774642 a59.62254474512644,59.62254474512644 0 0,0 0.8303282124580214,-0.603268758553425 l 22.431984549451112 31.440531671116513" fill="#5bff2a" stroke="none" /><path d="M 87.80319425747018 82.90503203632743 l -11.73406944922831 -16.446399619090798 a41.2032781070336,41.2032781070336 0 0,0 0.5809051235508075,-0.40696116224816076 l 11.449233186093842 16.6459456241029" fill="#ffab0f" stroke="none" /><path d="M 88.09926311788651 82.69761687909137 l -24.037163266629122 -34.94743326391295 a63.415896897769755,63.415896897769755 0 0,0 0.904719286217653,-0.6108705006340399 l 23.43203928600493 35.35601567684566" fill="#2fff2f" stroke="none" /><path d="M 88.39885842347998 82.49532879139004 l -10.256725279074033 -15.47611521702381 a39.56638240640842,39.56638240640842 0 0,0 0.5709485018842951,-0.37136078759134983 l 9.98880975140545 15.650374928774696" fill="#ff920d" stroke="none" /><path d="M 88.70189139769569 82.29822771554957 l -16.78110019369765 -26.292472905668177 a52.19133622027461,52.19133622027461 0 0,0 0.761448849047287,-0.47681919941796164 l 16.32603219227812 26.57743644640907" fill="#b8ff1f" stroke="none" /><line stroke="#e1ed5e" stroke-width="0.3" x1="56.762969772571076" x2="54.21961505331055" y1="26.818313649435495" y2="22.513508569990535" /><path d="M 56.25429882871897 25.957352633546506 a86.0,86.0 0 0,1 42.265352541879196,-11.944610805530505" fill="none" id="id24" stroke="none" /><text fill="#e1ed5e" style="font-size:6.75px; font-family:Arial;" text-anchor="middle"><textPath startOffset="22.20632615414155" xlink:href="#id24">December</textPath></text><path d="M 89.94658935756843 81.56283822128135 l -19.2450282027907 -35.29386305114018 a61.19984924845922,61.19984924845922 0 0,0 0.9292321468853426,-0.49636363151897744 l 18.634651009377052 35.61990540916091" fill="#49ff2c" stroke="none" /></svg>